<?xml version="1.0" encoding="UTF-8" standalone="no"?>
<svg width="20px" height="20px" viewBox="0 0 20 20" version="1.1" xmlns="http://www.w3.org/2000/svg" xmlns:xlink="http://www.w3.org/1999/xlink" xmlns:sketch="http://www.bohemiancoding.com/sketch/ns">
    <!-- Generator: Sketch 3.3.3 (12072) - http://www.bohemiancoding.com/sketch -->
    <title>OVERLAYER#F7C397F4-7095-4D55-B546-7C7A7CA05628 Copy 3</title>
    <desc>Created with Sketch.</desc>
    <defs></defs>
    <g id="v2" stroke="none" stroke-width="1" fill="none" fill-rule="evenodd" sketch:type="MSPage">
        <g id="Artboard-4" sketch:type="MSArtboardGroup" transform="translate(-271.000000, -92.000000)" fill="#959FB1">
            <g id="èœå•æ–‡ä»¶ðŸŒ²" sketch:type="MSLayerGroup" transform="translate(24.000000, 92.000000)">
                <path d="M254.169628,6 L253.201257,4.34413815 C253.094326,4.16129303 252.824407,4 252.607802,4 L250.392198,4 C250.178679,4 250,4.17559285 250,4.39219761 L250,6.5 L250,12.6035932 C250,12.8269653 250.175279,13 250.391496,13 L260.608504,13 C260.827216,13 261,12.8225226 261,12.6035932 L261,6.39640677 C261,6.17303467 260.824721,6 260.608504,6 L254.169628,6 L254.169628,6 Z M255.829352,4 L255.305157,2.73589228 C255.140005,2.33762455 254.64049,2 254.197011,2 L248.802989,2 C248.356755,2 248,2.35951042 248,2.80298901 L248,6.89554644 L248,14.2089071 C248,14.6340103 248.361067,15 248.806465,15 L262.193535,15 C262.644006,15 263,14.6458157 263,14.2089071 L263,4.79109287 C263,4.36598969 262.638933,4 262.193535,4 L255.829352,4 L255.829352,4 Z M264,8.00878477 C264,7.45164833 264.444428,7 265.007045,7 L265.193535,7 C265.638933,7 266,7.36598969 266,7.79109287 L266,17.2089071 C266,17.6458157 265.644006,18 265.193535,18 L251.806465,18 C251.361067,18 251,17.6340103 251,17.2089071 L251,16.9983316 C251,16.4469683 251.446699,16 251.995942,16 L258.5,16 L263.608504,16 C263.827216,16 264,15.8225226 264,15.6035932 L264,12.5 L264,8.00878477 Z" id="Rectangle-388-Copy" sketch:type="MSShapeGroup"></path>
            </g>
        </g>
    </g>
</svg>