<?xml version="1.0" encoding="UTF-8" standalone="no"?>
<svg width="20px" height="20px" viewBox="0 0 20 20" version="1.1" xmlns="http://www.w3.org/2000/svg" xmlns:xlink="http://www.w3.org/1999/xlink" xmlns:sketch="http://www.bohemiancoding.com/sketch/ns">
    <!-- Generator: Sketch 3.3.3 (12072) - http://www.bohemiancoding.com/sketch -->
    <title>OVERLAYER#F7C397F4-7095-4D55-B546-7C7A7CA05628 Copy 6</title>
    <desc>Created with Sketch.</desc>
    <defs></defs>
    <g id="v2" stroke="none" stroke-width="1" fill="none" fill-rule="evenodd" sketch:type="MSPage">
        <g id="Artboard-4" sketch:type="MSArtboardGroup" transform="translate(-391.000000, -92.000000)" fill="#6DADF6">
            <g id="èœå•æ–‡ä»¶ðŸŒ²" sketch:type="MSLayerGroup" transform="translate(24.000000, 92.000000)">
                <path d="M374.169628,6 L373.201257,4.34413815 C373.094326,4.16129303 372.824407,4 372.607802,4 L370.392198,4 C370.178679,4 370,4.17559285 370,4.39219761 L370,6.5 L370,12.6035932 C370,12.8269653 370.175279,13 370.391496,13 L380.608504,13 C380.827216,13 381,12.8225226 381,12.6035932 L381,6.39640677 C381,6.17303467 380.824721,6 380.608504,6 L374.169628,6 L374.169628,6 Z M375.829352,4 L375.305157,2.73589228 C375.140005,2.33762455 374.64049,2 374.197011,2 L368.802989,2 C368.356755,2 368,2.35951042 368,2.80298901 L368,6.89554644 L368,14.2089071 C368,14.6340103 368.361067,15 368.806465,15 L382.193535,15 C382.644006,15 383,14.6458157 383,14.2089071 L383,4.79109287 C383,4.36598969 382.638933,4 382.193535,4 L375.829352,4 L375.829352,4 Z M384,8.00878477 C384,7.45164833 384.444428,7 385.007045,7 L385.193535,7 C385.638933,7 386,7.36598969 386,7.79109287 L386,17.2089071 C386,17.6458157 385.644006,18 385.193535,18 L371.806465,18 C371.361067,18 371,17.6340103 371,17.2089071 L371,16.9983316 C371,16.4469683 371.446699,16 371.995942,16 L378.5,16 L383.608504,16 C383.827216,16 384,15.8225226 384,15.6035932 L384,12.5 L384,8.00878477 Z" id="Rectangle-388-Copy-2" sketch:type="MSShapeGroup"></path>
            </g>
        </g>
    </g>
</svg>