<?xml version="1.0" encoding="UTF-8" standalone="no"?>
<svg width="60px" height="60px" viewBox="0 0 60 60" version="1.1" xmlns="http://www.w3.org/2000/svg" xmlns:xlink="http://www.w3.org/1999/xlink" xmlns:sketch="http://www.bohemiancoding.com/sketch/ns">
    <!-- Generator: Sketch 3.3.3 (12072) - http://www.bohemiancoding.com/sketch -->
    <title>Rectangle 2718 Copy + Rectangle 2718 + Shape</title>
    <desc>Created with Sketch.</desc>
    <defs></defs>
    <g id="v2" stroke="none" stroke-width="1" fill="none" fill-rule="evenodd" sketch:type="MSPage">
        <g id="提示图" sketch:type="MSArtboardGroup" transform="translate(-163.000000, -50.000000)">
            <g id="Rectangle-2718-Copy-+-Rectangle-2718-+-Shape" sketch:type="MSLayerGroup" transform="translate(162.000000, 51.000000)">
                <path d="M8.46256685,20.7274823 C9.01302705,19.7734202 10.3590509,19 11.4507027,19 L50.5478572,19 C51.6476989,19 52.984548,19.7717133 53.535993,20.7274823 L60.7740361,33.2725177 C61.3244963,34.2265798 60.866342,35 59.7696108,35 L44.0253913,35 L44.0253913,46.5228271 L15.8228757,46.2366943 L16.0706787,35 L2.23433553,35 C1.12617173,35 0.673078804,34.2282867 1.22452383,33.2725177 L8.46256685,20.7274823 Z" id="Rectangle-2718-Copy" fill="#FFFFFF" sketch:type="MSShapeGroup"></path>
                <path d="M42.0253913,46.5025359 L42.0253913,35 L42.0253913,33 L44.0253913,33 L59.7696108,33 C59.3359365,33 58.8183858,33.8849734 59.0416961,34.2720168 L51.8036531,21.7269813 C51.6096503,21.390734 50.9334652,21 50.5478572,21 L11.4507027,21 C11.070662,21 10.3866162,21.394709 10.1949068,21.7269813 L2.95686376,34.2720168 C3.17829977,33.8882221 2.6583788,33 2.23433553,33 L16.0706787,33 L18.115271,33 L18.0701926,35.0440953 L17.8229145,46.256986 L17.7991063,46.2567445 L15.8664492,44.2608424 L15.8669741,44.2370388 L44.0253913,44.5227242 L44.0253913,44.5430155 L42.0456816,46.5027417 L42.0253913,46.5025359 L42.0253913,46.5025359 Z M16.0265727,37 L16.0706787,37 L16.0275451,36.9559047 L16.0706787,35 L14.1142985,35 L14.0711649,34.9559047 L14.0701924,35 L2.23433553,35 C1.12617173,35 0.673078804,34.2282867 1.22452383,33.2725177 L8.46256685,20.7274823 C9.01302705,19.7734202 10.3590509,19 11.4507027,19 L50.5478572,19 C51.6476989,19 52.984548,19.7717133 53.535993,20.7274823 L60.7740361,33.2725177 C61.3244963,34.2265798 60.866342,35 59.7696108,35 L44.0253913,35 L44.0253913,46.5228271 L15.8228757,46.2366943 L16.0265727,37 L16.0265727,37 Z" id="Shape" fill="#DDE4EB" sketch:type="MSShapeGroup"></path>
                <path d="M20,33 L2.99630737,33 C1.89473039,33 1,33.8940894 1,34.9970047 L1,57.0029953 C1,58.1050211 1.89377725,59 2.99630737,59 L59.0036926,59 C60.1052696,59 61,58.1059106 61,57.0029953 L61,34.9970047 C61,33.8949789 60.1062227,33 59.0036926,33 L42,33 L42,36.007983 C42,37.1081436 41.1103261,38 40.008845,38 L21.991155,38 C20.8914705,38 20,37.0998238 20,36.007983 L20,33 L20,33 Z" id="Rectangle-2718-Copy-2" fill="#E7EDF3" sketch:type="MSShapeGroup"></path>
                <path d="M42,33 L59.0036926,33 C60.1062227,33 61,33.8949789 61,34.9970047 L61,57.0029953 C61,58.1059106 60.1052696,59 59.0036926,59 L2.99630737,59 C1.89377725,59 1,58.1050211 1,57.0029953 L1,34.9970047 C1,33.8940894 1.89473039,33 2.99630737,33 L20,33 L20,36.007983 C20,37.0998238 20.8914705,38 21.991155,38 L40.008845,38 C41.1103261,38 42,37.1081436 42,36.007983 L42,33 L42,33 Z" id="Rectangle-2718-Copy-3" stroke="#DDE4EB" stroke-width="2" sketch:type="MSShapeGroup"></path>
                <path d="M30,0.666666667 L30,7.33333333 L30,8 L32,8 L32,7.33333333 L32,0.666666667 L32,0 L30,0 L30,0.666666667 Z M16.4673079,3.61324865 L19.8006413,9.38675135 L20.1339746,9.96410162 L21.8660254,8.96410162 L21.5326921,8.38675135 L18.1993587,2.61324865 L17.8660254,2.03589838 L16.1339746,3.03589838 L16.4673079,3.61324865 Z M44.5326921,3.61324865 L41.1993587,9.38675135 L40.8660254,9.96410162 L39.1339746,8.96410162 L39.4673079,8.38675135 L42.8006413,2.61324865 L43.1339746,2.03589838 L44.8660254,3.03589838 L44.5326921,3.61324865 Z" id="Shape" fill="#DDE4EB" sketch:type="MSShapeGroup"></path>
            </g>
        </g>
    </g>
</svg>