<?xml version="1.0" encoding="UTF-8" standalone="no"?>
<svg width="62px" height="78px" viewBox="0 0 62 78" version="1.1" xmlns="http://www.w3.org/2000/svg" xmlns:xlink="http://www.w3.org/1999/xlink" xmlns:sketch="http://www.bohemiancoding.com/sketch/ns">
    <!-- Generator: Sketch 3.4 (15575) - http://www.bohemiancoding.com/sketch -->
    <title>black_list</title>
    <desc>Created with Sketch.</desc>
    <defs></defs>
    <g id="Page-1" stroke="none" stroke-width="1" fill="none" fill-rule="evenodd" sketch:type="MSPage">
        <g id="icon" sketch:type="MSArtboardGroup" transform="translate(-39.000000, -126.000000)">
            <g id="Group" sketch:type="MSLayerGroup" transform="translate(40.000000, 127.000000)">
                <rect id="Rectangle-1032" stroke="#DDE4EB" stroke-width="2" sketch:type="MSShapeGroup" x="0" y="6" width="60" height="70" rx="4"></rect>
                <path d="M22.1258774,3 L15.9901786,3 C13.7852456,3 12,4.790861 12,7 C12,9.20464385 13.7864638,11 15.9901786,11 L44.0098214,11 C46.2147544,11 48,9.209139 48,7 C48,4.79535615 46.2135362,3 44.0098214,3 L37.8737156,3 C37.4295728,1.2772309 35.865327,0 34.0037973,0 L25.9962027,0 C24.1338538,0 22.5694319,1.27477279 22.1258774,3 Z" id="Rectangle-1033" stroke="#DDE4EB" stroke-width="2" fill="#FFFFFF" sketch:type="MSShapeGroup"></path>
                <text id="？" sketch:type="MSTextLayer" font-family="Lantinghei TC" font-size="14" font-weight="526" fill="#398DEE">
                    <tspan x="5" y="30">？</tspan>
                </text>
                <text id="？-copy" sketch:type="MSTextLayer" font-family="Lantinghei TC" font-size="14" font-weight="526" fill="#398DEE">
                    <tspan x="5" y="47">？</tspan>
                </text>
                <text id="？-copy-2" sketch:type="MSTextLayer" font-family="Lantinghei TC" font-size="14" font-weight="526" fill="#398DEE">
                    <tspan x="5" y="64">？</tspan>
                </text>
                <rect id="Rectangle-1035" fill="#DDE4EB" sketch:type="MSShapeGroup" x="25" y="21" width="26" height="2" rx="4"></rect>
                <rect id="Rectangle-1035-Copy" fill="#DDE4EB" sketch:type="MSShapeGroup" x="25" y="28" width="20" height="2" rx="4"></rect>
                <rect id="Rectangle-1035-Copy-3" fill="#DDE4EB" sketch:type="MSShapeGroup" x="25" y="38" width="26" height="2" rx="4"></rect>
                <rect id="Rectangle-1035-Copy-2" fill="#DDE4EB" sketch:type="MSShapeGroup" x="25" y="45" width="20" height="2" rx="4"></rect>
                <rect id="Rectangle-1035-Copy-5" fill="#DDE4EB" sketch:type="MSShapeGroup" x="25" y="55" width="26" height="2" rx="4"></rect>
                <rect id="Rectangle-1035-Copy-4" fill="#DDE4EB" sketch:type="MSShapeGroup" x="25" y="62" width="20" height="2" rx="4"></rect>
            </g>
        </g>
    </g>
</svg>