<?xml version="1.0" encoding="UTF-8" standalone="no"?>
<svg width="30px" height="30px" viewBox="0 0 30 30" version="1.1" xmlns="http://www.w3.org/2000/svg" xmlns:xlink="http://www.w3.org/1999/xlink" xmlns:sketch="http://www.bohemiancoding.com/sketch/ns">
    <!-- Generator: Sketch 3.3.3 (12072) - http://www.bohemiancoding.com/sketch -->
    <title>创建active</title>
    <desc>Created with Sketch.</desc>
    <defs></defs>
    <g id="v2" stroke="none" stroke-width="1" fill="none" fill-rule="evenodd" sketch:type="MSPage">
        <g id="协作icons" sketch:type="MSArtboardGroup" transform="translate(-40.000000, -100.000000)" fill="#398DEE">
            <g id="Group-+-创建-加入" sketch:type="MSLayerGroup" transform="translate(40.748324, 42.000000)">
                <g id="创建-加入-copy" transform="translate(0.000000, 63.000000)" sketch:type="MSShapeGroup">
                    <path d="M18.833,19.333 C18.28,19.333 17.833,18.886 17.833,18.334 C17.833,16.411 17.293,11.937 12.287,11.937 C7.282,11.937 6.742,16.411 6.742,18.334 C6.742,18.886 6.294,19.333 5.742,19.333 C5.189,19.333 4.742,18.886 4.742,18.334 C4.742,13.155 7.633,9.937 12.287,9.937 C16.941,9.937 19.833,13.155 19.833,18.334 C19.833,18.886 19.386,19.333 18.833,19.333" id="Fill-1"></path>
                    <path d="M12.288,3.878 C13.942,3.878 15.288,5.224 15.288,6.878 C15.288,8.532 13.942,9.878 12.288,9.878 C10.633,9.878 9.287,8.532 9.287,6.878 C9.287,5.224 10.633,3.878 12.288,3.878 M12.288,1.878 C9.526,1.878 7.287,4.117 7.287,6.878 C7.287,9.639 9.526,11.878 12.288,11.878 C15.049,11.878 17.288,9.639 17.288,6.878 C17.288,4.117 15.049,1.878 12.288,1.878" id="Fill-2"></path>
                    <path d="M6.159,11.533 C5.995,11.434 5.822,11.348 5.639,11.275 C6.184,10.806 6.537,10.12 6.537,9.344 C6.537,7.931 5.392,6.786 3.979,6.786 C2.566,6.786 1.421,7.931 1.421,9.344 C1.421,10.12 1.774,10.806 2.319,11.275 C0.871,11.852 0,13.25 0,15.312 C0,15.627 0.255,15.881 0.568,15.881 C0.882,15.881 1.137,15.627 1.137,15.312 C1.137,14.512 1.342,12.068 3.979,12.068 C4.621,12.068 5.117,12.214 5.503,12.445 C5.702,12.12 5.917,11.812 6.159,11.533 L6.159,11.533 Z M3.979,10.765 C3.195,10.765 2.558,10.127 2.558,9.344 C2.558,8.56 3.195,7.923 3.979,7.923 C4.763,7.923 5.4,8.56 5.4,9.344 C5.4,10.127 4.763,10.765 3.979,10.765 L3.979,10.765 Z" id="Fill-3"></path>
                    <path d="M22.2516758,3 L20.2487059,3 C19.7047121,3 19.2516758,3.44771525 19.2516758,4 C19.2516758,4.55613518 19.6980614,5 20.2487059,5 L22.2516758,5 L22.2516758,7.00296986 C22.2516758,7.54696369 22.6993911,8 23.2516758,8 C23.807811,8 24.2516758,7.5536144 24.2516758,7.00296986 L24.2516758,5 L26.2546457,5 C26.7986395,5 27.2516758,4.55228475 27.2516758,4 C27.2516758,3.44386482 26.8052902,3 26.2546457,3 L24.2516758,3 L24.2516758,0.997030139 C24.2516758,0.453036308 23.8039606,0 23.2516758,0 C22.6955406,0 22.2516758,0.446385598 22.2516758,0.997030139 L22.2516758,3 Z" id="Rectangle-867"></path>
                </g>
            </g>
        </g>
    </g>
</svg>