<?xml version="1.0" encoding="UTF-8" standalone="no"?>
<svg width="18px" height="17px" viewBox="0 0 18 17" version="1.1" xmlns="http://www.w3.org/2000/svg" xmlns:xlink="http://www.w3.org/1999/xlink" xmlns:sketch="http://www.bohemiancoding.com/sketch/ns">
    <!-- Generator: Sketch 3.3.3 (12072) - http://www.bohemiancoding.com/sketch -->
    <title>Rectangle 1726</title>
    <desc>Created with Sketch.</desc>
    <defs></defs>
    <g id="v2" stroke="none" stroke-width="1" fill="none" fill-rule="evenodd" sketch:type="MSPage">
        <g id="协作icons" sketch:type="MSArtboardGroup" transform="translate(-665.000000, -223.000000)" fill="#C7CFD7">
            <g id="讨论区" sketch:type="MSLayerGroup" transform="translate(645.500000, 158.500000)">
                <g id="新消息" transform="translate(19.000000, 0.000000)" sketch:type="MSShapeGroup">
                    <path d="M16.5,64.5 L18.5,64.5 L18.5,81.5 L0.5,81.5 L0.5,64.5 L2.5,64.5 L2.5,64.5 L2.5,67.5 L6.5,67.5 L6.5,64.5 L12.5,64.5 L12.5,67.5 L16.5,67.5 L16.5,64.5 L16.5,64.5 Z M2.5,69.5 L16.5,69.5 L16.5,79.5 L2.5,79.5 L2.5,69.5 Z M3.5,64.5 L5.5,64.5 L5.5,66.5 L3.5,66.5 L3.5,64.5 Z M13.5,64.5 L15.5,64.5 L15.5,66.5 L13.5,66.5 L13.5,64.5 Z M4.5,71.5 L6.5,71.5 L6.5,73.5 L4.5,73.5 L4.5,71.5 Z M12.5,71.5 L14.5,71.5 L14.5,73.5 L12.5,73.5 L12.5,71.5 Z M8.5,71.5 L10.5,71.5 L10.5,73.5 L8.5,73.5 L8.5,71.5 Z M4.5,75.5 L6.5,75.5 L6.5,77.5 L4.5,77.5 L4.5,75.5 Z M12.5,75.5 L14.5,75.5 L14.5,77.5 L12.5,77.5 L12.5,75.5 Z M8.5,75.5 L10.5,75.5 L10.5,77.5 L8.5,77.5 L8.5,75.5 Z" id="Rectangle-1726"></path>
                </g>
            </g>
        </g>
    </g>
</svg>