<?xml version="1.0" encoding="UTF-8" standalone="no"?>
<svg width="10px" height="12px" viewBox="0 0 10 12" version="1.1" xmlns="http://www.w3.org/2000/svg" xmlns:xlink="http://www.w3.org/1999/xlink" xmlns:sketch="http://www.bohemiancoding.com/sketch/ns">
    <!-- Generator: Sketch 3.3.3 (12072) - http://www.bohemiancoding.com/sketch -->
    <title>删除群</title>
    <desc>Created with Sketch.</desc>
    <defs></defs>
    <g id="v2" stroke="none" stroke-width="1" fill="none" fill-rule="evenodd" sketch:type="MSPage">
        <g id="协作icons" sketch:type="MSArtboardGroup" transform="translate(-124.000000, -1241.000000)" fill="#868686">
            <path d="M125.292893,1252.70531 C125.111929,1252.52375 125,1252.27375 125,1252 L125,1247 C125,1246.4525 125.447715,1246 126,1246 C126.552285,1246 127,1246.4525 127,1247 L127,1251 L131,1251 L131,1247 C131,1246.44924 131.447715,1246 132,1246 C132.552285,1246 133,1246.44924 133,1247 L133,1252 C133,1252.27538 132.888071,1252.52538 132.707107,1252.70654 C132.525044,1252.88807 132.275044,1253 132,1253 L126,1253 C125.724956,1253 125.474956,1252.88807 125.293717,1252.70711 L125.292893,1252.70531 Z M125,1245 L133,1245 C133.550529,1245 134,1244.55228 134,1244 C134,1243.44772 133.550529,1243 133,1243 L125,1243 C124.449471,1243 124,1243.44772 124,1244 C124,1244.55228 124.449471,1245 125,1245 Z M128,1241.50468 C128,1241.22595 128.214035,1241 128.504684,1241 L129.495316,1241 C129.774045,1241 130,1241.21404 130,1241.50468 L130,1243 L128,1243 L128,1241.50468 Z" id="Shape-Copy-12" sketch:type="MSShapeGroup"></path>
        </g>
    </g>
</svg>