<?xml version="1.0" encoding="UTF-8" standalone="no"?>
<svg width="16px" height="16px" viewBox="0 0 16 16" version="1.1" xmlns="http://www.w3.org/2000/svg" xmlns:xlink="http://www.w3.org/1999/xlink" xmlns:sketch="http://www.bohemiancoding.com/sketch/ns">
    <!-- Generator: Sketch 3.3.3 (12072) - http://www.bohemiancoding.com/sketch -->
    <title>彻底删除</title>
    <desc>Created with Sketch.</desc>
    <defs></defs>
    <g id="v2" stroke="none" stroke-width="1" fill="none" fill-rule="evenodd" sketch:type="MSPage">
        <g id="协作icons" sketch:type="MSArtboardGroup" transform="translate(-404.000000, -198.000000)">
            <g id="文件区-icon-+-文件区" sketch:type="MSLayerGroup" transform="translate(22.000000, 170.000000)">
                <g id="文件区-icon" transform="translate(0.000000, 30.000000)"></g>
            </g>
            <path d="M417.374652,213.983781 C417.414709,213.994352 417.456712,214 417.5,214 C417.768066,214 418,213.775509 418,213.498584 L418,203.497361 C418,203.225781 417.776142,202.995945 417.5,202.995945 C417.231934,202.995945 417,203.220437 417,203.497361 L417,212.984795 L406.500347,212.984795 C406.229001,212.984795 406,213.208425 406,213.484288 C406,213.752083 406.224013,213.983781 406.500347,213.983781 L417.374652,213.983781 Z M409,200.997973 L409,199.494887 C409,199.359756 409.056694,199.237275 409.146418,199.147967 L409.148317,199.14481 C409.238042,199.055294 409.360167,199 409.491005,199 L414.508995,199 C414.643812,199 414.765938,199.057268 414.856488,199.145591 C414.945244,199.234177 415,199.356727 415,199.494887 L415,200.997973 L419.503607,200.997973 C419.777757,200.997973 420,201.229671 420,201.497466 C420,201.773328 419.773819,201.996959 419.503607,201.996959 L404.496393,201.996959 C404.222243,201.996959 404,201.76526 404,201.497466 C404,201.221603 404.226181,200.997973 404.496393,200.997973 L409,200.997973 L409,200.997973 Z M410,200.997973 L410,199.998986 L414,199.998986 L414,200.997973 L410,200.997973 L410,200.997973 Z M406,203.505841 C406,203.224233 406.231934,202.995945 406.5,202.995945 C406.776142,202.995945 407,203.218519 407,203.505841 L407,211.490105 C407,211.771712 406.775512,212 406.506439,212 L406.415039,212 C406.185819,212 406,211.777427 406,211.490105 L406,203.505841 Z M410,206.392077 C410,206.17218 410.174187,205.993918 410.406738,205.993918 L410.593262,205.993918 C410.817897,205.993918 411,206.165793 411,206.392077 L411,209.595759 C411,209.815656 410.825813,209.993918 410.593262,209.993918 L410.406738,209.993918 C410.182103,209.993918 410,209.822043 410,209.595759 L410,206.392077 Z M413,206.392077 C413,206.17218 413.174187,205.993918 413.406738,205.993918 L413.593262,205.993918 C413.817897,205.993918 414,206.165793 414,206.392077 L414,209.595759 C414,209.815656 413.825813,209.993918 413.593262,209.993918 L413.406738,209.993918 C413.182103,209.993918 413,209.822043 413,209.595759 L413,206.392077 Z" id="Rectangle-374-Copy-4" fill="#959FB1" sketch:type="MSShapeGroup"></path>
            <g id="Group" sketch:type="MSLayerGroup" transform="translate(40.000000, 40.000000)"></g>
        </g>
    </g>
</svg>