<?xml version="1.0" encoding="UTF-8" standalone="no"?>
<svg width="10px" height="12px" viewBox="0 0 10 12" version="1.1" xmlns="http://www.w3.org/2000/svg" xmlns:xlink="http://www.w3.org/1999/xlink" xmlns:sketch="http://www.bohemiancoding.com/sketch/ns">
    <!-- Generator: Sketch 3.3.3 (12072) - http://www.bohemiancoding.com/sketch -->
    <title>删除群hover </title>
    <desc>Created with Sketch.</desc>
    <defs></defs>
    <g id="v2" stroke="none" stroke-width="1" fill="none" fill-rule="evenodd" sketch:type="MSPage">
        <g id="协作icons" sketch:type="MSArtboardGroup" transform="translate(-124.000000, -1221.000000)" fill="#EE4239">
            <path d="M125.292893,1232.70531 C125.111929,1232.52375 125,1232.27375 125,1232 L125,1227 C125,1226.4525 125.447715,1226 126,1226 C126.552285,1226 127,1226.4525 127,1227 L127,1231 L131,1231 L131,1227 C131,1226.44924 131.447715,1226 132,1226 C132.552285,1226 133,1226.44924 133,1227 L133,1232 C133,1232.27538 132.888071,1232.52538 132.707107,1232.70654 C132.525044,1232.88807 132.275044,1233 132,1233 L126,1233 C125.724956,1233 125.474956,1232.88807 125.293717,1232.70711 L125.292893,1232.70531 Z M125,1225 L133,1225 C133.550529,1225 134,1224.55228 134,1224 C134,1223.44772 133.550529,1223 133,1223 L125,1223 C124.449471,1223 124,1223.44772 124,1224 C124,1224.55228 124.449471,1225 125,1225 Z M128,1221.50468 C128,1221.22595 128.214035,1221 128.504684,1221 L129.495316,1221 C129.774045,1221 130,1221.21404 130,1221.50468 L130,1223 L128,1223 L128,1221.50468 Z" id="Shape-Copy-11" sketch:type="MSShapeGroup"></path>
        </g>
    </g>
</svg>