<?xml version="1.0" encoding="UTF-8" standalone="no"?>
<svg width="20px" height="20px" viewBox="0 0 20 20" version="1.1" xmlns="http://www.w3.org/2000/svg" xmlns:xlink="http://www.w3.org/1999/xlink" xmlns:sketch="http://www.bohemiancoding.com/sketch/ns">
    <!-- Generator: Sketch 3.3.3 (12072) - http://www.bohemiancoding.com/sketch -->
    <title>评论选中</title>
    <desc>Created with Sketch.</desc>
    <defs></defs>
    <g id="v2" stroke="none" stroke-width="1" fill="none" fill-rule="evenodd" sketch:type="MSPage">
        <g id="协作icons" sketch:type="MSArtboardGroup" transform="translate(-360.000000, -103.000000)" fill="#337ED5">
            <path d="M367.028,122.011 C366.719,122.011 366.414,121.868 366.218,121.598 C365.894,121.151 365.993,120.526 366.441,120.201 L369.582,117.029 L376,117.029 L376,108 L364,108 L364,117.008 L364.395,117.008 C364.947,117.008 365.395,117.456 365.395,118.008 C365.395,118.56 364.947,119.008 364.395,119.008 L363.921,119.008 C362.862,119.008 362,118.146 362,117.086 L362,107.923 C362,106.863 362.862,106 363.921,106 L376.077,106 C377.137,106 378,106.863 378,107.923 L378,116.813 C378,117.873 377.137,119.008 376.077,119.008 L370.23,119.008 L367.614,121.821 C367.437,121.949 367.232,122.011 367.028,122.011" id="Imported-Layers-Copy-28" sketch:type="MSShapeGroup"></path>
        </g>
    </g>
</svg>