<?xml version="1.0" encoding="UTF-8" standalone="no"?>
<svg width="20px" height="20px" viewBox="0 0 20 20" version="1.1" xmlns="http://www.w3.org/2000/svg" xmlns:xlink="http://www.w3.org/1999/xlink" xmlns:sketch="http://www.bohemiancoding.com/sketch/ns">
    <!-- Generator: Sketch 3.3.3 (12072) - http://www.bohemiancoding.com/sketch -->
    <title>更多</title>
    <desc>Created with Sketch.</desc>
    <defs></defs>
    <g id="v2" stroke="none" stroke-width="1" fill="none" fill-rule="evenodd" sketch:type="MSPage">
        <g id="协作icons" sketch:type="MSArtboardGroup" transform="translate(-470.000000, -679.000000)" fill="#ADB8C5">
            <g id="Group" sketch:type="MSLayerGroup" transform="translate(342.000000, 681.000000)">
                <path d="M138.493062,10.2607511 C138.207673,10.326319 137.895873,10.2511457 137.669033,10.033044 L135.080605,7.54431943 C134.723217,7.20069826 134.712058,6.63241854 135.055679,6.27503114 C135.3993,5.91764373 135.96758,5.90648399 136.324967,6.25010515 L138.31969,8.1679927 L140.296444,6.19984628 C140.64778,5.85004018 141.216167,5.85128037 141.565974,6.20261633 C141.91578,6.55395228 141.914539,7.12234022 141.563204,7.47214632 L139.018603,10.0056662 C138.870973,10.1526536 138.685019,10.2376584 138.493062,10.2607511 Z M138,14 L138,14 C141.313708,14 144,11.3137085 144,8 C144,4.6862915 141.313708,2 138,2 C134.686292,2 132,4.6862915 132,8 C132,11.3137085 134.686292,14 138,14 L138,14 Z M130,8 C130,3.581722 133.581722,0 138,0 C142.418278,0 146,3.581722 146,8 C146,12.418278 142.418278,16 138,16 C133.581722,16 130,12.418278 130,8 Z" id="Shape-Copy-8" sketch:type="MSShapeGroup"></path>
            </g>
        </g>
    </g>
</svg>