<?xml version="1.0" encoding="UTF-8" standalone="no"?>
<svg width="16px" height="16px" viewBox="0 0 16 16" version="1.1" xmlns="http://www.w3.org/2000/svg" xmlns:xlink="http://www.w3.org/1999/xlink" xmlns:sketch="http://www.bohemiancoding.com/sketch/ns">
    <!-- Generator: Sketch 3.3.3 (12072) - http://www.bohemiancoding.com/sketch -->
    <title>分享2</title>
    <desc>Created with Sketch.</desc>
    <defs></defs>
    <g id="v2" stroke="none" stroke-width="1" fill="none" fill-rule="evenodd" sketch:type="MSPage">
        <g id="协作icons" sketch:type="MSArtboardGroup" transform="translate(-312.000000, -198.000000)">
            <g id="文件区-icon-+-文件区" sketch:type="MSLayerGroup" transform="translate(22.000000, 170.000000)">
                <g id="文件区-icon" transform="translate(0.000000, 30.000000)"></g>
            </g>
            <path d="M321.941,201.628 C322.204,201.857 322.544,202 322.92,202 C323.748,202 324.42,201.328 324.42,200.5 C324.42,199.672 323.748,199 322.92,199 C322.091,199 321.42,199.672 321.42,200.5 C321.42,200.585 321.431,200.668 321.445,200.749 L316.323,204.632 C316.087,204.476 315.804,204.384 315.5,204.384 C314.671,204.384 314,205.055 314,205.884 C314,206.712 314.671,207.384 315.5,207.384 C316.328,207.384 317,206.712 317,205.884 C317,205.725 316.968,205.576 316.923,205.432 L321.941,201.628 Z M322.623,210 C322.314,210 322.027,210.094 321.789,210.254 L318.238,207.606 C318.017,207.441 317.704,207.486 317.539,207.708 C317.374,207.929 317.419,208.243 317.641,208.408 L321.196,211.06 C321.153,211.2 321.123,211.346 321.123,211.5 C321.123,212.328 321.794,213 322.623,213 C323.451,213 324.123,212.328 324.123,211.5 C324.123,210.672 323.451,210 322.623,210 Z" id="Fill-1-Copy" fill="#ADB8C5" sketch:type="MSShapeGroup"></path>
            <g id="Group" sketch:type="MSLayerGroup" transform="translate(40.000000, 40.000000)"></g>
        </g>
    </g>
</svg>