<?xml version="1.0" encoding="UTF-8" standalone="no"?>
<svg width="18px" height="18px" viewBox="0 0 18 18" version="1.1" xmlns="http://www.w3.org/2000/svg" xmlns:xlink="http://www.w3.org/1999/xlink" xmlns:sketch="http://www.bohemiancoding.com/sketch/ns">
    <!-- Generator: Sketch 3.4 (15575) - http://www.bohemiancoding.com/sketch -->
    <title>信息</title>
    <desc>Created with Sketch.</desc>
    <defs></defs>
    <g id="Page-1" stroke="none" stroke-width="1" fill="none" fill-rule="evenodd" sketch:type="MSPage">
        <g id="pdf-预览" sketch:type="MSArtboardGroup" transform="translate(-972.000000, -71.000000)">
            <g id="协作调整-+-中间页-3" sketch:type="MSLayerGroup" transform="translate(-4.000000, 43.000000)" fill="#FFFFFF">
                <g id="协作调整" sketch:type="MSShapeGroup">
                    <rect id="Rectangle-337" x="240" y="4" width="1027" height="748.554913"></rect>
                </g>
            </g>
            <g id="标题" sketch:type="MSLayerGroup" transform="translate(237.000000, 50.000000)">
                <g id="中间页"></g>
            </g>
            <path d="M981,87 L981,87 C984.865993,87 988,83.8659932 988,80 C988,76.1340068 984.865993,73 981,73 C977.134007,73 974,76.1340068 974,80 C974,83.8659932 977.134007,87 981,87 L981,87 Z M981,89 L981,89 C976.029437,89 972,84.9705627 972,80 C972,75.0294373 976.029437,71 981,71 C985.970563,71 990,75.0294373 990,80 C990,84.9705627 985.970563,89 981,89 L981,89 Z M981,77 C981.552285,77 982,76.5522847 982,76 C982,75.4477153 981.552285,75 981,75 C980.447715,75 980,75.4477153 980,76 C980,76.5522847 980.447715,77 981,77 Z M980,78.0420532 L980,85.0420532 L982,85.0420532 L982,78.0420532 L980,78.0420532 L980,78.0420532 Z" id="Shape" fill="#398DEE" sketch:type="MSShapeGroup"></path>
        </g>
    </g>
</svg>