<?xml version="1.0" encoding="UTF-8" standalone="no"?>
<svg width="20px" height="20px" viewBox="0 0 20 20" version="1.1" xmlns="http://www.w3.org/2000/svg" xmlns:xlink="http://www.w3.org/1999/xlink" xmlns:sketch="http://www.bohemiancoding.com/sketch/ns">
    <!-- Generator: Sketch 3.3.3 (12072) - http://www.bohemiancoding.com/sketch -->
    <title>新窗口 hover</title>
    <desc>Created with Sketch.</desc>
    <defs></defs>
    <g id="v2" stroke="none" stroke-width="1" fill="none" fill-rule="evenodd" sketch:type="MSPage">
        <g id="协作icons" sketch:type="MSArtboardGroup" transform="translate(-405.000000, -709.000000)" fill="#398DEE">
            <g id="Group-Copy-5" sketch:type="MSLayerGroup" transform="translate(407.000000, 711.000000)">
                <path d="M10.2805714,4 L1.71942857,4 C0.768857143,4 0,4.76971429 0,5.71942857 L0,14.2805714 C0,15.2311429 0.769714286,16 1.71942857,16 L10.2805714,16 C11.2311429,16 12,15.2302857 12,14.2805714 L12,5.71942857 C12,4.76885714 11.2302857,4 10.2805714,4 L10.2805714,4 Z M10,13.9952 C10,13.9984 9.9984,14 9.9952,14 L2.0048,14 C2.0016,14 2,13.9984 2,13.9952 L2,6.0048 C2,6.0016 2.0016,6 2.0048,6 L9.9952,6 C9.9984,6 10,6.0016 10,6.0048 L10,13.9952 Z M14.281,0 L5.719,0 C4.769,0 4,0.77 4,1.719 L4,3 L6,3 L6,2.005 C6,2.002 6.002,2 6.005,2 L13.995,2 C13.998,2 14,2.002 14,2.005 L14,9.995 C14,9.998 13.998,10 13.995,10 L13,10 L13,12 L14.281,12 C15.231,12 16,11.23 16,10.281 L16,1.719 C16,0.769 15.23,0 14.281,0 Z" id="Fill-1-Copy-6" sketch:type="MSShapeGroup"></path>
            </g>
        </g>
    </g>
</svg>