<?xml version="1.0" encoding="UTF-8" standalone="no"?>
<svg width="20px" height="20px" viewBox="0 0 20 20" version="1.1" xmlns="http://www.w3.org/2000/svg" xmlns:xlink="http://www.w3.org/1999/xlink" xmlns:sketch="http://www.bohemiancoding.com/sketch/ns">
    <!-- Generator: Sketch 3.3.3 (12072) - http://www.bohemiancoding.com/sketch -->
    <title>发布hover</title>
    <desc>Created with Sketch.</desc>
    <defs></defs>
    <g id="v2" stroke="none" stroke-width="1" fill="none" fill-rule="evenodd" sketch:type="MSPage">
        <g id="协作icons" sketch:type="MSArtboardGroup" transform="translate(-280.000000, -218.000000)">
            <g id="文件区-icon-+-文件区" sketch:type="MSLayerGroup" transform="translate(22.000000, 170.000000)">
                <g id="文件区-icon" transform="translate(0.000000, 30.000000)"></g>
            </g>
            <g id="Group" sketch:type="MSLayerGroup" transform="translate(40.000000, 40.000000)"></g>
            <path d="M290.70725,220.29325 L293.70725,223.29325 C294.09825,223.68425 294.09825,224.31625 293.70725,224.70725 C293.51225,224.90225 293.25625,225.00025 293.00025,225.00025 C292.74425,225.00025 292.48825,224.90225 292.29325,224.70725 L291.00025,223.41425 L291.00025,231.00025 C291.00025,231.55225 290.55325,232.00025 290.00025,232.00025 C289.44725,232.00025 289.00025,231.55225 289.00025,231.00025 L289.00025,223.41425 L287.70725,224.70725 C287.51225,224.90225 287.25625,225.00025 287.00025,225.00025 C286.74425,225.00025 286.48825,224.90225 286.29325,224.70725 C285.90225,224.31625 285.90225,223.68425 286.29325,223.29325 L289.29325,220.29325 C289.68425,219.90225 290.31625,219.90225 290.70725,220.29325 Z M296,229.999001 L296,234.001998 L284,234.001998 L284,229.999001 C284,229.44955 283.55,229 283,229 C282.45,229 282,229.44955 282,229.999001 L282,235.031968 C282,235.564436 282.436,236 282.969,236 L297.031,236 C297.564,236 298,235.564436 298,235.031968 L298,229.999001 C298,229.44955 297.55,229 297,229 C296.45,229 296,229.44955 296,229.999001 Z" id="Fill-1-Copy-8" fill="#2A82DC" sketch:type="MSShapeGroup"></path>
        </g>
    </g>
</svg>