<?xml version="1.0" encoding="UTF-8" standalone="no"?>
<svg width="20px" height="20px" viewBox="0 0 20 20" version="1.1" xmlns="http://www.w3.org/2000/svg" xmlns:xlink="http://www.w3.org/1999/xlink" xmlns:sketch="http://www.bohemiancoding.com/sketch/ns">
    <!-- Generator: Sketch 3.3.3 (12072) - http://www.bohemiancoding.com/sketch -->
    <title>编辑hover</title>
    <desc>Created with Sketch.</desc>
    <defs></defs>
    <g id="v2" stroke="none" stroke-width="1" fill="none" fill-rule="evenodd" sketch:type="MSPage">
        <g id="协作icons" sketch:type="MSArtboardGroup" transform="translate(-250.000000, -218.000000)">
            <g id="文件区-icon-+-文件区" sketch:type="MSLayerGroup" transform="translate(22.000000, 170.000000)">
                <g id="文件区-icon" transform="translate(0.000000, 30.000000)"></g>
            </g>
            <g id="Group" sketch:type="MSLayerGroup" transform="translate(40.000000, 40.000000)"></g>
            <path d="M266,236 L254,236 C252.897,236 252,235.103 252,234 L252,222 C252,220.897 252.897,220 254,220 L261.677,220 C262.23,220 262.677,220.448 262.677,221 C262.677,221.552 262.23,222 261.677,222 L254,222 L254,234 L266,234 L266,226.25 C266,225.698 266.448,225.251 267,225.251 C267.552,225.251 268,225.698 268,226.25 L268,234 C268,235.103 267.103,236 266,236 Z M257.896,231.459 C257.646,231.459 257.396,231.366 257.203,231.179 C256.805,230.796 256.792,230.163 257.175,229.765 L266.279,220.307 C266.663,219.909 267.296,219.897 267.693,220.279 C268.091,220.663 268.104,221.295 267.721,221.693 L258.617,231.152 C258.42,231.356 258.158,231.459 257.896,231.459 Z" id="编辑-copy-2" fill="#2A82DC" sketch:type="MSShapeGroup"></path>
        </g>
    </g>
</svg>