<?xml version="1.0" encoding="UTF-8" standalone="no"?>
<svg width="20px" height="20px" viewBox="0 0 20 20" version="1.1" xmlns="http://www.w3.org/2000/svg" xmlns:xlink="http://www.w3.org/1999/xlink" xmlns:sketch="http://www.bohemiancoding.com/sketch/ns">
    <!-- Generator: Sketch 3.3.3 (12072) - http://www.bohemiancoding.com/sketch -->
    <title>评论默认</title>
    <desc>Created with Sketch.</desc>
    <defs></defs>
    <g id="v2" stroke="none" stroke-width="1" fill="none" fill-rule="evenodd" sketch:type="MSPage">
        <g id="协作icons" sketch:type="MSArtboardGroup" transform="translate(-300.000000, -103.000000)" fill="#ADB8C5">
            <path d="M307.028,122.011 C306.719,122.011 306.414,121.868 306.218,121.598 C305.894,121.151 305.993,120.526 306.441,120.201 L309.582,117.029 L316,117.029 L316,108 L304,108 L304,117.008 L304.395,117.008 C304.947,117.008 305.395,117.456 305.395,118.008 C305.395,118.56 304.947,119.008 304.395,119.008 L303.921,119.008 C302.862,119.008 302,118.146 302,117.086 L302,107.923 C302,106.863 302.862,106 303.921,106 L316.077,106 C317.137,106 318,106.863 318,107.923 L318,116.813 C318,117.873 317.137,119.008 316.077,119.008 L310.23,119.008 L307.614,121.821 C307.437,121.949 307.232,122.011 307.028,122.011" id="Imported-Layers-Copy-25" sketch:type="MSShapeGroup"></path>
        </g>
    </g>
</svg>