<?xml version="1.0" encoding="UTF-8" standalone="no"?>
<svg width="20px" height="20px" viewBox="0 0 20 20" version="1.1" xmlns="http://www.w3.org/2000/svg" xmlns:xlink="http://www.w3.org/1999/xlink" xmlns:sketch="http://www.bohemiancoding.com/sketch/ns">
    <!-- Generator: Sketch 3.3.3 (12072) - http://www.bohemiancoding.com/sketch -->
    <title>发布</title>
    <desc>Created with Sketch.</desc>
    <defs></defs>
    <g id="v2" stroke="none" stroke-width="1" fill="none" fill-rule="evenodd" sketch:type="MSPage">
        <g id="协作icons" sketch:type="MSArtboardGroup" transform="translate(-280.000000, -198.000000)">
            <g id="文件区-icon-+-文件区" sketch:type="MSLayerGroup" transform="translate(22.000000, 170.000000)">
                <g id="文件区-icon" transform="translate(0.000000, 30.000000)"></g>
            </g>
            <g id="Group" sketch:type="MSLayerGroup" transform="translate(40.000000, 40.000000)"></g>
            <path d="M290.70725,200.29325 L293.70725,203.29325 C294.09825,203.68425 294.09825,204.31625 293.70725,204.70725 C293.51225,204.90225 293.25625,205.00025 293.00025,205.00025 C292.74425,205.00025 292.48825,204.90225 292.29325,204.70725 L291.00025,203.41425 L291.00025,211.00025 C291.00025,211.55225 290.55325,212.00025 290.00025,212.00025 C289.44725,212.00025 289.00025,211.55225 289.00025,211.00025 L289.00025,203.41425 L287.70725,204.70725 C287.51225,204.90225 287.25625,205.00025 287.00025,205.00025 C286.74425,205.00025 286.48825,204.90225 286.29325,204.70725 C285.90225,204.31625 285.90225,203.68425 286.29325,203.29325 L289.29325,200.29325 C289.68425,199.90225 290.31625,199.90225 290.70725,200.29325 Z M296,209.999001 L296,214.001998 L284,214.001998 L284,209.999001 C284,209.44955 283.55,209 283,209 C282.45,209 282,209.44955 282,209.999001 L282,215.031968 C282,215.564436 282.436,216 282.969,216 L297.031,216 C297.564,216 298,215.564436 298,215.031968 L298,209.999001 C298,209.44955 297.55,209 297,209 C296.45,209 296,209.44955 296,209.999001 Z" id="Fill-1-Copy-7" fill="#398DEE" sketch:type="MSShapeGroup"></path>
        </g>
    </g>
</svg>