<?xml version="1.0" encoding="UTF-8" standalone="no"?>
<svg width="20px" height="20px" viewBox="0 0 20 20" version="1.1" xmlns="http://www.w3.org/2000/svg" xmlns:xlink="http://www.w3.org/1999/xlink" xmlns:sketch="http://www.bohemiancoding.com/sketch/ns">
    <!-- Generator: Sketch 3.3.3 (12072) - http://www.bohemiancoding.com/sketch -->
    <title>评论hover</title>
    <desc>Created with Sketch.</desc>
    <defs></defs>
    <g id="v2" stroke="none" stroke-width="1" fill="none" fill-rule="evenodd" sketch:type="MSPage">
        <g id="协作icons" sketch:type="MSArtboardGroup" transform="translate(-330.000000, -103.000000)" fill="#398DEE">
            <path d="M337.028,122.011 C336.719,122.011 336.414,121.868 336.218,121.598 C335.894,121.151 335.993,120.526 336.441,120.201 L339.582,117.029 L346,117.029 L346,108 L334,108 L334,117.008 L334.395,117.008 C334.947,117.008 335.395,117.456 335.395,118.008 C335.395,118.56 334.947,119.008 334.395,119.008 L333.921,119.008 C332.862,119.008 332,118.146 332,117.086 L332,107.923 C332,106.863 332.862,106 333.921,106 L346.077,106 C347.137,106 348,106.863 348,107.923 L348,116.813 C348,117.873 347.137,119.008 346.077,119.008 L340.23,119.008 L337.614,121.821 C337.437,121.949 337.232,122.011 337.028,122.011" id="Imported-Layers-Copy-27" sketch:type="MSShapeGroup"></path>
        </g>
    </g>
</svg>