<?xml version="1.0" encoding="UTF-8" standalone="no"?>
<svg width="16px" height="16px" viewBox="0 0 16 16" version="1.1" xmlns="http://www.w3.org/2000/svg" xmlns:xlink="http://www.w3.org/1999/xlink" xmlns:sketch="http://www.bohemiancoding.com/sketch/ns">
    <!-- Generator: Sketch 3.3.3 (12072) - http://www.bohemiancoding.com/sketch -->
    <title>下载2 hover</title>
    <desc>Created with Sketch.</desc>
    <defs></defs>
    <g id="v2" stroke="none" stroke-width="1" fill="none" fill-rule="evenodd" sketch:type="MSPage">
        <g id="协作icons" sketch:type="MSArtboardGroup" transform="translate(-354.000000, -218.000000)">
            <g id="文件区-icon-+-文件区" sketch:type="MSLayerGroup" transform="translate(22.000000, 170.000000)">
                <g id="文件区-icon" transform="translate(0.000000, 30.000000)"></g>
            </g>
            <path d="M361.281667,230.977144 C361.207494,230.953498 361.137763,230.912128 361.07912,230.853055 L357.926593,227.677457 C357.732044,227.481485 357.733198,227.164904 357.929171,226.970355 C358.125144,226.775806 358.441724,226.776961 358.636273,226.972933 L361,229.353959 L361,218.527205 C361,218.251063 361.223858,218.027205 361.5,218.027205 C361.776142,218.027205 362,218.251063 362,218.527205 L362,229.298603 L364.352568,226.990951 C364.549703,226.79758 364.866271,226.800631 365.059642,226.997766 C365.253013,227.194901 365.249962,227.511469 365.052827,227.70484 L361.947112,230.75126 C361.864948,230.914902 361.695589,231.027205 361.5,231.027205 C361.421718,231.027205 361.347637,231.009215 361.281667,230.977144 Z M355.146447,232.853553 C355.055964,232.763071 355,232.638071 355,232.5 L355,228.5 C355,228.223858 355.223858,228 355.5,228 C355.776142,228 356,228.223858 356,228.5 L356,232 L367,232 L367,228.5 C367,228.223858 367.223858,228 367.5,228 C367.776142,228 368,228.223858 368,228.5 L368,232.5 C368,232.638071 367.944036,232.763071 367.853553,232.853553 C367.763071,232.944036 367.638071,233 367.5,233 L355.5,233 C355.361929,233 355.236929,232.944036 355.146447,232.853553 Z" id="Shape-Copy-4" fill="#5B688C" sketch:type="MSShapeGroup"></path>
            <g id="Group" sketch:type="MSLayerGroup" transform="translate(40.000000, 40.000000)"></g>
        </g>
    </g>
</svg>