<?xml version="1.0" encoding="UTF-8" standalone="no"?>
<svg width="14px" height="14px" viewBox="0 0 14 14" version="1.1" xmlns="http://www.w3.org/2000/svg" xmlns:xlink="http://www.w3.org/1999/xlink" xmlns:sketch="http://www.bohemiancoding.com/sketch/ns">
    <!-- Generator: Sketch 3.3.3 (12072) - http://www.bohemiancoding.com/sketch -->
    <title>关闭</title>
    <desc>Created with Sketch.</desc>
    <defs></defs>
    <g id="v2" stroke="none" stroke-width="1" fill="none" fill-rule="evenodd" sketch:type="MSPage">
        <g id="弹窗" sketch:type="MSArtboardGroup" transform="translate(-2374.000000, -568.000000)">
            <g id="Group" sketch:type="MSLayerGroup" transform="translate(57.000000, 101.000000)"></g>
            <g id="历史版本_表格" sketch:type="MSLayerGroup" transform="translate(1483.000000, 568.000000)" fill="#848383">
                <path d="M899.516305,6.99999995 L903.680805,2.83550011 C904.104311,2.41199476 904.105247,1.73218499 903.686531,1.3134688 C903.264896,0.891833374 902.586378,0.897316068 902.1645,1.31919457 L898,5.48369441 L893.8355,1.31919457 C893.411995,0.895689231 892.732185,0.894752609 892.313469,1.3134688 C891.891833,1.73510422 891.897316,2.4136216 892.319195,2.83550011 L896.483694,6.99999995 L892.319195,11.1644999 C891.895689,11.5880052 891.894753,12.267815 892.313469,12.6865312 C892.735104,13.1081666 893.413622,13.1026839 893.8355,12.6808054 L898,8.51630548 L902.1645,12.6808054 C902.588005,13.1043108 903.267815,13.1052474 903.686531,12.6865312 C904.108167,12.2648958 904.102684,11.5863784 903.680805,11.1644999 L899.516305,6.99999995 L899.516305,6.99999995 Z" id="Rectangle-1107-Copy-3-Copy-3" sketch:type="MSShapeGroup"></path>
            </g>
        </g>
    </g>
</svg>