<?xml version="1.0" encoding="UTF-8" standalone="no"?>
<svg width="14px" height="14px" viewBox="0 0 14 14" version="1.1" xmlns="http://www.w3.org/2000/svg" xmlns:xlink="http://www.w3.org/1999/xlink" xmlns:sketch="http://www.bohemiancoding.com/sketch/ns">
    <!-- Generator: Sketch 3.3.3 (12072) - http://www.bohemiancoding.com/sketch -->
    <title>关闭 copy</title>
    <desc>Created with Sketch.</desc>
    <defs></defs>
    <g id="v2" stroke="none" stroke-width="1" fill="none" fill-rule="evenodd" sketch:type="MSPage">
        <g id="弹窗" sketch:type="MSArtboardGroup" transform="translate(-2374.000000, -608.000000)">
            <g id="Group" sketch:type="MSLayerGroup" transform="translate(57.000000, 101.000000)"></g>
            <g id="历史版本_表格" sketch:type="MSLayerGroup" transform="translate(1483.000000, 568.000000)" fill="#D8D8D8">
                <path d="M899.516305,46.9999999 L903.680805,42.8355001 C904.104311,42.4119948 904.105247,41.732185 903.686531,41.3134688 C903.264896,40.8918334 902.586378,40.8973161 902.1645,41.3191946 L898,45.4836944 L893.8355,41.3191946 C893.411995,40.8956892 892.732185,40.8947526 892.313469,41.3134688 C891.891833,41.7351042 891.897316,42.4136216 892.319195,42.8355001 L896.483694,46.9999999 L892.319195,51.1644999 C891.895689,51.5880052 891.894753,52.267815 892.313469,52.6865312 C892.735104,53.1081666 893.413622,53.1026839 893.8355,52.6808054 L898,48.5163055 L902.1645,52.6808054 C902.588005,53.1043108 903.267815,53.1052474 903.686531,52.6865312 C904.108167,52.2648958 904.102684,51.5863784 903.680805,51.1644999 L899.516305,46.9999999 L899.516305,46.9999999 Z" id="Rectangle-1107-Copy-3-Copy-2" sketch:type="MSShapeGroup"></path>
            </g>
        </g>
    </g>
</svg>