<?xml version="1.0" encoding="UTF-8" standalone="no"?>
<svg width="16px" height="16px" viewBox="0 0 16 16" version="1.1" xmlns="http://www.w3.org/2000/svg" xmlns:xlink="http://www.w3.org/1999/xlink" xmlns:sketch="http://www.bohemiancoding.com/sketch/ns">
    <!-- Generator: Sketch 3.3.3 (12072) - http://www.bohemiancoding.com/sketch -->
    <title>下载2</title>
    <desc>Created with Sketch.</desc>
    <defs></defs>
    <g id="v2" stroke="none" stroke-width="1" fill="none" fill-rule="evenodd" sketch:type="MSPage">
        <g id="协作icons" sketch:type="MSArtboardGroup" transform="translate(-354.000000, -198.000000)">
            <g id="文件区-icon-+-文件区" sketch:type="MSLayerGroup" transform="translate(22.000000, 170.000000)">
                <g id="文件区-icon" transform="translate(0.000000, 30.000000)"></g>
            </g>
            <path d="M361.281667,210.977144 C361.207494,210.953498 361.137763,210.912128 361.07912,210.853055 L357.926593,207.677457 C357.732044,207.481485 357.733198,207.164904 357.929171,206.970355 C358.125144,206.775806 358.441724,206.776961 358.636273,206.972933 L361,209.353959 L361,198.527205 C361,198.251063 361.223858,198.027205 361.5,198.027205 C361.776142,198.027205 362,198.251063 362,198.527205 L362,209.298603 L364.352568,206.990951 C364.549703,206.79758 364.866271,206.800631 365.059642,206.997766 C365.253013,207.194901 365.249962,207.511469 365.052827,207.70484 L361.947112,210.75126 C361.864948,210.914902 361.695589,211.027205 361.5,211.027205 C361.421718,211.027205 361.347637,211.009215 361.281667,210.977144 Z M355.146447,212.853553 C355.055964,212.763071 355,212.638071 355,212.5 L355,208.5 C355,208.223858 355.223858,208 355.5,208 C355.776142,208 356,208.223858 356,208.5 L356,212 L367,212 L367,208.5 C367,208.223858 367.223858,208 367.5,208 C367.776142,208 368,208.223858 368,208.5 L368,212.5 C368,212.638071 367.944036,212.763071 367.853553,212.853553 C367.763071,212.944036 367.638071,213 367.5,213 L355.5,213 C355.361929,213 355.236929,212.944036 355.146447,212.853553 Z" id="Shape-Copy-2" fill="#9199AF" sketch:type="MSShapeGroup"></path>
            <g id="Group" sketch:type="MSLayerGroup" transform="translate(40.000000, 40.000000)"></g>
        </g>
    </g>
</svg>