<?xml version="1.0" encoding="UTF-8" standalone="no"?>
<svg width="14px" height="12px" viewBox="0 0 14 12" version="1.1" xmlns="http://www.w3.org/2000/svg" xmlns:xlink="http://www.w3.org/1999/xlink" xmlns:sketch="http://www.bohemiancoding.com/sketch/ns">
    <!-- Generator: Sketch 3.3.3 (12072) - http://www.bohemiancoding.com/sketch -->
    <title>Imported Layers Copy 8</title>
    <desc>Created with Sketch.</desc>
    <defs></defs>
    <g id="v2" stroke="none" stroke-width="1" fill="none" fill-rule="evenodd" sketch:type="MSPage">
        <g id="协作icons" sketch:type="MSArtboardGroup" transform="translate(-214.000000, -265.000000)">
            <g id="文件区-icon-+-文件区" sketch:type="MSLayerGroup" transform="translate(22.000000, 170.000000)">
                <g id="文件区-icon" transform="translate(0.000000, 30.000000)"></g>
            </g>
            <g id="Group" sketch:type="MSLayerGroup" transform="translate(164.000000, 265.000000)" fill="#398DEE">
                <path d="M63,10 C62.9597538,10.4412819 62.4367538,10.9642819 62,11 L55,11 C54.5070854,10.964282 53.9597538,10.3405739 54,9.89929199 L54,2.64959717 L56.0617538,4.78728194 C56.1587538,4.88528194 56.2877538,4.93528194 56.4157538,4.93528194 C56.5437538,4.93528194 56.6707538,4.88628194 56.7687538,4.79028194 C56.9647538,4.59528194 56.9657538,4.27928194 56.7707538,4.08228194 L53.8547538,1.14228194 C53.7457538,1.03128194 53.5987538,0.989281943 53.4557538,1.00228194 C53.3147538,0.990281943 53.1697538,1.03328194 53.0617538,1.14228194 L50.1447538,4.08228194 C49.9507538,4.27928194 49.9517538,4.59528194 50.1477538,4.79028194 C50.2457538,4.88628194 50.3727538,4.93528194 50.4997538,4.93528194 C50.6277538,4.93528194 50.7567538,4.88528194 50.8547538,4.78728194 L53,2.64959717 L53,9.89929199 C52.9597538,10.8915739 53.9317538,11.9642819 55,12 L62,12 C62.9877538,11.9642819 63.9597538,10.9922819 64,10 L64,6.36901855 C64,6.07672119 63.7655937,6.00610352 63.5079956,6.00610352 C63.2503975,6.00610352 63,6.07672119 63,6.36901855 L63,10 Z" id="Imported-Layers-Copy-8" sketch:type="MSShapeGroup"></path>
            </g>
        </g>
    </g>
</svg>