<?xml version="1.0" encoding="UTF-8" standalone="no"?>
<svg width="14px" height="14px" viewBox="0 0 14 14" version="1.1" xmlns="http://www.w3.org/2000/svg" xmlns:xlink="http://www.w3.org/1999/xlink" xmlns:sketch="http://www.bohemiancoding.com/sketch/ns">
    <!-- Generator: Sketch 3.3.3 (12072) - http://www.bohemiancoding.com/sketch -->
    <title>取消上传 hover</title>
    <desc>Created with Sketch.</desc>
    <defs></defs>
    <g id="v2" stroke="none" stroke-width="1" fill="none" fill-rule="evenodd" sketch:type="MSPage">
        <g id="协作icons" sketch:type="MSArtboardGroup" transform="translate(-73.000000, -284.000000)">
            <g id="文件区-icon-+-文件区" sketch:type="MSLayerGroup" transform="translate(22.000000, 170.000000)">
                <g id="文件区-icon" transform="translate(0.000000, 30.000000)">
                    <g id="新建上传导入-4" fill="#99A9BB" sketch:type="MSShapeGroup">
                        <path d="M58.8890873,91.1819805 L61.363961,88.7071068 L60.6568542,88 L58.1819805,90.4748737 L55.7071068,88 L55,88.7071068 L57.4748737,91.1819805 L55,93.6568542 L55.7071068,94.363961 L58.1819805,91.8890873 L60.6568542,94.363961 L61.363961,93.6568542 L58.8890873,91.1819805 Z M58,98 C61.8659932,98 65,94.8659932 65,91 C65,87.1340068 61.8659932,84 58,84 C54.1340068,84 51,87.1340068 51,91 C51,94.8659932 54.1340068,98 58,98 Z" id="Oval-12-Copy-8"></path>
                    </g>
                    <g id="Group" transform="translate(2.000000, 1.000000)"></g>
                </g>
            </g>
            <g id="Group" sketch:type="MSLayerGroup" transform="translate(40.000000, 40.000000)"></g>
        </g>
    </g>
</svg>