<?xml version="1.0" encoding="UTF-8" standalone="no"?>
<svg width="16px" height="16px" viewBox="0 0 16 16" version="1.1" xmlns="http://www.w3.org/2000/svg" xmlns:xlink="http://www.w3.org/1999/xlink" xmlns:sketch="http://www.bohemiancoding.com/sketch/ns">
    <!-- Generator: Sketch 3.3.3 (12072) - http://www.bohemiancoding.com/sketch -->
    <title>打开文件夹icon</title>
    <desc>Created with Sketch.</desc>
    <defs></defs>
    <g id="v2" stroke="none" stroke-width="1" fill="none" fill-rule="evenodd" sketch:type="MSPage">
        <g id="协作icons" sketch:type="MSArtboardGroup" transform="translate(-947.000000, -160.000000)">
            <g id="讨论区" sketch:type="MSLayerGroup" transform="translate(928.000000, 160.000000)">
                <g id="新消息" transform="translate(19.000000, 0.000000)" sketch:type="MSShapeGroup">
                    <g id="打开-copy-2" transform="translate(0.000000, 2.000000)">
                        <path d="M13,12 L1,12 C0.368941176,12 0,11.5864615 0,11 L0,2 C0,1.33661538 0.368941176,0.923076923 1,1 L7,1 L8,0 L13,0 C13.6310588,0 14,0.413538462 14,1 L14,11 C14,11.5864615 13.6310588,12 13,12 Z" id="Imported-Layers-12" fill="#FFFFFF" transform="translate(7.000000, 6.000000) scale(-1, 1) translate(-7.000000, -6.000000) "></path>
                        <path d="M12.9962772,11 L12.9962772,2.02752686 L7.25616443,2.02752686 C7.25616443,2.02752686 6.26339995,1 6.16688939,1 L0.842105263,1 C0.842345052,1 0.842105263,11 0.842105263,11 C0.842105263,10.9997411 12.9962772,11 12.9962772,11 Z M0.842105263,12 C0.377263158,12 0,11.5864615 0,11.0769231 L0,0.923076923 C0,0.413538462 0.377263158,0 0.842105263,0 L6.45642105,0 L7.69500732,0.988525391 L12.9765625,0.988525391 C13.9457397,0.988525391 14.0271606,1.51916504 14.0271606,1.96557617 L14.0271606,11.0769234 C14.0271606,11.5864618 13.4414046,12 12.9765625,12 L0.842105263,12 Z" id="Shape" fill="#CCD0D5"></path>
                        <path d="M13.4736842,12 L0.842105263,12 C0.377263158,12 0,11.5968 0,11.1 L2.10748291,4.44783325 C2.10748291,3.95103325 2.66955731,3 3.13439941,3 L15.1578947,3 C15.6227368,3 16,3.4032 16,3.9 L14.3157895,11.1 C14.3157895,11.5968 13.9385263,12 13.4736842,12 Z" id="Imported-Layers" fill="#DEE1E6"></path>
                        <path d="M13.4303557,11.0000004 L15.1578947,4 C15.1578947,4.00024916 3.00128173,4 3.00128173,4 L0.897101151,11.0000004 L2.5181435,11.0000002 C2.5181435,10.9997511 13.4303557,11.0000004 13.4303557,11.0000004 Z M0.842105263,12 C0.377263158,12 0,11.5968 0,11.1 L2.05499268,3.9 C2.19049072,3.4348938 2.51428223,3 3.15649414,3 L15.1578947,3 C15.6227368,3 16,3.4032 16,3.9 L14.3157895,11.1 C14.1497803,12 13.800415,12 13.0111084,12 L0.842105263,12 Z" id="Shape" fill="#CCD0D5"></path>
                    </g>
                </g>
            </g>
        </g>
    </g>
</svg>