<?xml version="1.0" encoding="UTF-8" standalone="no"?>
<svg width="20px" height="20px" viewBox="0 0 20 20" version="1.1" xmlns="http://www.w3.org/2000/svg" xmlns:xlink="http://www.w3.org/1999/xlink" xmlns:sketch="http://www.bohemiancoding.com/sketch/ns">
    <!-- Generator: Sketch 3.3.3 (12072) - http://www.bohemiancoding.com/sketch -->
    <title>文件夹 lan </title>
    <desc>Created with Sketch.</desc>
    <defs></defs>
    <g id="v2" stroke="none" stroke-width="1" fill="none" fill-rule="evenodd" sketch:type="MSPage">
        <g id="协作icons" sketch:type="MSArtboardGroup" transform="translate(-160.000000, -370.000000)">
            <g id="normal-copy-6" sketch:type="MSLayerGroup" transform="translate(161.000000, 374.000000)">
                <path d="M17,12 L1,12 C0.448,12 0,11.552 0,11 L0,3 C0,2.448 0.448,2 1,2 L9,2 L10.333,0 L17,0 C17.552,0 18,0.448 18,1 L18,11 C18,11.552 17.552,12 17,12 Z" id="Imported-Layers-12" fill="#E7F2FF" sketch:type="MSShapeGroup" transform="translate(9.000000, 6.000000) scale(-1, 1) translate(-9.000000, -6.000000) "></path>
                <path d="M17,11 C16.9997153,11 17,3 17,3 C17,3.00028475 8.46474202,3 8.46474202,3 L7.11468506,1 L1,1 C1.00028475,1 1,11 1,11 C1,10.9997153 17,11 17,11 Z M1,12 L1,12 C0.448,12 0,11.552 0,11 L0,1 C0,0.448 0.448,0 1,0 L7.667,0 L9,2 L17,2 C17.552,2 18,2.448 18,3 L18,11 C18,11.552 17.552,12 17,12 L1,12 Z" id="Shape" fill="#398DEE" sketch:type="MSShapeGroup"></path>
                <path d="M17,13 L1,13 C0.448,13 0,12.552 0,12 L0,4 C0,3.448 0.448,3 1,3 L7,3 L8.333,1 L17,1 C17.552,1 18,1.448 18,2 L18,12 C18,12.552 17.552,13 17,13 Z" id="Imported-Layers" fill="#6DADF6" sketch:type="MSShapeGroup"></path>
                <path d="M17,12 C16.9997153,12 17,2 17,2 C17,2.00028475 8.87179677,1.99469049 8.87179677,1.99469049 L7.8321143,3.55460418 L7.53525798,4 L7,4 L1,4 C1.00028475,4 1,12 1,12 C1,11.9997153 17,12 17,12 Z M1,13 C0.448,13 0,12.552 0,12 L0,4 C0,3.448 0.448,3 1,3 L7,3 L8.333,1 L17,1 C17.552,1 18,1.448 18,2 L18,12 C18,12.552 17.552,13 17,13 L1,13 Z" id="Shape" fill="#398DEE" sketch:type="MSShapeGroup"></path>
            </g>
        </g>
    </g>
</svg>