<?xml version="1.0" encoding="UTF-8" standalone="no"?>
<svg width="16px" height="16px" viewBox="0 0 16 16" version="1.1" xmlns="http://www.w3.org/2000/svg" xmlns:xlink="http://www.w3.org/1999/xlink" xmlns:sketch="http://www.bohemiancoding.com/sketch/ns">
    <!-- Generator: Sketch 3.3.3 (12072) - http://www.bohemiancoding.com/sketch -->
    <title>打开文件夹icon hover</title>
    <desc>Created with Sketch.</desc>
    <defs></defs>
    <g id="v2" stroke="none" stroke-width="1" fill="none" fill-rule="evenodd" sketch:type="MSPage">
        <g id="协作icons" sketch:type="MSArtboardGroup" transform="translate(-695.000000, -159.000000)">
            <g id="讨论区" sketch:type="MSLayerGroup" transform="translate(645.500000, 158.500000)">
                <g id="新消息" transform="translate(19.000000, 0.000000)" sketch:type="MSShapeGroup">
                    <g id="打开-copy-3" transform="translate(30.000000, 2.000000)">
                        <path d="M13.5,12.5 L1.5,12.5 C0.868941176,12.5 0.5,12.0864615 0.5,11.5 L0.5,2.5 C0.5,1.83661538 0.868941176,1.42307692 1.5,1.5 L7.5,1.5 L8.5,0.5 L13.5,0.5 C14.1310588,0.5 14.5,0.913538462 14.5,1.5 L14.5,11.5 C14.5,12.0864615 14.1310588,12.5 13.5,12.5 Z" id="Imported-Layers-12" fill="#FFFFFF" transform="translate(7.500000, 6.500000) scale(-1, 1) translate(-7.500000, -6.500000) "></path>
                        <path d="M13.5,11.5 L13.5,2.5 L8.51135254,2.5 L6.5,1.5 L1.5,1.5 C1.50023675,1.5 1.5,11.5 1.5,11.5 C1.5,11.4997411 13.5,11.5 13.5,11.5 Z M1.5,12.5 C0.876532667,12.5 0.5,12.0864615 0.5,11.5 L0.5,1.5 C0.5,0.913538462 0.876532667,0.5 1.5,0.5 L6.5,0.5 L8.52990723,1.5 L13.5,1.5 C14.4187368,1.48852539 14.5,2.01916504 14.5,2.5 L14.5,11.5 L13.5,12.5 L1.5,12.5 Z" id="Shape" fill="#99C8FF"></path>
                        <path d="M13.5134277,12.5 L1.5,12.5 C0.877263158,12.5 0.5,12.0968 0.5,11.5 L2.5,4.5 C2.60748291,4.45103325 3.16955731,3.5 3.5,3.5 L15.5,3.5 C16.1227368,3.5 16.5,3.9032 16.5,4.5 L14.5,11.5 C14.3267212,12.0303955 14.003479,12.5 13.5134277,12.5 Z" id="Imported-Layers" fill="#CBE3FF"></path>
                        <path d="M13.5,11.5 L15.5,4.5 C15.5,4.50024916 3.5,4.5 3.5,4.5 L1.5,11.5 L3.5,11.5 C3.09139762,11.4997506 13.5,11.5 13.5,11.5 Z M1.5,12.5 C0.877263158,12.5 0.5,12.0968 0.5,11.5 L2.5,4.5 C2.69049072,3.9348938 3.01428223,3.5 3.5,3.5 L15.5,3.5 C16.1227368,3.5 16.5,3.9032 16.5,4.5 L14.5,11.5 C14.0950317,12.6761475 13.5721436,12.5 13.130127,12.5 L1.5,12.5 Z" id="Shape" fill="#99C8FF"></path>
                    </g>
                </g>
            </g>
        </g>
    </g>
</svg>