<?xml version="1.0" encoding="UTF-8" standalone="no"?>
<svg width="20px" height="20px" viewBox="0 0 20 20" version="1.1" xmlns="http://www.w3.org/2000/svg" xmlns:xlink="http://www.w3.org/1999/xlink" xmlns:sketch="http://www.bohemiancoding.com/sketch/ns">
    <!-- Generator: Sketch 3.3.3 (12072) - http://www.bohemiancoding.com/sketch -->
    <title>文件夹 展开</title>
    <desc>Created with Sketch.</desc>
    <defs></defs>
    <g id="v2" stroke="none" stroke-width="1" fill="none" fill-rule="evenodd" sketch:type="MSPage">
        <g id="协作icons" sketch:type="MSArtboardGroup" transform="translate(-130.000000, -390.000000)">
            <g id="打开" sketch:type="MSLayerGroup" transform="translate(131.000000, 394.000000)">
                <path d="M16,13 L1,13 C0.448,13 0,12.552 0,12 L0,2 C0,1.448 0.448,1 1,1 L8,1 L9.333,0 L16,0 C16.552,0 17,0.448 17,1 L17,12 C17,12.552 16.552,13 16,13 Z" id="Imported-Layers-12" fill="#FFFFFF" sketch:type="MSShapeGroup" transform="translate(8.500000, 6.500000) scale(-1, 1) translate(-8.500000, -6.500000) "></path>
                <path d="M16,12 C15.9997153,12 16,2 16,2 C16,2.00028475 9,2 9,2 L8.66659999,2 L8.39990399,1.79992798 L7.48986816,1 L1,1 C1.00028475,1 1,12 1,12 C1,11.9997153 16,12 16,12 Z M1,13 C0.448,13 0,12.552 0,12 L0,1 C0,0.448 0.448,0 1,0 L7.667,0 L9,1 L16,1 C16.552,1 17,1.448 17,2 L17,12 C17,12.552 16.552,13 16,13 L1,13 Z" id="Shape" fill="#E3A427" sketch:type="MSShapeGroup"></path>
                <path d="M16,13 L1,13 C0.448,13 0,12.552 0,12 L2,5 C2,4.448 2.448,4 3,4 L9,4 L10.333,3 L18,3 C18.552,3 19,3.448 19,4 L17,12 C17,12.552 16.552,13 16,13 Z" id="Imported-Layers" fill="#F7CF58" sketch:type="MSShapeGroup"></path>
                <path d="M15.8635254,12 L16.0298575,11.7574644 L18,4 C18,4.00028475 10.3759155,4 10.3759155,4 L9.41421356,5 L9,5 L3.07067871,5 C3.07096346,5 1,12 1,12 C1,11.9997153 15.8635254,12 15.8635254,12 Z M1,13 C0.448,13 0,12.552 0,12 L2,5 C2,4.448 2.448,4 3,4 L9,4 L10,3 L18,3 C18.552,3 19,3.448 19,4 L17,12 C17,12.552 16.552,13 16,13 L1,13 Z" id="Shape" fill="#E3A427" sketch:type="MSShapeGroup"></path>
            </g>
        </g>
    </g>
</svg>