<?xml version="1.0" encoding="UTF-8" standalone="no"?>
<svg width="20px" height="20px" viewBox="0 0 20 20" version="1.1" xmlns="http://www.w3.org/2000/svg" xmlns:xlink="http://www.w3.org/1999/xlink" xmlns:sketch="http://www.bohemiancoding.com/sketch/ns">
    <!-- Generator: Sketch 3.3.3 (12072) - http://www.bohemiancoding.com/sketch -->
    <title>导入</title>
    <desc>Created with Sketch.</desc>
    <defs></defs>
    <g id="v2" stroke="none" stroke-width="1" fill="none" fill-rule="evenodd" sketch:type="MSPage">
        <g id="协作icons" sketch:type="MSArtboardGroup" transform="translate(-100.000000, -198.000000)" fill="#398DEE">
            <g id="文件区-icon-+-文件区" sketch:type="MSLayerGroup" transform="translate(41.000000, 170.000000)">
                <g id="文件区-icon" transform="translate(1.000000, 30.000000)" sketch:type="MSShapeGroup">
                    <g id="新建上传导入-4">
                        <g id="Rectangle-572-+-导入笔记-+-Fill-10" transform="translate(60.000000, 0.000000)">
                            <path d="M1.875,16 C0.841,16 0,15.159 0,14.125 L0,1.875 C0,0.841 0.841,0 1.875,0 L6.25,0 C6.803,0 7.25,0.448 7.25,1 C7.25,1.552 6.803,2 6.25,2 L2,2 L2,14 L14,14 L14,9.75 C14,9.198 14.447,8.75 15,8.75 C15.553,8.75 16,9.198 16,9.75 L16,14.125 C16,15.159 15.159,16 14.125,16 L1.875,16 Z M14.05025,1.00771719 C12.43825,0.924717194 10.92825,1.51271719 9.68125,2.69971719 C8.14425,4.16171719 7.13325,6.44471719 7.02225,8.61471719 L5.70725,7.29971719 C5.51225,7.10471719 5.25625,7.00671719 5.00025,7.00671719 C4.74425,7.00671719 4.48825,7.10471719 4.29325,7.29971719 C3.90225,7.69071719 3.90225,8.32271719 4.29325,8.71371719 L7.29325,11.7137172 C7.68425,12.1047172 8.31625,12.1047172 8.70725,11.7137172 L11.70725,8.71371719 C12.09825,8.32271719 12.09825,7.69071719 11.70725,7.29971719 C11.51225,7.10471719 11.25625,7.00671719 11.00025,7.00671719 C10.74425,7.00671719 10.48825,7.10471719 10.29325,7.29971719 L9.02625,8.56671719 C9.15425,6.96671719 9.94925,5.20471719 11.05925,4.14871719 C11.91225,3.33771719 12.88825,2.96171719 13.95025,3.00571719 C14.53125,3.03771719 14.97225,2.60771719 14.99925,2.05671719 C15.02625,1.50471719 14.60225,1.03571719 14.05025,1.00771719 Z" id="Fill-10"></path>
                        </g>
                    </g>
                </g>
            </g>
        </g>
    </g>
</svg>