<?xml version="1.0" encoding="UTF-8" standalone="no"?>
<svg width="20px" height="20px" viewBox="0 0 20 20" version="1.1" xmlns="http://www.w3.org/2000/svg" xmlns:xlink="http://www.w3.org/1999/xlink" xmlns:sketch="http://www.bohemiancoding.com/sketch/ns">
    <!-- Generator: Sketch 3.3.3 (12072) - http://www.bohemiancoding.com/sketch -->
    <title>导入  disable</title>
    <desc>Created with Sketch.</desc>
    <defs></defs>
    <g id="v2" stroke="none" stroke-width="1" fill="none" fill-rule="evenodd" sketch:type="MSPage">
        <g id="协作icons" sketch:type="MSArtboardGroup" transform="translate(-100.000000, -238.000000)" fill="#D5D5D5">
            <g id="文件区-icon-+-文件区" sketch:type="MSLayerGroup" transform="translate(41.000000, 170.000000)">
                <g id="文件区-icon" transform="translate(1.000000, 30.000000)" sketch:type="MSShapeGroup">
                    <g id="新建上传导入-4">
                        <path d="M61.875,56 C60.841,56 60,55.159 60,54.125 L60,41.875 C60,40.841 60.841,40 61.875,40 L66.25,40 C66.803,40 67.25,40.448 67.25,41 C67.25,41.552 66.803,42 66.25,42 L62,42 L62,54 L74,54 L74,49.75 C74,49.198 74.447,48.75 75,48.75 C75.553,48.75 76,49.198 76,49.75 L76,54.125 C76,55.159 75.159,56 74.125,56 L61.875,56 Z M74.05025,41.0077172 C72.43825,40.9247172 70.92825,41.5127172 69.68125,42.6997172 C68.14425,44.1617172 67.13325,46.4447172 67.02225,48.6147172 L65.70725,47.2997172 C65.51225,47.1047172 65.25625,47.0067172 65.00025,47.0067172 C64.74425,47.0067172 64.48825,47.1047172 64.29325,47.2997172 C63.90225,47.6907172 63.90225,48.3227172 64.29325,48.7137172 L67.29325,51.7137172 C67.68425,52.1047172 68.31625,52.1047172 68.70725,51.7137172 L71.70725,48.7137172 C72.09825,48.3227172 72.09825,47.6907172 71.70725,47.2997172 C71.51225,47.1047172 71.25625,47.0067172 71.00025,47.0067172 C70.74425,47.0067172 70.48825,47.1047172 70.29325,47.2997172 L69.02625,48.5667172 C69.15425,46.9667172 69.94925,45.2047172 71.05925,44.1487172 C71.91225,43.3377172 72.88825,42.9617172 73.95025,43.0057172 C74.53125,43.0377172 74.97225,42.6077172 74.99925,42.0567172 C75.02625,41.5047172 74.60225,41.0357172 74.05025,41.0077172 Z" id="Fill-10"></path>
                    </g>
                </g>
            </g>
        </g>
    </g>
</svg>