<?xml version="1.0" encoding="UTF-8" standalone="no"?>
<svg width="20px" height="20px" viewBox="0 0 20 20" version="1.1" xmlns="http://www.w3.org/2000/svg" xmlns:xlink="http://www.w3.org/1999/xlink" xmlns:sketch="http://www.bohemiancoding.com/sketch/ns">
    <!-- Generator: Sketch 3.3.3 (12072) - http://www.bohemiancoding.com/sketch -->
    <title>成员</title>
    <desc>Created with Sketch.</desc>
    <defs></defs>
    <g id="v2" stroke="none" stroke-width="1" fill="none" fill-rule="evenodd" sketch:type="MSPage">
        <g id="协作icons" sketch:type="MSArtboardGroup" transform="translate(-177.000000, -46.000000)" fill="#ADB8C4">
            <path d="M184.587,57.242 C184.303,56.957 184.076,56.622 183.881,56.266 C183.636,56.525 183.294,56.691 182.909,56.691 C182.167,56.691 181.563,56.087 181.563,55.345 C181.563,54.604 182.167,54 182.909,54 C183.069,54 183.219,54.04 183.361,54.092 C183.387,53.393 183.586,52.743 183.911,52.17 C183.592,52.069 183.26,52 182.909,52 C181.065,52 179.564,53.5 179.564,55.345 C179.564,56.144 179.856,56.868 180.325,57.444 C178.935,58.312 178,59.844 178,61.6 C178,62.152 178.448,62.6 179,62.6 C179.552,62.6 180,62.152 180,61.6 C180,60.046 181.228,58.783 182.764,58.706 C183.279,58.115 183.891,57.613 184.587,57.242 Z M192.412,56.242 C193.179,55.473 193.654,54.414 193.654,53.245 C193.654,50.904 191.75,49 189.409,49 C187.068,49 185.164,50.904 185.164,53.245 C185.164,54.414 185.639,55.473 186.405,56.242 C184.382,57.321 183,59.451 183,61.9 C183,62.452 183.447,62.9 184,62.9 C184.552,62.9 185,62.452 185,61.9 C185,59.469 186.977,57.491 189.409,57.491 C191.841,57.491 193.818,59.469 193.818,61.9 C193.818,62.452 194.265,62.9 194.818,62.9 C195.371,62.9 195.818,62.452 195.818,61.9 C195.818,59.451 194.436,57.321 192.412,56.242 Z M187.164,53.245 C187.164,52.007 188.171,51 189.409,51 C190.647,51 191.654,52.007 191.654,53.245 C191.654,54.484 190.647,55.491 189.409,55.491 C188.171,55.491 187.164,54.484 187.164,53.245 L187.164,53.245 Z" id="Imported-Layers" sketch:type="MSShapeGroup"></path>
        </g>
    </g>
</svg>