<?xml version="1.0" encoding="UTF-8" standalone="no"?>
<svg width="20px" height="20px" viewBox="0 0 20 20" version="1.1" xmlns="http://www.w3.org/2000/svg" xmlns:xlink="http://www.w3.org/1999/xlink" xmlns:sketch="http://www.bohemiancoding.com/sketch/ns">
    <!-- Generator: Sketch 3.3.3 (12072) - http://www.bohemiancoding.com/sketch -->
    <title>加入群按钮</title>
    <desc>Created with Sketch.</desc>
    <defs></defs>
    <g id="v2" stroke="none" stroke-width="1" fill="none" fill-rule="evenodd" sketch:type="MSPage">
        <g id="协作icons" sketch:type="MSArtboardGroup" transform="translate(-190.000000, -198.000000)">
            <g id="文件区-icon-+-文件区" sketch:type="MSLayerGroup" transform="translate(34.000000, 170.000000)">
                <g id="文件区-icon" transform="translate(0.000000, 30.000000)">
                    <g id="新建上传导入-4" transform="translate(8.000000, 0.000000)" fill="#398DEE" sketch:type="MSShapeGroup">
                        <path d="M151,7 C150.444631,7 150,7.44771525 150,8 C150,8.55613518 150.448106,9 151,9 L157,9 L157,15 C157,15.5518945 157.443865,16 158,16 C158.552285,16 159,15.5553691 159,15 L159,1 C159,0.448105505 158.556135,1.77635684e-15 158,0 C157.447715,0 157,0.444630861 157,1 L157,7 L151,7 Z M165,7 C165.525518,7 166,7.44386482 166,8 C166,8.55228475 165.529197,9 165,9 L160,9 L160,7 L165,7 Z" id="Rectangle-1164-Copy-4"></path>
                    </g>
                    <g id="Group"></g>
                </g>
            </g>
            <g id="Group" sketch:type="MSLayerGroup" transform="translate(40.000000, 40.000000)"></g>
        </g>
    </g>
</svg>