<?xml version="1.0" encoding="UTF-8" standalone="no"?>
<svg width="20px" height="20px" viewBox="0 0 20 20" version="1.1" xmlns="http://www.w3.org/2000/svg" xmlns:xlink="http://www.w3.org/1999/xlink" xmlns:sketch="http://www.bohemiancoding.com/sketch/ns">
    <!-- Generator: Sketch 3.3.3 (12072) - http://www.bohemiancoding.com/sketch -->
    <title>加入群按钮hover</title>
    <desc>Created with Sketch.</desc>
    <defs></defs>
    <g id="v2" stroke="none" stroke-width="1" fill="none" fill-rule="evenodd" sketch:type="MSPage">
        <g id="协作icons" sketch:type="MSArtboardGroup" transform="translate(-190.000000, -218.000000)">
            <g id="文件区-icon-+-文件区" sketch:type="MSLayerGroup" transform="translate(34.000000, 170.000000)">
                <g id="文件区-icon" transform="translate(0.000000, 30.000000)">
                    <g id="新建上传导入-4" transform="translate(8.000000, 0.000000)" fill="#2A82DC" sketch:type="MSShapeGroup">
                        <path d="M151,27 C150.444631,27 150,27.4477153 150,28 C150,28.5561352 150.448106,29 151,29 L157,29 L157,35 C157,35.5518945 157.443865,36 158,36 C158.552285,36 159,35.5553691 159,35 L159,21 C159,20.4481055 158.556135,20 158,20 C157.447715,20 157,20.4446309 157,21 L157,27 L151,27 Z M165,27 C165.525518,27 166,27.4438648 166,28 C166,28.5522847 165.529197,29 165,29 L160,29 L160,27 L165,27 Z" id="Rectangle-1164-Copy-5"></path>
                    </g>
                    <g id="Group"></g>
                </g>
            </g>
            <g id="Group" sketch:type="MSLayerGroup" transform="translate(40.000000, 40.000000)"></g>
        </g>
    </g>
</svg>