<?xml version="1.0" encoding="UTF-8" standalone="no"?>
<svg width="138px" height="23px" viewBox="0 0 138 23" version="1.1" xmlns="http://www.w3.org/2000/svg" xmlns:xlink="http://www.w3.org/1999/xlink" xmlns:sketch="http://www.bohemiancoding.com/sketch/ns">
    <!-- Generator: Sketch 3.3.3 (12072) - http://www.bohemiancoding.com/sketch -->
    <title>logo  copy</title>
    <desc>Created with Sketch.</desc>
    <defs></defs>
    <g id="v2" stroke="none" stroke-width="1" fill="none" fill-rule="evenodd" sketch:type="MSPage">
        <g id="logo--copy" sketch:type="MSLayerGroup" fill="#FFFFFF">
            <path d="M77.4542422,3.82594185 L92.2403244,3.82594185 L92.2403244,5.33669192 L77.4542422,5.33669192 L77.4542422,3.82594185 Z" id="Fill-1" sketch:type="MSShapeGroup"></path>
            <path d="M84.6433492,10.5789552 L94.0374449,10.5789552 L94.0374449,9.06881201 L75.6568091,9.06881201 L75.6568091,10.5789552 L82.6824563,10.5789552 C81.4297852,13.547963 79.4088842,15.57059 77.1216967,17.744019 L77.8567972,19.3339628 C81.8514053,19.2814704 87.1696318,19.1376472 91.1917437,18.3648253 C91.4152117,18.8399879 91.615239,19.6061345 91.7730731,20.0309287 L91.9537228,20.2527319 L93.5255,19.5973352 C92.2653278,16.6683795 91.1195463,14.4421547 89.9246956,12.6434548 C89.9246956,12.6434548 88.4113639,13.3419378 88.4307415,13.3734939 C88.6670238,13.7530779 89.5793359,15.2407677 90.4407036,16.868943 C86.9211603,17.4636548 82.4571131,17.5604472 79.572344,17.6645218 C81.1516222,16.1801696 83.009376,14.1836371 84.6433492,10.5789552" id="Fill-2" sketch:type="MSShapeGroup"></path>
            <path d="M34.433053,5.80851686 L39.8244144,5.80851686 C38.4082835,8.08814436 36.5020856,10.1817727 34.1061333,12.0900087 L35.3313007,13.2029694 C36.3661295,12.4079975 37.3462634,11.5335284 38.2723274,10.5789552 L38.2723274,20.5176214 L39.9059881,20.5176214 L39.9059881,16.3036634 L49.0556754,16.3036634 L49.0556754,17.9737112 C49.0556754,18.5034902 48.8103294,18.7683797 48.320575,18.7683797 C47.6123533,18.7683797 46.523142,18.7152805 45.0526286,18.6096888 L45.4611219,20.199936 C46.6050282,20.3058312 47.5851621,20.358627 48.4021487,20.358627 C49.1644403,20.358627 49.7363934,20.1865854 50.1176955,19.8418953 C50.4989976,19.4975086 50.6893361,19.0071747 50.6893361,18.3711972 L50.6893361,8.19373605 L40.1513341,8.19373605 C40.7501659,7.39876413 41.2677366,6.60348878 41.7034211,5.80851686 L52.3229967,5.80851686 L52.3229967,4.29807021 L42.5200952,4.29807021 C42.7923199,3.66209267 43.0373533,3.02581171 43.2555081,2.38983417 L41.7034211,2.0718454 C41.3761889,2.81371806 41.0223906,3.55589413 40.641401,4.29807021 L34.433053,4.29807021 L34.433053,5.80851686 L34.433053,5.80851686 Z M39.9059881,9.70478955 L49.0556754,9.70478955 L49.0556754,11.6130256 L39.9059881,11.6130256 L39.9059881,9.70478955 Z M39.9059881,13.043975 L49.0556754,13.043975 L49.0556754,14.8724105 L39.9059881,14.8724105 L39.9059881,13.043975 Z" id="Fill-3" sketch:type="MSShapeGroup"></path>
            <path d="M54.8255261,3.90058425 C55.8603549,4.58966106 56.8404888,5.46443359 57.7665528,6.52459844 L58.9101465,5.17253932 C58.038465,4.21826959 57.0583311,3.39689975 55.9688073,2.70782294 L54.8255261,3.90058425 L54.8255261,3.90058425 Z M54.5804926,10.8177502 L57.0308273,10.8177502 L57.0308273,17.1784359 C56.2141533,17.7085183 55.3699755,18.2118994 54.4986064,18.6888825 L55.6418876,20.358627 L58.0112738,18.0532084 C58.8282604,18.7419818 59.7815156,19.2456663 60.8704143,19.5633517 C61.9596256,19.8816438 63.7023637,20.0406382 66.098941,20.0406382 L72.6342087,20.0406382 L73.4511953,18.2913966 L67.7329142,18.2913966 C64.356203,18.2913966 62.1640285,18.1855015 61.1563909,17.9737112 C60.1487532,17.7613142 59.3186398,17.4169275 58.6651131,16.9399443 L58.6651131,9.30700017 L54.5804926,9.30700017 L54.5804926,10.8177502 L54.5804926,10.8177502 Z M62.0143206,3.02581171 C62.3953101,3.44999902 62.7497335,3.90058425 63.0763406,4.3775674 L59.9721666,4.3775674 L59.9721666,5.80851686 L65.2819544,5.80851686 L64.8737737,7.08077536 L61.197334,7.08077536 L61.197334,16.8601437 L71.735336,16.8601437 L71.735336,7.08077536 L66.5886954,7.08077536 L66.9975013,5.80851686 L72.8789297,5.80851686 L72.8789297,4.3775674 L69.5300347,4.3775674 C69.9654067,3.90058425 70.3470213,3.34349705 70.673941,2.70782294 L68.8768205,2.23083979 C68.5495883,2.97301586 68.141095,3.68879402 67.6513406,4.3775674 L64.8737737,4.3775674 C64.4377766,3.6350879 63.9202059,2.91991659 63.3213741,2.23083979 L62.0143206,3.02581171 L62.0143206,3.02581171 Z M62.6675348,8.43253105 L70.1835615,8.43253105 L70.1835615,9.94328113 L62.6675348,9.94328113 L62.6675348,8.43253105 Z M62.6675348,11.2152362 L70.1835615,11.2152362 L70.1835615,12.7259863 L62.6675348,12.7259863 L62.6675348,11.2152362 Z M62.6675348,13.9982448 L70.1835615,13.9982448 L70.1835615,15.5089949 L62.6675348,15.5089949 L62.6675348,13.9982448 Z" id="Fill-4" sketch:type="MSShapeGroup"></path>
            <path d="M101.462834,8.74141709 L101.462834,20.8877992 L99.6110188,20.8877992 L99.6110188,8.74141709 L97.4263453,8.74141709 L97.4263453,6.99763708 L99.6110188,6.99763708 L99.6110188,2.29334521 L101.462834,2.29334521 L101.462834,6.99763708 L103.585312,6.99763708 L103.585312,8.74141709 L101.462834,8.74141709 L101.462834,8.74141709 Z M114.925923,15.8788692 C114.738398,14.4800827 114.218639,12.1276334 113.656687,10.2421542 C113.469474,16.5482234 113.261321,18.9206988 112.636861,19.7117262 C112.220554,20.3401181 111.742363,20.5224762 111.055707,20.6241234 C110.389679,20.7054411 109.307656,20.6848082 108.225633,20.6444528 C108.184377,20.1171012 107.975911,19.3467066 107.643366,18.8396845 C108.766957,18.9206988 109.765531,18.9410282 110.202466,18.9410282 C110.577204,18.9410282 110.785045,18.8803433 110.993199,18.6166675 C111.492642,18.0079982 111.700795,15.2504773 111.867068,7.8897048 L109.411733,7.8897048 C109.266088,12.0872779 108.391906,17.1362599 103.752522,20.9281546 C103.419039,20.5024502 102.732383,19.8940842 102.25388,19.6103824 C106.581658,16.2035333 107.4349,11.6615735 107.580857,7.8897048 L104.147263,7.8897048 L104.147263,6.06491048 L107.601798,6.06491048 L107.601798,2.45537384 L109.43236,2.45537384 L109.43236,6.06491048 L113.739824,6.06491048 L113.739824,6.95728163 C113.719196,8.07236629 113.677315,9.0861072 113.656687,10.0188338 L115.196273,9.71449913 C115.779165,11.5802558 116.403313,14.0340489 116.632406,15.4531648 L114.925923,15.8788692 L114.925923,15.8788692 Z M105.978451,10.0188338 C105.520576,12.1076074 104.750471,14.2164069 103.814405,15.5748379 C103.481547,15.3320984 102.75301,14.8451023 102.337329,14.6217819 C103.232138,13.3850241 103.897542,11.5399003 104.230712,9.67414369 L105.978451,10.0188338 L105.978451,10.0188338 Z" id="Fill-5" sketch:type="MSShapeGroup"></path>
            <path d="M125.311092,2.92173714 C124.749453,4.34115647 124.042169,5.80123468 123.251123,7.15996913 L123.251123,20.8471403 L121.295231,20.8471403 L121.295231,10.1402036 C120.754219,10.8705461 120.171327,11.5399003 119.588748,12.1276334 C119.401535,11.6612701 118.839895,10.6068703 118.506725,10.1811659 C120.48387,8.27505379 122.335998,5.31454194 123.459276,2.35403009 L125.311092,2.92173714 L125.311092,2.92173714 Z M131.595388,7.40301207 L131.595388,9.97817493 L137.254911,9.97817493 L137.254911,11.7019289 L131.595388,11.7019289 L131.595388,14.398765 L137.546513,14.398765 L137.546513,16.1631779 L131.595388,16.1631779 L131.595388,20.8674697 L129.618555,20.8674697 L129.618555,7.40301207 L128.453084,7.40301207 C127.579214,8.98476346 126.622208,10.4044862 125.623322,11.478912 C125.311092,11.1542479 124.561927,10.4851971 124.124992,10.2011919 C125.95618,8.33573867 127.620782,5.41558227 128.619981,2.49572929 L130.471484,2.98272545 C130.138626,3.85446374 129.784828,4.74653147 129.389461,5.59824375 L137.754667,5.59824375 L137.754667,7.40301207 L131.595388,7.40301207 L131.595388,7.40301207 Z" id="Fill-6" sketch:type="MSShapeGroup"></path>
            <path d="M22,1 C22.0001244,2.76615276 21.9999121,8.19347925 22,12 L22,16 C21.8759286,19.4043775 19.3493408,21.874104 16,22 L7,22 C3.61172023,21.8760148 1.12355887,19.4062882 1,16 L1,8 C1.12865408,4.06184097 4.10595569,1.12440985 8,1 L8,1 L22,1 M8,0 C3.51093347,0.135361196 0.134938439,3.60132579 0,8 L0,16 C0.134938439,19.9840427 3.06071633,22.86485 7,23 L16,23 C19.8490431,22.86485 22.8643577,19.9840427 23,16 C22.9997184,13.1141981 23,0 23,0 C23,0 22.7425118,0.00232289104 22,0 L8,0 Z" id="Fill-20" sketch:type="MSShapeGroup"></path>
            <path d="M11.8518209,12.5902073 C10.296279,13.3696302 9.12761859,14.9284761 8.75908975,16.8968675 C8.6894764,17.2682459 8.92932602,17.6265446 9.29469062,17.6975182 C9.33730243,17.7056662 9.37970328,17.7097402 9.42147129,17.7097402 C9.73852844,17.7097402 10.0207789,17.4809522 10.0823762,17.152887 C10.501111,14.9164685 12.1389232,13.4138011 14.1577103,13.4138011 C16.1762864,13.4138011 17.8138876,14.9164685 18.2328334,17.152887 C18.3024468,17.5242654 18.6547325,17.7680629 19.020519,17.6975182 C19.3856726,17.6265446 19.6257332,17.2682459 19.5563308,16.8968675 C19.1873801,14.927404 18.0174539,13.3679148 16.4606464,12.5889207 C17.4177244,11.8686782 18.042135,10.7161614 18.042135,9.41547928 C18.042135,7.23695462 16.2986371,5.46475911 14.1553898,5.46475911 C12.0121425,5.46475911 10.2688556,7.23695462 10.2688556,9.41547928 C10.2688556,10.7168047 10.8936881,11.8699647 11.8518209,12.5902073 L11.8518209,12.5902073 Z M14.1553898,6.86579062 C15.538375,6.86579062 16.6635798,8.00951607 16.6635798,9.41547928 C16.6635798,10.8212281 15.538375,11.9649535 14.1553898,11.9649535 C12.7724047,11.9649535 11.6471998,10.8212281 11.6471998,9.41547928 C11.6471998,8.00951607 12.7724047,6.86579062 14.1553898,6.86579062 L14.1553898,6.86579062 Z" id="Fill-21" sketch:type="MSShapeGroup"></path>
            <path d="M4.49601057,16.287481 C4.80758304,16.3483767 5.10839707,16.1399588 5.16767389,15.8230435 C5.50055226,14.0457019 6.8008452,12.8515873 8.40342883,12.8515873 C8.61353457,12.8515873 8.81836657,12.8728151 9.01644818,12.9124831 C9.18373116,12.7201468 9.38856316,12.4922165 9.61195872,12.2597834 C9.45838746,11.9516594 9.33245059,11.6632622 9.24132039,11.4415501 C8.98564955,11.5629128 8.70192242,11.6328143 8.40153028,11.6328143 C7.30395985,11.6328143 6.41079951,10.7251671 6.41079951,9.60953094 C6.41079951,8.49368031 7.30395985,7.58603318 8.40153028,7.58603318 C8.76584013,7.58603318 9.10652363,7.68766907 9.40016539,7.86177951 C9.49340508,7.6010427 9.65646908,7.20457694 9.90412383,6.8083256 C9.45775461,6.55981083 8.94578009,6.41829249 8.40153028,6.41829249 C6.67047839,6.41829249 5.26217929,7.84998631 5.26217929,9.60953094 C5.26217929,10.6424004 5.74799607,11.5618407 6.49918737,12.1454966 C5.26154644,12.7819003 4.33379038,14.0313356 4.03909388,15.6045478 C3.97981706,15.9214631 4.18443811,16.2272285 4.49601057,16.287481" id="Fill-22" sketch:type="MSShapeGroup"></path>
        </g>
    </g>
</svg>