<?xml version="1.0" encoding="UTF-8" standalone="no"?>
<svg width="12px" height="12px" viewBox="0 0 12 12" version="1.1" xmlns="http://www.w3.org/2000/svg" xmlns:xlink="http://www.w3.org/1999/xlink" xmlns:sketch="http://www.bohemiancoding.com/sketch/ns">
    <!-- Generator: Sketch 3.3.3 (12072) - http://www.bohemiancoding.com/sketch -->
    <title>成员列表</title>
    <desc>Created with Sketch.</desc>
    <defs></defs>
    <g id="v2" stroke="none" stroke-width="1" fill="none" fill-rule="evenodd" sketch:type="MSPage">
        <g id="协作icons" sketch:type="MSArtboardGroup" transform="translate(-85.000000, -975.000000)" fill="#A4B4C8">
            <path d="M90.052737,981.362974 C90.2489987,981.199267 90.3521362,980.935957 90.246996,980.704204 C90.0807744,980.334386 89.9906542,979.927093 89.9906542,979.503035 C89.9906542,978.152952 90.9188919,977.023774 92.1755674,976.670721 C91.6478638,975.753572 90.5534045,975.193421 89.3497997,975.497165 C88.5186916,975.706235 87.8317757,976.36106 87.60247,977.175646 C87.3090788,978.21804 87.6925901,979.192388 88.4155541,979.777193 C88.6428571,979.960623 88.561749,980.31269 88.2933912,980.429059 C86.3718291,981.257452 85,983.436914 85,986 L87.987984,986 C87.987984,984.117379 88.7900534,982.414243 90.052737,981.362974 Z M94.2773698,981.013865 C94.8150868,980.572056 95.114486,979.861019 94.9542724,979.087852 C94.7990654,978.338354 94.167223,977.720018 93.4052069,977.571105 C92.1194927,977.319628 90.9919893,978.282142 90.9919893,979.503035 C90.9919893,980.09573 91.2583445,980.624323 91.6779039,980.98428 C91.8741656,981.152917 91.8190921,981.455675 91.582777,981.561196 C90.067757,982.237717 88.9893191,983.968466 88.9893191,986 L97,986 C97,983.951701 95.9045394,982.209117 94.370494,981.544431 C94.1522029,981.450744 94.0941255,981.163765 94.2773698,981.013865 Z" id="Fill-1-Copy-9" sketch:type="MSShapeGroup"></path>
        </g>
    </g>
</svg>