<?xml version="1.0" encoding="UTF-8" standalone="no"?>
<svg width="12px" height="12px" viewBox="0 0 12 12" version="1.1" xmlns="http://www.w3.org/2000/svg" xmlns:xlink="http://www.w3.org/1999/xlink" xmlns:sketch="http://www.bohemiancoding.com/sketch/ns">
    <!-- Generator: Sketch 3.3.3 (12072) - http://www.bohemiancoding.com/sketch -->
    <title>邀请</title>
    <desc>Created with Sketch.</desc>
    <defs></defs>
    <g id="v2" stroke="none" stroke-width="1" fill="none" fill-rule="evenodd" sketch:type="MSPage">
        <g id="协作icons" sketch:type="MSArtboardGroup" transform="translate(-41.000000, -975.000000)" fill="#ADB8C6">
            <path d="M46,982 L43.25,982 C42.5596441,982 42,981.552285 42,981 C42,980.447715 42.5596441,980 43.25,980 L46,980 L46,977.25 C46,976.559644 46.4477153,976 47,976 C47.5522847,976 48,976.559644 48,977.25 L48,980 L50.75,980 C51.4403559,980 52,980.447715 52,981 C52,981.552285 51.4403559,982 50.75,982 L48,982 L48,984.75 C48,985.440356 47.5522847,986 47,986 C46.4477153,986 46,985.440356 46,984.75 L46,982 Z" id="Line-Copy-6" sketch:type="MSShapeGroup"></path>
        </g>
    </g>
</svg>