<?xml version="1.0" encoding="UTF-8" standalone="no"?>
<svg width="20px" height="20px" viewBox="0 0 20 20" version="1.1" xmlns="http://www.w3.org/2000/svg" xmlns:xlink="http://www.w3.org/1999/xlink" xmlns:sketch="http://www.bohemiancoding.com/sketch/ns">
    <!-- Generator: Sketch 3.3.3 (12072) - http://www.bohemiancoding.com/sketch -->
    <title>新建 disable</title>
    <desc>Created with Sketch.</desc>
    <defs></defs>
    <g id="v2" stroke="none" stroke-width="1" fill="none" fill-rule="evenodd" sketch:type="MSPage">
        <g id="协作icons" sketch:type="MSArtboardGroup" transform="translate(-40.000000, -238.000000)" fill="#D5D5D5">
            <g id="文件区-icon-+-文件区" sketch:type="MSLayerGroup" transform="translate(41.000000, 170.000000)">
                <g id="文件区-icon" transform="translate(1.000000, 30.000000)" sketch:type="MSShapeGroup">
                    <g id="新建上传导入-4">
                        <path d="M10,44 L6.83333333,44 C6.3725,44 6,44.448 6,45 C6,45.552 6.3725,46 6.83333333,46 L10,46 L10,49.1666667 C10,49.6266667 10.447,50 11,50 C11.553,50 12,49.6266667 12,49.1666667 L12,46 L15.1666667,46 C15.6275,46 16,45.552 16,45 C16,44.448 15.6275,44 15.1666667,44 L12,44 L12,40.8333333 C12,40.3733333 11.553,40 11,40 C10.447,40 10,40.3733333 10,40.8333333 L10,44 Z M1.875,56 C0.841,56 0,55.159 0,54.125 L0,41.875 C0,40.841 0.841,40 1.875,40 L6.25,40 C6.803,40 7.25,40.448 7.25,41 C7.25,41.552 6.803,42 6.25,42 L2,42 L2,54 L14,54 L14,49.75 C14,49.198 14.447,48.75 15,48.75 C15.553,48.75 16,49.198 16,49.75 L16,54.125 C16,55.159 15.159,56 14.125,56 L1.875,56 Z" id="Fill-6-Copy"></path>
                    </g>
                </g>
            </g>
        </g>
    </g>
</svg>