<?xml version="1.0" encoding="UTF-8" standalone="no"?>
<svg width="20px" height="20px" viewBox="0 0 20 20" version="1.1" xmlns="http://www.w3.org/2000/svg" xmlns:xlink="http://www.w3.org/1999/xlink" xmlns:sketch="http://www.bohemiancoding.com/sketch/ns">
    <!-- Generator: Sketch 3.3.3 (12072) - http://www.bohemiancoding.com/sketch -->
    <title>新建  hover</title>
    <desc>Created with Sketch.</desc>
    <defs></defs>
    <g id="v2" stroke="none" stroke-width="1" fill="none" fill-rule="evenodd" sketch:type="MSPage">
        <g id="协作icons" sketch:type="MSArtboardGroup" transform="translate(-40.000000, -218.000000)" fill="#2A82DC">
            <g id="文件区-icon-+-文件区" sketch:type="MSLayerGroup" transform="translate(41.000000, 170.000000)">
                <g id="文件区-icon" transform="translate(1.000000, 30.000000)" sketch:type="MSShapeGroup">
                    <g id="新建上传导入-4-copy" transform="translate(0.000000, 20.000000)">
                        <g id="Group">
                            <path d="M10,4 L6.83333333,4 C6.3725,4 6,4.448 6,5 C6,5.552 6.3725,6 6.83333333,6 L10,6 L10,9.16666667 C10,9.62666667 10.447,10 11,10 C11.553,10 12,9.62666667 12,9.16666667 L12,6 L15.1666667,6 C15.6275,6 16,5.552 16,5 C16,4.448 15.6275,4 15.1666667,4 L12,4 L12,0.833333333 C12,0.373333333 11.553,0 11,0 C10.447,0 10,0.373333333 10,0.833333333 L10,4 Z M1.875,16 C0.841,16 0,15.159 0,14.125 L0,1.875 C0,0.841 0.841,0 1.875,0 L6.25,0 C6.803,0 7.25,0.448 7.25,1 C7.25,1.552 6.803,2 6.25,2 L2,2 L2,14 L14,14 L14,9.75 C14,9.198 14.447,8.75 15,8.75 C15.553,8.75 16,9.198 16,9.75 L16,14.125 C16,15.159 15.159,16 14.125,16 L1.875,16 Z" id="Fill-6"></path>
                        </g>
                    </g>
                </g>
            </g>
        </g>
    </g>
</svg>