<?xml version="1.0" encoding="UTF-8" standalone="no"?>
<svg width="13px" height="13px" viewBox="0 0 13 13" version="1.1" xmlns="http://www.w3.org/2000/svg" xmlns:xlink="http://www.w3.org/1999/xlink" xmlns:sketch="http://www.bohemiancoding.com/sketch/ns">
    <!-- Generator: Sketch 3.4 (15575) - http://www.bohemiancoding.com/sketch -->
    <title>Shape Copy</title>
    <desc>Created with Sketch.</desc>
    <defs></defs>
    <g id="Page-1" stroke="none" stroke-width="1" fill="none" fill-rule="evenodd" sketch:type="MSPage">
        <g id="pdf-预览" sketch:type="MSArtboardGroup" transform="translate(-859.000000, -72.000000)">
            <g id="协作调整-+-中间页-3" sketch:type="MSLayerGroup" transform="translate(-4.000000, 43.000000)" fill="#FFFFFF">
                <g id="协作调整" sketch:type="MSShapeGroup">
                    <rect id="Rectangle-337" x="240" y="4" width="1027" height="748.554913"></rect>
                </g>
            </g>
            <g id="标题" sketch:type="MSLayerGroup" transform="translate(237.000000, 50.000000)" fill="#398DEE">
                <g id="中间页" sketch:type="MSShapeGroup">
                    <g id="5人正在编辑-+-Shape-Copy" transform="translate(622.000000, 22.000000)">
                        <path d="M10.1346837,1.75587764e-05 C9.83313845,-0.00156751917 9.53920159,0.104125478 9.31044314,0.332883928 L8.8032182,0.85595965 L12.1477327,4.2163249 L12.6549576,3.69324918 C13.1124745,3.23573228 13.1175468,2.4920137 12.6549576,2.02891733 L10.974775,0.348734707 C10.7434804,0.117186521 10.4362289,0.00160263672 10.1346837,1.75587764e-05 L10.1346837,1.75587764e-05 Z M8.23259014,1.31563226 L7.44005116,2.07646967 L10.9272226,5.56364115 L11.7356124,4.81865452 L8.23259014,1.31563226 L8.23259014,1.31563226 Z M6.93282622,2.63124695 L1.44845652,8.06806431 C1.3224467,8.13257246 1.23011813,8.24798316 1.19484405,8.3850799 L0.0218863692,12.3636255 C-0.0319943334,12.5387283 0.0153303248,12.7292709 0.14487588,12.8588164 C0.274421436,12.988362 0.464964022,13.0356867 0.640066769,12.9818059 L4.61861242,11.8088483 C4.80284464,11.7813655 4.95601172,11.6527052 5.0148819,11.4759819 L10.4199977,6.11841844 L9.67501107,5.3734318 L4.12723825,10.9370554 L1.89227835,11.5869374 L1.41675496,11.111414 L2.09833848,8.78134939 L7.59855896,3.29697969 L6.93282622,2.63124695 L6.93282622,2.63124695 Z M8.13748546,3.85175697 L2.57386186,9.43123135 L3.38225162,9.60558992 L3.49320707,10.3505766 L9.07268145,4.78695296 L8.13748546,3.85175697 L8.13748546,3.85175697 Z" id="Shape-Copy"></path>
                    </g>
                </g>
            </g>
        </g>
    </g>
</svg>