<?xml version="1.0" encoding="UTF-8" standalone="no"?>
<svg width="30px" height="30px" viewBox="0 0 30 30" version="1.1" xmlns="http://www.w3.org/2000/svg" xmlns:xlink="http://www.w3.org/1999/xlink" xmlns:sketch="http://www.bohemiancoding.com/sketch/ns">
    <!-- Generator: Sketch 3.3.3 (12072) - http://www.bohemiancoding.com/sketch -->
    <title>通知normal copy</title>
    <desc>Created with Sketch.</desc>
    <defs></defs>
    <g id="v2" stroke="none" stroke-width="1" fill="none" fill-rule="evenodd" sketch:type="MSPage">
        <g id="协作icons" sketch:type="MSArtboardGroup" transform="translate(-80.000000, -40.000000)">
            <g id="Group-+-创建-加入" sketch:type="MSLayerGroup" transform="translate(40.748324, 42.000000)">
                <g id="Group" transform="translate(45.000000, 0.000000)" sketch:type="MSShapeGroup">
                    <g id="Group-4">
                        <g>
                            <g id="Imported-Layers">
                                <path d="M8.30698197,23 C10.3069819,23 10.3020109,21.9804976 10.3020109,21 C10.3020109,21 9.68769382,21 8.30698197,21 C6.92627011,21 6.30201097,21 6.30201097,21 C6.30201097,21.9465015 6.306982,23 8.30698197,23 Z" id="Oval-10" fill="#398DEE"></path>
                                <path d="M12.2516756,11.9400001 L12.2516756,20 L4.25167581,20 L4.25167581,11.9400001 C4.25167581,9.76700006 6.07867581,8 8.25167581,8 C10.4246758,8 12.2516756,9.76700006 12.2516756,11.9400001 Z M2.25167581,11.9400001 L2.25167581,20 L14.2516758,20 L14.2516758,11.9400001 C14.2516758,8.65900006 11.5326756,6 8.25167561,6 C4.97067561,6 2.25167581,8.65900006 2.25167581,11.9400001 Z" id="Fill-1" fill="#398DEE"></path>
                                <path d="M16.2516756,18.99 C16.2516756,18.443 15.7986756,18 15.2516756,18 L1.25167584,18 C0.704675844,18 0.261675835,18.443 0.261675835,18.99 L0.261675844,19.01 C0.261675844,19.557 0.704675844,20 1.25167584,20 L15.2516756,20 C15.7986756,20 16.2516756,19.557 16.2516756,19.01" id="Fill-2" fill="#398DEE"></path>
                                <rect id="Rectangle-869" fill="#4794EE" x="6.25167581" y="4" width="4" height="4" rx="2"></rect>
                            </g>
                        </g>
                    </g>
                </g>
            </g>
        </g>
    </g>
</svg>