<?xml version="1.0" encoding="UTF-8" standalone="no"?>
<svg width="30px" height="30px" viewBox="0 0 30 30" version="1.1" xmlns="http://www.w3.org/2000/svg" xmlns:xlink="http://www.w3.org/1999/xlink" xmlns:sketch="http://www.bohemiancoding.com/sketch/ns">
    <!-- Generator: Sketch 3.3.3 (12072) - http://www.bohemiancoding.com/sketch -->
    <title>通知hover copy</title>
    <desc>Created with Sketch.</desc>
    <defs></defs>
    <g id="v2" stroke="none" stroke-width="1" fill="none" fill-rule="evenodd" sketch:type="MSPage">
        <g id="协作icons" sketch:type="MSArtboardGroup" transform="translate(-80.000000, -70.000000)" fill="#2A82DC">
            <g id="Group-+-创建-加入" sketch:type="MSLayerGroup" transform="translate(40.748324, 42.000000)">
                <g id="Group" transform="translate(45.000000, 0.000000)" sketch:type="MSShapeGroup">
                    <g id="Group-4">
                        <g>
                            <g id="Imported-Layers-Copy" transform="translate(0.000000, 34.000000)">
                                <path d="M8.30698197,19 C10.3069819,19 10.3020109,17.9804976 10.3020109,17 C10.3020109,17 9.68769382,17 8.30698197,17 C6.92627011,17 6.30201097,17 6.30201097,17 C6.30201097,17.9465015 6.306982,19 8.30698197,19 Z" id="Oval-10"></path>
                                <path d="M12.2516756,7.94000006 L12.2516756,16 L4.25167581,16 L4.25167581,7.94000006 C4.25167581,5.76700006 6.07867581,4 8.25167581,4 C10.4246758,4 12.2516756,5.76700006 12.2516756,7.94000006 Z M2.25167581,7.94000006 L2.25167581,16 L14.2516758,16 L14.2516758,7.94000006 C14.2516758,4.65900006 11.5326756,2 8.25167561,2 C4.97067561,2 2.25167581,4.65900006 2.25167581,7.94000006 Z" id="Fill-1"></path>
                                <path d="M16.2516756,14.99 C16.2516756,14.443 15.7986756,14 15.2516756,14 L1.25167584,14 C0.704675844,14 0.261675835,14.443 0.261675835,14.99 L0.261675844,15.01 C0.261675844,15.557 0.704675844,16 1.25167584,16 L15.2516756,16 C15.7986756,16 16.2516756,15.557 16.2516756,15.01" id="Fill-2"></path>
                                <rect id="Rectangle-869" x="6.25167581" y="0" width="4" height="4" rx="2"></rect>
                            </g>
                        </g>
                    </g>
                </g>
            </g>
        </g>
    </g>
</svg>