<?xml version="1.0" encoding="UTF-8" standalone="no"?>
<svg width="14px" height="14px" viewBox="0 0 14 14" version="1.1" xmlns="http://www.w3.org/2000/svg" xmlns:xlink="http://www.w3.org/1999/xlink" xmlns:sketch="http://www.bohemiancoding.com/sketch/ns">
    <!-- Generator: Sketch 3.3.3 (12072) - http://www.bohemiancoding.com/sketch -->
    <title>加入群按钮hover copy</title>
    <desc>Created with Sketch.</desc>
    <defs></defs>
    <g id="v2" stroke="none" stroke-width="1" fill="none" fill-rule="evenodd" sketch:type="MSPage">
        <g id="协作icons" sketch:type="MSArtboardGroup" transform="translate(-192.000000, -244.000000)">
            <g id="文件区-icon-+-文件区" sketch:type="MSLayerGroup" transform="translate(22.000000, 170.000000)">
                <g id="文件区-icon" transform="translate(0.000000, 30.000000)">
                    <g id="新建上传导入-4"></g>
                    <g id="Group" transform="translate(2.000000, 1.000000)"></g>
                </g>
            </g>
            <g id="Shape-+-Path-+-Rectangle-1688" sketch:type="MSLayerGroup" transform="translate(192.000000, 244.000000)">
                <path d="M7.36273998,0.311328295 L9.93200011,2.98575261 C10.1233077,3.18489077 10.1169598,3.50140961 9.91782165,3.69271723 C9.71868349,3.88402484 9.40216465,3.87767693 9.21085703,3.67853877 L7,1.3771876 L4.78914297,3.67853877 C4.59783535,3.87767693 4.28131651,3.88402484 4.08217835,3.69271723 C3.88304019,3.50140961 3.87669227,3.18489077 4.06799989,2.98575261 L6.63726002,0.311328295 C6.64255637,0.305754269 6.64800537,0.300273916 6.65360692,0.294892634 C6.75075502,0.201564605 6.87583862,0.15527672 7.00069231,0.155464108 C7.12416138,0.15527672 7.24924498,0.201564605 7.34639308,0.294892634 C7.35199463,0.300273916 7.35744363,0.305754269 7.36273998,0.311328295 Z" id="Shape" fill="#98ADC6" sketch:type="MSShapeGroup"></path>
                <path d="M0,3.99539757 C0,3.44565467 0.481911689,3 1.0753102,3 L12.9246898,3 C13.5185672,3 14,3.44910619 14,3.99539757 L14,12.0046024 C14,12.5543453 13.5180883,13 12.9246898,13 L1.0753102,13 C0.481432775,13 0,12.5508938 0,12.0046024 L0,3.99539757 Z M1,3.99539757 L1,12.0046024 C1,11.9823907 1.01897761,12 1.0753102,12 L12.9246898,12 C12.9825433,12 13,11.9838456 13,12.0046024 L13,3.99539757 C13,4.01760935 12.9810224,4 12.9246898,4 L1.0753102,4 C1.01745673,4 1,4.01615445 1,3.99539757 Z" id="Path" fill="#98ADC6" sketch:type="MSShapeGroup"></path>
                <path d="M3,6.5 C3,6.22385763 3.23079681,6 3.50043583,6 L10.4995642,6 C10.7759472,6 11,6.23193359 11,6.5 C11,6.77614237 10.7692032,7 10.4995642,7 L3.50043583,7 C3.22405275,7 3,6.76806641 3,6.5 Z M3,9.5 C3,9.22385763 3.21403503,9 3.50468445,9 L4.49531555,9 C4.77404508,9 5,9.23193359 5,9.5 C5,9.77614237 4.78596497,10 4.49531555,10 L3.50468445,10 C3.22595492,10 3,9.76806641 3,9.5 Z M6,9.5 C6,9.22385763 6.21403503,9 6.50468445,9 L7.49531555,9 C7.77404508,9 8,9.23193359 8,9.5 C8,9.77614237 7.78596497,10 7.49531555,10 L6.50468445,10 C6.22595492,10 6,9.76806641 6,9.5 Z M9,9.5 C9,9.22385763 9.21403503,9 9.50468445,9 L10.4953156,9 C10.7740451,9 11,9.23193359 11,9.5 C11,9.77614237 10.785965,10 10.4953156,10 L9.50468445,10 C9.22595492,10 9,9.76806641 9,9.5 Z" id="Rectangle-1688" fill="#398DEE" sketch:type="MSShapeGroup"></path>
            </g>
            <g id="Group" sketch:type="MSLayerGroup" transform="translate(40.000000, 40.000000)"></g>
        </g>
    </g>
</svg>