<?xml version="1.0" encoding="UTF-8" standalone="no"?>
<svg width="12px" height="12px" viewBox="0 0 12 12" version="1.1" xmlns="http://www.w3.org/2000/svg" xmlns:xlink="http://www.w3.org/1999/xlink" xmlns:sketch="http://www.bohemiancoding.com/sketch/ns">
    <!-- Generator: Sketch 3.3.3 (12072) - http://www.bohemiancoding.com/sketch -->
    <title>Oval 574</title>
    <desc>Created with Sketch.</desc>
    <defs></defs>
    <g id="v2" stroke="none" stroke-width="1" fill="none" fill-rule="evenodd" sketch:type="MSPage">
        <g id="协作icons" sketch:type="MSArtboardGroup" transform="translate(-86.000000, -997.000000)" fill="#A4B4C8">
            <path d="M90.5984174,1002.99342 L89.3161801,1001.70842 C88.9260765,1001.31748 88.9267583,1000.68431 89.3177029,1000.29421 C89.7086475,999.904104 90.3418121,999.904786 90.7319156,1000.29573 L92.0162075,1001.58279 L93.3048171,1000.30069 C93.6963286,999.911154 94.3294916,999.912756 94.7190261,1000.30427 C95.1085607,1000.69578 95.1069581,1001.32894 94.7154466,1001.71848 L93.4288989,1002.99853 L94.7236759,1004.2961 C95.1137794,1004.68704 95.1130976,1005.32021 94.7221531,1005.71031 C94.3312085,1006.10041 93.6980439,1006.09973 93.3079403,1005.70879 L92.0111088,1004.40916 L90.714531,1005.69919 C90.3230195,1006.08872 89.6898566,1006.08712 89.300322,1005.69561 C88.9107874,1005.3041 88.9123901,1004.67094 89.3039016,1004.2814 L90.5984174,1002.99342 Z M92,1009 C95.3137085,1009 98,1006.31371 98,1003 C98,999.686292 95.3137085,997 92,997 C88.6862915,997 86,999.686292 86,1003 C86,1006.31371 88.6862915,1009 92,1009 Z" id="Oval-574" sketch:type="MSShapeGroup"></path>
        </g>
    </g>
</svg>