<?xml version="1.0" encoding="UTF-8" standalone="no"?>
<svg width="20px" height="20px" viewBox="0 0 20 20" version="1.1" xmlns="http://www.w3.org/2000/svg" xmlns:xlink="http://www.w3.org/1999/xlink" xmlns:sketch="http://www.bohemiancoding.com/sketch/ns">
    <!-- Generator: Sketch 3.3.3 (12072) - http://www.bohemiancoding.com/sketch -->
    <title>新建群</title>
    <desc>Created with Sketch.</desc>
    <defs></defs>
    <g id="v2" stroke="none" stroke-width="1" fill="none" fill-rule="evenodd" sketch:type="MSPage">
        <g id="协作icons" sketch:type="MSArtboardGroup" transform="translate(-103.000000, -970.000000)" fill="#40AB73">
            <path d="M114,979 L114,970.991803 C114,970.455306 113.552285,970 113,970 C112.443865,970 112,970.444045 112,970.991803 L112,979 L103.991803,979 C103.455306,979 103,979.447715 103,980 C103,980.556135 103.444045,981 103.991803,981 L112,981 L112,989.008197 C112,989.544694 112.447715,990 113,990 C113.556135,990 114,989.555955 114,989.008197 L114,981 L122.008197,981 C122.544694,981 123,980.552285 123,980 C123,979.443865 122.555955,979 122.008197,979 L114,979 Z" id="Line-Copy-8" sketch:type="MSShapeGroup"></path>
        </g>
    </g>
</svg>