<?xml version="1.0" encoding="UTF-8" standalone="no"?>
<svg width="20px" height="20px" viewBox="0 0 20 20" version="1.1" xmlns="http://www.w3.org/2000/svg" xmlns:xlink="http://www.w3.org/1999/xlink" xmlns:sketch="http://www.bohemiancoding.com/sketch/ns">
    <!-- Generator: Sketch 3.3.3 (12072) - http://www.bohemiancoding.com/sketch -->
    <title>notice_normal</title>
    <desc>Created with Sketch.</desc>
    <defs></defs>
    <g id="v2" stroke="none" stroke-width="1" fill="none" fill-rule="evenodd" sketch:type="MSPage">
        <g id="协作icons" sketch:type="MSArtboardGroup" transform="translate(-245.000000, -86.000000)">
            <g id="消息-copy-3" sketch:type="MSLayerGroup" transform="translate(246.000000, 88.000000)">
                <g id="Rectangle-163-+-Rectangle-+-Rectangle-2" transform="translate(0.000000, 0.809524)" sketch:type="MSShapeGroup">
                    <path d="M1,3.19047619 C0.45,3.19047619 0,3.63313908 0,4.19047619 L0,12.1904762 C0,12.663065 0.451,13.115653 1,13.1904762 L2,13.1904762 L2,14.1904762 L2,14.6985379 C2,14.9702279 2.17867947,15.0713565 2.41713715,14.9123848 L5,13.1904762 L13,13.1904762 C13.55,13.115653 14,12.6729901 14,12.1904762 L14,4.19047619 C14,3.64306425 13.549,3.19047619 13,3.19047619 L1,3.19047619 Z M3,6.19047619 L11,6.19047619 L11,7.19047619 L3,7.19047619 L3,6.19047619 Z M3,9.19047619 L8,9.19047619 L8,10.1904762 L3,10.1904762 L3,9.19047619 Z" id="Imported-Layers-Copy-9" fill="#98ADC5"></path>
                    <path d="M15,10.1904762 L16,10.1904762 C16.55,10.1904762 17,9.74447619 17,9.19047619 L17,1.19047619 C17,0.64647619 16.549,0.19047619 16,0.19047619 L4,0.19047619 C3.45,0.19047619 3,0.63647619 3,1.19047619 L3,2.19047619 L13,2.19047619 C14.097,2.19047619 15,3.08947619 15,4.19047619 L15,10.1904762" id="Imported-Layers" fill="#E0E9F3"></path>
                </g>
            </g>
        </g>
    </g>
</svg>