<?xml version="1.0" encoding="UTF-8" standalone="no"?>
<svg width="20px" height="20px" viewBox="0 0 20 20" version="1.1" xmlns="http://www.w3.org/2000/svg" xmlns:xlink="http://www.w3.org/1999/xlink" xmlns:sketch="http://www.bohemiancoding.com/sketch/ns">
    <!-- Generator: Sketch 3.3.3 (12072) - http://www.bohemiancoding.com/sketch -->
    <title>notice_hover</title>
    <desc>Created with Sketch.</desc>
    <defs></defs>
    <g id="v2" stroke="none" stroke-width="1" fill="none" fill-rule="evenodd" sketch:type="MSPage">
        <g id="协作icons" sketch:type="MSArtboardGroup" transform="translate(-245.000000, -66.000000)">
            <path d="M261,79 L262,79 C262.55,79 263,78.554 263,78 L263,70 C263,69.456 262.549,69 262,69 L250,69 C249.45,69 249,69.446 249,70 L249,71 L259,71 C260.097,71 261,71.899 261,73 L261,79" id="Imported-Layers" fill="#A6CEFD" sketch:type="MSShapeGroup"></path>
            <g id="消息-copy-2" sketch:type="MSLayerGroup" transform="translate(245.748324, 66.000000)" fill="#2A82DC">
                <g id="Rectangle-163-+-Rectangle-+-Rectangle-2" transform="translate(0.000000, 5.809524)" sketch:type="MSShapeGroup">
                    <path d="M1.25167581,0.19047619 C0.701675807,0.19047619 0.251675807,0.634476469 0.251675807,1.19047619 L0.251675807,9.19047619 C0.251675807,9.69168394 0.702675807,10.1456394 1.25167581,10.1904762 L2.25167581,10.1904762 L2.25167581,11.1904762 L2.25167581,11.7183914 C2.25167581,11.9991397 2.43035527,12.1054521 2.66881295,11.9435986 L5.25167581,10.1904762 L13.2516758,10.1904762 C13.8016758,10.1456394 14.2516758,9.7016391 14.2516758,9.19047619 L14.2516758,1.19047619 C14.2516758,0.644431632 13.8006758,0.19047619 13.2516758,0.19047619 L1.25167581,0.19047619 Z M3.25167581,3.19047619 L11.2516758,3.19047619 L11.2516758,4.19047619 L3.25167581,4.19047619 L3.25167581,3.19047619 Z M3.25167581,6.19047619 L8.25167581,6.19047619 L8.25167581,7.19047619 L3.25167581,7.19047619 L3.25167581,6.19047619 Z" id="Imported-Layers-Copy-8"></path>
                </g>
            </g>
        </g>
    </g>
</svg>