<?xml version="1.0" encoding="UTF-8" standalone="no"?>
<svg width="9px" height="12px" viewBox="0 0 9 12" version="1.1" xmlns="http://www.w3.org/2000/svg" xmlns:xlink="http://www.w3.org/1999/xlink" xmlns:sketch="http://www.bohemiancoding.com/sketch/ns">
    <!-- Generator: Sketch 3.3.3 (12072) - http://www.bohemiancoding.com/sketch -->
    <title>最后一页</title>
    <desc>Created with Sketch.</desc>
    <defs></defs>
    <g id="v2" stroke="none" stroke-width="1" fill="none" fill-rule="evenodd" sketch:type="MSPage">
        <g id="协作icons" sketch:type="MSArtboardGroup" transform="translate(-214.000000, -974.000000)" fill="#979797">
            <g id="Group-Copy-9" sketch:type="MSLayerGroup" transform="translate(141.000000, 974.000000)">
                <path d="M78.5721636,6.15652167 C78.6222789,5.978465 78.577272,5.77927593 78.4371427,5.63917593 L73.9518227,1.15479108 C73.7453915,0.948402972 73.4107005,0.948402972 73.2042693,1.15479108 C72.9978382,1.3611792 72.9978382,1.69580045 73.2042693,1.90218856 L77.3230134,6.0200738 L73.1589085,10.0937713 C72.9502457,10.2979038 72.9466077,10.6325053 73.1507828,10.8411246 C73.3549579,11.0497439 73.6896291,11.0533812 73.898292,10.8492487 L78.4256558,6.42017891 C78.5019377,6.34555319 78.550819,6.25349094 78.5721636,6.15652167 Z M82,0.5 L82,11.5 C82,11.7761424 81.7761424,12 81.5,12 C81.2238576,12 81,11.7761424 81,11.5 L81,0.5 C81,0.223857625 81.2238576,0 81.5,0 C81.7761424,0 82,0.223857625 82,0.5 Z" id="Line-Copy" sketch:type="MSShapeGroup"></path>
            </g>
        </g>
    </g>
</svg>