<?xml version="1.0" encoding="UTF-8" standalone="no"?>
<svg width="9px" height="12px" viewBox="0 0 9 12" version="1.1" xmlns="http://www.w3.org/2000/svg" xmlns:xlink="http://www.w3.org/1999/xlink" xmlns:sketch="http://www.bohemiancoding.com/sketch/ns">
    <!-- Generator: Sketch 3.3.3 (12072) - http://www.bohemiancoding.com/sketch -->
    <title>第一页</title>
    <desc>Created with Sketch.</desc>
    <defs></defs>
    <g id="v2" stroke="none" stroke-width="1" fill="none" fill-rule="evenodd" sketch:type="MSPage">
        <g id="协作icons" sketch:type="MSArtboardGroup" transform="translate(-141.000000, -974.000000)" fill="#979797">
            <g id="Group-Copy-9" sketch:type="MSLayerGroup" transform="translate(141.000000, 974.000000)">
                <path d="M3.01980249,6.15652167 C2.96968719,5.978465 3.01469415,5.77927593 3.15482337,5.63917593 L7.64014345,1.15479108 C7.8465746,0.948402972 8.18126564,0.948402972 8.3876968,1.15479108 C8.59412795,1.3611792 8.59412795,1.69580045 8.3876968,1.90218856 L4.26895275,6.0200738 L8.43305759,10.0937713 C8.64172041,10.2979038 8.64535844,10.6325053 8.44118334,10.8411246 C8.23700824,11.0497439 7.90233698,11.0533812 7.69367416,10.8492487 L3.16631031,6.42017891 C3.09002842,6.34555319 3.04114707,6.25349094 3.01980249,6.15652167 Z M0,0.5 L0,11.5 C0,11.7761424 0.223857625,12 0.5,12 C0.776142375,12 1,11.7761424 1,11.5 L1,0.5 C1,0.223857625 0.776142375,0 0.5,0 C0.223857625,0 0,0.223857625 0,0.5 Z" id="Line" sketch:type="MSShapeGroup"></path>
            </g>
        </g>
    </g>
</svg>