<?xml version="1.0" encoding="UTF-8" standalone="no"?>
<svg width="9px" height="12px" viewBox="0 0 9 12" version="1.1" xmlns="http://www.w3.org/2000/svg" xmlns:xlink="http://www.w3.org/1999/xlink" xmlns:sketch="http://www.bohemiancoding.com/sketch/ns">
    <!-- Generator: Sketch 3.3.3 (12072) - http://www.bohemiancoding.com/sketch -->
    <title>最后一页 copy</title>
    <desc>Created with Sketch.</desc>
    <defs></defs>
    <g id="v2" stroke="none" stroke-width="1" fill="none" fill-rule="evenodd" sketch:type="MSPage">
        <g id="协作icons" sketch:type="MSArtboardGroup" transform="translate(-214.000000, -994.000000)" fill="#398DEE">
            <g id="Group-Copy-9" sketch:type="MSLayerGroup" transform="translate(141.000000, 974.000000)">
                <path d="M78.5721636,26.1565217 C78.6222789,25.978465 78.577272,25.7792759 78.4371427,25.6391759 L73.9518227,21.1547911 C73.7453915,20.948403 73.4107005,20.948403 73.2042693,21.1547911 C72.9978382,21.3611792 72.9978382,21.6958004 73.2042693,21.9021886 L77.3230134,26.0200738 L73.1589085,30.0937713 C72.9502457,30.2979038 72.9466077,30.6325053 73.1507828,30.8411246 C73.3549579,31.0497439 73.6896291,31.0533812 73.898292,30.8492487 L78.4256558,26.4201789 C78.5019377,26.3455532 78.550819,26.2534909 78.5721636,26.1565217 Z M82,20.5 L82,31.5 C82,31.7761424 81.7761424,32 81.5,32 C81.2238576,32 81,31.7761424 81,31.5 L81,20.5 C81,20.2238576 81.2238576,20 81.5,20 C81.7761424,20 82,20.2238576 82,20.5 Z" id="Line-Copy-3" sketch:type="MSShapeGroup"></path>
            </g>
        </g>
    </g>
</svg>