<?xml version="1.0" encoding="UTF-8" standalone="no"?>
<svg width="9px" height="12px" viewBox="0 0 9 12" version="1.1" xmlns="http://www.w3.org/2000/svg" xmlns:xlink="http://www.w3.org/1999/xlink" xmlns:sketch="http://www.bohemiancoding.com/sketch/ns">
    <!-- Generator: Sketch 3.3.3 (12072) - http://www.bohemiancoding.com/sketch -->
    <title>第一页 copy</title>
    <desc>Created with Sketch.</desc>
    <defs></defs>
    <g id="v2" stroke="none" stroke-width="1" fill="none" fill-rule="evenodd" sketch:type="MSPage">
        <g id="协作icons" sketch:type="MSArtboardGroup" transform="translate(-141.000000, -994.000000)" fill="#398DEE">
            <g id="Group-Copy-9" sketch:type="MSLayerGroup" transform="translate(141.000000, 974.000000)">
                <path d="M3.01980249,26.1565217 C2.96968719,25.978465 3.01469415,25.7792759 3.15482337,25.6391759 L7.64014345,21.1547911 C7.8465746,20.948403 8.18126564,20.948403 8.3876968,21.1547911 C8.59412795,21.3611792 8.59412795,21.6958004 8.3876968,21.9021886 L4.26895275,26.0200738 L8.43305759,30.0937713 C8.64172041,30.2979038 8.64535844,30.6325053 8.44118334,30.8411246 C8.23700824,31.0497439 7.90233698,31.0533812 7.69367416,30.8492487 L3.16631031,26.4201789 C3.09002842,26.3455532 3.04114707,26.2534909 3.01980249,26.1565217 Z M0,20.5 L0,31.5 C0,31.7761424 0.223857625,32 0.5,32 C0.776142375,32 1,31.7761424 1,31.5 L1,20.5 C1,20.2238576 0.776142375,20 0.5,20 C0.223857625,20 0,20.2238576 0,20.5 Z" id="Line-Copy-4" sketch:type="MSShapeGroup"></path>
            </g>
        </g>
    </g>
</svg>