<?xml version="1.0" encoding="UTF-8" standalone="no"?>
<svg width="10px" height="10px" viewBox="0 0 10 10" version="1.1" xmlns="http://www.w3.org/2000/svg" xmlns:xlink="http://www.w3.org/1999/xlink" xmlns:sketch="http://www.bohemiancoding.com/sketch/ns">
    <!-- Generator: Sketch 3.3.3 (12072) - http://www.bohemiancoding.com/sketch -->
    <title>Rectangle 1327</title>
    <desc>Created with Sketch.</desc>
    <defs></defs>
    <g id="v2" stroke="none" stroke-width="1" fill="none" fill-rule="evenodd" sketch:type="MSPage">
        <g id="pdf-预览" sketch:type="MSArtboardGroup" transform="translate(-595.000000, -708.000000)" fill="#FFFFFF">
            <g id="协作调整-+-中间页-3" sketch:type="MSLayerGroup" transform="translate(15.000000, -93.000000)">
                <g id="Group" transform="translate(569.000000, 796.000000)" sketch:type="MSShapeGroup">
                    <path d="M15,9 L11.9953976,9 C11.4556644,9 11,9.44771525 11,10 C11,10.5561352 11.4456547,11 11.9953976,11 L15,11 L15,14.0046024 C15,14.5443356 15.4477153,15 16,15 C16.5561352,15 17,14.5543453 17,14.0046024 L17,11 L20.0046024,11 C20.5443356,11 21,10.5522847 21,10 C21,9.44386482 20.5543453,9 20.0046024,9 L17,9 L17,5.99539757 C17,5.4556644 16.5522847,5 16,5 C15.4438648,5 15,5.44565467 15,5.99539757 L15,9 L15,9 Z" id="Rectangle-1327"></path>
                </g>
            </g>
        </g>
    </g>
</svg>