<?xml version="1.0" encoding="UTF-8" standalone="no"?>
<svg width="18px" height="16px" viewBox="0 0 18 16" version="1.1" xmlns="http://www.w3.org/2000/svg" xmlns:xlink="http://www.w3.org/1999/xlink" xmlns:sketch="http://www.bohemiancoding.com/sketch/ns">
    <!-- Generator: Sketch 3.3.3 (12072) - http://www.bohemiancoding.com/sketch -->
    <title>Imported Layers + Imported Layers Copy 2</title>
    <desc>Created with Sketch.</desc>
    <defs></defs>
    <g id="v2" stroke="none" stroke-width="1" fill="none" fill-rule="evenodd" sketch:type="MSPage">
        <g id="pdf-预览" sketch:type="MSArtboardGroup" transform="translate(-717.000000, -705.000000)" fill="#FFFFFF">
            <g id="协作调整-+-中间页-3" sketch:type="MSLayerGroup" transform="translate(15.000000, -93.000000)">
                <g id="Group" transform="translate(569.000000, 796.000000)" sketch:type="MSShapeGroup">
                    <g id="Imported-Layers-+-Imported-Layers-Copy-2" transform="translate(133.000000, 2.000000)">
                        <path d="M10.8985,1 C10.8985,1.553 11.3495,2 11.8895,2 L13.6135,2 L10.2835,5.331 C9.9055,5.709 9.9055,6.326 10.2835,6.704 L10.3245,6.745 C10.7025,7.123 11.3205,7.123 11.6975,6.745 L15.0295,3.413 L15.0295,5.141 C15.0295,5.688 15.4735,6.131 16.0295,6.131 C16.5815,6.131 17.0295,5.68 17.0295,5.141 L17.0295,1.122 C17.0295,0.812 16.8785,0.547 16.6545,0.365 C16.4715,0.147 16.2085,0 15.9085,0 L11.8895,0 C11.3425,0 10.8985,0.444 10.8985,1" id="Imported-Layers"></path>
                        <path d="M0.8985,8 C0.8985,8.553 1.3495,9 1.8895,9 L3.6135,9 L0.2835,12.331 C-0.0945,12.709 -0.0945,13.326 0.2835,13.704 L0.3245,13.745 C0.7025,14.123 1.3205,14.123 1.6975,13.745 L5.0295,10.413 L5.0295,12.141 C5.0295,12.688 5.4735,13.131 6.0295,13.131 C6.5815,13.131 7.0295,12.68 7.0295,12.141 L7.0295,8.122 C7.0295,7.812 6.8785,7.547 6.6545,7.365 C6.4715,7.147 6.2085,7 5.9085,7 L1.8895,7 C1.3425,7 0.8985,7.444 0.8985,8" id="Imported-Layers-Copy-2" transform="translate(4.000000, 11.500000) scale(-1, -1) translate(-4.000000, -11.500000) "></path>
                    </g>
                </g>
            </g>
        </g>
    </g>
</svg>