<?xml version="1.0" encoding="UTF-8" standalone="no"?>
<svg width="20px" height="20px" viewBox="0 0 20 20" version="1.1" xmlns="http://www.w3.org/2000/svg" xmlns:xlink="http://www.w3.org/1999/xlink" xmlns:sketch="http://www.bohemiancoding.com/sketch/ns">
    <!-- Generator: Sketch 3.3.3 (12072) - http://www.bohemiancoding.com/sketch -->
    <title>还原hover</title>
    <desc>Created with Sketch.</desc>
    <defs></defs>
    <g id="v2" stroke="none" stroke-width="1" fill="none" fill-rule="evenodd" sketch:type="MSPage">
        <g id="协作icons" sketch:type="MSArtboardGroup" transform="translate(-130.000000, -218.000000)">
            <g id="文件区-icon-+-文件区" sketch:type="MSLayerGroup" transform="translate(34.000000, 170.000000)">
                <g id="文件区-icon" transform="translate(0.000000, 30.000000)">
                    <g id="新建上传导入-4" transform="translate(8.000000, 0.000000)" fill="#2A82DC" sketch:type="MSShapeGroup">
                        <path d="M90,28 L88.4960938,28 L91,31.0518799 L93.5050049,28 L92,28 C91.9827924,24.597 94.6528808,22 98,22 C101.268083,22 103.982555,24.692 104,28 C103.982555,31.309 101.268083,34.001 98,34 C97.3734053,34.001 96.9214977,34.448 97,35 C96.9214977,35.553 97.3734053,36 98,36 C102.379695,36 106,32.412 106,28 C106,23.589 102.379695,20 98,20 C93.5412686,20 89.9663561,23.495 90,28 Z" id="还原群-copy"></path>
                    </g>
                    <g id="Group"></g>
                </g>
            </g>
            <g id="Group" sketch:type="MSLayerGroup" transform="translate(40.000000, 40.000000)"></g>
        </g>
    </g>
</svg>