<?xml version="1.0" encoding="UTF-8" standalone="no"?>
<svg width="16px" height="16px" viewBox="0 0 16 16" version="1.1" xmlns="http://www.w3.org/2000/svg" xmlns:xlink="http://www.w3.org/1999/xlink" xmlns:sketch="http://www.bohemiancoding.com/sketch/ns">
    <!-- Generator: Sketch 3.3.3 (12072) - http://www.bohemiancoding.com/sketch -->
    <title>还原2hover </title>
    <desc>Created with Sketch.</desc>
    <defs></defs>
    <g id="v2" stroke="none" stroke-width="1" fill="none" fill-rule="evenodd" sketch:type="MSPage">
        <g id="协作icons" sketch:type="MSArtboardGroup" transform="translate(-434.000000, -218.000000)">
            <g id="文件区-icon-+-文件区" sketch:type="MSLayerGroup" transform="translate(22.000000, 170.000000)">
                <g id="文件区-icon" transform="translate(0.000000, 30.000000)"></g>
            </g>
            <path d="M442.999906,219 C439.139906,219 435.999906,222.14 435.999906,226 C435.999906,226.037 436.013906,226.068 436.020906,226.103 L434.804906,224.754 C434.630906,224.559 434.335906,224.549 434.147906,224.73 C433.959906,224.911 433.949906,225.215 434.124906,225.41 L436.060906,227.558 C436.060906,227.558 436.060906,227.559 436.061906,227.559 C436.091906,227.593 436.129906,227.612 436.165906,227.635 C436.239906,227.68 436.318906,227.711 436.400906,227.711 C436.457906,227.711 436.514906,227.701 436.568906,227.679 C436.622906,227.657 436.673906,227.625 436.718906,227.582 L438.939906,225.433 C439.126906,225.251 439.136906,224.947 438.961906,224.753 C438.785906,224.56 438.491906,224.55 438.303906,224.731 L437.080906,225.914 C437.127906,222.688 439.762906,220.077 442.999906,220.077 C446.265906,220.077 448.922906,222.734 448.922906,226 C448.922906,229.266 446.265906,231.923 442.999906,231.923 C441.325906,231.923 439.721906,231.209 438.599906,229.966 C438.400906,229.745 438.060906,229.728 437.839906,229.927 C437.618906,230.126 437.601906,230.466 437.800906,230.687 C439.126906,232.157 441.021906,233 442.999906,233 C446.859906,233 449.999906,229.86 449.999906,226 C449.999906,222.14 446.859906,219 442.999906,219" id="Imported-Layers-Copy-20" fill="#5B688C" sketch:type="MSShapeGroup"></path>
            <g id="Group" sketch:type="MSLayerGroup" transform="translate(40.000000, 40.000000)"></g>
        </g>
    </g>
</svg>