<?xml version="1.0" encoding="UTF-8" standalone="no"?>
<svg width="16px" height="16px" viewBox="0 0 16 16" version="1.1" xmlns="http://www.w3.org/2000/svg" xmlns:xlink="http://www.w3.org/1999/xlink" xmlns:sketch="http://www.bohemiancoding.com/sketch/ns">
    <!-- Generator: Sketch 3.3.3 (12072) - http://www.bohemiancoding.com/sketch -->
    <title>还原2</title>
    <desc>Created with Sketch.</desc>
    <defs></defs>
    <g id="v2" stroke="none" stroke-width="1" fill="none" fill-rule="evenodd" sketch:type="MSPage">
        <g id="协作icons" sketch:type="MSArtboardGroup" transform="translate(-434.000000, -198.000000)">
            <g id="文件区-icon-+-文件区" sketch:type="MSLayerGroup" transform="translate(22.000000, 170.000000)">
                <g id="文件区-icon" transform="translate(0.000000, 30.000000)"></g>
            </g>
            <path d="M442.999906,199 C439.139906,199 435.999906,202.14 435.999906,206 C435.999906,206.037 436.013906,206.068 436.020906,206.103 L434.804906,204.754 C434.630906,204.559 434.335906,204.549 434.147906,204.73 C433.959906,204.911 433.949906,205.215 434.124906,205.41 L436.060906,207.558 C436.060906,207.558 436.060906,207.559 436.061906,207.559 C436.091906,207.593 436.129906,207.612 436.165906,207.635 C436.239906,207.68 436.318906,207.711 436.400906,207.711 C436.457906,207.711 436.514906,207.701 436.568906,207.679 C436.622906,207.657 436.673906,207.625 436.718906,207.582 L438.939906,205.433 C439.126906,205.251 439.136906,204.947 438.961906,204.753 C438.785906,204.56 438.491906,204.55 438.303906,204.731 L437.080906,205.914 C437.127906,202.688 439.762906,200.077 442.999906,200.077 C446.265906,200.077 448.922906,202.734 448.922906,206 C448.922906,209.266 446.265906,211.923 442.999906,211.923 C441.325906,211.923 439.721906,211.209 438.599906,209.966 C438.400906,209.745 438.060906,209.728 437.839906,209.927 C437.618906,210.126 437.601906,210.466 437.800906,210.687 C439.126906,212.157 441.021906,213 442.999906,213 C446.859906,213 449.999906,209.86 449.999906,206 C449.999906,202.14 446.859906,199 442.999906,199" id="Imported-Layers-Copy-5" fill="#959FB1" sketch:type="MSShapeGroup"></path>
            <g id="Group" sketch:type="MSLayerGroup" transform="translate(40.000000, 40.000000)"></g>
        </g>
    </g>
</svg>