<?xml version="1.0" encoding="UTF-8" standalone="no"?>
<svg width="20px" height="20px" viewBox="0 0 20 20" version="1.1" xmlns="http://www.w3.org/2000/svg" xmlns:xlink="http://www.w3.org/1999/xlink" xmlns:sketch="http://www.bohemiancoding.com/sketch/ns">
    <!-- Generator: Sketch 3.3.3 (12072) - http://www.bohemiancoding.com/sketch -->
    <title>全部文件hover</title>
    <desc>Created with Sketch.</desc>
    <defs></defs>
    <g id="v2" stroke="none" stroke-width="1" fill="none" fill-rule="evenodd" sketch:type="MSPage">
        <g id="协作icons" sketch:type="MSArtboardGroup" transform="translate(-70.000000, -390.000000)">
            <g id="文件树" sketch:type="MSLayerGroup" transform="translate(41.000000, 340.000000)">
                <g id="Path-Copy-3-+-Rectangle-+-Shape" transform="translate(31.000000, 53.000000)" sketch:type="MSShapeGroup">
                    <path d="M0,2.89736204 L0,0.802145752 C0,0.359132886 0.356754661,0 0.802989006,0 L6.19701099,0 C6.64048958,0 7.1336108,0.32220529 7.30861673,0.744235831 L7.82935197,2 L13.2071865,2 C13.6450453,2 14,2.35590529 14,2.80143794 L14,11.1985621 C14,11.641184 13.6398618,12 13.2071865,12 L0.79281354,12 C0.354954712,12 0,11.6440947 0,11.1985621 L0,2.89736204 Z" id="Path-Copy-3" fill="#76B0F3"></path>
                    <path d="M15,13 L2.49826741,13 C2.21990657,13 2,13.2238576 2,13.5 C2,13.7680664 2.22308192,14 2.49826741,14 L15.5017326,14 C15.640913,14 15.7654799,13.9440356 15.8552516,13.8535534 C15.9409363,13.7608605 16,13.6323914 16,13.4903505 L16,4.50964952 C16,4.22765279 15.7761424,4 15.5,4 C15.2319336,4 15,4.22817786 15,4.50964952 L15,13 Z M6.178,1 C6.237,1.006 6.346,1.08 6.371,1.129 L7.149,3.005 L13,3.005 L13,11 L1,11 L1,1 L6.178,1 Z M6.18,0 L0.775,0 C0.403,0 0.093,0.249 0,0.589 L0,11.443 C0.074,11.714 0.285,11.926 0.552,12 L13.416,12 C13.75,11.906 14,11.595 14,11.225 L14,2.808 C14,2.362 13.644,2.005 13.205,2.005 L7.817,2.005 L7.295,0.746 C7.119,0.323 6.625,0 6.18,0" id="Rectangle" fill="#398DEE"></path>
                </g>
                <g id="Imported-Layers" transform="translate(31.000000, 53.000000)"></g>
            </g>
        </g>
    </g>
</svg>