<?xml version="1.0" encoding="UTF-8" standalone="no"?>
<svg width="20px" height="20px" viewBox="0 0 20 20" version="1.1" xmlns="http://www.w3.org/2000/svg" xmlns:xlink="http://www.w3.org/1999/xlink" xmlns:sketch="http://www.bohemiancoding.com/sketch/ns">
    <!-- Generator: Sketch 3.3.3 (12072) - http://www.bohemiancoding.com/sketch -->
    <title>全部文件</title>
    <desc>Created with Sketch.</desc>
    <defs></defs>
    <g id="v2" stroke="none" stroke-width="1" fill="none" fill-rule="evenodd" sketch:type="MSPage">
        <g id="协作icons" sketch:type="MSArtboardGroup" transform="translate(-70.000000, -370.000000)" fill="#959FB1">
            <g id="文件树" sketch:type="MSLayerGroup" transform="translate(41.000000, 340.000000)">
                <path d="M46,46 L33.4982674,46 C33.2199066,46 33,46.2238576 33,46.5 C33,46.7680664 33.2230819,47 33.4982674,47 L46.5017326,47 C46.640913,47 46.7654799,46.9440356 46.8552516,46.8535534 C46.9409363,46.7608605 47,46.6323914 47,46.4903505 L47,37.5096495 C47,37.2276528 46.7761424,37 46.5,37 C46.2319336,37 46,37.2281779 46,37.5096495 L46,46 Z M38.2257962,36 L37.5104845,34.3691406 C37.4239617,34.171875 37.1685885,34 36.9465631,34 L32.4020125,34 C32.1779567,34 32,34.1782619 32,34.398159 L32,37 L32,43.5922804 C32,43.8178778 32.1787555,44 32.3992615,44 L43.6007385,44 C43.8303642,44 44,43.8174577 44,43.5922804 L44,36.4077196 C44,36.1821222 43.8212445,36 43.6007385,36 L38.2257962,36 L38.2257962,36 Z M38.829352,35 L38.3051569,33.7358923 C38.1400048,33.3376245 37.6404896,33 37.197011,33 L31.802989,33 C31.3567547,33 31,33.3595104 31,33.802989 L31,37.900719 L31,44.1985621 C31,44.6440947 31.3549547,45 31.7928135,45 L44.2071865,45 C44.6398618,45 45,44.641184 45,44.1985621 L45,35.8014379 C45,35.3559053 44.6450453,35 44.2071865,35 L38.829352,35 L38.829352,35 Z" id="Rectangle-388" sketch:type="MSShapeGroup"></path>
            </g>
        </g>
    </g>
</svg>