<?xml version="1.0" encoding="UTF-8" standalone="no"?>
<svg width="30px" height="16px" viewBox="0 0 30 16" version="1.1" xmlns="http://www.w3.org/2000/svg" xmlns:xlink="http://www.w3.org/1999/xlink" xmlns:sketch="http://www.bohemiancoding.com/sketch/ns">
    <!-- Generator: Sketch 3.3.3 (12072) - http://www.bohemiancoding.com/sketch -->
    <title>截图</title>
    <desc>Created with Sketch.</desc>
    <defs></defs>
    <g id="v2" stroke="none" stroke-width="1" fill="none" fill-rule="evenodd" sketch:type="MSPage">
        <g id="协作icons" sketch:type="MSArtboardGroup" transform="translate(-802.000000, -661.000000)" fill="#ADB8C4">
            <g id="讨论区" sketch:type="MSLayerGroup" transform="translate(645.500000, 158.500000)">
                <g id="框" transform="translate(22.000000, 390.000000)" sketch:type="MSShapeGroup">
                    <g id="xiezuo-">
                        <path d="M149.5,123.5 L140.5,123.5 L139.5,123.5 L139.5,122.5 L139.5,113.5 C139.5,112.948 139.053,112.5 138.5,112.5 C137.947,112.5 137.5,112.948 137.5,113.5 L137.5,122.5 C137.5,125.051 137.948,125.5 140.5,125.5 L149.5,125.5 C150.053,125.5 150.5,125.052 150.5,124.5 C150.5,123.948 150.053,123.5 149.5,123.5 Z M134.5,116.5 C134.5,117.052 134.947,117.5 135.5,117.5 L136.5,117.5 L136.5,115.5 L135.5,115.5 C134.947,115.5 134.5,115.948 134.5,116.5 Z M145.5,117.5 L145.5,118.5 L145.5,122.5 L147.5,122.5 L147.5,118.5 C147.5,115.949 147.052,115.5 144.5,115.5 L140.5,115.5 L140.5,117.5 L144.5,117.5 L145.5,117.5 Z M145.5,127.5 C145.5,128.052 145.947,128.5 146.5,128.5 C147.053,128.5 147.5,128.052 147.5,127.5 L147.5,126.5 L145.5,126.5 L145.5,127.5 Z M160.5,122.5 L163.5,118.5 L157.5,118.5 L160.5,122.5 Z" id="Fill-1-Copy-3"></path>
                    </g>
                </g>
            </g>
        </g>
    </g>
</svg>