<?xml version="1.0" encoding="UTF-8" standalone="no"?>
<svg width="30px" height="16px" viewBox="0 0 30 16" version="1.1" xmlns="http://www.w3.org/2000/svg" xmlns:xlink="http://www.w3.org/1999/xlink" xmlns:sketch="http://www.bohemiancoding.com/sketch/ns">
    <!-- Generator: Sketch 3.3.3 (12072) - http://www.bohemiancoding.com/sketch -->
    <title>截图hover</title>
    <desc>Created with Sketch.</desc>
    <defs></defs>
    <g id="v2" stroke="none" stroke-width="1" fill="none" fill-rule="evenodd" sketch:type="MSPage">
        <g id="协作icons" sketch:type="MSArtboardGroup" transform="translate(-842.000000, -661.000000)" fill="#398DEE">
            <g id="讨论区" sketch:type="MSLayerGroup" transform="translate(645.500000, 158.500000)">
                <g id="框" transform="translate(22.000000, 390.000000)" sketch:type="MSShapeGroup">
                    <g id="xiezuo-">
                        <path d="M189.5,123.5 L180.5,123.5 L179.5,123.5 L179.5,122.5 L179.5,113.5 C179.5,112.948 179.053,112.5 178.5,112.5 C177.947,112.5 177.5,112.948 177.5,113.5 L177.5,122.5 C177.5,125.051 177.948,125.5 180.5,125.5 L189.5,125.5 C190.053,125.5 190.5,125.052 190.5,124.5 C190.5,123.948 190.053,123.5 189.5,123.5 Z M174.5,116.5 C174.5,117.052 174.947,117.5 175.5,117.5 L176.5,117.5 L176.5,115.5 L175.5,115.5 C174.947,115.5 174.5,115.948 174.5,116.5 Z M185.5,117.5 L185.5,118.5 L185.5,122.5 L187.5,122.5 L187.5,118.5 C187.5,115.949 187.052,115.5 184.5,115.5 L180.5,115.5 L180.5,117.5 L184.5,117.5 L185.5,117.5 Z M185.5,127.5 C185.5,128.052 185.947,128.5 186.5,128.5 C187.053,128.5 187.5,128.052 187.5,127.5 L187.5,126.5 L185.5,126.5 L185.5,127.5 Z M200.5,122.5 L203.5,118.5 L197.5,118.5 L200.5,122.5 Z" id="Fill-1-Copy-5"></path>
                    </g>
                </g>
            </g>
        </g>
    </g>
</svg>