<?xml version="1.0" encoding="UTF-8" standalone="no"?>
<svg width="20px" height="20px" viewBox="0 0 20 20" version="1.1" xmlns="http://www.w3.org/2000/svg" xmlns:xlink="http://www.w3.org/1999/xlink" xmlns:sketch="http://www.bohemiancoding.com/sketch/ns">
    <!-- Generator: Sketch 3.3.3 (12072) - http://www.bohemiancoding.com/sketch -->
    <title>搜索</title>
    <desc>Created with Sketch.</desc>
    <defs></defs>
    <g id="v2" stroke="none" stroke-width="1" fill="none" fill-rule="evenodd" sketch:type="MSPage">
        <g id="协作icons" sketch:type="MSArtboardGroup" transform="translate(-147.000000, -46.000000)" fill="#ADB8C4">
            <g id="Oval-45-+-Line" sketch:type="MSLayerGroup" transform="translate(150.000000, 49.000000)">
                <path d="M6,12 C9.3137085,12 12,9.3137085 12,6 C12,2.6862915 9.3137085,0 6,0 C2.6862915,0 0,2.6862915 0,6 C0,9.3137085 2.6862915,12 6,12 Z M6,10 C8.209139,10 10,8.209139 10,6 C10,3.790861 8.209139,2 6,2 C3.790861,2 2,3.790861 2,6 C2,8.209139 3.790861,10 6,10 Z" id="Oval-45" sketch:type="MSShapeGroup"></path>
                <path d="M12.1525464,10.7383328 L13.8305271,12.4163136 C14.2198916,12.8056781 14.2216741,13.4351802 13.8284271,13.8284271 C13.4379028,14.2189514 12.8009753,14.2151889 12.4163136,13.8305271 L10.5939701,12.0081837 C11.1731241,11.661 11.6979166,11.2324493 12.1525464,10.7383328 Z" id="Rectangle-944" sketch:type="MSShapeGroup"></path>
            </g>
        </g>
    </g>
</svg>