<?xml version="1.0" encoding="UTF-8" standalone="no"?>
<svg width="16px" height="16px" viewBox="0 0 16 16" version="1.1" xmlns="http://www.w3.org/2000/svg" xmlns:xlink="http://www.w3.org/1999/xlink" xmlns:sketch="http://www.bohemiancoding.com/sketch/ns">
    <!-- Generator: Sketch 3.3.3 (12072) - http://www.bohemiancoding.com/sketch -->
    <title>图片</title>
    <desc>Created with Sketch.</desc>
    <defs></defs>
    <g id="v2" stroke="none" stroke-width="1" fill="none" fill-rule="evenodd" sketch:type="MSPage">
        <g id="协作icons" sketch:type="MSArtboardGroup" transform="translate(-745.000000, -661.000000)" fill="#ADB8C4">
            <g id="讨论区" sketch:type="MSLayerGroup" transform="translate(645.500000, 158.500000)">
                <g id="框" transform="translate(22.000000, 390.000000)" sketch:type="MSShapeGroup">
                    <g id="xiezuo-">
                        <path d="M91.506,113.5 L79.494,113.5 C78.393,113.5 77.5,114.397 77.5,115.506 L77.5,125.494 C77.5,126.602 78.395,127.5 79.494,127.5 L91.506,127.5 C92.607,127.5 93.5,126.603 93.5,125.494 L93.5,115.506 C93.5,114.398 92.605,113.5 91.506,113.5 L91.506,113.5 Z M91.5,123.255243 C90.787,122.446953 89.89,121.951517 88.905,121.951517 C87.824,121.951517 86.845,122.543671 86.105,123.5 C85.245,120.840242 83.372,118.990748 81.194,118.990748 C80.601,118.990748 80.033,119.134838 79.5,119.389465 L79.5,115.5 L91.5,115.5 L91.5,123.255243 Z M88.9369578,123.5 C90.2236938,123.515482 90.9694372,124.299796 91.5,125.5 L86.3393555,125.5 C86.3393555,124.810303 87.2510394,123.479716 88.9369578,123.5 Z M81.3156484,120.5 C83.4153269,120.5 84.7669493,122.733737 85.1174316,125.571167 L79.5,125.5 L79.5,121.083199 C80.050911,120.713537 80.6650589,120.5 81.3156484,120.5 Z M88.5,120.5 C89,120.5 89.5,120.052 89.5,119.5 C89.5,118.948 89.021,118.5 88.5,118.5 C87.979,118.5 87.5,118.948 87.5,119.5 C87.5,120.052 87.979,120.5 88.5,120.5 Z" id="Fill-2"></path>
                    </g>
                </g>
            </g>
        </g>
    </g>
</svg>