<?xml version="1.0" encoding="UTF-8" standalone="no"?>
<svg width="16px" height="16px" viewBox="0 0 16 16" version="1.1" xmlns="http://www.w3.org/2000/svg" xmlns:xlink="http://www.w3.org/1999/xlink" xmlns:sketch="http://www.bohemiancoding.com/sketch/ns">
    <!-- Generator: Sketch 3.3.3 (12072) - http://www.bohemiancoding.com/sketch -->
    <title>笑脸 hover</title>
    <desc>Created with Sketch.</desc>
    <defs></defs>
    <g id="v2" stroke="none" stroke-width="1" fill="none" fill-rule="evenodd" sketch:type="MSPage">
        <g id="协作icons" sketch:type="MSArtboardGroup" transform="translate(-708.000000, -661.000000)" fill="#398DEE">
            <g id="讨论区" sketch:type="MSLayerGroup" transform="translate(645.500000, 158.500000)">
                <g id="框" transform="translate(22.000000, 390.000000)" sketch:type="MSShapeGroup">
                    <g id="xiezuo-">
                        <g id="笑脸-copy-3" transform="translate(21.000000, 113.000000)">
                            <path d="M22.5,11.4966488 C22.5,12.052035 22.9481987,12.5 23.5033512,12.5 L31.4966488,12.5 C32.052035,12.5 32.5,12.0518013 32.5,11.4966488 L32.5,3.50335124 C32.5,2.94796501 32.0518013,2.5 31.4966488,2.5 L23.5033512,2.5 C22.947965,2.5 22.5,2.94819872 22.5,3.50335124 L22.5,11.4966488 Z M20.5,3.50335124 C20.5,1.84464615 21.8423789,0.5 23.5033512,0.5 L31.4966488,0.5 C33.1553538,0.5 34.5,1.84237885 34.5,3.50335124 L34.5,11.4966488 C34.5,13.1553538 33.1576211,14.5 31.4966488,14.5 L23.5033512,14.5 C21.8446462,14.5 20.5,13.1576211 20.5,11.4966488 L20.5,3.50335124 L20.5,3.50335124 Z M30.2565731,8.25757756 C30.2407211,8.27078753 28.7523983,9.58385813 27.331006,9.58385813 C25.9395563,9.58385813 24.7189554,8.29896879 24.7066261,8.28752015 C24.5208059,8.08937067 24.2478,8.12459724 24.0972064,8.36942194 C23.9466127,8.61336598 23.9739133,8.97179638 24.1588529,9.17082653 C24.2178574,9.23511503 25.6251591,10.7243185 27.331006,10.7243185 C29.0148363,10.7243185 30.6731273,9.26329629 30.7418191,9.20164979 C30.9399686,9.02463624 30.9919278,8.67060916 30.8580668,8.4099325 C30.7233252,8.14925584 30.4547226,8.08232535 30.2565731,8.25757756 Z M30.1112634,5.88008891 C30.1112634,5.39396217 29.7167258,5 29.2305991,5 C28.7444723,5 28.3499347,5.39396217 28.3499347,5.88008891 C28.3499347,6.36621565 28.7444723,6.76132882 29.2305991,6.76132882 C29.7167258,6.76132882 30.1112634,6.36621565 30.1112634,5.88008891 Z M26.5886059,5.88008891 C26.5886059,5.39396217 26.1940683,5 25.7079415,5 C25.2218148,5 24.8272771,5.39396217 24.8272771,5.88008891 C24.8272771,6.36621565 25.2218148,6.76132882 25.7079415,6.76132882 C26.1940683,6.76132882 26.5886059,6.36621565 26.5886059,5.88008891 Z" id="Fill-4-Copy"></path>
                        </g>
                    </g>
                </g>
            </g>
        </g>
    </g>
</svg>