<?xml version="1.0" encoding="UTF-8" standalone="no"?>
<svg width="16px" height="16px" viewBox="0 0 16 16" version="1.1" xmlns="http://www.w3.org/2000/svg" xmlns:xlink="http://www.w3.org/1999/xlink" xmlns:sketch="http://www.bohemiancoding.com/sketch/ns">
    <!-- Generator: Sketch 3.3.3 (12072) - http://www.bohemiancoding.com/sketch -->
    <title>图片 hover</title>
    <desc>Created with Sketch.</desc>
    <defs></defs>
    <g id="v2" stroke="none" stroke-width="1" fill="none" fill-rule="evenodd" sketch:type="MSPage">
        <g id="协作icons" sketch:type="MSArtboardGroup" transform="translate(-765.000000, -661.000000)" fill="#398DEE">
            <g id="讨论区" sketch:type="MSLayerGroup" transform="translate(645.500000, 158.500000)">
                <g id="框" transform="translate(22.000000, 390.000000)" sketch:type="MSShapeGroup">
                    <g id="xiezuo-">
                        <path d="M111.506,113.5 L99.494,113.5 C98.393,113.5 97.5,114.397 97.5,115.506 L97.5,125.494 C97.5,126.602 98.395,127.5 99.494,127.5 L111.506,127.5 C112.607,127.5 113.5,126.603 113.5,125.494 L113.5,115.506 C113.5,114.398 112.605,113.5 111.506,113.5 L111.506,113.5 Z M111.5,123.255243 C110.787,122.446953 109.89,121.951517 108.905,121.951517 C107.824,121.951517 106.845,122.543671 106.105,123.5 C105.245,120.840242 103.372,118.990748 101.194,118.990748 C100.601,118.990748 100.033,119.134838 99.5,119.389465 L99.5,115.5 L111.5,115.5 L111.5,123.255243 Z M108.936958,123.5 C110.223694,123.515482 110.969437,124.299796 111.5,125.5 L106.339355,125.5 C106.339355,124.810303 107.251039,123.479716 108.936958,123.5 Z M101.315648,120.5 C103.415327,120.5 104.766949,122.733737 105.117432,125.571167 L99.5,125.5 L99.5,121.083199 C100.050911,120.713537 100.665059,120.5 101.315648,120.5 Z M108.5,120.5 C109,120.5 109.5,120.052 109.5,119.5 C109.5,118.948 109.021,118.5 108.5,118.5 C107.979,118.5 107.5,118.948 107.5,119.5 C107.5,120.052 107.979,120.5 108.5,120.5 Z" id="Fill-2-Copy-5"></path>
                    </g>
                </g>
            </g>
        </g>
    </g>
</svg>