<?xml version="1.0" encoding="UTF-8" standalone="no"?>
<svg width="16px" height="16px" viewBox="0 0 16 16" version="1.1" xmlns="http://www.w3.org/2000/svg" xmlns:xlink="http://www.w3.org/1999/xlink" xmlns:sketch="http://www.bohemiancoding.com/sketch/ns">
    <!-- Generator: Sketch 3.3.3 (12072) - http://www.bohemiancoding.com/sketch -->
    <title>笑脸</title>
    <desc>Created with Sketch.</desc>
    <defs></defs>
    <g id="v2" stroke="none" stroke-width="1" fill="none" fill-rule="evenodd" sketch:type="MSPage">
        <g id="协作icons" sketch:type="MSArtboardGroup" transform="translate(-688.000000, -661.000000)" fill="#ADB8C4">
            <g id="讨论区" sketch:type="MSLayerGroup" transform="translate(645.500000, 158.500000)">
                <g id="框" transform="translate(22.000000, 390.000000)" sketch:type="MSShapeGroup">
                    <g id="xiezuo-">
                        <g id="笑脸-copy-3" transform="translate(21.000000, 113.000000)">
                            <path d="M2.5,11.4966488 C2.5,12.052035 2.94819872,12.5 3.50335124,12.5 L11.4966488,12.5 C12.052035,12.5 12.5,12.0518013 12.5,11.4966488 L12.5,3.50335124 C12.5,2.94796501 12.0518013,2.5 11.4966488,2.5 L3.50335124,2.5 C2.94796501,2.5 2.5,2.94819872 2.5,3.50335124 L2.5,11.4966488 Z M0.5,3.50335124 C0.5,1.84464615 1.84237885,0.5 3.50335124,0.5 L11.4966488,0.5 C13.1553538,0.5 14.5,1.84237885 14.5,3.50335124 L14.5,11.4966488 C14.5,13.1553538 13.1576211,14.5 11.4966488,14.5 L3.50335124,14.5 C1.84464615,14.5 0.5,13.1576211 0.5,11.4966488 L0.5,3.50335124 L0.5,3.50335124 Z M10.2565731,8.25757756 C10.2407211,8.27078753 8.7523983,9.58385813 7.33100598,9.58385813 C5.93955625,9.58385813 4.71895541,8.29896879 4.70662611,8.28752015 C4.52080593,8.08937067 4.24779997,8.12459724 4.09720636,8.36942194 C3.94661275,8.61336598 3.97391334,8.97179638 4.15885286,9.17082653 C4.21785738,9.23511503 5.62515907,10.7243185 7.33100598,10.7243185 C9.01483629,10.7243185 10.6731273,9.26329629 10.7418191,9.20164979 C10.9399686,9.02463624 10.9919278,8.67060916 10.8580668,8.4099325 C10.7233252,8.14925584 10.4547226,8.08232535 10.2565731,8.25757756 Z M10.1112634,5.88008891 C10.1112634,5.39396217 9.7167258,5 9.23059906,5 C8.74447232,5 8.34993468,5.39396217 8.34993468,5.88008891 C8.34993468,6.36621565 8.74447232,6.76132882 9.23059906,6.76132882 C9.7167258,6.76132882 10.1112634,6.36621565 10.1112634,5.88008891 Z M6.5886059,5.88008891 C6.5886059,5.39396217 6.19406826,5 5.70794152,5 C5.22181478,5 4.82727713,5.39396217 4.82727713,5.88008891 C4.82727713,6.36621565 5.22181478,6.76132882 5.70794152,6.76132882 C6.19406826,6.76132882 6.5886059,6.36621565 6.5886059,5.88008891 Z" id="Fill-4"></path>
                        </g>
                    </g>
                </g>
            </g>
        </g>
    </g>
</svg>