<?xml version="1.0" encoding="UTF-8" standalone="no"?>
<svg width="20px" height="20px" viewBox="0 0 20 20" version="1.1" xmlns="http://www.w3.org/2000/svg" xmlns:xlink="http://www.w3.org/1999/xlink" xmlns:sketch="http://www.bohemiancoding.com/sketch/ns">
    <!-- Generator: Sketch 3.3.3 (12072) - http://www.bohemiancoding.com/sketch -->
    <title>设置 hover</title>
    <desc>Created with Sketch.</desc>
    <defs></defs>
    <g id="v2" stroke="none" stroke-width="1" fill="none" fill-rule="evenodd" sketch:type="MSPage">
        <g id="协作icons" sketch:type="MSArtboardGroup" transform="translate(-207.000000, -66.000000)" fill="#398DEE">
            <path d="M224,76 L222.91,76 C222.757,75.089 222.401,74.25 221.887,73.527 L222.657,72.757 C223.047,72.367 223.047,71.734 222.657,71.343 C222.266,70.953 221.633,70.953 221.243,71.343 L220.473,72.113 C219.751,71.599 218.911,71.243 218,71.09 L218,70 C218,69.448 217.552,69 217,69 C216.448,69 216,69.448 216,70 L216,71.09 C215.089,71.243 214.249,71.599 213.527,72.113 L212.757,71.343 C212.367,70.953 211.734,70.953 211.343,71.343 C210.953,71.734 210.953,72.367 211.343,72.757 L212.113,73.527 C211.599,74.25 211.243,75.089 211.09,76 L210,76 C209.448,76 209,76.448 209,77 C209,77.552 209.448,78 210,78 L211.09,78 C211.243,78.911 211.599,79.751 212.113,80.473 L211.343,81.243 C210.953,81.633 210.953,82.266 211.343,82.657 C211.734,83.047 212.367,83.047 212.757,82.657 L213.527,81.887 C214.249,82.401 215.089,82.757 216,82.91 L216,84 C216,84.552 216.448,85 217,85 C217.552,85 218,84.552 218,84 L218,82.91 C218.911,82.757 219.751,82.401 220.473,81.887 L221.243,82.657 C221.633,83.047 222.266,83.047 222.657,82.657 C223.047,82.266 223.047,81.633 222.657,81.243 L221.887,80.473 C222.401,79.751 222.757,78.911 222.91,78 L224,78 C224.552,78 225,77.552 225,77 C225,76.448 224.552,76 224,76 L224,76 Z M220.433,79.019 C220.088,79.604 219.604,80.088 219.019,80.433 C218.704,80.619 218.363,80.764 218,80.858 C217.678,80.942 217.347,81 217,81 C216.653,81 216.322,80.942 216,80.858 C215.637,80.764 215.296,80.619 214.981,80.433 C214.396,80.088 213.912,79.604 213.567,79.019 C213.38,78.704 213.236,78.363 213.142,78 C213.058,77.679 213,77.347 213,77 C213,76.653 213.058,76.321 213.142,76 C213.236,75.637 213.38,75.296 213.567,74.981 C213.912,74.396 214.396,73.912 214.981,73.567 C215.296,73.381 215.637,73.236 216,73.142 C216.322,73.058 216.653,73 217,73 C217.347,73 217.678,73.058 218,73.142 C218.363,73.236 218.704,73.381 219.019,73.567 C219.604,73.912 220.088,74.396 220.433,74.981 C220.619,75.296 220.763,75.637 220.858,76 C220.941,76.321 221,76.653 221,77 C221,77.347 220.941,77.679 220.858,78 C220.763,78.363 220.619,78.704 220.433,79.019 L220.433,79.019 Z" id="设置-copy" sketch:type="MSShapeGroup"></path>
        </g>
    </g>
</svg>