<?xml version="1.0" encoding="UTF-8" standalone="no"?>
<svg width="28px" height="15px" viewBox="0 0 28 15" version="1.1" xmlns="http://www.w3.org/2000/svg" xmlns:xlink="http://www.w3.org/1999/xlink" xmlns:sketch="http://www.bohemiancoding.com/sketch/ns">
    <!-- Generator: Sketch 3.3.3 (12072) - http://www.bohemiancoding.com/sketch -->
    <title>分享</title>
    <desc>Created with Sketch.</desc>
    <defs>
        <linearGradient x1="50%" y1="0%" x2="50%" y2="100%" id="linearGradient-1">
            <stop stop-color="#FFFFFF" stop-opacity="0.544044384" offset="0%"></stop>
            <stop stop-color="#EB8A20" stop-opacity="0.5" offset="100%"></stop>
        </linearGradient>
        <path id="path-2" d="M18.5812378,8.24450699 C17.6142126,8.66535443 16.5527616,8.76335261 14.8659058,8.92901627 C13.9097571,9.02368122 13.0870936,9.04014469 12.2140023,8.84875686 C11.091739,8.60386275 8.75439191,7.28531755 7.3829564,6.71424096 C6.07381392,6.16888854 4.9990119,6.12772986 5.00000068,5.83653225 L5.01384358,1.77828705 C5.01680991,1.07961857 5.70104393,0.836374645 6.36352539,0.72113036 C7.511497,0.51945286 9.20681362,0.203208707 10.3458862,0.547912597 C12.0011011,1.04799048 13.3441361,2.10838804 15.2346802,1.92523195 C16.7771743,1.77500279 17.3163868,2.22870028 18.1281738,2.71643056 C18.7906553,3.11361176 18.8593104,4.29822661 17.8814087,4.72216095 C17.1408137,5.0431986 16.7056761,4.74980282 15.3480835,4.81359877 L13.5123262,4.72216095 C13.5123262,4.72216095 13.434889,4.89858489 14.6688843,5.11261 C15.1169208,5.19062887 15.2399902,5.21984877 15.7930298,5.21984877 C16.3460693,5.21984877 16.4194005,5.24584267 17.3764648,4.97308363 C18.8398567,4.55635206 19.4497681,3.62805165 19.4497681,3.62805165 C20.1498231,3.07138059 22.6200144,3.44841139 21.8181152,4.62554945 C21.600584,4.94452917 22.5252686,5.06449856 21.6826687,5.83653225 C21.6826687,5.83653227 20.1870138,7.54583851 18.5812378,8.24450699 Z"></path>
    </defs>
    <g id="v2" stroke="none" stroke-width="1" fill="none" fill-rule="evenodd" sketch:type="MSPage">
        <g id="协作icons" sketch:type="MSArtboardGroup" transform="translate(-37.000000, -484.000000)">
            <g id="分享" sketch:type="MSLayerGroup" transform="translate(40.000000, 486.000000)">
                <g id="已分享">
                    <path d="M3,0 L1,0 C0.305381727,0 0,0.320618712 0,1 L0,6 C0,6.67938129 0.305381727,7 1,7 L3,7 C3.69461827,7 4,6.67938129 4,6 L4,1 C4,0.320618712 3.69461827,0 3,0" id="Fill-1" fill="#A6CEFD" sketch:type="MSShapeGroup"></path>
                    <g id="Fill-2">
                        <use fill="#FFD3AB" sketch:type="MSShapeGroup" xlink:href="#path-2"></use>
                        <use fill="url(#linearGradient-1)" xlink:href="#path-2"></use>
                    </g>
                    <path d="M0.833817693,0 C0.37127863,0 0,0.409826508 0,0.910322671 L0,6.08967733 C0,6.59017349 0.37127863,7 0.833817693,7 L3.16618231,7 C3.62872137,7 4,6.59017349 4,6.08967733 L4,0.910322671 C4,0.409826508 3.62872137,0 3.16618231,0 L3.16618231,0.488895097 C3.36978004,0.488895097 3.53885174,0.675520607 3.53885174,0.910322671 L3.53885174,6.08967733 C3.53885174,6.32447939 3.36978004,6.5111049 3.16618231,6.5111049 L0.833817693,6.5111049 C0.630219957,6.5111049 0.461148259,6.32447939 0.461148259,6.08967733 L0.461148259,0.910322671 C0.461148259,0.675520607 0.630219957,0.488895097 0.833817693,0.488895097 L3.16618231,0.488895097 L3.16618231,0 L0.833817693,0 Z" id="Shape" fill-opacity="0.3" fill="#000000" sketch:type="MSShapeGroup"></path>
                    <path d="M20.9389608,5.94344498 C20.6427769,6.24214846 20.3173353,6.54089924 19.9733515,6.819202 C19.4263972,7.26171958 18.8859595,7.60886695 18.3740159,7.82428705 C17.7172449,8.100713 17.0330257,8.22731706 15.6389745,8.36560542 C15.4385671,8.38548561 15.2367211,8.4046938 14.7975215,8.44618245 C13.7573428,8.54578017 13.0334728,8.53292639 12.2873566,8.37475094 C11.8001623,8.27193413 11.1277277,7.96756542 9.79551101,7.28626945 C9.74596392,7.26092426 9.74596392,7.26092426 9.69640918,7.23555427 C8.5031628,6.62457379 8.12847374,6.44015302 7.65525831,6.24958247 C7.27261963,6.09542765 6.89728679,5.97579708 6.45568894,5.85775224 C6.5247751,5.87621987 5.76306769,5.68034862 5.63305907,5.63809243 C5.51793891,5.60067537 5.48730328,5.5802692 5.48705448,5.65113162 L5.50053895,1.82796596 C5.502152,1.46055445 5.81504833,1.30546007 6.68221438,1.15956997 C8.47053113,0.8557277 9.48024327,0.786579833 10.3420122,1.03879053 C10.7620155,1.16151014 11.1110896,1.30257782 11.7561933,1.59334368 C11.922544,1.66843532 12.0043719,1.70529303 12.0895427,1.74323435 C13.2967447,2.28101064 14.0619347,2.47808125 15.0635437,2.38423635 C16.2809571,2.2695672 16.8078004,2.4237376 17.8646038,3.03779609 C18.3875158,3.34099084 18.3211983,4.05765764 17.6124337,4.35481284 C17.4443157,4.42529307 17.3007382,4.45678238 17.1455085,4.46168012 C17.0041383,4.46614057 17.005969,4.46632907 16.5323164,4.40711965 C16.1102148,4.35435441 15.7758485,4.33536343 15.3304955,4.35560321 L12.8816431,4.29532502 L12.552208,4.28729527 L12.6412859,4.60659661 C12.6855955,4.765425 12.8362075,4.96556359 13.1424401,5.14573635 C13.4003957,5.29750526 13.7420146,5.4146027 14.1783807,5.48779748 C14.9189074,5.61250858 15.1414695,5.64506618 15.482928,5.66712706 C16.1297107,5.70891425 16.7426723,5.63559445 17.5902924,5.4019706 C18.0879872,5.26490239 18.528254,5.05845465 18.9124235,4.80104348 C19.3557338,4.50400529 19.6442378,4.20371426 19.7896214,3.99450028 C20.0019076,3.84576219 20.604016,3.77650879 21.0569576,3.90106944 C21.4922023,4.02076341 21.5984135,4.21478153 21.3562694,4.55854481 C21.218468,4.75396661 21.2684959,4.93899716 21.4222798,5.08916025 C21.4423242,5.10873275 21.4652935,5.12930568 21.5001104,5.16013576 C21.6065861,5.25628588 21.6063171,5.26604154 21.3268176,5.53240011 L21.6616998,5.88833211 C22.141435,5.43115201 22.150864,5.08920631 21.8253838,4.79528968 C21.7862861,4.7605178 21.7726894,4.74833961 21.7614355,4.73735074 C21.7611151,4.73703789 21.7795549,4.80523815 21.753537,4.84213516 C22.2176782,4.1832108 21.9140844,3.62862984 21.1853381,3.42822183 C20.5969717,3.26641884 19.8398211,3.35350491 19.4421973,3.65929027 C19.2777206,3.87585372 19.0308508,4.13280957 18.6425062,4.39301824 C18.3005795,4.62212478 17.9077089,4.8063477 17.46169,4.92918408 C16.6636803,5.14913412 16.1041028,5.21606836 15.5141304,5.17795156 C15.1956655,5.15737625 14.981273,5.12601374 14.2586078,5.00431072 C13.8778027,4.94043554 13.5921334,4.84251604 13.3882493,4.72256025 C13.1924821,4.60738007 13.1208296,4.51216572 13.1102079,4.47409215 L12.8698507,4.78536374 L15.335585,4.84546428 C15.7671802,4.82643931 16.0753085,4.84394006 16.4722816,4.89356407 C16.9850746,4.95766629 16.9813502,4.95728282 17.1607702,4.95162184 C17.3753825,4.94485049 17.5772293,4.90058158 17.7997248,4.80730462 C18.873538,4.35709991 18.9877105,3.123283 18.1079352,2.61317205 C16.9711925,1.9526645 16.3496248,1.77077483 15.0182773,1.89617555 C14.1181922,1.98050823 13.4244148,1.80182953 12.2866793,1.29499874 C12.202577,1.25753343 12.1217965,1.22114744 11.9552684,1.14597673 C11.2906897,0.84643291 10.9255268,0.698863436 10.4779105,0.568075705 C9.51839251,0.287257116 8.46650493,0.359293274 6.60152387,0.676161454 C5.49819058,0.861783495 5.0166738,1.10045855 5.01348856,1.8260131 L5.00000324,5.64939558 C4.9991559,5.89073224 5.1646254,6.00095031 5.48337619,6.10455264 C5.5791474,6.13568078 5.68849092,6.16591042 5.86185004,6.2104893 C6.08217198,6.26650903 6.20677569,6.29839276 6.33065895,6.33150837 C6.75475449,6.44487461 7.11228758,6.55883183 7.4742839,6.7046704 C7.92781586,6.88731413 8.29892687,7.0699738 9.47555342,7.6724444 C9.52519457,7.69785862 9.52519457,7.69785862 9.57487183,7.7232704 C10.9545262,8.42882599 11.6395045,8.73887246 12.1871817,8.85445337 C12.9887124,9.02437672 13.7586708,9.03804889 14.8434671,8.93417894 C15.2822637,8.89272933 15.4852187,8.87341561 15.6867499,8.85342394 C17.1265764,8.71059471 17.8475504,8.57718974 18.561913,8.2765243 C19.1216473,8.04099439 19.6988048,7.67026033 20.2785126,7.20124327 C20.6374294,6.91085881 20.9757319,6.60030184 21.2837163,6.28969757 C21.4689607,6.10287731 21.6035788,5.95682704 21.6775381,5.87175228 L21.3109793,5.54897995 C21.2436857,5.62638725 21.1162173,5.76468059 20.9389608,5.94344498 Z" id="Shape" fill-opacity="0.270918252" fill="#000000" sketch:type="MSShapeGroup"></path>
                </g>
            </g>
        </g>
    </g>
</svg>