<?xml version="1.0" encoding="UTF-8" standalone="no"?>
<svg width="34px" height="34px" viewBox="0 0 34 34" version="1.1" xmlns="http://www.w3.org/2000/svg" xmlns:xlink="http://www.w3.org/1999/xlink" xmlns:sketch="http://www.bohemiancoding.com/sketch/ns">
    <!-- Generator: Sketch 3.4 (15575) - http://www.bohemiancoding.com/sketch -->
    <title>qrhover</title>
    <desc>Created with Sketch.</desc>
    <defs></defs>
    <g id="v2页面补充" stroke="none" stroke-width="1" fill="none" fill-rule="evenodd" sketch:type="MSPage">
        <g id="弹窗" sketch:type="MSArtboardGroup" transform="translate(-3986.000000, -464.000000)" fill="#768DB0">
            <g id="分享链接" sketch:type="MSLayerGroup" transform="translate(3348.000000, 277.000000)">
                <path d="M640,188.99406 L640,188.99406 L640,201.00594 C640,201.001789 639.998212,201 639.99406,201 L652.00594,201 C652.001789,201 652,201.001788 652,201.00594 L652,188.99406 C652,188.998211 652.001788,189 652.00594,189 L639.99406,189 C639.998211,189 640,188.998212 640,188.99406 L640,188.99406 Z M638,188.99406 C638,187.892771 638.894514,187 639.99406,187 L652.00594,187 C653.107229,187 654,187.894514 654,188.99406 L654,201.00594 C654,202.107229 653.105486,203 652.00594,203 L639.99406,203 C638.892771,203 638,202.105486 638,201.00594 L638,188.99406 Z M658,188.99406 L658,201.00594 C658,201.001789 657.998212,201 657.99406,201 L670.00594,201 C670.001789,201 670,201.001788 670,201.00594 L670,188.99406 C670,188.998211 670.001788,189 670.00594,189 L657.99406,189 C657.998211,189 658,188.998212 658,188.99406 Z M656,188.99406 C656,187.892771 656.894514,187 657.99406,187 L670.00594,187 C671.107229,187 672,187.894514 672,188.99406 L672,201.00594 C672,202.107229 671.105486,203 670.00594,203 L657.99406,203 C656.892771,203 656,202.105486 656,201.00594 L656,188.99406 Z M640,206.99406 L640,219.00594 C640,219.001789 639.998212,219 639.99406,219 L652.00594,219 C652.001789,219 652,219.001788 652,219.00594 L652,206.99406 C652,206.998211 652.001788,207 652.00594,207 L639.99406,207 C639.998211,207 640,206.998212 640,206.99406 Z M638,206.99406 C638,205.892771 638.894514,205 639.99406,205 L652.00594,205 C653.107229,205 654,205.894514 654,206.99406 L654,219.00594 C654,220.107229 653.105486,221 652.00594,221 L639.99406,221 C638.892771,221 638,220.105486 638,219.00594 L638,206.99406 L638,206.99406 Z M643,192 L649,192 L649,198 L643,198 L643,192 Z M643,210 L649,210 L649,216 L643,216 L643,210 Z M661,192 L667,192 L667,198 L661,198 L661,192 Z M656,205 L660,205 L660,209 L656,209 L656,205 Z M662,205 L672,205 L672,207 L662,207 L662,205 Z M664,207 L672,207 L672,209 L664,209 L664,207 Z M662,209 L666,209 L666,215 L662,215 L662,209 Z M657,212 L660,212 L660,215 L657,215 L657,212 Z M658,215 L670,215 L670,218 L658,218 L658,215 Z M656,218 L664,218 L664,221 L656,221 L656,218 Z M670,218 L672,218 L672,220.001043 C672,220.552752 671.556135,221 671,221 L670,221 L670,218 Z" id="Shape-Copy-2" sketch:type="MSShapeGroup"></path>
            </g>
        </g>
    </g>
</svg>