<?xml version="1.0" encoding="UTF-8" standalone="no"?>
<svg width="34px" height="34px" viewBox="0 0 34 34" version="1.1" xmlns="http://www.w3.org/2000/svg" xmlns:xlink="http://www.w3.org/1999/xlink" xmlns:sketch="http://www.bohemiancoding.com/sketch/ns">
    <!-- Generator: Sketch 3.4 (15575) - http://www.bohemiancoding.com/sketch -->
    <title>qr</title>
    <desc>Created with Sketch.</desc>
    <defs></defs>
    <g id="v2页面补充" stroke="none" stroke-width="1" fill="none" fill-rule="evenodd" sketch:type="MSPage">
        <g id="弹窗" sketch:type="MSArtboardGroup" transform="translate(-3987.000000, -404.000000)" fill="#95ABCC">
            <g id="分享链接" sketch:type="MSLayerGroup" transform="translate(3348.000000, 277.000000)">
                <path d="M641,128.99406 L641,128.99406 L641,141.00594 C641,141.001789 640.998212,141 640.99406,141 L653.00594,141 C653.001789,141 653,141.001788 653,141.00594 L653,128.99406 C653,128.998211 653.001788,129 653.00594,129 L640.99406,129 C640.998211,129 641,128.998212 641,128.99406 L641,128.99406 Z M639,128.99406 C639,127.892771 639.894514,127 640.99406,127 L653.00594,127 C654.107229,127 655,127.894514 655,128.99406 L655,141.00594 C655,142.107229 654.105486,143 653.00594,143 L640.99406,143 C639.892771,143 639,142.105486 639,141.00594 L639,128.99406 Z M659,128.99406 L659,141.00594 C659,141.001789 658.998212,141 658.99406,141 L671.00594,141 C671.001789,141 671,141.001788 671,141.00594 L671,128.99406 C671,128.998211 671.001788,129 671.00594,129 L658.99406,129 C658.998211,129 659,128.998212 659,128.99406 Z M657,128.99406 C657,127.892771 657.894514,127 658.99406,127 L671.00594,127 C672.107229,127 673,127.894514 673,128.99406 L673,141.00594 C673,142.107229 672.105486,143 671.00594,143 L658.99406,143 C657.892771,143 657,142.105486 657,141.00594 L657,128.99406 Z M641,146.99406 L641,159.00594 C641,159.001789 640.998212,159 640.99406,159 L653.00594,159 C653.001789,159 653,159.001788 653,159.00594 L653,146.99406 C653,146.998211 653.001788,147 653.00594,147 L640.99406,147 C640.998211,147 641,146.998212 641,146.99406 Z M639,146.99406 C639,145.892771 639.894514,145 640.99406,145 L653.00594,145 C654.107229,145 655,145.894514 655,146.99406 L655,159.00594 C655,160.107229 654.105486,161 653.00594,161 L640.99406,161 C639.892771,161 639,160.105486 639,159.00594 L639,146.99406 L639,146.99406 Z M644,132 L650,132 L650,138 L644,138 L644,132 Z M644,150 L650,150 L650,156 L644,156 L644,150 Z M662,132 L668,132 L668,138 L662,138 L662,132 Z M657,145 L661,145 L661,149 L657,149 L657,145 Z M663,145 L673,145 L673,147 L663,147 L663,145 Z M665,147 L673,147 L673,149 L665,149 L665,147 Z M663,149 L667,149 L667,155 L663,155 L663,149 Z M658,152 L661,152 L661,155 L658,155 L658,152 Z M659,155 L671,155 L671,158 L659,158 L659,155 Z M657,158 L665,158 L665,161 L657,161 L657,158 Z M671,158 L673,158 L673,160.001043 C673,160.552752 672.556135,161 672,161 L671,161 L671,158 Z" id="Shape" sketch:type="MSShapeGroup"></path>
            </g>
        </g>
    </g>
</svg>