<?xml version="1.0" encoding="UTF-8" standalone="no"?>
<svg width="16px" height="16px" viewBox="0 0 16 16" version="1.1" xmlns="http://www.w3.org/2000/svg" xmlns:xlink="http://www.w3.org/1999/xlink" xmlns:sketch="http://www.bohemiancoding.com/sketch/ns">
    <!-- Generator: Sketch 3.3.3 (12072) - http://www.bohemiancoding.com/sketch -->
    <title>分享2 hover</title>
    <desc>Created with Sketch.</desc>
    <defs></defs>
    <g id="v2" stroke="none" stroke-width="1" fill="none" fill-rule="evenodd" sketch:type="MSPage">
        <g id="协作icons" sketch:type="MSArtboardGroup" transform="translate(-312.000000, -218.000000)">
            <g id="文件区-icon-+-文件区" sketch:type="MSLayerGroup" transform="translate(22.000000, 170.000000)">
                <g id="文件区-icon" transform="translate(0.000000, 30.000000)"></g>
            </g>
            <path d="M321.941,221.628 C322.204,221.857 322.544,222 322.92,222 C323.748,222 324.42,221.328 324.42,220.5 C324.42,219.672 323.748,219 322.92,219 C322.091,219 321.42,219.672 321.42,220.5 C321.42,220.585 321.431,220.668 321.445,220.749 L316.323,224.632 C316.087,224.476 315.804,224.384 315.5,224.384 C314.671,224.384 314,225.055 314,225.884 C314,226.712 314.671,227.384 315.5,227.384 C316.328,227.384 317,226.712 317,225.884 C317,225.725 316.968,225.576 316.923,225.432 L321.941,221.628 Z M322.623,230 C322.314,230 322.027,230.094 321.789,230.254 L318.238,227.606 C318.017,227.441 317.704,227.486 317.539,227.708 C317.374,227.929 317.419,228.243 317.641,228.408 L321.196,231.06 C321.153,231.2 321.123,231.346 321.123,231.5 C321.123,232.328 321.794,233 322.623,233 C323.451,233 324.123,232.328 324.123,231.5 C324.123,230.672 323.451,230 322.623,230 Z" id="Fill-1-Copy-2" fill="#5B688C" sketch:type="MSShapeGroup"></path>
            <g id="Group" sketch:type="MSLayerGroup" transform="translate(40.000000, 40.000000)"></g>
        </g>
    </g>
</svg>