<?xml version="1.0" encoding="UTF-8" standalone="no"?>
<svg width="14px" height="14px" viewBox="0 0 14 14" version="1.1" xmlns="http://www.w3.org/2000/svg" xmlns:xlink="http://www.w3.org/1999/xlink" xmlns:sketch="http://www.bohemiancoding.com/sketch/ns">
    <!-- Generator: Sketch 3.4.4 (17249) - http://www.bohemiancoding.com/sketch -->
    <title>私聊</title>
    <desc>Created with Sketch.</desc>
    <defs></defs>
    <g id="Page-1" stroke="none" stroke-width="1" sketch:type="MSPage">
        <g id="icon" sketch:type="MSArtboardGroup" transform="translate(-494.000000, -167.000000)">
            <path d="M494,169.995398 C494,169.445655 494.449949,169 495.006845,169 L506.993155,169 C507.54922,169 508,169.455664 508,169.995398 L508,178.004602 C508,178.554345 507.550051,179 506.993155,179 L495.006845,179 C494.45078,179 494,178.544336 494,178.004602 L494,169.995398 Z M503,179 L499,179 L500.345125,180.572995 C500.706803,180.995942 501.295107,180.993709 501.654875,180.572995 L503,179 Z M498,175 C498.552285,175 499,174.552285 499,174 C499,173.447715 498.552285,173 498,173 C497.447715,173 497,173.447715 497,174 C497,174.552285 497.447715,175 498,175 Z M501,175 C501.552285,175 502,174.552285 502,174 C502,173.447715 501.552285,173 501,173 C500.447715,173 500,173.447715 500,174 C500,174.552285 500.447715,175 501,175 Z M504,175 C504.552285,175 505,174.552285 505,174 C505,173.447715 504.552285,173 504,173 C503.447715,173 503,173.447715 503,174 C503,174.552285 503.447715,175 504,175 Z M496.5,168 L505.5,168 C505.776142,168 506,167.776142 506,167.5 C506,167.223858 505.776142,167 505.5,167 L496.5,167 C496.223858,167 496,167.223858 496,167.5 C496,167.776142 496.223858,168 496.5,168 Z" id="Rectangle-163-Copy-2" sketch:type="MSShapeGroup"></path>
        </g>
    </g>
</svg>