<?xml version="1.0" encoding="UTF-8" standalone="no"?>
<svg width="14px" height="14px" viewBox="0 0 14 14" version="1.1" xmlns="http://www.w3.org/2000/svg" xmlns:xlink="http://www.w3.org/1999/xlink" xmlns:sketch="http://www.bohemiancoding.com/sketch/ns">
    <!-- Generator: Sketch 3.4.4 (17249) - http://www.bohemiancoding.com/sketch -->
    <title>任务</title>
    <desc>Created with Sketch.</desc>
    <defs></defs>
    <g id="Page-1" stroke="none" stroke-width="1" sketch:type="MSPage">
        <g id="icon" sketch:type="MSArtboardGroup" transform="translate(-464.000000, -167.000000)">
            <g id="Page-1" sketch:type="MSLayerGroup" transform="translate(464.000000, 168.000000)">
                <path d="M8.0001,8.0003 L0.0001,8.0003 L0.0001,11.0003 L8.0001,11.0003 L14.0001,11.0003 L14.0001,8.0003 L8.0001,8.0003 Z M8.0001,9.0003 L12.9991,9.0003 L12.9991,10.0003 L8.0001,10.0003 L8.0001,9.0003 Z M5.0004,3.9998 L0.0004,3.9998 L0.0004,7.0008 L5.0004,7.0008 L14.0004,7.0008 L14.0004,3.9998 L5.0004,3.9998 Z M5.0004,4.9998 L12.9994,4.9998 L12.9994,5.9998 L5.0004,5.9998 L5.0004,4.9998 Z M0,0.0002 L0,3.0002 L9,3.0002 L14,3.0002 L14,0.0002 L0,0.0002 Z M9,1.0002 L13,1.0002 L13,2.0002 L9,2.0002 L9,1.0002 Z" id="Fill-1" sketch:type="MSShapeGroup"></path>
            </g>
        </g>
    </g>
</svg>