<?xml version="1.0" encoding="UTF-8" standalone="no"?>
<svg width="16px" height="16px" viewBox="0 0 16 16" version="1.1" xmlns="http://www.w3.org/2000/svg" xmlns:xlink="http://www.w3.org/1999/xlink" xmlns:sketch="http://www.bohemiancoding.com/sketch/ns">
    <!-- Generator: Sketch 3.3.3 (12072) - http://www.bohemiancoding.com/sketch -->
    <title>收藏2 active</title>
    <desc>Created with Sketch.</desc>
    <defs></defs>
    <g id="v2" stroke="none" stroke-width="1" fill="none" fill-rule="evenodd" sketch:type="MSPage">
        <g id="协作icons" sketch:type="MSArtboardGroup" transform="translate(-333.000000, -238.000000)">
            <g id="文件区-icon-+-文件区" sketch:type="MSLayerGroup" transform="translate(22.000000, 170.000000)">
                <g id="文件区-icon" transform="translate(0.000000, 30.000000)"></g>
            </g>
            <g id="Imported-Layers-Copy-19-+-Imported-Layers-Copy-4" sketch:type="MSLayerGroup" transform="translate(333.000000, 238.000000)">
                <path d="M15.9308157,5.763 C15.7658157,5.257 15.3378157,4.895 14.8118157,4.819 L10.9638157,4.26 L9.24281569,0.773 C9.00681569,0.296 8.53081569,0 7.99981569,0 C7.46781569,0 6.99181569,0.296 6.75681569,0.773 L5.03581569,4.26 L1.18781569,4.819 C0.661815695,4.895 0.232815695,5.257 0.0688156945,5.763 C-0.0951843055,6.268 0.0388156945,6.812 0.418815695,7.183 L3.20381569,9.898 L2.54681569,13.73 C2.45681569,14.254 2.66781569,14.774 3.09781569,15.086 C3.34081569,15.263 3.62481569,15.352 3.91181569,15.352 C4.13181569,15.352 4.35381569,15.299 4.55781569,15.192 L7.99981569,13.383 L11.4418157,15.192 C11.6458157,15.299 11.8678157,15.352 12.0878157,15.352 C12.3738157,15.352 12.6578157,15.263 12.9008157,15.086 C13.3318157,14.774 13.5428157,14.254 13.4528157,13.73 L12.7958157,9.898 L15.5798157,7.183 C15.9608157,6.812 16.0948157,6.268 15.9308157,5.763" id="Imported-Layers-Copy-19" fill="#F6CE62" sketch:type="MSShapeGroup"></path>
                <path d="M7.99979326,1 C8.15079326,1 8.27979326,1.08 8.34579326,1.216 L10.2997933,5.174 L10.8197933,5.249 L14.6677933,5.808 C14.8167933,5.83 14.9337933,5.929 14.9797933,6.071 C15.0267933,6.214 14.9897933,6.362 14.8827933,6.467 L11.7217933,9.549 L12.4677933,13.9 C12.4927933,14.048 12.4357933,14.188 12.3137933,14.277 C12.2457933,14.326 12.1677933,14.352 12.0877933,14.352 C12.0257933,14.352 11.9657933,14.337 11.9067933,14.306 L7.99979326,12.253 L4.09179326,14.307 C4.03479326,14.337 3.97479326,14.352 3.91179326,14.352 C3.83179326,14.352 3.75479326,14.326 3.68579326,14.277 C3.56479326,14.188 3.50679326,14.048 3.53279326,13.899 L4.27879326,9.549 L1.11779326,6.467 C1.00979326,6.362 0.973793259,6.214 1.01979326,6.072 C1.06679326,5.929 1.18279326,5.83 1.33179326,5.808 L5.69979326,5.174 L7.65379326,1.215 C7.72079326,1.08 7.84979326,1 7.99979326,1 M7.99979326,0 C7.46879326,0 6.99279326,0.296 6.75779326,0.773 L5.03579326,4.26 L1.18779326,4.819 C0.661793259,4.895 0.232793259,5.257 0.0687932589,5.763 C-0.0952067411,6.268 0.0387932589,6.812 0.419793259,7.183 L3.20379326,9.898 L2.54679326,13.73 C2.45679326,14.254 2.66879326,14.774 3.09879326,15.086 C3.34179326,15.263 3.62579326,15.352 3.91179326,15.352 C4.13179326,15.352 4.35379326,15.299 4.55779326,15.192 L7.99979326,13.383 L11.4417933,15.192 C11.6457933,15.299 11.8677933,15.352 12.0877933,15.352 C12.3747933,15.352 12.6587933,15.263 12.9017933,15.086 C13.3317933,14.774 13.5427933,14.254 13.4527933,13.73 L12.7957933,9.898 L15.5807933,7.183 C15.9607933,6.812 16.0957933,6.268 15.9307933,5.763 C15.7667933,5.257 15.3387933,4.895 14.8117933,4.819 L10.9637933,4.26 L9.24279326,0.773 C9.00779326,0.296 8.53179326,0 7.99979326,0" id="Imported-Layers-Copy-4" fill="#EBBA37" sketch:type="MSShapeGroup"></path>
            </g>
            <g id="Group" sketch:type="MSLayerGroup" transform="translate(40.000000, 40.000000)"></g>
        </g>
    </g>
</svg>