<?xml version="1.0" encoding="UTF-8" standalone="no"?>
<svg width="20px" height="20px" viewBox="0 0 20 20" version="1.1" xmlns="http://www.w3.org/2000/svg" xmlns:xlink="http://www.w3.org/1999/xlink" xmlns:sketch="http://www.bohemiancoding.com/sketch/ns">
    <!-- Generator: Sketch 3.3.3 (12072) - http://www.bohemiancoding.com/sketch -->
    <title>星星hover</title>
    <desc>Created with Sketch.</desc>
    <defs></defs>
    <g id="v2" stroke="none" stroke-width="1" fill="none" fill-rule="evenodd" sketch:type="MSPage">
        <g id="协作icons" sketch:type="MSArtboardGroup" transform="translate(-40.000000, -390.000000)">
            <g id="文件树" sketch:type="MSLayerGroup" transform="translate(41.000000, 340.000000)">
                <path d="M16.9308157,57.763 C16.7658157,57.257 16.3378157,56.895 15.8118157,56.819 L11.9638157,56.26 L10.2428157,52.773 C10.0068157,52.296 9.53081569,52 8.99981569,52 C8.46781569,52 7.99181569,52.296 7.75681569,52.773 L6.03581569,56.26 L2.18781569,56.819 C1.66181569,56.895 1.23281569,57.257 1.06881569,57.763 C0.904815695,58.268 1.03881569,58.812 1.41881569,59.183 L4.20381569,61.898 L3.54681569,65.73 C3.45681569,66.254 3.66781569,66.774 4.09781569,67.086 C4.34081569,67.263 4.62481569,67.352 4.91181569,67.352 C5.13181569,67.352 5.35381569,67.299 5.55781569,67.192 L8.99981569,65.383 L12.4418157,67.192 C12.6458157,67.299 12.8678157,67.352 13.0878157,67.352 C13.3738157,67.352 13.6578157,67.263 13.9008157,67.086 C14.3318157,66.774 14.5428157,66.254 14.4528157,65.73 L13.7958157,61.898 L16.5798157,59.183 C16.9608157,58.812 17.0948157,58.268 16.9308157,57.763" id="Imported-Layers-Copy-7" fill="#6DADF6" sketch:type="MSShapeGroup"></path>
                <path d="M8.99979326,53 C9.15079326,53 9.27979326,53.08 9.34579326,53.216 L11.2997933,57.174 L11.8197933,57.249 L15.6677933,57.808 C15.8167933,57.83 15.9337933,57.929 15.9797933,58.071 C16.0267933,58.214 15.9897933,58.362 15.8827933,58.467 L12.7217933,61.549 L13.4677933,65.9 C13.4927933,66.048 13.4357933,66.188 13.3137933,66.277 C13.2457933,66.326 13.1677933,66.352 13.0877933,66.352 C13.0257933,66.352 12.9657933,66.337 12.9067933,66.306 L8.99979326,64.253 L5.09179326,66.307 C5.03479326,66.337 4.97479326,66.352 4.91179326,66.352 C4.83179326,66.352 4.75479326,66.326 4.68579326,66.277 C4.56479326,66.188 4.50679326,66.048 4.53279326,65.899 L5.27879326,61.549 L2.11779326,58.467 C2.00979326,58.362 1.97379326,58.214 2.01979326,58.072 C2.06679326,57.929 2.18279326,57.83 2.33179326,57.808 L6.69979326,57.174 L8.65379326,53.215 C8.72079326,53.08 8.84979326,53 8.99979326,53 M8.99979326,52 C8.46879326,52 7.99279326,52.296 7.75779326,52.773 L6.03579326,56.26 L2.18779326,56.819 C1.66179326,56.895 1.23279326,57.257 1.06879326,57.763 C0.904793259,58.268 1.03879326,58.812 1.41979326,59.183 L4.20379326,61.898 L3.54679326,65.73 C3.45679326,66.254 3.66879326,66.774 4.09879326,67.086 C4.34179326,67.263 4.62579326,67.352 4.91179326,67.352 C5.13179326,67.352 5.35379326,67.299 5.55779326,67.192 L8.99979326,65.383 L12.4417933,67.192 C12.6457933,67.299 12.8677933,67.352 13.0877933,67.352 C13.3747933,67.352 13.6587933,67.263 13.9017933,67.086 C14.3317933,66.774 14.5427933,66.254 14.4527933,65.73 L13.7957933,61.898 L16.5807933,59.183 C16.9607933,58.812 17.0957933,58.268 16.9307933,57.763 C16.7667933,57.257 16.3387933,56.895 15.8117933,56.819 L11.9637933,56.26 L10.2427933,52.773 C10.0077933,52.296 9.53179326,52 8.99979326,52" id="Imported-Layers" fill="#398DEE" sketch:type="MSShapeGroup"></path>
            </g>
        </g>
    </g>
</svg>