<?xml version="1.0" encoding="UTF-8" standalone="no"?>
<svg width="20px" height="20px" viewBox="0 0 20 20" version="1.1" xmlns="http://www.w3.org/2000/svg" xmlns:xlink="http://www.w3.org/1999/xlink" xmlns:sketch="http://www.bohemiancoding.com/sketch/ns">
    <!-- Generator: Sketch 3.3.3 (12072) - http://www.bohemiancoding.com/sketch -->
    <title>星星线</title>
    <desc>Created with Sketch.</desc>
    <defs></defs>
    <g id="v2" stroke="none" stroke-width="1" fill="none" fill-rule="evenodd" sketch:type="MSPage">
        <g id="协作icons" sketch:type="MSArtboardGroup" transform="translate(-40.000000, -370.000000)" fill="#959FB1">
            <g id="文件树" sketch:type="MSLayerGroup" transform="translate(41.000000, 340.000000)">
                <path d="M13.0455085,47.359 C12.8145085,47.359 12.5825085,47.302 12.3675085,47.19 L9.00050852,45.42 L5.63350852,47.19 C5.13950852,47.449 4.55250852,47.408 4.10050852,47.079 C3.64950852,46.751 3.42750852,46.205 3.52150852,45.655 L4.16550852,41.906 L1.44050852,39.251 C1.04150852,38.861 0.89950852,38.29 1.07250852,37.759 C1.24450852,37.229 1.69550852,36.849 2.24750852,36.769 L4.70650852,36.412 C4.97850852,36.369 5.23250852,36.561 5.27250852,36.835 C5.31250852,37.108 5.12350852,37.361 4.85050852,37.401 L2.39150852,37.758 C2.13050852,37.796 2.04350852,38.005 2.02350852,38.069 C2.00250852,38.132 1.95050852,38.352 2.13850852,38.535 L5.05150852,41.374 C5.16850852,41.488 5.22250852,41.654 5.19450852,41.816 L4.50750852,45.824 C4.46250852,46.083 4.63450852,46.231 4.68850852,46.27 C4.74250852,46.308 4.93550852,46.427 5.16750852,46.305 L8.76750852,44.412 C8.91350852,44.335 9.08650852,44.335 9.23250852,44.412 L12.8325085,46.305 C13.0665085,46.427 13.2575085,46.308 13.3125085,46.27 C13.3655085,46.231 13.5375085,46.083 13.4935085,45.824 L12.8055085,41.816 C12.7775085,41.654 12.8315085,41.488 12.9495085,41.374 L15.8615085,38.535 C16.0495085,38.352 15.9975085,38.132 15.9775085,38.069 C15.9565085,38.005 15.8695085,37.796 15.6095085,37.758 L11.5845085,37.173 C11.4215085,37.15 11.2815085,37.048 11.2085085,36.9 L9.40850852,33.253 C9.25150852,32.936 8.74850852,32.935 8.59150852,33.253 L7.34150852,35.786 C7.22050852,36.034 6.92150852,36.136 6.67250852,36.013 C6.42450852,35.891 6.32250852,35.591 6.44550852,35.344 L7.69550852,32.811 C7.94250852,32.31 8.44250852,32 9.00050852,32 C9.55850852,32 10.0585085,32.31 10.3055085,32.811 L11.9885085,36.222 L15.7525085,36.769 C16.3055085,36.849 16.7555085,37.229 16.9285085,37.759 C17.1005085,38.29 16.9595085,38.861 16.5605085,39.251 L13.8355085,41.906 L14.4785085,45.655 C14.5725085,46.205 14.3515085,46.751 13.8995085,47.079 C13.6445085,47.264 13.3465085,47.359 13.0455085,47.359" id="Imported-Layers-Copy-10" sketch:type="MSShapeGroup"></path>
            </g>
        </g>
    </g>
</svg>