<?xml version="1.0" encoding="UTF-8" standalone="no"?>
<svg width="16px" height="16px" viewBox="0 0 16 16" version="1.1" xmlns="http://www.w3.org/2000/svg" xmlns:xlink="http://www.w3.org/1999/xlink" xmlns:sketch="http://www.bohemiancoding.com/sketch/ns">
    <!-- Generator: Sketch 3.3.3 (12072) - http://www.bohemiancoding.com/sketch -->
    <title>收藏2 hover</title>
    <desc>Created with Sketch.</desc>
    <defs></defs>
    <g id="v2" stroke="none" stroke-width="1" fill="none" fill-rule="evenodd" sketch:type="MSPage">
        <g id="协作icons" sketch:type="MSArtboardGroup" transform="translate(-333.000000, -218.000000)">
            <g id="文件区-icon-+-文件区" sketch:type="MSLayerGroup" transform="translate(22.000000, 170.000000)">
                <g id="文件区-icon" transform="translate(0.000000, 30.000000)"></g>
            </g>
            <path d="M345.045509,233.359 C344.814509,233.359 344.582509,233.302 344.367509,233.19 L341.000509,231.42 L337.633509,233.19 C337.139509,233.449 336.552509,233.408 336.100509,233.079 C335.649509,232.751 335.427509,232.205 335.521509,231.655 L336.165509,227.906 L333.440509,225.251 C333.041509,224.861 332.899509,224.29 333.072509,223.759 C333.244509,223.229 333.695509,222.849 334.247509,222.769 L336.706509,222.412 C336.978509,222.369 337.232509,222.561 337.272509,222.835 C337.312509,223.108 337.123509,223.361 336.850509,223.401 L334.391509,223.758 C334.130509,223.796 334.043509,224.005 334.023509,224.069 C334.002509,224.132 333.950509,224.352 334.138509,224.535 L337.051509,227.374 C337.168509,227.488 337.222509,227.654 337.194509,227.816 L336.507509,231.824 C336.462509,232.083 336.634509,232.231 336.688509,232.27 C336.742509,232.308 336.935509,232.427 337.167509,232.305 L340.767509,230.412 C340.913509,230.335 341.086509,230.335 341.232509,230.412 L344.832509,232.305 C345.066509,232.427 345.257509,232.308 345.312509,232.27 C345.365509,232.231 345.537509,232.083 345.493509,231.824 L344.805509,227.816 C344.777509,227.654 344.831509,227.488 344.949509,227.374 L347.861509,224.535 C348.049509,224.352 347.997509,224.132 347.977509,224.069 C347.956509,224.005 347.869509,223.796 347.609509,223.758 L343.584509,223.173 C343.421509,223.15 343.281509,223.048 343.208509,222.9 L341.408509,219.253 C341.251509,218.936 340.748509,218.935 340.591509,219.253 L339.341509,221.786 C339.220509,222.034 338.921509,222.136 338.672509,222.013 C338.424509,221.891 338.322509,221.591 338.445509,221.344 L339.695509,218.811 C339.942509,218.31 340.442509,218 341.000509,218 C341.558509,218 342.058509,218.31 342.305509,218.811 L343.988509,222.222 L347.752509,222.769 C348.305509,222.849 348.755509,223.229 348.928509,223.759 C349.100509,224.29 348.959509,224.861 348.560509,225.251 L345.835509,227.906 L346.478509,231.655 C346.572509,232.205 346.351509,232.751 345.899509,233.079 C345.644509,233.264 345.346509,233.359 345.045509,233.359" id="Imported-Layers-Copy-18" fill="#5B688C" sketch:type="MSShapeGroup"></path>
            <g id="Group" sketch:type="MSLayerGroup" transform="translate(40.000000, 40.000000)"></g>
        </g>
    </g>
</svg>