<?xml version="1.0" encoding="UTF-8" standalone="no"?>
<svg width="24px" height="18px" viewBox="0 0 24 18" version="1.1" xmlns="http://www.w3.org/2000/svg" xmlns:xlink="http://www.w3.org/1999/xlink" xmlns:sketch="http://www.bohemiancoding.com/sketch/ns">
    <!-- Generator: Sketch 3.3.3 (12072) - http://www.bohemiancoding.com/sketch -->
    <title>暂停</title>
    <desc>Created with Sketch.</desc>
    <defs></defs>
    <g id="v2" stroke="none" stroke-width="1" fill="none" fill-rule="evenodd" sketch:type="MSPage">
        <g id="弹窗" sketch:type="MSArtboardGroup" transform="translate(-2193.000000, -611.000000)">
            <g id="Group" sketch:type="MSLayerGroup" transform="translate(57.000000, 101.000000)"></g>
            <g id="历史版本_表格" sketch:type="MSLayerGroup" transform="translate(1483.000000, 568.000000)">
                <g id="暂停" transform="translate(710.000000, 43.000000)" sketch:type="MSShapeGroup">
                    <path d="M1,1.99508929 L1,1.99508929 L1,16.0049107 C1,16.5537283 1.44857122,17 2.00494659,17 L21.9950534,17 C22.5515281,17 23,16.5536378 23,16.0049107 L23,1.99508929 C23,1.4462717 22.5514288,1 21.9950534,1 L2.00494659,1 C1.44847193,1 1,1.44636221 1,1.99508929 L1,1.99508929 Z M0,1.99508929 C0,0.893231902 0.897026226,0 2.00494659,0 L21.9950534,0 C23.1023548,0 24,0.892622799 24,1.99508929 L24,16.0049107 C24,17.1067681 23.1029738,18 21.9950534,18 L2.00494659,18 C0.897645164,18 0,17.1073772 0,16.0049107 L0,1.99508929 L0,1.99508929 Z" id="Shape" fill="#95C2F8"></path>
                    <path d="M8,5.99703014 C8,5.4463856 8.44386482,5 9,5 C9.55228475,5 10,5.45303631 10,5.99703014 L10,12.0029699 C10,12.5536144 9.55613518,13 9,13 C8.44771525,13 8,12.5469637 8,12.0029699 L8,5.99703014 Z M14,5.99703014 C14,5.4463856 14.4438648,5 15,5 C15.5522847,5 16,5.45303631 16,5.99703014 L16,12.0029699 C16,12.5536144 15.5561352,13 15,13 C14.4477153,13 14,12.5469637 14,12.0029699 L14,5.99703014 Z" id="Rectangle-2720" fill="#FFFFFF"></path>
                </g>
            </g>
        </g>
    </g>
</svg>