<?xml version="1.0" encoding="UTF-8" standalone="no"?>
<svg width="6px" height="16px" viewBox="0 0 6 16" version="1.1" xmlns="http://www.w3.org/2000/svg" xmlns:xlink="http://www.w3.org/1999/xlink" xmlns:sketch="http://www.bohemiancoding.com/sketch/ns">
    <!-- Generator: Sketch 3.4 (15575) - http://www.bohemiancoding.com/sketch -->
    <title>task_urgent</title>
    <desc>Created with Sketch.</desc>
    <defs></defs>
    <g id="Page-1" stroke="none" stroke-width="1" fill="none" fill-rule="evenodd" sketch:type="MSPage">
        <g id="icon" sketch:type="MSArtboardGroup" transform="translate(-232.000000, -97.000000)">
            <g id="创建清单-copy-5-+-＋-copy" sketch:type="MSLayerGroup" transform="translate(126.000000, 19.000000)">
                <g id="＋-copy">
                    <g id="Imported-Layers"></g>
                </g>
            </g>
            <path d="M234.333,107.454836 C234.333,107.742226 234.632,107.974515 235,107.974515 C235.368,107.974515 235.667,107.742226 235.667,107.454836 L237,99.4187192 C237,98.7088875 236.26,97.958 235.348,97.958 L234.652,97.958 C233.74,97.958 233,98.7088875 233,99.4187192 L234.223,106.772015 L234.333,107.454836 Z M235,108.716759 C234.172,108.716759 233.5,109.442797 233.5,110.33738 C233.5,111.231962 234.172,111.958 235,111.958 C235.828,111.958 236.5,111.231962 236.5,110.33738 C236.5,109.442797 235.828,108.716759 235,108.716759 Z" id="Fill-1-Copy" fill="#E94343" sketch:type="MSShapeGroup" transform="translate(235.000000, 104.958000) scale(-1, 1) translate(-235.000000, -104.958000) "></path>
        </g>
    </g>
</svg>