<?xml version="1.0" encoding="UTF-8" standalone="no"?>
<svg width="13px" height="14px" viewBox="0 0 13 14" version="1.1" xmlns="http://www.w3.org/2000/svg" xmlns:xlink="http://www.w3.org/1999/xlink" xmlns:sketch="http://www.bohemiancoding.com/sketch/ns">
    <!-- Generator: Sketch 3.4.4 (17249) - http://www.bohemiancoding.com/sketch -->
    <title>更多已完成</title>
    <desc>Created with Sketch.</desc>
    <defs></defs>
    <g id="Page-1" stroke="none" stroke-width="1" sketch:type="MSPage">
        <g id="icon" sketch:type="MSArtboardGroup" transform="translate(-34.000000, -299.000000)">
            <g id="＋-copy" sketch:type="MSLayerGroup" transform="translate(34.000000, 293.428571)">
                <g id="更多已完成任务-+-Fill-1" transform="translate(0.000000, 5.000000)" sketch:type="MSShapeGroup">
                    <path d="M6.0104,11.3384 L5.6564,11.6924 L5.3034,11.3384 L2.6464,8.6814 L3.3534,7.9744 L5.6574,10.2784 L10.2024,5.7314 L10.9094,6.4394 L6.0104,11.3384 Z M11.818,2.57142857 L1.181,2.57142857 C0.529,2.57142857 0,3.05942857 0,3.66142857 L0,13.4804286 C0,14.0824286 0.529,14.5714286 1.181,14.5714286 L11.818,14.5714286 C12.47,14.5714286 13,14.0824286 13,13.4804286 L13,3.66142857 C13,3.05942857 12.47,2.57142857 11.818,2.57142857 L11.818,2.57142857 Z M1.55,1.57142857 L11.45,1.57142857 C11.754,1.57142857 12,1.34742857 12,1.07142857 C12,0.795428571 11.754,0.571428571 11.45,0.571428571 L1.55,0.571428571 C1.246,0.571428571 1,0.795428571 1,1.07142857 C1,1.34742857 1.246,1.57142857 1.55,1.57142857" id="Fill-1"></path>
                </g>
            </g>
        </g>
    </g>
</svg>