<?xml version="1.0" encoding="UTF-8" standalone="no"?>
<svg width="14px" height="14px" viewBox="0 0 14 14" version="1.1" xmlns="http://www.w3.org/2000/svg" xmlns:xlink="http://www.w3.org/1999/xlink" xmlns:sketch="http://www.bohemiancoding.com/sketch/ns">
    <!-- Generator: Sketch 3.4 (15575) - http://www.bohemiancoding.com/sketch -->
    <title>指派人</title>
    <desc>Created with Sketch.</desc>
    <defs></defs>
    <g id="Page-1" stroke="none" stroke-width="1" fill="none" fill-rule="evenodd" sketch:type="MSPage">
        <g id="icon" sketch:type="MSArtboardGroup" transform="translate(-237.000000, -19.000000)">
            <g id="创建清单-copy-5-+-＋-copy" sketch:type="MSLayerGroup" transform="translate(126.000000, 19.000000)">
                <g id="＋-copy">
                    <g id="Imported-Layers"></g>
                </g>
            </g>
            <path d="M247.944,25.559 C247.97,25.377 248,25.196 248,25.006 L248,22.993 C248,20.791 246.208,19 243.994,19 C241.792,19 240,20.791 240,22.993 L240,25.006 C240,25.196 240.03,25.377 240.056,25.559 C238.836,26.292 238,27.675 238,29.277 L238,33 L250,33 L250,29.277 C250,27.675 249.164,26.292 247.944,25.559 L247.944,25.559 Z M242,22.993 C242,21.894 242.895,21 244.006,21 C245.105,21 246,21.894 246,22.993 L246,25.006 C246,26.106 245.105,27 244.006,27 L243.994,27 C242.895,27 242,26.106 242,25.006 L242,22.993 L242,22.993 Z M248,31 L240,31 L240,29.277 C240,28.513 240.333,27.84 240.839,27.426 C241.569,28.377 242.705,29 243.994,29 L244.006,29 C245.295,29 246.43,28.377 247.161,27.426 C247.667,27.84 248,28.513 248,29.277 L248,31 L248,31 Z" id="指派" fill="#D6D6D6" sketch:type="MSShapeGroup"></path>
        </g>
    </g>
</svg>