<?xml version="1.0" encoding="UTF-8" standalone="no"?>
<svg width="30px" height="30px" viewBox="0 0 30 30" version="1.1" xmlns="http://www.w3.org/2000/svg" xmlns:xlink="http://www.w3.org/1999/xlink" xmlns:sketch="http://www.bohemiancoding.com/sketch/ns">
    <!-- Generator: Sketch 3.4.4 (17249) - http://www.bohemiancoding.com/sketch -->
    <title>Rectangle 430 + Shape + Oval 361</title>
    <desc>Created with Sketch.</desc>
    <defs></defs>
    <g id="Page-1" stroke="none" stroke-width="1" fill="none" fill-rule="evenodd" sketch:type="MSPage">
        <g id="控件" sketch:type="MSArtboardGroup" transform="translate(-784.000000, -650.000000)">
            <g id="上传文件" sketch:type="MSLayerGroup" transform="translate(660.000000, 390.000000)">
                <g id="Group-6" transform="translate(54.000000, 0.000000)" sketch:type="MSShapeGroup">
                    <g id="Group" transform="translate(0.000000, 151.000000)">
                        <g id="文件-22" transform="translate(10.000000, 10.000000)">
                            <g id="Rectangle-430-+-Shape-+-Oval-361" transform="translate(60.000000, 99.000000)">
                                <path d="M3.50610545e-08,1.99161703 C3.50610545e-08,0.891677316 0.895725525,1.77635684e-15 1.99475308,1.77635684e-15 L21.3161126,1.77635684e-15 C22.4197233,1.77635684e-15 24.2068395,1.77635684e-15 25.3134313,1.77635684e-15 L27.9901223,1.77635684e-15 C29.1001471,1.77635684e-15 30,0.89784041 30,1.99161703 L30,28.008383 C30,29.1083227 29.1021596,30 28.008383,30 L1.99161706,30 C0.891677351,30 3.50610545e-08,29.1021596 3.50610545e-08,28.008383 L3.50610545e-08,1.99161703 Z" id="Rectangle-430" fill="#DEE1E6"></path>
                                <path d="M1.00000004,1.99161703 L1.00000004,1.99161703 L1.00000004,28.008383 C1.00000004,28.5524808 1.44656467,29 1.99161706,29 L28.008383,29 C28.5524809,29 29,28.5534354 29,28.008383 L29,1.99161703 C29,1.44956779 28.5472779,1 27.9901223,1 L25.3134313,1 L23.3183947,1 L21.3161126,1 L1.99475308,1 C1.44654075,1 1.00000004,1.44543085 1.00000004,1.99161703 L1.00000004,1.99161703 Z M3.50610208e-08,1.99161703 C3.50610208e-08,0.891677316 0.895725525,0 1.99475308,0 L21.3161126,0 L25.3134313,0 L27.9901223,0 C29.1001471,0 30,0.89784041 30,1.99161703 L30,28.008383 C30,29.1083227 29.1021596,30 28.008383,30 L1.99161706,30 C0.891677351,30 3.50610208e-08,29.1021596 3.50610208e-08,28.008383 L3.50610208e-08,1.99161703 L3.50610208e-08,1.99161703 Z" id="Shape" fill="#CCCFD3"></path>
                                <path d="M22.5125278,10.0422008 C23.4526355,11.4638758 24,13.168016 24,15 C24,19.9705627 19.9705627,24 15,24 C10.0294373,24 6,19.9705627 6,15 C6,10.0294373 10.0294373,6 15,6 C17.494139,6 19.7513166,7.01455264 21.3813514,8.65347666 L14.0068348,15.4374981 L9.82751467,12.4384766 L9.32073975,12.6237793 L14.0990599,19.6262205 L14.7106324,19.6287235 L22.5125278,10.0422008 Z" id="Oval-361" fill="#FFFFFF"></path>
                            </g>
                        </g>
                    </g>
                </g>
            </g>
        </g>
    </g>
</svg>