<?xml version="1.0" encoding="UTF-8" standalone="no"?>
<svg width="16px" height="16px" viewBox="0 0 16 16" version="1.1" xmlns="http://www.w3.org/2000/svg" xmlns:xlink="http://www.w3.org/1999/xlink" xmlns:sketch="http://www.bohemiancoding.com/sketch/ns">
    <!-- Generator: Sketch 3.4 (15575) - http://www.bohemiancoding.com/sketch -->
    <title>选择active</title>
    <desc>Created with Sketch.</desc>

    <g id="Page-1" stroke="none" stroke-width="1" fill="none" fill-rule="evenodd" sketch:type="MSPage">
        <g id="icon" sketch:type="MSArtboardGroup" transform="translate(-406.000000, -95.000000)">
            <g id="创建清单-copy-5-+-＋-copy" sketch:type="MSLayerGroup" transform="translate(126.000000, 19.000000)">
                <g id="＋-copy" sketch:type="MSShapeGroup">
                    <g id="Imported-Layers">
                        <path d="M291,79 L292,79 L292,82 L291,82 L291,79 Z M290,80 L291,80 L291,83 L290,83 L290,80 Z M289,81 L290,81 L290,84 L289,84 L289,81 Z M288,82 L289,82 L289,85 L288,85 L288,82 Z M287,83 L288,83 L288,86 L287,86 L287,83 Z M286,84 L287,84 L287,87 L286,87 L286,84 Z M285,85 L286,85 L286,88 L285,88 L285,85 Z M284,84 L285,84 L285,87 L284,87 L284,84 Z M283,83 L284,83 L284,86 L283,86 L283,83 Z M282,82 L283,82 L283,85 L282,85 L282,82 Z" id="Rectangle-1919" fill="#398DEE"></path>
                    </g>
                </g>
            </g>
        </g>
    </g>
</svg>