<?xml version="1.0" encoding="UTF-8" standalone="no"?>
<svg width="14px" height="14px" viewBox="0 0 14 14" version="1.1" xmlns="http://www.w3.org/2000/svg" xmlns:xlink="http://www.w3.org/1999/xlink" xmlns:sketch="http://www.bohemiancoding.com/sketch/ns">
    <!-- Generator: Sketch 3.4 (15575) - http://www.bohemiancoding.com/sketch -->
    <title>优先级</title>
    <desc>Created with Sketch.</desc>
    <defs></defs>
    <g id="Page-1" stroke="none" stroke-width="1" fill="none" fill-rule="evenodd" sketch:type="MSPage">
        <g id="icon" sketch:type="MSArtboardGroup" transform="translate(-297.000000, -19.000000)">
            <g id="创建清单-copy-5-+-＋-copy" sketch:type="MSLayerGroup" transform="translate(126.000000, 19.000000)">
                <g id="＋-copy">
                    <g id="Imported-Layers"></g>
                </g>
            </g>
            <path d="M299.666,22.996 L298.334,22.996 C298.149333,22.996 298,23.221 298,23.497 L298,33.004 L300,33.004 L300,23.497 C300,23.221 299.85,22.996 299.666,22.996 Z M304.666,19 L303.334,19 C303.149333,19 303,19.225 303,19.501 L303,33 L305,33 L305,19.501 C305,19.225 304.850667,19 304.666,19 Z M309.666,22.004 L308.334,22.004 C308.149333,22.004 308,22.228 308,22.505 L308,33.004 L310,33.004 L310,22.505 C310,22.228 309.85,22.004 309.666,22.004 Z" id="Fill-1-Copy-5" fill="#D6D6D6" sketch:type="MSShapeGroup"></path>
        </g>
    </g>
</svg>