<?xml version="1.0" encoding="UTF-8" standalone="no"?>
<svg width="12px" height="13px" viewBox="0 0 12 13" version="1.1" xmlns="http://www.w3.org/2000/svg" xmlns:xlink="http://www.w3.org/1999/xlink" xmlns:sketch="http://www.bohemiancoding.com/sketch/ns">
    <!-- Generator: Sketch 3.4.4 (17249) - http://www.bohemiancoding.com/sketch -->
    <title>删除</title>
    <desc>Created with Sketch.</desc>
    <defs></defs>
    <g id="Page-1" stroke="none" stroke-width="1"  sketch:type="MSPage">
        <g id="icon" sketch:type="MSArtboardGroup" transform="translate(-439.000000, -220.000000)" >
            <path d="M443,221 L439,221 L439,222 L451,222 L451,221 L447,221 L447,220 L443,220 L443,221 Z M440,223 L450,223 L450,233 L440,233 L440,223 Z M443,226.4 L443,229.6 L443,230 L444,230 L444,229.6 L444,226.4 L444,226 L443,226 L443,226.4 Z M446,226.4 L446,229.6 L446,230 L447,230 L447,229.6 L447,226.4 L447,226 L446,226 L446,226.4 Z" id="Rectangle-1066" sketch:type="MSShapeGroup"></path>
        </g>
    </g>
</svg>