<?xml version="1.0" encoding="UTF-8" standalone="no"?>
<svg width="16px" height="16px" viewBox="0 0 16 16" version="1.1" xmlns="http://www.w3.org/2000/svg" xmlns:xlink="http://www.w3.org/1999/xlink" xmlns:sketch="http://www.bohemiancoding.com/sketch/ns">
    <!-- Generator: Sketch 3.4.4 (17249) - http://www.bohemiancoding.com/sketch -->
    <title>日志</title>
    <desc>Created with Sketch.</desc>
    <defs></defs>
    <g id="Page-1" stroke="none" stroke-width="1" sketch:type="MSPage">
        <g id="icon" sketch:type="MSArtboardGroup" transform="translate(-367.000000, -282.000000)">
            <g id="相关讨论-+-Rectangle-1165-+-查看对此清单的操作日志-+-Imported-Layers-Copy-2" sketch:type="MSLayerGroup" transform="translate(317.000000, 282.000000)">
                <g id="查看对此清单的操作日志-+-Imported-Layers-Copy-2" transform="translate(32.000000, 1.000000)" sketch:type="MSShapeGroup">
                    <path d="M30,4 L22.889,4 L22,4 L22,3 L22.889,3 L30,3 L30,4 Z M30,7 L22.889,7 L22,7 L22,6 L22.889,6 L30,6 L30,7 Z M27,10 L23,10 L22,10 L22,9 L23,9 L27,9 L27,10 Z M31.077,0 L20.923,0 C20.422,0 20,0.461 20,1 L20,13 C20,13.539 20.422,14 20.923,14 L28.308,14 L32,11 L32,1 C32,0.461 31.578,0 31.077,0 L31.077,0 Z" id="Page-1"></path>
                </g>
            </g>
        </g>
    </g>
</svg>