<?xml version="1.0" encoding="UTF-8" standalone="no"?>
<svg width="14px" height="14px" viewBox="0 0 14 14" version="1.1" xmlns="http://www.w3.org/2000/svg" xmlns:xlink="http://www.w3.org/1999/xlink" xmlns:sketch="http://www.bohemiancoding.com/sketch/ns">
    <!-- Generator: Sketch 3.4 (15575) - http://www.bohemiancoding.com/sketch -->
    <title>附件</title>
    <desc>Created with Sketch.</desc>
    <defs></defs>
    <g id="Page-1" stroke="none" stroke-width="1" sketch:type="MSPage">
        <g id="icon" sketch:type="MSArtboardGroup" transform="translate(-52.000000, -19.000000)">
            <path d="M59.2857143,32.4923906 L59.2857143,32.5714286 L57.7142857,32.5714286 L57.7142857,32.4923906 C55.0517455,32.1079799 53,29.8398438 53,27.0714286 L53,23.9285714 C53,21.7586496 54.7586496,20 56.9285714,20 C58.8291406,20 60.4926451,21.3496853 60.8571429,23.1428571 L60.8571429,27.0714286 C60.8571429,28.373529 59.8013393,29.4285714 58.5,29.4285714 C57.1986607,29.4285714 56.1428571,28.373529 56.1428571,27.0714286 L56.1428571,23.9285714 C56.1428571,23.4942679 56.4942679,23.1428571 56.9285714,23.1428571 C57.362875,23.1428571 57.7142857,23.4942679 57.7142857,23.9285714 L57.7142857,27.0714286 C57.7142857,27.5057321 58.0656964,27.8571429 58.5,27.8571429 C58.9343036,27.8571429 59.2857143,27.5057321 59.2857143,27.0714286 L59.2857143,23.1428571 C59.2857143,23.1428571 58.7785357,21.5714286 56.9285714,21.5714286 C55.6272321,21.5714286 54.5714286,22.626471 54.5714286,23.9285714 L54.5714286,27.0714286 C54.5714286,29.2413504 56.3300781,31 58.5,31 C60.6699219,31 62.4285714,29.2413504 62.4285714,27.0714286 L62.4285714,20.7857143 C62.4285714,20.3514107 62.7799821,20 63.2142857,20 C63.6485893,20 64,20.3514107 64,20.7857143 L64,27.0714286 C64,29.8398438 61.9482545,32.1079799 59.2857143,32.4923906" id="附件" sketch:type="MSShapeGroup" transform="translate(58.500000, 26.285714) scale(-1, 1) translate(-58.500000, -26.285714) "></path>
        </g>
    </g>
</svg>