<?xml version="1.0" encoding="UTF-8" standalone="no"?>
<svg width="20px" height="20px" viewBox="0 0 20 20" version="1.1" xmlns="http://www.w3.org/2000/svg" xmlns:xlink="http://www.w3.org/1999/xlink" xmlns:sketch="http://www.bohemiancoding.com/sketch/ns">
    <!-- Generator: Sketch 3.3.3 (12072) - http://www.bohemiancoding.com/sketch -->
    <title>垃圾桶线</title>
    <desc>Created with Sketch.</desc>
    <defs></defs>
    <g id="v2" stroke="none" stroke-width="1" fill="none" fill-rule="evenodd" sketch:type="MSPage">
        <g id="协作icons" sketch:type="MSArtboardGroup" transform="translate(-100.000000, -370.000000)" fill="#959FB1">
            <g id="文件树" sketch:type="MSLayerGroup" transform="translate(41.000000, 340.000000)">
                <path d="M74.3746522,47.9837811 C74.4147094,47.9943522 74.4567123,48 74.5,48 C74.7680664,48 75,47.7755086 75,47.4985844 L75,37.4973609 C75,37.2257806 74.7761424,36.9959453 74.5,36.9959453 C74.2319336,36.9959453 74,37.2204367 74,37.4973609 L74,46.9847948 L63.5003473,46.9847948 C63.2290006,46.9847948 63,47.2084255 63,47.4842879 C63,47.7520826 63.2240131,47.9837811 63.5003473,47.9837811 L74.3746522,47.9837811 Z M66,34.9979726 L66,33.4948868 C66,33.3597561 66.0566936,33.2372751 66.1464178,33.1479668 L66.1483168,33.1448096 C66.2380423,33.0552943 66.3601666,33 66.4910052,33 L71.5089948,33 C71.643812,33 71.7659385,33.0572684 71.8564884,33.145591 C71.9452443,33.2341772 72,33.3567269 72,33.4948868 L72,34.9979726 L76.5036068,34.9979726 C76.7777572,34.9979726 77,35.2296711 77,35.4974658 C77,35.7733283 76.773819,35.996959 76.5036068,35.996959 L61.4963932,35.996959 C61.2222428,35.996959 61,35.7652605 61,35.4974658 C61,35.2216033 61.226181,34.9979726 61.4963932,34.9979726 L66,34.9979726 L66,34.9979726 Z M67,34.9979726 L67,33.9989863 L71,33.9989863 L71,34.9979726 L67,34.9979726 L67,34.9979726 Z M63,37.5058407 C63,37.2242333 63.2319336,36.9959453 63.5,36.9959453 C63.7761424,36.9959453 64,37.2185187 64,37.5058407 L64,45.4901045 C64,45.771712 63.7755118,46.0000001 63.5064393,46.0000003 L63.4150391,46.0000003 C63.1858193,46.0000001 63,45.7774266 63,45.4901045 L63,37.5058407 Z M67,40.3920769 C67,40.1721798 67.1741867,39.9939179 67.4067383,39.9939179 L67.5932617,39.9939179 C67.8178971,39.9939179 68,40.1657929 68,40.3920769 L68,43.5957589 C68,43.815656 67.8258133,43.9939179 67.5932617,43.9939179 L67.4067383,43.9939179 C67.1821029,43.9939179 67,43.8220429 67,43.5957589 L67,40.3920769 Z M70,40.3920769 C70,40.1721798 70.1741867,39.9939179 70.4067383,39.9939179 L70.5932617,39.9939179 C70.8178971,39.9939179 71,40.1657929 71,40.3920769 L71,43.5957589 C71,43.815656 70.8258133,43.9939179 70.5932617,43.9939179 L70.4067383,43.9939179 C70.1821029,43.9939179 70,43.8220429 70,43.5957589 L70,40.3920769 Z" id="Rectangle-374" sketch:type="MSShapeGroup"></path>
            </g>
        </g>
    </g>
</svg>