<?xml version="1.0" encoding="UTF-8" standalone="no"?>
<svg width="20px" height="20px" viewBox="0 0 20 20" version="1.1" xmlns="http://www.w3.org/2000/svg" xmlns:xlink="http://www.w3.org/1999/xlink" xmlns:sketch="http://www.bohemiancoding.com/sketch/ns">
    <!-- Generator: Sketch 3.3.3 (12072) - http://www.bohemiancoding.com/sketch -->
    <title>垃圾桶hover</title>
    <desc>Created with Sketch.</desc>
    <defs></defs>
    <g id="v2" stroke="none" stroke-width="1" fill="none" fill-rule="evenodd" sketch:type="MSPage">
        <g id="协作icons" sketch:type="MSArtboardGroup" transform="translate(-100.000000, -390.000000)">
            <g id="文件树" sketch:type="MSLayerGroup" transform="translate(41.000000, 340.000000)">
                <g id="Rectangle-374-Copy-2-+-Rectangle" transform="translate(61.000000, 53.000000)" sketch:type="MSShapeGroup">
                    <path d="M2,2.99695896 L0.496393204,2.99695896 C0.222242807,2.99695896 0,2.76526047 0,2.4974658 C0,2.22160334 0.22618103,1.99797264 0.496393204,1.99797264 L5,1.99797264 L5,0.495388985 C5,0.221793203 5.22788048,0 5.49100518,0 L10.5089948,0 C10.7801695,0 11,0.215752602 11,0.495388985 L11,1.99797264 L11,1.99797264 L15.5036068,1.99797264 C15.7777572,1.99797264 16,2.22967113 16,2.4974658 C16,2.77332825 15.773819,2.99695896 15.5036068,2.99695896 L14,2.99695896 L14,14.506259 C14,14.7789446 13.7709994,15 13.4996527,15 L2.50034732,15 C2.22401312,15 2,14.7743607 2,14.506259 L2,2.99695896 Z" id="Rectangle-374-Copy-2" fill="#76B0F3"></path>
                    <path d="M6,7.49047852 C6,7.21959471 6.23193359,7 6.5,7 C6.77614237,7 7,7.21505737 7,7.49047852 L7,10.5095215 C7,10.7804053 6.76806641,11 6.5,11 C6.22385763,11 6,10.7849426 6,10.5095215 L6,7.49047852 Z M9,7.49047852 C9,7.21959471 9.23193359,7 9.5,7 C9.77614237,7 10,7.21505737 10,7.49047852 L10,10.5095215 C10,10.7804053 9.76806641,11 9.5,11 C9.22385763,11 9,10.7849426 9,10.5095215 L9,7.49047852 Z" id="Rectangle" fill="#FFFFFF"></path>
                    <path d="M10,1 L10,2.998 L13,2.998 L13,14 L3,14 L3,2.998 L6,2.998 L6,1 L10,1 M10.509,0 L5.491,0 C5.228,0 5,0.222 5,0.495 L5,1.998 L0.496,1.998 C0.226,1.998 0,2.222 0,2.498 C0,2.765 0.222,2.997 0.496,2.997 L2,2.997 L2,14.506 C2,14.774 2.224,15 2.5,15 L13.5,15 C13.771,15 14,14.779 14,14.506 L14,2.997 L15.504,2.997 C15.774,2.997 16,2.773 16,2.498 C16,2.23 15.778,1.998 15.504,1.998 L11,1.998 L11,0.495 C11,0.216 10.78,0 10.509,0" id="Imported-Layers" fill="#398DEE"></path>
                </g>
            </g>
        </g>
    </g>
</svg>