<?xml version="1.0" encoding="UTF-8" standalone="no"?>
<svg width="30px" height="34px" viewBox="0 0 30 34" version="1.1" xmlns="http://www.w3.org/2000/svg" xmlns:xlink="http://www.w3.org/1999/xlink" xmlns:sketch="http://www.bohemiancoding.com/sketch/ns">
    <!-- Generator: Sketch 3.3.3 (12072) - http://www.bohemiancoding.com/sketch -->
    <title>pdf灰</title>
    <desc>Created with Sketch.</desc>
    <defs>
        <path id="path-2" d="M0,1.9999204 C0,0.895394863 0.892260669,0 1.99694427,0 L22.0639648,0 L30,8 L30,32.0029953 C30,33.1059106 29.1021596,34 28.008383,34 L1.99161703,34 C0.891677316,34 0,33.1080589 0,32.0000796 L0,1.9999204 Z"></path>
    </defs>
    <g id="Page-1" stroke="none" stroke-width="1" fill="none" fill-rule="evenodd" sketch:type="MSPage">
        <g id="pdf" sketch:type="MSLayerGroup">
            <g id="Rectangle-377">
                <use fill="#E1E4E9" sketch:type="MSShapeGroup" xlink:href="#path-2"></use>
            </g>
            <path d="M1,32.0000796 C1,32.5552444 1.44343804,33 1.99161703,33 L28.008383,33 C28.5518766,33 29,32.5516228 29,32.0029953 C29,32.0029953 29.0889861,8.50299581 28.9872092,8.40111714 C26.4249846,5.83632915 21.7328491,1 21.5952759,1 C15.0608101,1 1.99187866,1 1.99187866,1 C1.44394691,1 1,1.44601721 1,1.9999204 L1,32.0000796 Z M0,1.9999204 C0,0.895394863 0.889997288,0 1.99187866,0 L22.0079956,0 L30,8 L30,32.0029953 C30,33.1059106 29.1021596,34 28.008383,34 L1.99161703,34 C0.891677316,34 0,33.1080589 0,32.0000796 L0,1.9999204 L0,1.9999204 Z" id="Shape" fill-opacity="0.05" fill="#000000" sketch:type="MSShapeGroup"></path>
            <path d="M23,7 L30,8 L30,15 L23,7 Z" id="Rectangle-1376-Copy-41" fill-opacity="0.1" fill="#000000" sketch:type="MSShapeGroup"></path>
            <path d="M22,0 L30,8.00762939 L23.9981014,8.00762939 C22.8945804,8.00762939 22,7.12007741 22,6.0076225 L22,0 Z" id="Rectangle-378-Copy-14" fill="#ECECEC" sketch:type="MSShapeGroup"></path>
            <path d="M22.6099671,18.184 C22.2735613,17.5921449 21.7206627,17.2303768 21.0533294,17.164029 C20.3176192,17.0938261 19.2887207,17.1688986 17.8473294,17.3890435 C17.6466627,17.2042029 17.4498511,17.0232174 17.2609526,16.8515652 C16.2726337,15.9571884 15.4017932,14.6651304 15.1887497,14.3415072 C15.4598221,11.7892464 15.3350395,11.0115362 15.1751555,10.5915362 C14.7947207,9.59489855 14.0592134,9 13.2076482,9 C12.5528946,9 11.9409526,9.36988406 11.6102279,9.96681159 C11.2285758,10.6538261 11.2695613,11.5161449 11.7230395,12.329971 C11.9630685,12.7611304 12.2836482,13.1115362 12.6894453,13.5548696 C12.9789816,13.8713913 13.3306048,14.254058 13.7455323,14.7696232 C13.6895323,15.2488696 13.6294743,15.710058 13.5769236,16.1150435 C13.4456482,17.1177681 13.2691265,17.8873623 13.0830685,18.7022029 L13.0652134,18.7795072 C12.9166917,18.8450435 12.7645178,18.9093623 12.610112,18.9746957 C11.7851265,19.3232754 10.8491555,19.7191304 10.118112,20.4083768 C8.75767722,21.6884638 8.95732939,22.7607826 9.10605403,23.1625217 C9.34101055,23.7955652 9.91906852,24.1885797 10.6137932,24.1885797 C11.3103439,24.1885797 12.0198801,23.7856232 12.5604019,23.0811594 C12.990141,22.5223768 13.7504019,21.3861449 14.2229526,19.8337681 C15.0812134,19.488029 16.446112,19.0881159 17.0899091,18.9746957 L17.414141,18.9193043 L17.630025,19.1203768 C18.3139961,19.7582899 18.9847787,20.3834203 19.4786337,20.8042319 C19.8803729,21.145913 20.3890395,21.334 20.9125178,21.334 L20.9131265,21.334 C21.736083,21.334 22.4616482,20.8697681 22.7617352,20.1521159 C23.010083,19.5562029 22.9506337,18.7847826 22.6099671,18.184 L22.6099671,18.184 Z M11.4779381,22.1831304 C11.2054453,22.5365797 10.8824308,22.7486087 10.6137932,22.7486087 C10.5612424,22.7486087 10.4342279,22.7384638 10.3993294,22.643913 C10.3374453,22.4783478 10.4595903,22.0301449 11.048199,21.4756232 C11.4278221,21.117913 11.9168077,20.8504928 12.4309526,20.6135072 C12.0917062,21.327913 11.7226337,21.8645797 11.4779381,22.1831304 L11.4779381,22.1831304 Z M13.9295613,12.8201739 C13.8465758,12.7288696 13.7682569,12.6434493 13.6933874,12.562087 C13.3377062,12.1731304 13.080025,11.891913 12.9225758,11.6084638 C12.7239381,11.2515652 12.6831555,10.9161739 12.8103729,10.686087 C12.8943729,10.5343188 13.0467497,10.439971 13.2076482,10.439971 C13.4738511,10.439971 13.7215903,10.6891304 13.8865468,11.1223188 C13.9228656,11.2166667 14.0070685,11.5804638 13.9295613,12.8201739 L13.9295613,12.8201739 Z M14.6744019,18.03 L14.6516772,18.0413623 C14.7565758,17.5418261 14.8555903,17.0051594 14.9383729,16.3942319 C15.2731555,16.8193043 15.678141,17.2926667 16.1188366,17.7205797 C15.6686048,17.8372464 15.142083,17.9918551 14.6439671,18.1576232 L14.6744019,18.03 Z M21.4905758,19.5785217 C21.4104308,19.7694493 21.1835903,19.894029 20.9131265,19.894029 C20.7088077,19.894029 20.5109816,19.8207826 20.3563729,19.6888986 C20.0355903,19.4168116 19.6387207,19.0550435 19.2124308,18.66 C19.9384019,18.5808696 20.4975903,18.5544928 20.9226627,18.5989275 C21.146054,18.6198261 21.3073584,18.7245217 21.416112,18.9162609 C21.5475903,19.1473623 21.5526627,19.4297971 21.4905758,19.5785217 L21.4905758,19.5785217 Z" id="Imported-Layers-Copy-10" fill="#FFFFFF" sketch:type="MSShapeGroup"></path>
        </g>
    </g>
</svg>