<?xml version="1.0" encoding="UTF-8" standalone="no"?>
<svg width="30px" height="34px" viewBox="0 0 30 34" version="1.1" xmlns="http://www.w3.org/2000/svg" xmlns:xlink="http://www.w3.org/1999/xlink" xmlns:sketch="http://www.bohemiancoding.com/sketch/ns">
    <!-- Generator: Sketch 3.3.3 (12072) - http://www.bohemiancoding.com/sketch -->
    <title>pic灰</title>
    <desc>Created with Sketch.</desc>
    <defs>
        <path id="path-2" d="M0,1.9999204 C0,0.895394863 0.889664075,0 1.9911329,0 L21.9997559,0 L30,8 L30,32.0029953 C30,33.1059106 29.1021596,34 28.008383,34 L1.99161703,34 C0.891677316,34 0,33.1080589 0,32.0000796 L0,1.9999204 Z"></path>
    </defs>
    <g id="Page-1" stroke="none" stroke-width="1" fill="none" fill-rule="evenodd" sketch:type="MSPage">
        <g id="pic-copy-5" sketch:type="MSLayerGroup">
            <g id="Rectangle-377">
                <use fill="#E2E4E9" sketch:type="MSShapeGroup" xlink:href="#path-2"></use>
            </g>
            <path d="M1,32.0000796 C1,32.5552444 1.44343804,33 1.99161703,33 L28.008383,33 C28.5518766,33 29,32.5516228 29,32.0029953 C29,32.0029953 29.0889861,8.50299581 28.9872092,8.40111714 C26.4249846,5.83632915 21.7328491,1 21.5952759,1 C15.0608101,1 1.99187866,1 1.99187866,1 C1.44394691,1 1,1.44601721 1,1.9999204 L1,32.0000796 Z M1.99187866,0 L22.0079956,0 L30,8 L30,32.0029953 C30,33.1059106 29.1021596,34 28.008383,34 L1.99161703,34 C0.891677316,34 0,33.1080589 0,32.0000796 L0,1.9999204 C0,0.895394863 0.889997288,0 1.99187866,0 Z" id="Shape" fill-opacity="0.05" fill="#000000" sketch:type="MSShapeGroup"></path>
            <path d="M23,7 L30,8 L30,15 L23,7 Z" id="Rectangle-1376-Copy-41" fill-opacity="0.1" fill="#000000" sketch:type="MSShapeGroup"></path>
            <path d="M22,0 L30,8.00762939 L23.9981014,8.00762939 C22.8945804,8.00762939 22,7.12007741 22,6.0076225 L22,0 Z" id="Rectangle-378-Copy-14" fill="#ECECEC" sketch:type="MSShapeGroup"></path>
            <path d="M9.85172737,14.7829398 C10.902137,14.7829398 11.7534141,13.9360964 11.7534141,12.8916627 C11.7534141,11.8468434 10.902137,11 9.85172737,11 C8.8015105,11 7.95023339,11.8468434 7.95023339,12.8916627 C7.95023339,13.9360964 8.8015105,14.7829398 9.85172737,14.7829398 M12.8757274,20.2967711 L11.3246912,18.0679518 C10.7589081,17.2552289 9.84382375,17.2563855 9.27900448,18.0679518 L7.27129363,20.9529639 C6.70531773,21.7656867 7.05384785,22.5678072 8.04739002,22.5678072 L12.5561129,22.5678072 C12.678137,22.5678072 12.7905225,22.5579759 12.8924985,22.5388916 C12.9940888,22.5579759 13.1060888,22.5678072 13.2277274,22.5678072 L21.7480165,22.5678072 C22.7355828,22.5678072 23.0954864,21.7566265 22.5351009,20.9352289 L18.5023298,15.0229398 C17.9432936,14.2032771 17.0334141,14.2013494 16.4730286,15.0229398 L12.8757274,20.2967711" id="Imported-Layers" fill="#FFFFFF" sketch:type="MSShapeGroup"></path>
        </g>
    </g>
</svg>