<?xml version="1.0" encoding="UTF-8" standalone="no"?>
<svg width="32px" height="32px" viewBox="0 0 32 32" version="1.1" xmlns="http://www.w3.org/2000/svg" xmlns:xlink="http://www.w3.org/1999/xlink" xmlns:sketch="http://www.bohemiancoding.com/sketch/ns">
    <!-- Generator: Sketch 3.3.3 (12072) - http://www.bohemiancoding.com/sketch -->
    <title>ie copy</title>
    <desc>Created with Sketch.</desc>
    <defs></defs>
    <g id="v2" stroke="none" stroke-width="1" fill="none" fill-rule="evenodd" sketch:type="MSPage">
        <g id="Artboard-4" sketch:type="MSArtboardGroup" transform="translate(-255.000000, -1282.000000)">
            <g id="pic-copy-2" sketch:type="MSLayerGroup" transform="translate(24.000000, 1282.000000)">
                <g id="ie-copy" transform="translate(231.000000, 0.000000)" sketch:type="MSShapeGroup">
                    <rect id="Rectangle-873-Copy" fill="#F28F66" x="0" y="0" width="32" height="32" rx="4"></rect>
                    <path d="M1,4.0042577 L1,4.0042577 L1,27.9957423 C1,29.6572516 2.34361515,31 4.0042577,31 L27.9957423,31 C29.6572516,31 31,29.6563848 31,27.9957423 L31,4.0042577 C31,2.34274837 29.6563848,1 27.9957423,1 L4.0042577,1 C2.34274837,1 1,2.34361515 1,4.0042577 L1,4.0042577 Z M0,4.0042577 C0,1.79276724 1.78902751,0 4.0042577,0 L27.9957423,0 C30.2072328,0 32,1.78902751 32,4.0042577 L32,27.9957423 C32,30.2072328 30.2109725,32 27.9957423,32 L4.0042577,32 C1.79276724,32 0,30.2109725 0,27.9957423 L0,4.0042577 L0,4.0042577 Z" id="Shape-Copy-3" fill-opacity="0.05" fill="#000000"></path>
                    <path d="M24.0093913,6 L8.67443478,8.6926087 L8.67443478,20.3746087 C7.18130435,20.4846087 6,21.7108696 6,23.2250435 C6,24.81 7.29130435,26.0955652 8.88486957,26.0955652 C10.4105217,26.0955652 11.6463478,24.9142609 11.7506087,23.4230435 L11.7716522,23.4230435 L11.7687826,23.2470435 C11.7687826,23.2393913 11.7706957,23.2326957 11.7706957,23.2250435 C11.7706957,23.2145217 11.7678261,23.2049565 11.7678261,23.1944348 L11.5918261,11.3708696 L21.1455652,10.0317391 L21.1455652,16.561913 C21.1245217,16.561913 21.1063478,16.5561739 21.0853043,16.5561739 C19.4917391,16.5561739 18.1994783,17.8407826 18.1994783,19.4266957 C18.1994783,21.0126087 19.4917391,22.2972174 21.0853043,22.2972174 C22.6281739,22.2972174 23.8773913,21.090087 23.9558261,19.5749565 L24.0093913,19.5749565 L24.0093913,6" id="Imported-Layers" fill="#FFFFFF"></path>
                </g>
            </g>
        </g>
    </g>
</svg>