<?xml version="1.0" encoding="UTF-8" standalone="no"?>
<svg width="30px" height="34px" viewBox="0 0 30 34" version="1.1" xmlns="http://www.w3.org/2000/svg" xmlns:xlink="http://www.w3.org/1999/xlink" xmlns:sketch="http://www.bohemiancoding.com/sketch/ns">
    <!-- Generator: Sketch 3.3.3 (12072) - http://www.bohemiancoding.com/sketch -->
    <title>note</title>
    <desc>Created with Sketch.</desc>
    <defs>
        <path id="path-2" d="M0,1.9999204 C0,0.895394863 0.890103423,0 1.99211619,0 L22.0106201,0 L30,7.96240234 L30,32.0001075 C30,33.1046176 29.1021596,34 28.008383,34 L1.99161703,34 C0.891677316,34 0,33.1080589 0,32.0000796 L0,1.9999204 Z"></path>
    </defs>
    <g id="Page-1" stroke="none" stroke-width="1" fill="none" fill-rule="evenodd" sketch:type="MSPage">
        <g id="no-copy" sketch:type="MSLayerGroup">
            <g id="Rectangle-377">
                <use fill="#5C9DF4" sketch:type="MSShapeGroup" xlink:href="#path-2"></use>
            </g>
            <path d="M1,32.0000796 C1,32.5552444 1.44343804,33 1.99161703,33 L28.008383,33 C28.5518766,33 29,32.5516228 29,32.0029953 C29,32.0029953 29.0889861,8.50299581 28.9872092,8.40111714 C26.4249846,5.83632915 21.7328491,1 21.5952759,1 C15.0608101,1 1.99187866,1 1.99187866,1 C1.44394691,1 1,1.44601721 1,1.9999204 L1,32.0000796 Z M0,1.9999204 C0,0.895394863 0.889997288,0 1.99187866,0 L22.0079956,0 L30,8 L30,32.0029953 C30,33.1059106 29.1021596,34 28.008383,34 L1.99161703,34 C0.891677316,34 0,33.1080589 0,32.0000796 L0,1.9999204 L0,1.9999204 Z" id="Shape" fill-opacity="0.05" fill="#000000" sketch:type="MSShapeGroup"></path>
            <path d="M23,7 L30,8 L30,14 L23,7 Z" id="Rectangle-1376-Copy-5" fill-opacity="0.1" fill="#000000" sketch:type="MSShapeGroup"></path>
            <path d="M22,0 L30,8 L23.9981014,8 C22.8945804,8 22,7.11329365 22,6.00189865 L22,0 Z" id="Rectangle-378" fill="#9DCDFF" sketch:type="MSShapeGroup"></path>
            <path d="M22.130988,15.4602033 L17.0692231,10.3894917 C16.6860349,10.0055918 16.2010766,10.0055918 15.8179901,10.3894917 L9.42762252,16.7922628 C9.13014077,17.0521272 8.94144421,17.4342987 8.94144421,17.860696 L8.53995568,22.9163608 C8.53995568,23.6986992 8.77104797,23.9306048 9.55186131,23.9306048 L14.7404067,23.5285063 C14.9140563,23.5285063 15.0800808,23.4967857 15.2342101,23.4393431 C15.3940328,23.3962357 15.5455188,23.3123592 15.6710792,23.1866971 L22.130988,16.7139781 C22.5141762,16.3300782 22.5141762,15.8440016 22.130988,15.4602033" id="Fill-1" fill="#FFFFFF" sketch:type="MSShapeGroup"></path>
            <path d="M19.5925313,12.9172732 L8.7770464,23.7327581 L8.71970542,23.6737904 C8.87149635,23.8575052 9.1319708,23.9245047 9.55186131,23.9245047 L14.7404067,23.5222028 C14.9140563,23.5222028 15.0800808,23.4906856 15.2340068,23.4331413 C15.3940328,23.3900339 15.5455188,23.3062591 15.6710792,23.180292 L22.130988,16.707573 C22.3217179,16.5165381 22.4174896,16.3002894 22.4184046,16.083939 C22.4174896,15.867487 22.3217179,15.6512383 22.130988,15.4602033 L19.5925313,12.9172732" id="Fill-3" fill="#D9ECFF" sketch:type="MSShapeGroup"></path>
        </g>
    </g>
</svg>