<?xml version="1.0" encoding="UTF-8" standalone="no"?>
<svg width="32px" height="32px" viewBox="0 0 32 32" version="1.1" xmlns="http://www.w3.org/2000/svg" xmlns:xlink="http://www.w3.org/1999/xlink" xmlns:sketch="http://www.bohemiancoding.com/sketch/ns">
    <!-- Generator: Sketch 3.3.3 (12072) - http://www.bohemiancoding.com/sketch -->
    <title>ie copy 2</title>
    <desc>Created with Sketch.</desc>
    <defs></defs>
    <g id="v2" stroke="none" stroke-width="1" fill="none" fill-rule="evenodd" sketch:type="MSPage">
        <g id="Artboard-4" sketch:type="MSArtboardGroup" transform="translate(-295.000000, -1282.000000)">
            <g id="pic-copy-2" sketch:type="MSLayerGroup" transform="translate(24.000000, 1282.000000)">
                <g id="ie-copy-2" transform="translate(271.000000, 0.000000)" sketch:type="MSShapeGroup">
                    <rect id="Rectangle-873-Copy" fill="#74CBBB" x="0" y="0" width="32" height="32" rx="4"></rect>
                    <path d="M1,4.0042577 L1,4.0042577 L1,27.9957423 C1,29.6572516 2.34361515,31 4.0042577,31 L27.9957423,31 C29.6572516,31 31,29.6563848 31,27.9957423 L31,4.0042577 C31,2.34274837 29.6563848,1 27.9957423,1 L4.0042577,1 C2.34274837,1 1,2.34361515 1,4.0042577 L1,4.0042577 Z M0,4.0042577 C0,1.79276724 1.78902751,0 4.0042577,0 L27.9957423,0 C30.2072328,0 32,1.78902751 32,4.0042577 L32,27.9957423 C32,30.2072328 30.2109725,32 27.9957423,32 L4.0042577,32 C1.79276724,32 0,30.2109725 0,27.9957423 L0,4.0042577 L0,4.0042577 Z" id="Shape-Copy-4" fill-opacity="0.05" fill="#000000"></path>
                    <path d="M20.5599084,15.2958893 C19.8525644,14.3073781 18.7001231,14.3050612 17.9911752,15.2958893 L13.4375483,21.6594304 L11.4743079,18.9703709 C10.7581422,17.9895824 9.60008704,17.991127 8.88472332,18.9703709 L6.34325736,22.451784 C5.62709166,23.4325724 6.07933033,24.6627805 7.33683068,24.6627805 L13.0445029,24.6627805 C13.1984825,24.6627805 13.3404325,24.6504241 13.4703528,24.6280281 C13.5986692,24.6504241 13.7406192,24.6627805 13.8937968,24.6627805 L24.6795891,24.6627805 C25.9298716,24.6627805 26.3742436,23.4209883 25.6644937,22.4301603 L20.5599084,15.2958893 Z M11.1691936,12.8869684 C12.5501713,12.8869684 13.6696127,11.7678672 13.6696127,10.3873887 C13.6696127,9.00606428 12.5501713,7.88696311 11.1691936,7.88696311 C9.788216,7.88696311 8.66960746,9.00606428 8.66960746,10.3873887 C8.66960746,11.7678672 9.788216,12.8869684 11.1691936,12.8869684 Z" id="Fill-1" fill="#FFFFFF"></path>
                </g>
            </g>
        </g>
    </g>
</svg>