<?xml version="1.0" encoding="UTF-8" standalone="no"?>
<svg width="24px" height="24px" viewBox="0 0 24 24" version="1.1" xmlns="http://www.w3.org/2000/svg" xmlns:xlink="http://www.w3.org/1999/xlink" xmlns:sketch="http://www.bohemiancoding.com/sketch/ns">
    <!-- Generator: Sketch 3.4 (15575) - http://www.bohemiancoding.com/sketch -->
    <title>2424</title>
    <desc>Created with Sketch.</desc>
    <defs></defs>
    <g id="Page-1" stroke="none" stroke-width="1" fill="none" fill-rule="evenodd" sketch:type="MSPage">
        <g id="icon" sketch:type="MSArtboardGroup" transform="translate(-786.000000, -1230.000000)">
            <g id="24*26" sketch:type="MSLayerGroup" transform="translate(80.000000, 1219.000000)">
                <g id="music-copy-10" transform="translate(706.000000, 11.000000)" sketch:type="MSShapeGroup">
                    <rect id="Rectangle-873-Copy" fill="#7D769D" x="0" y="0" width="24" height="24" rx="2"></rect>
                    <path d="M1,2.00494659 L1,2.00494659 L1,21.9950534 C1,22.5504275 1.44966837,23 2.00494659,23 L21.9950534,23 C22.5504275,23 23,22.5503316 23,21.9950534 L23,2.00494659 C23,1.44957248 22.5503316,1 21.9950534,1 L2.00494659,1 C1.44957248,1 1,1.44966837 1,2.00494659 L1,2.00494659 Z M0,2.00494659 C0,0.897645164 0.897026226,0 2.00494659,0 L21.9950534,0 C23.1023548,0 24,0.897026226 24,2.00494659 L24,21.9950534 C24,23.1023548 23.1029738,24 21.9950534,24 L2.00494659,24 C0.897645164,24 0,23.1029738 0,21.9950534 L0,2.00494659 L0,2.00494659 Z" id="Shape" fill-opacity="0.05" fill="#000000"></path>
                    <path d="M15,11.2 L15,17 L17,17 L17,7 L15,7 L15,8.2 L12,10 L12,13 L15,11.2 Z M9,8.2 L9,7 L7,7 L7,17 L9,17 L9,11.2 L12,13 L12,10 L9,8.2 Z" id="Rectangle-802" fill="#FFFFFF"></path>
                </g>
            </g>
        </g>
    </g>
</svg>