<?xml version="1.0" encoding="UTF-8" standalone="no"?>
<svg width="32px" height="32px" viewBox="0 0 32 32" version="1.1" xmlns="http://www.w3.org/2000/svg" xmlns:xlink="http://www.w3.org/1999/xlink" xmlns:sketch="http://www.bohemiancoding.com/sketch/ns">
    <!-- Generator: Sketch 3.3.3 (12072) - http://www.bohemiancoding.com/sketch -->
    <title>fl copy</title>
    <desc>Created with Sketch.</desc>
    <defs></defs>
    <g id="v2" stroke="none" stroke-width="1" fill="none" fill-rule="evenodd" sketch:type="MSPage">
        <g id="Artboard-4" sketch:type="MSArtboardGroup" transform="translate(-615.000000, -1282.000000)">
            <g id="pic-copy-2" sketch:type="MSLayerGroup" transform="translate(24.000000, 1282.000000)">
                <g id="fl-copy" transform="translate(591.000000, 0.000000)" sketch:type="MSShapeGroup">
                    <rect id="Rectangle-873-Copy" fill="#D4965A" x="0" y="0" width="32" height="32" rx="4"></rect>
                    <path d="M1,4.0042577 L1,4.0042577 L1,27.9957423 C1,29.6572516 2.34361515,31 4.0042577,31 L27.9957423,31 C29.6572516,31 31,29.6563848 31,27.9957423 L31,4.0042577 C31,2.34274837 29.6563848,1 27.9957423,1 L4.0042577,1 C2.34274837,1 1,2.34361515 1,4.0042577 L1,4.0042577 Z M0,4.0042577 C0,1.79276724 1.78902751,0 4.0042577,0 L27.9957423,0 C30.2072328,0 32,1.78902751 32,4.0042577 L32,27.9957423 C32,30.2072328 30.2109725,32 27.9957423,32 L4.0042577,32 C1.79276724,32 0,30.2109725 0,27.9957423 L0,4.0042577 L0,4.0042577 Z" id="Shape-Copy-12" fill-opacity="0.05" fill="#000000"></path>
                    <path d="M14,10 L16,10 L16,12 L14,12 L14,10 Z M14,6 L16,6 L16,8 L14,8 L14,6 Z M14,14 L16,14 L16,16 L14,16 L14,14 Z M14,18 L16,18 L16,20 L14,20 L14,18 Z M14,22 L16,22 L16,24 L14.8380127,24 L14,24 L14,22 Z M14,24 L16,24 L16,26 L14.8380127,26 L14,26 L14,24 Z M16,12 L18,12 L18,14 L16,14 L16,12 Z M16,8 L18,8 L18,10 L16,10 L16,8 Z M16,16 L18,16 L18,18 L16,18 L16,16 Z M16,20 L18,20 L18,22 L16,22 L16,20 Z M16,24 L18,24 L18,26 L16,26 L16,24 Z" id="Rectangle-955" fill="#FFFFFF"></path>
                </g>
            </g>
        </g>
    </g>
</svg>