<?xml version="1.0" encoding="UTF-8" standalone="no"?>
<svg width="24px" height="26px" viewBox="0 0 24 26" version="1.1" xmlns="http://www.w3.org/2000/svg" xmlns:xlink="http://www.w3.org/1999/xlink" xmlns:sketch="http://www.bohemiancoding.com/sketch/ns">
    <!-- Generator: Sketch 3.3.3 (12072) - http://www.bohemiancoding.com/sketch -->
    <title>IE</title>
    <desc>Created with Sketch.</desc>
    <defs>
        <path id="path-2" d="M0,1.99700466 C0,0.89408944 0.892622799,0 1.99508929,0 L18,0 L24,6 L24,24.0092049 C24,25.1086907 23.1029738,26 21.9950534,26 L2.00494659,26 C0.897645164,26 0,25.1050211 0,24.0029953 L0,1.99700466 Z"></path>
    </defs>
    <g id="Page-1" stroke="none" stroke-width="1" fill="none" fill-rule="evenodd" sketch:type="MSPage">
        <g id="IE" sketch:type="MSLayerGroup">
            <g id="Rectangle-377">
                <use fill="#6EABF3" sketch:type="MSShapeGroup" xlink:href="#path-2"></use>
            </g>
            <path d="M1,24.0029953 C1,24.5522223 1.44942024,25 2.00494659,25 L21.9950534,25 C22.5520073,25 23,24.5550745 23,24.0092049 L23.0223278,6.43750628 L17.5671387,1 L1.99271477,1 C1.44458458,1 1,1.44563565 1,1.99700466 L1,24.0029953 Z M2,0 L18,0 L24,6 L24,24 C24,25.1086907 23.1029738,26 22,26 L2,26 C0.897645164,26 0,25.1050211 0,24 L0,2 C0,0.89408944 0.891560412,0 2,0 Z" id="Shape" fill-opacity="0.05" fill="#000000" sketch:type="MSShapeGroup"></path>
            <path d="M19,3 L24,6.04736328 L24,11.0029907 L19,5 L19,3 Z" id="Rectangle-1374" fill-opacity="0.1" fill="#000000" sketch:type="MSShapeGroup"></path>
            <path d="M18,0 L24,6 L19.9979131,6 C18.8944962,6 18,5.10173938 18,4.00208688 L18,0 Z" id="Rectangle-378" fill="#A3CBFA" sketch:type="MSShapeGroup"></path>
            <path d="M17.2662774,7.59937489 C16.7301326,7.12516133 16.0469131,7.08095354 15.431494,7.07772297 C14.77609,7.10186723 14.1132106,7.24469239 13.5469903,7.47899368 C13.2297191,7.58356211 12.9115787,7.72077628 12.5984799,7.8911463 C12.5223348,7.92838287 12.4547083,7.98925359 12.3848217,8.04349315 C12.2316623,8.0324412 12.0767644,8.02308955 11.9164773,8.02308955 C11.2384732,8.02308955 10.5964555,8.14279065 9.99007644,8.37964238 C9.38387123,8.61802439 8.85189878,8.9551938 8.3938114,9.39489128 C7.93624555,9.83356858 7.57638184,10.3494395 7.31543718,10.942674 C7.05397099,11.5359085 6.92271635,12.1815123 6.92271635,12.8818657 C6.92271635,12.9806531 6.941318,13.0661782 6.94531648,13.1625852 C6.54703254,13.7740129 6.24992766,14.364867 6.0548711,14.9412686 C5.76558935,15.7963493 5.63989782,16.4825902 5.65867332,17.1014993 C5.68579348,18.0155803 5.91144716,18.6941699 6.35093289,19.1784152 C6.7516507,19.6106314 7.27962466,19.82997 7.91990392,19.82997 C8.03186152,19.82997 8.13912524,19.8233389 8.23891354,19.812457 C8.74028888,19.7592376 9.12692506,19.6296747 9.46227632,19.5075932 C10.0764785,19.2625801 10.3895773,19.0456218 10.4233037,19.0214776 L10.0335382,18.2738558 C10.0305828,18.274536 9.71244245,18.3852255 9.1590868,18.4889437 C8.79557229,18.5588261 8.52576143,18.5845006 8.20014561,18.5629068 C7.8807883,18.5438634 7.5913327,18.422462 7.47815817,18.2580431 C7.31752335,18.0295228 7.24798447,17.644915 7.27075845,17.1205426 C7.29666169,16.6852659 7.41870242,16.1896286 7.63096986,15.6251291 C7.82341872,15.936624 8.04264004,16.2283954 8.31418938,16.4834403 C9.24114268,17.355694 10.4657224,17.7911408 11.9879285,17.7911408 C13.0934229,17.7911408 14.0711396,17.5343955 14.9214263,17.0183546 C15.7711914,16.5024837 16.3271548,15.6463829 16.588621,14.6384452 L13.7529992,14.6384452 C13.6106183,14.9589517 13.3816616,15.301052 13.0668243,15.4797535 C12.7516393,15.6567547 12.4042926,15.7472106 12.0233933,15.7472106 C11.3930234,15.7472106 10.8966896,15.5569471 10.5347397,15.1755699 C10.1713991,14.7975933 9.97860252,14.2875034 9.95443776,13.6470005 L16.7676836,13.6470005 C16.7676836,12.9009091 16.6626799,11.8358414 16.4549325,11.2011196 C16.247185,10.5662277 15.9373893,10.0086994 15.5278053,9.52870486 C15.2741622,9.23132246 14.9685389,8.99141018 14.6378815,8.77836264 C14.7079419,8.75625875 14.7856516,8.73058422 14.8444119,8.71273108 C15.0109576,8.64301879 15.2162711,8.6056122 15.4139354,8.56905576 L15.5102467,8.54984237 C15.6514107,8.53334947 15.7890977,8.52246755 15.9186138,8.52246755 C16.2155449,8.52246755 16.3487118,8.57976765 16.3937382,8.60799262 C16.5914025,8.74095605 16.733088,8.98613925 16.7689005,9.14817781 C16.8671242,9.65826769 16.8441763,9.97724389 16.8438287,9.98064449 L17.6791645,10.1301008 L17.7615681,9.80279315 C17.7952944,9.63004271 17.8455363,9.3683666 17.8331931,9.01351408 C17.8107668,8.67702478 17.7711296,8.11388555 17.2662774,7.59937489 L17.2662774,7.59937489 Z M9.95443776,11.9169457 C10.0498799,11.3478554 10.2696227,10.9300918 10.6143618,10.5854411 C10.9591008,10.2430007 11.3930234,10.0702503 11.9164773,10.0702503 C12.4155926,10.0702503 12.8354336,10.2515022 13.1733926,10.6119657 C13.5123947,10.9742996 13.6935434,11.3827116 13.7171867,11.9169457 L9.95443776,11.9169457 L9.95443776,11.9169457 Z" id="Imported-Layers-Copy-3" fill="#FFFFFF" sketch:type="MSShapeGroup"></path>
        </g>
    </g>
</svg>