<?xml version="1.0" encoding="UTF-8" standalone="no"?>
<svg width="30px" height="34px" viewBox="0 0 30 34" version="1.1" xmlns="http://www.w3.org/2000/svg" xmlns:xlink="http://www.w3.org/1999/xlink" xmlns:sketch="http://www.bohemiancoding.com/sketch/ns">
    <!-- Generator: Sketch 3.3.3 (12072) - http://www.bohemiancoding.com/sketch -->
    <title>IE</title>
    <desc>Created with Sketch.</desc>
    <defs>
        <path id="path-2" d="M0,1.9999204 C0,0.895394863 0.89093769,0 1.99398334,0 L22.03125,0 L30,7.96240234 L30,32.0001075 C30,33.1046176 29.1021596,34 28.008383,34 L1.99161703,34 C0.891677316,34 0,33.1080589 0,32.0000796 L0,1.9999204 Z"></path>
    </defs>
    <g id="Page-1" stroke="none" stroke-width="1" fill="none" fill-rule="evenodd" sketch:type="MSPage">
        <g id="no-copy-3" sketch:type="MSLayerGroup">
            <g id="Rectangle-377">
                <use fill="#65A6F3" sketch:type="MSShapeGroup" xlink:href="#path-2"></use>
            </g>
            <path d="M1,32.0000796 C1,32.5552444 1.44343804,33 1.99161703,33 L28.008383,33 C28.5518766,33 29,32.5516228 29,32.0029953 C29,32.0029953 29.0889861,8.50299581 28.9872092,8.40111714 C26.4249846,5.83632915 21.7328491,1 21.5952759,1 C15.0608101,1 1.99187866,1 1.99187866,1 C1.44394691,1 1,1.44601721 1,1.9999204 L1,32.0000796 Z M0,1.9999204 C0,0.895394863 0.889997288,0 1.99187866,0 L22.0079956,0 L30,8 L30,32.0029953 C30,33.1059106 29.1021596,34 28.008383,34 L1.99161703,34 C0.891677316,34 0,33.1080589 0,32.0000796 L0,1.9999204 L0,1.9999204 Z" id="Shape" fill-opacity="0.05" fill="#000000" sketch:type="MSShapeGroup"></path>
            <path d="M23,7 L30,8 L30,14 L23,7 Z" id="Rectangle-1376-Copy-5" fill-opacity="0.1" fill="#000000" sketch:type="MSShapeGroup"></path>
            <path d="M22,0 L30,8 L23.9981014,8 C22.8945804,8 22,7.11329365 22,6.00189865 L22,0 Z" id="Rectangle-378" fill="#A3CBFA" sketch:type="MSShapeGroup"></path>
            <path d="M21.0812071,9.75480827 C20.4098281,9.13357425 19.5542769,9.07566071 18.7836278,9.07142857 C17.9629083,9.10305827 17.1328277,9.29016353 16.423787,9.59710526 C16.0264891,9.73409305 15.6281027,9.91384774 15.2360295,10.1370376 C15.140678,10.1858186 15.0559937,10.2655611 14.9684793,10.3366165 C14.7766878,10.3221382 14.5827194,10.3098872 14.3820023,10.3098872 C13.5329821,10.3098872 12.7290252,10.4666992 11.9696964,10.7769821 C11.2105853,11.0892697 10.5444309,11.5309718 9.97079805,12.1069887 C9.39781826,12.6816692 8.94718445,13.3574756 8.62042052,14.1346306 C8.2930035,14.9117857 8.12864189,15.7575461 8.12864189,16.6750301 C8.12864189,16.8044445 8.15193553,16.916485 8.15694257,17.042781 C7.65819762,17.8437697 7.28615261,18.6178064 7.04189603,19.3729098 C6.67964741,20.4930912 6.52225212,21.3920874 6.54576345,22.2028769 C6.57972426,23.4003506 6.8622956,24.2893233 7.41263485,24.9236992 C7.91442757,25.4899154 8.57557484,25.7772556 9.37735469,25.7772556 C9.51755188,25.7772556 9.65187123,25.7685686 9.77682959,25.754313 C10.4046691,25.684594 10.8888284,25.5148628 11.3087668,25.3549323 C12.077892,25.0339577 12.4699652,24.7497359 12.5121985,24.7181062 L12.0241208,23.7386992 C12.0204199,23.7395902 11.6220335,23.8845968 10.9291024,24.0204709 C10.4738969,24.1120188 10.1360304,24.1456532 9.72828305,24.1173647 C9.32837276,24.0924173 8.96590644,23.9333778 8.82418537,23.717984 C8.62303289,23.4186156 8.5359539,22.9147679 8.56447227,22.2278242 C8.59690919,21.6575987 8.74973283,21.0082989 9.01554147,20.2687876 C9.25653259,20.6768553 9.53104912,21.0590846 9.8710926,21.3932011 C11.0318556,22.5358797 12.5653167,23.106328 14.4714759,23.106328 C15.8558143,23.106328 17.080145,22.769984 18.1449034,22.0939549 C19.2090087,21.4181485 19.9052053,20.2966306 20.2326223,18.9762021 L16.6817586,18.9762021 C16.5034643,19.3960752 16.2167567,19.8442368 15.8225066,20.0783412 C15.427821,20.310218 14.9928614,20.428718 14.5158862,20.428718 C13.7265151,20.428718 13.1049888,20.1794671 12.6517426,19.6798515 C12.1967549,19.1846908 11.9553284,18.5164577 11.9250684,17.6773797 L20.4568507,17.6773797 C20.4568507,16.6999774 20.3253614,15.3047068 20.0652129,14.4732021 C19.8050644,13.6414746 19.4171275,12.9110959 18.9042322,12.2822885 C18.5866116,11.8927086 18.2038994,11.5784164 17.7898388,11.2993177 C17.8775709,11.2703609 17.9748816,11.2367265 18.0484634,11.2133383 C18.2570176,11.1220132 18.5141183,11.0730094 18.7616404,11.0251194 L18.8822448,10.9999492 C19.0590151,10.978343 19.2314315,10.9640874 19.3936162,10.9640874 C19.7654435,10.9640874 19.9321998,11.0391523 19.9885834,11.0761278 C20.2361055,11.2503139 20.4135289,11.5715113 20.4583746,11.7837867 C20.5813737,12.4520197 20.5526376,12.8698882 20.5522022,12.874343 L21.5982386,13.0701353 L21.7014273,12.6413524 C21.7436606,12.4150442 21.8065751,12.0722406 21.7911186,11.6073731 C21.7630356,11.166562 21.7134006,10.4288327 21.0812071,9.75480827 L21.0812071,9.75480827 Z M11.9250684,15.4109558 C12.0445843,14.6654305 12.319754,14.1181476 12.7514481,13.6666447 C13.1831422,13.2180376 13.7265151,12.9917293 14.3820023,12.9917293 C15.0070118,12.9917293 15.5327512,13.2291748 15.9559551,13.7013929 C16.3804652,14.1760611 16.607306,14.711093 16.6369129,15.4109558 L11.9250684,15.4109558 L11.9250684,15.4109558 Z" id="Imported-Layers-Copy-3" fill="#FFFFFF" sketch:type="MSShapeGroup"></path>
        </g>
    </g>
</svg>