<?xml version="1.0" encoding="UTF-8" standalone="no"?>
<svg width="30px" height="34px" viewBox="0 0 30 34" version="1.1" xmlns="http://www.w3.org/2000/svg" xmlns:xlink="http://www.w3.org/1999/xlink" xmlns:sketch="http://www.bohemiancoding.com/sketch/ns">
    <!-- Generator: Sketch 3.3.3 (12072) - http://www.bohemiancoding.com/sketch -->
    <title>form灰</title>
    <desc>Created with Sketch.</desc>
    <defs>
        <path id="path-2" d="M1,1.9999204 C1,0.895394863 1.88966408,0 2.9911329,0 L22.9997559,0 L31,8 L31,32.0029953 C31,33.1059106 30.1021596,34 29.008383,34 L2.99161703,34 C1.89167732,34 1,33.1080589 1,32.0000796 L1,1.9999204 Z"></path>
    </defs>
    <g id="Page-1" stroke="none" stroke-width="1" fill="none" fill-rule="evenodd" sketch:type="MSPage">
        <g id="form灰" sketch:type="MSLayerGroup">
            <g id="Rectangle-377">
                <use fill="#E2E4E9" sketch:type="MSShapeGroup" xlink:href="#path-2"></use>
            </g>
            <path d="M2,32.0000796 C2,32.5552444 2.44343804,33 2.99161703,33 L29.008383,33 C29.5518766,33 30,32.5516228 30,32.0029953 C30,32.0029953 30.0889861,8.50299581 29.9872092,8.40111714 C27.4249846,5.83632915 22.7328491,1 22.5952759,1 C16.0608101,1 2.99187866,1 2.99187866,1 C2.44394691,1 2,1.44601721 2,1.9999204 L2,32.0000796 Z M1,1.9999204 C1,0.895394863 1.88999729,0 2.99187866,0 L23.0079956,0 L31,8 L31,32.0029953 C31,33.1059106 30.1021596,34 29.008383,34 L2.99161703,34 C1.89167732,34 1,33.1080589 1,32.0000796 L1,1.9999204 L1,1.9999204 Z" id="Shape" fill-opacity="0.05" fill="#000000" sketch:type="MSShapeGroup"></path>
            <path d="M24,7 L31,8 L31,15 L24,7 Z" id="Rectangle-1376-Copy-41" fill-opacity="0.1" fill="#000000" sketch:type="MSShapeGroup"></path>
            <path d="M23,0 L31,8.00762939 L24.9981014,8.00762939 C23.8945804,8.00762939 23,7.12007741 23,6.0076225 L23,0 Z" id="Rectangle-378-Copy-14" fill="#ECECEC" sketch:type="MSShapeGroup"></path>
            <path d="M14,16 L10,16 L10,12 L22,12 L22,16 L22,16 L16,16 L16,12 L14,12 L14,16 Z M14,18 L10,18 L10,22 L22,22 L22,18 L22,18 L16,18 L16,22 L14,22 L14,18 Z M8,11.0068455 C8,10.4507801 8.44463086,10 9.00087166,10 L22.9991283,10 C23.5518945,10 24,10.4499488 24,11.0068455 L24,22.9931545 C24,23.5492199 23.5553691,24 22.9991283,24 L9.00087166,24 C8.4481055,24 8,23.5500512 8,22.9931545 L8,11.0068455 Z" id="Rectangle-433-Copy" fill="#FFFFFF" sketch:type="MSShapeGroup"></path>
        </g>
    </g>
</svg>