<?xml version="1.0" encoding="UTF-8" standalone="no"?>
<svg width="32px" height="32px" viewBox="0 0 32 32" version="1.1" xmlns="http://www.w3.org/2000/svg" xmlns:xlink="http://www.w3.org/1999/xlink" xmlns:sketch="http://www.bohemiancoding.com/sketch/ns">
    <!-- Generator: Sketch 3.3.3 (12072) - http://www.bohemiancoding.com/sketch -->
    <title>ie copy 7</title>
    <desc>Created with Sketch.</desc>
    <defs></defs>
    <g id="v2" stroke="none" stroke-width="1" fill="none" fill-rule="evenodd" sketch:type="MSPage">
        <g id="Artboard-4" sketch:type="MSArtboardGroup" transform="translate(-495.000000, -1282.000000)">
            <g id="pic-copy-2" sketch:type="MSLayerGroup" transform="translate(24.000000, 1282.000000)">
                <g id="ie-copy-7" transform="translate(471.000000, 0.000000)" sketch:type="MSShapeGroup">
                    <rect id="Rectangle-873-Copy" fill="#E192B5" x="0" y="0" width="32" height="32" rx="4"></rect>
                    <path d="M1,4.0042577 L1,4.0042577 L1,27.9957423 C1,29.6572516 2.34361515,31 4.0042577,31 L27.9957423,31 C29.6572516,31 31,29.6563848 31,27.9957423 L31,4.0042577 C31,2.34274837 29.6563848,1 27.9957423,1 L4.0042577,1 C2.34274837,1 1,2.34361515 1,4.0042577 L1,4.0042577 Z M0,4.0042577 C0,1.79276724 1.78902751,0 4.0042577,0 L27.9957423,0 C30.2072328,0 32,1.78902751 32,4.0042577 L32,27.9957423 C32,30.2072328 30.2109725,32 27.9957423,32 L4.0042577,32 C1.79276724,32 0,30.2109725 0,27.9957423 L0,4.0042577 L0,4.0042577 Z" id="Shape-Copy-8" fill-opacity="0.05" fill="#000000"></path>
                    <path d="M6.90909091,8 C6.40727273,8 6,8.3584 6,8.8 L6,23.2 C6,23.6416 6.40727273,24 6.90909091,24 L25.0909091,24 C25.5927273,24 26,23.6416 26,23.2 L26,8.8 C26,8.3584 25.5927273,8 25.0909091,8 L6.90909091,8 Z M8,16 L14,16 L14,22 L8,22 L8,16 Z M8,10 L14,10 L14,14 L8,14 L8,10 Z M16,16 L24.0250244,16 L24.0250244,22 L16,22 L16,16 Z M16,10 L24.0250244,10 L24.0250244,14 L16,14 L16,10 Z" id="Imported-Layers-Copy-4" fill="#FFFFFF"></path>
                </g>
            </g>
        </g>
    </g>
</svg>