<?xml version="1.0" encoding="UTF-8" standalone="no"?>
<svg width="30px" height="34px" viewBox="0 0 30 34" version="1.1" xmlns="http://www.w3.org/2000/svg" xmlns:xlink="http://www.w3.org/1999/xlink" xmlns:sketch="http://www.bohemiancoding.com/sketch/ns">
    <!-- Generator: Sketch 3.3.3 (12072) - http://www.bohemiancoding.com/sketch -->
    <title>ppt灰</title>
    <desc>Created with Sketch.</desc>
    <defs>
        <path id="path-2" d="M0,1.9999204 C0,0.895394863 0.889997288,0 1.99187866,0 L22.0079956,0 L30,8 L30,32.0029953 C30,33.1059106 29.1021596,34 28.008383,34 L1.99161703,34 C0.891677316,34 0,33.1080589 0,32.0000796 L0,1.9999204 Z"></path>
    </defs>
    <g id="Page-1" stroke="none" stroke-width="1" fill="none" fill-rule="evenodd" sketch:type="MSPage">
        <g id="music-copy" sketch:type="MSLayerGroup">
            <g id="Rectangle-377">
                <use fill="#E1E4E9" sketch:type="MSShapeGroup" xlink:href="#path-2"></use>
            </g>
            <path d="M1,32.0000796 C1,32.5552444 1.44343804,33 1.99161703,33 L28.008383,33 C28.5518766,33 29,32.5516228 29,32.0029953 C29,32.0029953 29.0889861,8.50299581 28.9872092,8.40111714 C26.4249846,5.83632915 21.7328491,1 21.5952759,1 C15.0608101,1 1.99187866,1 1.99187866,1 C1.44394691,1 1,1.44601721 1,1.9999204 L1,32.0000796 Z M0,1.9999204 C0,0.895394863 0.889997288,0 1.99187866,0 L22.0079956,0 L30,8 L30,32.0029953 C30,33.1059106 29.1021596,34 28.008383,34 L1.99161703,34 C0.891677316,34 0,33.1080589 0,32.0000796 L0,1.9999204 L0,1.9999204 Z" id="Shape" fill-opacity="0.05" fill="#000000" sketch:type="MSShapeGroup"></path>
            <path d="M23,7 L30,8 L30,15 L23,7 Z" id="Rectangle-1376-Copy-41" fill-opacity="0.1" fill="#000000" sketch:type="MSShapeGroup"></path>
            <path d="M22,0 L30,8.00762939 L23.9981014,8.00762939 C22.8945804,8.00762939 22,7.12007741 22,6.0076225 L22,0 Z" id="Rectangle-378-Copy-14" fill="#ECECEC" sketch:type="MSShapeGroup"></path>
            <path d="M11.0352783,10.000001 L11,24.0182391 L13,24.018239 L13,19 L15,19 C17.1802006,19.017395 19.0078125,17.9867453 19.0078125,14.3785911 C19.0078125,11.3345237 18.0916818,9.99867385 14.8813301,10.000001 L11.0352783,10.000001 Z M13,17 L13,12.0030183 L14.6295598,12.0030183 C16.8504333,11.9431288 16.9964367,12.7756779 16.9964367,14.3943828 C17.054838,16.1952869 16.4008443,16.9999997 14.6295598,17 L13,17 Z" id="Imported-Layers-Copy-6" fill="#FFFFFF" sketch:type="MSShapeGroup"></path>
        </g>
    </g>
</svg>