<?xml version="1.0" encoding="UTF-8" standalone="no"?>
<svg width="24px" height="26px" viewBox="0 0 24 26" version="1.1" xmlns="http://www.w3.org/2000/svg" xmlns:xlink="http://www.w3.org/1999/xlink" xmlns:sketch="http://www.bohemiancoding.com/sketch/ns">
    <!-- Generator: Sketch 3.3.3 (12072) - http://www.bohemiancoding.com/sketch -->
    <title>pic </title>
    <desc>Created with Sketch.</desc>
    <defs>
        <path id="path-2" d="M0,1.99700466 C0,0.89408944 0.892622799,0 1.99508929,0 L18,0 L24,6 L24,24.0092049 C24,25.1086907 23.1029738,26 21.9950534,26 L2.00494659,26 C0.897645164,26 0,25.1050211 0,24.0029953 L0,1.99700466 Z"></path>
    </defs>
    <g id="Page-1" stroke="none" stroke-width="1" fill="none" fill-rule="evenodd" sketch:type="MSPage">
        <g id="pic-" sketch:type="MSLayerGroup">
            <g id="Rectangle-377">
                <use fill="#72CFBF" sketch:type="MSShapeGroup" xlink:href="#path-2"></use>
            </g>
            <path d="M1,24.0029953 C1,24.5522223 1.44942024,25 2.00494659,25 L21.9950534,25 C22.5520073,25 23,24.5550745 23,24.0092049 L23.0223278,6.43750628 L17.5671387,1 L1.99271477,1 C1.44458458,1 1,1.44563565 1,1.99700466 L1,24.0029953 Z M2,0 L18,0 L24,6 L24,24 C24,25.1086907 23.1029738,26 22,26 L2,26 C0.897645164,26 0,25.1050211 0,24 L0,2 C0,0.89408944 0.891560412,0 2,0 Z" id="Shape" fill-opacity="0.05" fill="#000000" sketch:type="MSShapeGroup"></path>
            <path d="M19,3 L24,6.04736328 L24,11.0029907 L19,5 L19,3 Z" id="Rectangle-1374" fill-opacity="0.1" fill="#000000" sketch:type="MSShapeGroup"></path>
            <path d="M18,0 L24,6 L19.9979131,6 C18.8944962,6 18,5.10173938 18,4.00208688 L18,0 Z" id="Rectangle-378" fill="#A8E0D6" sketch:type="MSShapeGroup"></path>
            <path d="M6.85172737,10.7383614 C7.90213701,10.7383614 8.75341411,9.89151807 8.75341411,8.84708434 C8.75341411,7.80226506 7.90213701,6.95542169 6.85172737,6.95542169 C5.8015105,6.95542169 4.95023339,7.80226506 4.95023339,8.84708434 C4.95023339,9.89151807 5.8015105,10.7383614 6.85172737,10.7383614 M10.1869212,16.5641055 L8.55373816,14.2172422 C7.95798967,13.3614754 6.99444008,13.3626932 6.3997065,14.2172422 L4.28566205,17.255052 C3.68971059,18.1108188 4.05669977,18.9554217 5.10286253,18.9554217 L9.85037915,18.9554217 C9.97886596,18.9554217 10.0972037,18.9450697 10.2045805,18.9249746 C10.3115514,18.9450697 10.4294832,18.9554217 10.5575641,18.9554217 L19.52911,18.9554217 C20.5689803,18.9554217 20.9479454,18.1012787 20.3578803,17.2363778 L16.1115232,11.0109583 C15.522879,10.1478842 14.5648099,10.1458544 13.9747449,11.0109583 L10.1869212,16.5641055" id="Imported-Layers" fill="#FFFFFF" sketch:type="MSShapeGroup"></path>
        </g>
    </g>
</svg>