<?xml version="1.0" encoding="UTF-8" standalone="no"?>
<svg width="30px" height="34px" viewBox="0 0 30 34" version="1.1" xmlns="http://www.w3.org/2000/svg" xmlns:xlink="http://www.w3.org/1999/xlink" xmlns:sketch="http://www.bohemiancoding.com/sketch/ns">
    <!-- Generator: Sketch 3.3.3 (12072) - http://www.bohemiancoding.com/sketch -->
    <title>ppt </title>
    <desc>Created with Sketch.</desc>
    <defs>
        <path id="path-2" d="M0,1.9999204 C0,0.895394863 0.889673948,0 1.991155,0 L22,0 L30,8 L30,32.0029953 C30,33.1059106 29.1021596,34 28.008383,34 L1.99161703,34 C0.891677316,34 0,33.1080589 0,32.0000796 L0,1.9999204 Z"></path>
    </defs>
    <g id="Page-1" stroke="none" stroke-width="1" fill="none" fill-rule="evenodd" sketch:type="MSPage">
        <g id="ppt-" sketch:type="MSLayerGroup">
            <g id="Rectangle-377">
                <use fill="#E7A74D" sketch:type="MSShapeGroup" xlink:href="#path-2"></use>
            </g>
            <path d="M1,32.0000796 C1,32.5552444 1.44343804,33 1.99161703,33 L28.008383,33 C28.5518766,33 29,32.5516228 29,32.0029953 C29,32.0029953 29.0889861,8.50299581 28.9872092,8.40111714 C26.4249846,5.83632915 21.7328491,1 21.5952759,1 C15.0608101,1 1.99187866,1 1.99187866,1 C1.44394691,1 1,1.44601721 1,1.9999204 L1,32.0000796 Z M0,1.9999204 C0,0.895394863 0.889997288,0 1.99187866,0 L22.0079956,0 L30,8 L30,32.0029953 C30,33.1059106 29.1021596,34 28.008383,34 L1.99161703,34 C0.891677316,34 0,33.1080589 0,32.0000796 L0,1.9999204 L0,1.9999204 Z" id="Shape" fill-opacity="0.05" fill="#000000" sketch:type="MSShapeGroup"></path>
            <path d="M23,7 L29,7 L30,8 L30,14 L23,7 L23,7 Z" id="Rectangle-1376-Copy-13" fill-opacity="0.1" fill="#000000" sketch:type="MSShapeGroup"></path>
            <path d="M22,0 L30,8 L24,8 C22.8945804,8.00052157 22,7.11413354 22,6 L22,0 L22,0 Z" id="Rectangle-378-Copy-3" fill="#F3CA91" sketch:type="MSShapeGroup"></path>
            <path d="M11,10 L11,25 L14,25 L14,20 L16.0172066,20.0263754 C18.1580446,20.0263754 20.2268383,19.202564 20.2268383,15.0451422 C20.2268383,11.5376776 19.1712454,9.99847197 15.4721833,10.0000011 L11,10 Z M14,17 L14,13.0024147 L15.2221699,13.0024147 C16.887825,12.954503 16.9973275,13.6205423 16.9973275,14.9155062 C17.0411285,16.3562295 16.5506332,16.9999998 15.2221699,17 L14,17 Z" id="Imported-Layers-Copy-6" fill="#FFFFFF" sketch:type="MSShapeGroup"></path>
        </g>
    </g>
</svg>