<?xml version="1.0" encoding="UTF-8" standalone="no"?>
<svg width="30px" height="34px" viewBox="0 0 30 34" version="1.1" xmlns="http://www.w3.org/2000/svg" xmlns:xlink="http://www.w3.org/1999/xlink" xmlns:sketch="http://www.bohemiancoding.com/sketch/ns">
    <!-- Generator: Sketch 3.3.3 (12072) - http://www.bohemiancoding.com/sketch -->
    <title>IE灰</title>
    <desc>Created with Sketch.</desc>
    <defs>
        <path id="path-2" d="M0,1.9999204 C0,0.895394863 0.889664075,0 1.9911329,0 L21.9997559,0 L30,8 L30,32.0029953 C30,33.1059106 29.1021596,34 28.008383,34 L1.99161703,34 C0.891677316,34 0,33.1080589 0,32.0000796 L0,1.9999204 Z"></path>
    </defs>
    <g id="Page-1" stroke="none" stroke-width="1" fill="none" fill-rule="evenodd" sketch:type="MSPage">
        <g id="IE" sketch:type="MSLayerGroup">
            <g id="Rectangle-377">
                <use fill="#E2E4E9" sketch:type="MSShapeGroup" xlink:href="#path-2"></use>
            </g>
            <path d="M1,32.0000796 C1,32.5552444 1.44343804,33 1.99161703,33 L28.008383,33 C28.5518766,33 29,32.5516228 29,32.0029953 C29,32.0029953 29.0889861,8.50299581 28.9872092,8.40111714 C26.4249846,5.83632915 21.7328491,1 21.5952759,1 C15.0608101,1 1.99187866,1 1.99187866,1 C1.44394691,1 1,1.44601721 1,1.9999204 L1,32.0000796 Z M1.99187866,0 L22.0079956,0 L30,8 L30,32.0029953 C30,33.1059106 29.1021596,34 28.008383,34 L1.99161703,34 C0.891677316,34 0,33.1080589 0,32.0000796 L0,1.9999204 C0,0.895394863 0.889997288,0 1.99187866,0 Z" id="Shape" fill-opacity="0.05" fill="#000000" sketch:type="MSShapeGroup"></path>
            <path d="M23,7 L30,8 L30,15 L23,7 Z" id="Rectangle-1376-Copy-41" fill-opacity="0.1" fill="#000000" sketch:type="MSShapeGroup"></path>
            <path d="M22,0 L30,8.00762939 L23.9981014,8.00762939 C22.8945804,8.00762939 22,7.12007741 22,6.0076225 L22,0 Z" id="Rectangle-378-Copy-14" fill="#ECECEC" sketch:type="MSShapeGroup"></path>
            <path d="M21.1677882,10.6189825 C20.5596755,10.0562895 19.7847459,10.0038333 19.0867177,10 C18.3433375,10.0286491 17.5914783,10.1981228 16.9492529,10.4761404 C16.5893938,10.6002193 16.2285487,10.7630351 15.873422,10.965193 C15.7870558,11.0093772 15.7103515,11.0816053 15.6310839,11.1459649 C15.4573656,11.1328509 15.2816755,11.1217544 15.0998727,11.1217544 C14.3308586,11.1217544 13.6026614,11.2637895 12.9148867,11.5448333 C12.2273093,11.827693 11.623929,12.2277719 11.1043515,12.7495088 C10.5853656,13.2700351 10.1771966,13.8821579 9.88122478,14.5860789 C9.5846614,15.29 9.43578816,16.0560614 9.43578816,16.8870877 C9.43578816,17.004307 9.45688675,17.1057895 9.46142196,17.2201842 C9.00967548,17.945693 8.67268957,18.6467895 8.45145013,19.3307368 C8.12333745,20.3453596 7.98077407,21.1596404 8.00206985,21.8940263 C8.03283041,22.9786579 8.28877407,23.7838596 8.78725295,24.3584561 C9.24175999,24.8713158 9.84060506,25.1315789 10.5668304,25.1315789 C10.6938163,25.1315789 10.8154783,25.1237105 10.9286614,25.1107982 C11.4973375,25.0476491 11.9358727,24.8939123 12.3162389,24.7490526 C13.0128867,24.4583246 13.3680135,24.200886 13.406267,24.1722368 L12.9641825,23.2851228 C12.9608304,23.2859298 12.5999853,23.4172719 11.9723515,23.5403421 C11.5600417,23.6232632 11.2540135,23.6537281 10.8846896,23.6281053 C10.5224642,23.6055088 10.1941544,23.4614561 10.0657882,23.2663596 C9.88359097,22.9952018 9.80471774,22.5388333 9.83054872,21.9166228 C9.859929,21.4001316 9.99835154,20.8120175 10.2391121,20.142193 C10.4573938,20.511807 10.7060417,20.8580175 11.0140417,21.1606491 C12.065422,22.1956491 13.4543797,22.7123421 15.1809149,22.7123421 C16.4348022,22.7123421 17.54376,22.407693 18.5081825,21.7953684 C19.4720135,21.1832456 20.1026051,20.1674123 20.3991684,18.9714123 L17.1829149,18.9714123 C17.021422,19.3517193 16.7617318,19.7576491 16.4046332,19.969693 C16.0471403,20.1797193 15.6531684,20.2870526 15.2211403,20.2870526 C14.5061544,20.2870526 13.9431966,20.0612895 13.5326614,19.6087544 C13.1205487,19.1602544 12.9018727,18.5549912 12.8744642,17.7949825 L20.602267,17.7949825 C20.602267,16.9096842 20.4831684,15.6458947 20.2475346,14.8927456 C20.0119008,14.1393947 19.6605206,13.4778421 19.1959572,12.9082895 C18.908267,12.5554211 18.5616191,12.2707456 18.1865769,12.0179474 C18.2660417,11.9917193 18.3541825,11.9612544 18.4208304,11.9400702 C18.6097318,11.8573509 18.8426051,11.8129649 19.0668022,11.7695877 L19.1760417,11.7467895 C19.3361544,11.7272193 19.4923234,11.714307 19.6392248,11.714307 C19.9760135,11.714307 20.1270558,11.7822982 20.1781262,11.8157895 C20.4023234,11.9735614 20.5630276,12.2644912 20.6036473,12.4567632 C20.7150558,13.0620263 20.6890276,13.4405175 20.6886332,13.4445526 L21.636098,13.6218947 L21.7295628,13.2335175 C21.7678163,13.0285351 21.8248022,12.7180351 21.8108022,12.2969737 C21.7853656,11.8977018 21.7404079,11.2294912 21.1677882,10.6189825 L21.1677882,10.6189825 Z M12.8744642,15.7421316 C12.9827177,15.0668596 13.2319572,14.5711491 13.6229713,14.162193 C14.0139853,13.7558596 14.5061544,13.5508772 15.0998727,13.5508772 C15.6659853,13.5508772 16.1421825,13.7659474 16.5255065,14.1936667 C16.9100135,14.6236053 17.1154783,15.1082193 17.1422952,15.7421316 L12.8744642,15.7421316 L12.8744642,15.7421316 Z" id="Imported-Layers-Copy-3" fill="#FFFFFF" sketch:type="MSShapeGroup"></path>
        </g>
    </g>
</svg>