<?xml version="1.0" encoding="UTF-8" standalone="no"?>
<svg width="32px" height="32px" viewBox="0 0 32 32" version="1.1" xmlns="http://www.w3.org/2000/svg" xmlns:xlink="http://www.w3.org/1999/xlink" xmlns:sketch="http://www.bohemiancoding.com/sketch/ns">
    <!-- Generator: Sketch 3.4 (15575) - http://www.bohemiancoding.com/sketch -->
    <title>type_folder_small</title>
    <desc>Created with Sketch.</desc>
    <g id="Page-1" stroke="none" stroke-width="1" fill="none" fill-rule="evenodd" sketch:type="MSPage">
        <g id="type_folder_small" sketch:type="MSLayerGroup" transform="translate(0.000000, 2.000000)">
            <g id="v2" sketch:type="MSShapeGroup">
                <g id="Artboard-4">
                    <g id="pic-copy-2">
                        <g id="Rectangle-1452-+-Rectangle-1454-+-Rectangle-1452-Copy-4">
                            <path d="M0,0.995457033 C0,0.445681294 0.441967228,0 1.00858784,0 L9.92044862,0 C10.4774763,0 11.2461168,0.309753299 11.6412961,0.695800781 L14,3 L31.0066023,3 C31.5552407,3 32,3.43945834 32,4.00246167 L32,23.9975383 C32,24.5511826 31.5476379,25 31.0072136,25 L0.992786407,25 C0.444485615,25 0,24.5447371 0,24.004543 L0,0.995457033 L0,0.995457033 Z" id="Rectangle-1452" fill="#F9C932"></path>
                            <path d="M1,0.995457033 L1,0.995457033 L1,24.004543 C1,23.9978356 1.00214436,24 0.992786407,24 L31.0072136,24 C30.9971236,24 31,23.9971114 31,23.9975383 L31,4.00246167 C31,3.99439131 31.0055941,4 31.0066023,4 L14,4 L13.5857864,4 L13.2928932,3.70710678 L11.0038513,1.4180649 C10.7998781,1.21409163 10.2867847,1 10.0044225,1 L0.995577499,1 C0.997544454,1 1,0.99754322 1,0.995457033 L1,0.995457033 L1,0.995457033 Z M0,0.995457033 C0,0.445681294 0.444836974,0 0.995577499,0 L10.0044225,0 C10.5542648,0 11.3210526,0.321052551 11.7109581,0.710958123 L14,3 L31.0066023,3 C31.5552407,3 32,3.43945834 32,4.00246167 L32,23.9975383 C32,24.5511826 31.5476379,25 31.0072136,25 L0.992786407,25 C0.444485615,25 0,24.5447371 0,24.004543 L0,0.995457033 L0,0.995457033 L0,0.995457033 Z" id="Shape" fill="#EBBA37"></path>
                            <rect id="Rectangle-1454" fill="#FFFFFF" x="3" y="3" width="11" height="5"></rect>
                            <g id="Rectangle-1452-Copy" transform="translate(0.000000, 3.000000)">
                                <g id="path-2-link" fill="#F7D478">
                                    <path d="M0,4.00307055 C0,3.44908998 0.444836974,3 0.995577499,3 L10.0044225,3 C10.5542648,3 11.3210526,2.67894745 11.7109581,2.28904188 L14,0 L31.0066023,0 C31.5552407,0 32,0.45127869 32,1.00329963 L32,24.9967004 C32,25.5508075 31.5476379,26 31.0072136,26 L0.992786407,26 C0.444485615,26 0,25.5610822 0,24.9969294 L0,4.00307055 L0,4.00307055 Z" id="path-2"></path>
                                </g>
                                <g id="path-2-link">
                                    <path d="M0,4.00307055 C0,3.44908998 0.444836974,3 0.995577499,3 L10.0044225,3 C10.5542648,3 11.3210526,2.67894745 11.7109581,2.28904188 L14,0 L31.0066023,0 C31.5552407,0 32,0.45127869 32,1.00329963 L32,24.9967004 C32,25.5508075 31.5476379,26 31.0072136,26 L0.992786407,26 C0.444485615,26 0,25.5610822 0,24.9969294 L0,4.00307055 L0,4.00307055 Z" id="path-2"></path>
                                </g>
                            </g>
                            <path d="M1,7.00307055 L1,7.00307055 L1,27.9969294 C1,28.0060163 0.994003348,28 0.992786407,28 L31.0072136,28 C30.9969356,28 31,27.9969201 31,27.9967004 L31,4.00329963 C31,4.00031742 30.9996862,4 31.0066023,4 L14,4 L14.7071068,3.70710678 L12.4180649,5.99614866 C11.8403304,6.57388314 10.819096,7 10.0044225,7 L0.995577499,7 C0.999258152,7 1,6.9992521 1,7.00307055 L1,7.00307055 L1,7.00307055 Z M0,7.00307055 C0,6.44908998 0.444836974,6 0.995577499,6 L10.0044225,6 C10.5542648,6 11.3210526,5.67894745 11.7109581,5.28904188 L14,3 L31.0066023,3 C31.5552407,3 32,3.45127869 32,4.00329963 L32,27.9967004 C32,28.5508075 31.5476379,29 31.0072136,29 L0.992786407,29 C0.444485615,29 0,28.5610822 0,27.9969294 L0,7.00307055 L0,7.00307055 L0,7.00307055 Z" id="Shape" fill="#EBBA37"></path>
                        </g>
                    </g>
                </g>
            </g>
        </g>
    </g>
</svg>