<?xml version="1.0" encoding="UTF-8" standalone="no"?>
<svg width="30px" height="25px" viewBox="0 0 30 25" version="1.1" xmlns="http://www.w3.org/2000/svg" xmlns:xlink="http://www.w3.org/1999/xlink" xmlns:sketch="http://www.bohemiancoding.com/sketch/ns">
    <!-- Generator: Sketch 3.3.3 (12072) - http://www.bohemiancoding.com/sketch -->
    <title>Rectangle 1452</title>
    <desc>Created with Sketch.</desc>
    <defs>
        <path id="path-2" d="M0,5.99180311 C0,5.44404538 0.440256596,5 1.00108227,5 L9.24488941,5 C9.79777188,5 10.56626,4.67316866 10.9414761,4.29028749 L12.6959229,2.5 L28.9948652,2.5 C29.5499858,2.5 30,2.94944603 30,3.49582877 L30,24.0041712 C30,24.5541523 29.5526348,25 29.0018463,25 L0.998153687,25 C0.446888627,25 0,24.5446944 0,24.0081969 L0,5.99180311 Z"></path>
    </defs>
    <g id="Page-1" stroke="none" stroke-width="1" fill="none" fill-rule="evenodd" sketch:type="MSPage">
        <g id="Rectangle-1452-+-Rectangle-1454-+-Rectangle-1452-Copy-2" sketch:type="MSLayerGroup">
            <path d="M0,0.995457033 C0,0.445681294 0.440256596,0 1.00108227,0 L9.24488941,0 C9.79777188,0 10.56626,0.326831341 10.9414761,0.709712505 L12.6959229,2.5 L28.9948652,2.5 C29.5499858,2.5 30,2.94944603 30,3.49582877 L30,24.0041712 C30,24.5541523 29.5526348,25 29.0018463,25 L0.998153687,25 C0.446888627,25 0,24.5447371 0,24.004543 L0,0.995457033 Z" id="Rectangle-1452" fill="#E3E6EA" sketch:type="MSShapeGroup"></path>
            <path d="M1.00182123,24 C1.00182123,23.9920961 28.9913521,23.9954579 28.9913521,23.9954579 C28.9906157,23.9954579 29,3.01130062 29,3.01130062 C29,3.01748857 12.7030935,3.01547102 12.7030935,3.01547102 L12.2831296,3.01547102 L11.9891878,2.71545175 L10.2250193,1.40955308 C10.0348236,1.21542494 9.52263118,1 9.24308446,1 L1.00290303,1 C0.997076878,1 1.00182123,24 1.00182123,24 Z M1.00084937,-2.84217094e-14 L9.24273858,-2.84217094e-14 C9.79549243,-2.84217094e-14 10.4952664,0.207206726 10.8703952,0.590087891 L12.6999486,2.00939941 L28.995099,2.00939941 C29.5500905,2.00939941 30,2.45884544 30,3.00522818 L29.9930205,24.0041712 C29.9930205,24.5541523 29.5457594,25 28.995099,25 L0.997921466,25 C0.446784659,25 0,24.5447371 0,24.004543 L0,0.995457033 C0,0.445681294 0.44015417,-2.84217094e-14 1.00084937,-2.84217094e-14 Z" id="Shape" fill="#D7DADE" sketch:type="MSShapeGroup"></path>
            <rect id="Rectangle-1454" fill="#FFFFFF" sketch:type="MSShapeGroup" x="3" y="3" width="11" height="5"></rect>
            <g id="Rectangle-1452-Copy">
                <use fill="#E6E6E6" sketch:type="MSShapeGroup" xlink:href="#path-2"></use>
                <use fill="#E2E5EA" xlink:href="#path-2"></use>
            </g>
            <path d="M1.00218228,24 C1.00218228,23.988174 29,23.991628 29,23.991628 C28.9992634,23.991628 29,3.00027845 29,3.00027845 C28.998154,3.05574355 13.2231747,2.94249828 13,3.00027845 C12.6384433,3.55200953 11.5155025,6.00195312 9.24480339,6.00195312 L1.00218228,6.00195312 C0.995533128,6.00195312 1.00218228,24 1.00218228,24 Z M0.974149408,5.0234375 L9.21795654,5.0234375 C9.77083902,5.0234375 10.4218599,4.75319481 10.9145432,4.29795361 C11.4072266,3.8427124 12.4115601,2 12.4115601,2 L29,2 C29.5499858,2 30,2.45943372 30,3.0179583 L30,23.9820417 C30,24.5442445 29.5526348,25 29.0018463,25 L0.998153687,25 C0.446888627,25 0,24.5345765 0,23.9861568 L0,6.01153564 C0,5.45160552 0.413323731,5.0234375 0.974149408,5.0234375 Z" id="Shape" fill="#DFDFDF" sketch:type="MSShapeGroup"></path>
        </g>
    </g>
</svg>