<?xml version="1.0" encoding="UTF-8" standalone="no"?>
<svg width="32px" height="32px" viewBox="0 0 32 32" version="1.1" xmlns="http://www.w3.org/2000/svg" xmlns:xlink="http://www.w3.org/1999/xlink" xmlns:sketch="http://www.bohemiancoding.com/sketch/ns">
    <!-- Generator: Sketch 3.3.3 (12072) - http://www.bohemiancoding.com/sketch -->
    <title>ie copy 6</title>
    <desc>Created with Sketch.</desc>
    <defs></defs>
    <g id="v2" stroke="none" stroke-width="1" fill="none" fill-rule="evenodd" sketch:type="MSPage">
        <g id="Artboard-4" sketch:type="MSArtboardGroup" transform="translate(-455.000000, -1282.000000)">
            <g id="pic-copy-2" sketch:type="MSLayerGroup" transform="translate(24.000000, 1282.000000)">
                <g id="ie-copy-6" transform="translate(431.000000, 0.000000)" sketch:type="MSShapeGroup">
                    <rect id="Rectangle-873-Copy" fill="#4EC781" x="0" y="0" width="32" height="32" rx="4"></rect>
                    <path d="M1,4.0042577 L1,4.0042577 L1,27.9957423 C1,29.6572516 2.34361515,31 4.0042577,31 L27.9957423,31 C29.6572516,31 31,29.6563848 31,27.9957423 L31,4.0042577 C31,2.34274837 29.6563848,1 27.9957423,1 L4.0042577,1 C2.34274837,1 1,2.34361515 1,4.0042577 L1,4.0042577 Z M0,4.0042577 C0,1.79276724 1.78902751,0 4.0042577,0 L27.9957423,0 C30.2072328,0 32,1.78902751 32,4.0042577 L32,27.9957423 C32,30.2072328 30.2109725,32 27.9957423,32 L4.0042577,32 C1.79276724,32 0,30.2109725 0,27.9957423 L0,4.0042577 L0,4.0042577 Z" id="Shape-Copy-7" fill-opacity="0.05" fill="#000000"></path>
                    <path d="M23.4627451,8.04444444 L19.3898562,8.04444444 L16.4938562,11.9244444 L13.959634,8.04444444 L9.8867451,8.04444444 L14.3214118,15.16 L8.52941176,24.1288889 L15.9960784,24.1288889 L15.9960784,21.4542222 L14.2725229,21.4542222 L16.2227451,18.3955556 L19.3898562,24.1288889 L23.4627451,24.1288889 L18.3943007,15.16 L23.4627451,8.04444444" id="Imported-Layers" fill="#FFFFFF"></path>
                </g>
            </g>
        </g>
    </g>
</svg>