<?xml version="1.0" encoding="UTF-8" standalone="no"?>
<svg width="30px" height="34px" viewBox="0 0 30 34" version="1.1" xmlns="http://www.w3.org/2000/svg" xmlns:xlink="http://www.w3.org/1999/xlink" xmlns:sketch="http://www.bohemiancoding.com/sketch/ns">
    <!-- Generator: Sketch 3.3.3 (12072) - http://www.bohemiancoding.com/sketch -->
    <title>note灰</title>
    <desc>Created with Sketch.</desc>
    <defs>
        <path id="path-2" d="M0,1.9999204 C0,0.895394863 0.889664075,0 1.9911329,0 L21.9997559,0 L30,8 L30,32.0029953 C30,33.1059106 29.1021596,34 28.008383,34 L1.99161703,34 C0.891677316,34 0,33.1080589 0,32.0000796 L0,1.9999204 Z"></path>
    </defs>
    <g id="Page-1" stroke="none" stroke-width="1" fill="none" fill-rule="evenodd" sketch:type="MSPage">
        <g id="music-copy-5" sketch:type="MSLayerGroup">
            <g id="Rectangle-377">
                <use fill="#E2E4E9" sketch:type="MSShapeGroup" xlink:href="#path-2"></use>
            </g>
            <path d="M1,32.0000796 C1,32.5552444 1.44343804,33 1.99161703,33 L28.008383,33 C28.5518766,33 29,32.5516228 29,32.0029953 C29,32.0029953 29.0889861,8.50299581 28.9872092,8.40111714 C26.4249846,5.83632915 21.7328491,1 21.5952759,1 C15.0608101,1 1.99187866,1 1.99187866,1 C1.44394691,1 1,1.44601721 1,1.9999204 L1,32.0000796 Z M1.99187866,0 L22.0079956,0 L30,8 L30,32.0029953 C30,33.1059106 29.1021596,34 28.008383,34 L1.99161703,34 C0.891677316,34 0,33.1080589 0,32.0000796 L0,1.9999204 C0,0.895394863 0.889997288,0 1.99187866,0 Z" id="Shape" fill-opacity="0.05" fill="#000000" sketch:type="MSShapeGroup"></path>
            <path d="M23,7 L30,8 L30,15 L23,7 Z" id="Rectangle-1376-Copy-41" fill-opacity="0.1" fill="#000000" sketch:type="MSShapeGroup"></path>
            <path d="M22,0 L30,8.00762939 L23.9981014,8.00762939 C22.8945804,8.00762939 22,7.12007741 22,6.0076225 L22,0 Z" id="Rectangle-378-Copy-14" fill="#ECECEC" sketch:type="MSShapeGroup"></path>
            <path d="M21.6849635,15.0013942 L16.9606496,10.2687299 C16.6030073,9.91042336 16.1503796,9.91042336 15.7928321,10.2687299 L9.82848905,16.2446496 C9.55083942,16.4871898 9.37472263,16.8438832 9.37472263,17.241854 L9,21.9604745 C9,22.6906569 9.21568613,22.9071022 9.94444526,22.9071022 L14.7870876,22.5318102 C14.9491606,22.5318102 15.1041168,22.5022044 15.2479708,22.4485912 C15.3971387,22.4083577 15.5385255,22.330073 15.6557153,22.2127883 L21.6849635,16.1715839 C22.0426058,15.8132774 22.0426058,15.3596058 21.6849635,15.0013942" id="Fill-1" fill="#FFFFFF" sketch:type="MSShapeGroup"></path>
            <path d="M19.3579302,12.7087128 L9.24591785,22.8207252 L9.1923065,22.7655929 C9.33422448,22.9373584 9.57775687,23 9.97033641,23 L14.8214028,22.6238651 C14.9837577,22.6238651 15.1389834,22.5943978 15.2828976,22.5405964 C15.4325151,22.5002928 15.5741479,22.421967 15.6915415,22.3041932 L21.7312779,16.2524798 C21.9096021,16.0738704 21.9991445,15.8716872 22,15.6694089 C21.9991445,15.4670356 21.9096021,15.2648524 21.7312779,15.0862429 L19.3579302,12.7087128" id="Fill-3" fill="#F5F5F5" sketch:type="MSShapeGroup"></path>
        </g>
    </g>
</svg>