<?xml version="1.0" encoding="UTF-8" standalone="no"?>
<svg width="30px" height="34px" viewBox="0 0 30 34" version="1.1" xmlns="http://www.w3.org/2000/svg" xmlns:xlink="http://www.w3.org/1999/xlink" xmlns:sketch="http://www.bohemiancoding.com/sketch/ns">
    <!-- Generator: Sketch 3.4 (15575) - http://www.bohemiancoding.com/sketch -->
    <title>3034</title>
    <desc>Created with Sketch.</desc>
    <defs>
        <path id="path-1" d="M0,1.9999204 C0,0.895394863 0.890083677,0 1.992072,0 L22.0101318,0 L30,8 L30,32.0029953 C30,33.1059106 29.1021596,34 28.008383,34 L1.99161703,34 C0.891677316,34 0,33.1080589 0,32.0000796 L0,1.9999204 Z"></path>
    </defs>
    <g id="Page-1" stroke="none" stroke-width="1" fill="none" fill-rule="evenodd" sketch:type="MSPage">
        <g id="icon" sketch:type="MSArtboardGroup" transform="translate(-741.000000, -1219.000000)">
            <g id="24*26" sketch:type="MSLayerGroup" transform="translate(80.000000, 1219.000000)">
                <g id="music-copy-11" transform="translate(661.000000, 0.000000)">
                    <mask id="mask-2" sketch:name="Rectangle 377" fill="white">
                        <use xlink:href="#path-1"></use>
                    </mask>
                    <use id="Rectangle-377" fill="#7D769D" sketch:type="MSShapeGroup" xlink:href="#path-1"></use>
                    <path d="M1,1.9999204 L1,1.9999204 L1,32.0000796 C1,32.5552444 1.44343804,33 1.99161703,33 L28.008383,33 C28.5518766,33 29,32.5516228 29,32.0029953 L29,8 L29.2924453,8.70665859 L21.3025771,0.706658587 L22.0101318,1 L1.992072,1 C1.44401152,1 1,1.44603882 1,1.9999204 L1,1.9999204 Z M0,1.9999204 C0,0.895394863 0.890083677,0 1.992072,0 L22.0101318,0 L30,8 L30,32.0029953 C30,33.1059106 29.1021596,34 28.008383,34 L1.99161703,34 C0.891677316,34 0,33.1080589 0,32.0000796 L0,1.9999204 L0,1.9999204 Z" id="Shape" fill-opacity="0.05" fill="#000000" sketch:type="MSShapeGroup"></path>
                    <path d="M19,15 L19,23 L22,23 L22,10 L19,10 L19,11 L15,15 L15,19 L19,15 Z M11,11 L11,10 L8,10 L8,23 L11,23 L11,15 L15,19 L15,15 L11,11 Z" id="Rectangle-802" fill="#FFFFFF" sketch:type="MSShapeGroup"></path>
                    <path d="M30,14 L22,7 L30,7 L30,14 Z" id="Rectangle-1376-Copy-18" fill-opacity="0.1" fill="#000000" sketch:type="MSShapeGroup"></path>
                    <path d="M22,0 L30,8 L23.9981014,8 C22.8945804,8 22,7.11329365 22,6.00189865 L22,0 Z" id="Rectangle-378" fill="#A59CC8" sketch:type="MSShapeGroup"></path>
                </g>
            </g>
        </g>
    </g>
</svg>