<?xml version="1.0" encoding="UTF-8" standalone="no"?>
<svg width="30px" height="24px" viewBox="0 0 30 24" version="1.1" xmlns="http://www.w3.org/2000/svg" xmlns:xlink="http://www.w3.org/1999/xlink" xmlns:sketch="http://www.bohemiancoding.com/sketch/ns">
    <!-- Generator: Sketch 3.3.3 (12072) - http://www.bohemiancoding.com/sketch -->
    <title>讨论区文件夹</title>
    <desc>Created with Sketch.</desc>
    <defs></defs>
    <g id="v2" stroke="none" stroke-width="1" fill="none" fill-rule="evenodd" sketch:type="MSPage">
        <g id="协作icons" sketch:type="MSArtboardGroup" transform="translate(-225.000000, -478.000000)">
            <g id="Rectangle-1452-+-Rectangle-1454-+-Rectangle-1452-Copy-2" sketch:type="MSLayerGroup" transform="translate(225.000000, 478.000000)">
                <path d="M0,1.00069463 C0,0.448026248 0.440256596,0 1.00108227,0 L9.24488941,0 C9.79777188,0 10.56626,0.313758087 10.9545991,0.69417944 L12.6959229,2.4 L28.9948652,2.4 C29.5499858,2.4 30,2.8511467 30,3.39849255 L30,23.0015074 C30,23.5529597 29.5526348,24 29.0018463,24 L0.998153687,24 C0.446888627,24 0,23.5525308 0,22.9993054 L0,1.00069463 Z" id="Rectangle-1452" fill="#F7CF58" sketch:type="MSShapeGroup"></path>
                <path d="M1,0.955638751 L1,0.955638751 L1,23.0443612 C1,23.036772 1.00334935,23.04 0.998153687,23.04 L29.0018463,23.04 C29.0011096,23.04 29,23.0410624 29,23.0440044 L29,3.35599562 C29,3.36193723 28.9979683,3.36 28.9948652,3.36 L12.6959229,3.36 L12.2757741,3.36 L11.981703,3.07192461 L10.2272563,1.35324861 C10.0369769,1.16684879 9.52455913,0.96 9.24488941,0.96 L1.00108227,0.96 C0.995253558,0.96 1,0.95544405 1,0.955638751 L1,0.955638751 Z M0,0.955638751 C0,0.427854043 0.440256596,0 1.00108227,0 L9.24488941,0 C9.79777188,0 10.56626,0.313758087 10.9414761,0.681324005 L12.6959229,2.4 L28.9948652,2.4 C29.5499858,2.4 30,2.83146819 30,3.35599562 L30,23.0440044 C30,23.5719862 29.5526348,24 29.0018463,24 L0.998153687,24 C0.446888627,24 0,23.5629476 0,23.0443612 L0,0.955638751 L0,0.955638751 Z" id="Shape" fill="#E3A427" sketch:type="MSShapeGroup"></path>
                <rect id="Rectangle-1454" fill="#FFFFFF" sketch:type="MSShapeGroup" x="3" y="2" width="11" height="5"></rect>
                <path d="M0,5.99477117 C0,5.44537422 0.440041542,5 1.00059327,5 L9.24037353,5 C9.79298593,5 10.4835567,4.63214111 10.7920597,4.16433275 L12.2193604,2 L28.9930906,2 C29.5491913,2 30,2.43945834 30,3.00246167 L30,22.9975383 C30,23.5511826 29.5526348,24 29.0018463,24 L0.998153687,24 C0.446888627,24 0,23.5490746 0,23.0052288 L0,5.99477117 Z" id="Rectangle-1452-Copy" fill="#F7D57B" sketch:type="MSShapeGroup"></path>
                <path d="M1,23.030237 C1,23.0189156 29.0018463,23.0222222 29.0018463,23.0222222 C29.0011096,23.0222222 29,2.97369924 29,2.97369924 C29,2.97975088 13.0556644,2.97369924 13.0556644,2.97369924 L11.7958988,4.77990726 C11.2295981,5.34493506 10.0789207,5.98681632 9.26159704,5.98681632 L1,5.98681632 C0.993349887,5.98681632 1,23.030237 1,23.030237 Z M0.998153687,5.01864815 L9.31115723,5.01864815 C9.8640397,5.01864815 10.7510046,4.16136 11.1262207,3.7869873 L12.6959229,2 L28.9948652,2 C29.5499858,2 30,2.43945834 30,2.97369924 L30,23.0263008 C30,23.56406 29.5526348,24 29.0018463,24 L0.998153687,24 C0.446888627,24 0,23.5548123 0,23.030237 L0,5.41420748 C0,4.87862215 0.43732801,5.01864815 0.998153687,5.01864815 Z" id="Shape" fill="#E3A427" sketch:type="MSShapeGroup"></path>
            </g>
        </g>
    </g>
</svg>