<?xml version="1.0" encoding="UTF-8" standalone="no"?>
<svg width="32px" height="32px" viewBox="0 0 32 32" version="1.1" xmlns="http://www.w3.org/2000/svg" xmlns:xlink="http://www.w3.org/1999/xlink" xmlns:sketch="http://www.bohemiancoding.com/sketch/ns">
    <!-- Generator: Sketch 3.3.3 (12072) - http://www.bohemiancoding.com/sketch -->
    <title>？</title>
    <desc>Created with Sketch.</desc>
    <defs></defs>
    <g id="v2" stroke="none" stroke-width="1" fill="none" fill-rule="evenodd" sketch:type="MSPage">
        <g id="Artboard-4" sketch:type="MSArtboardGroup" transform="translate(-655.000000, -1282.000000)">
            <g id="pic-copy-2" sketch:type="MSLayerGroup" transform="translate(24.000000, 1282.000000)">
                <g id="？" transform="translate(631.000000, 0.000000)" sketch:type="MSShapeGroup">
                    <rect id="Rectangle-873-Copy" fill="#B5BBBE" x="0" y="0" width="32" height="32" rx="4"></rect>
                    <path d="M1,4.0042577 L1,4.0042577 L1,27.9957423 C1,29.6572516 2.34361515,31 4.0042577,31 L27.9957423,31 C29.6572516,31 31,29.6563848 31,27.9957423 L31,4.0042577 C31,2.34274837 29.6563848,1 27.9957423,1 L4.0042577,1 C2.34274837,1 1,2.34361515 1,4.0042577 L1,4.0042577 Z M0,4.0042577 C0,1.79276724 1.78902751,0 4.0042577,0 L27.9957423,0 C30.2072328,0 32,1.78902751 32,4.0042577 L32,27.9957423 C32,30.2072328 30.2109725,32 27.9957423,32 L4.0042577,32 C1.79276724,32 0,30.2109725 0,27.9957423 L0,4.0042577 L0,4.0042577 Z" id="Shape-Copy-13" fill-opacity="0.05" fill="#000000"></path>
                    <path d="M16.5061574,24.8973333 L14.8053574,24.8973333 C14.3842908,24.8973333 14.0413574,24.5781333 14.0413574,24.1826667 L14.0413574,22.3773333 C14.0413574,21.9821333 14.3842908,21.6626667 14.8053574,21.6626667 L16.5061574,21.6626667 C16.9274908,21.6626667 17.2701574,21.9821333 17.2701574,22.3773333 L17.2701574,24.1826667 C17.2701574,24.5781333 16.9274908,24.8973333 16.5061574,24.8973333 L16.5061574,24.8973333 Z M10.7650908,12.0704 C10.3144241,12.0704 9.96749076,11.7042667 10.0024241,11.2837333 C10.0712241,10.4389333 10.2117574,9.66986667 10.4237574,9.17493333 C10.6962908,8.5384 11.1322908,7.96746667 11.7328241,7.46613333 C12.3322908,6.9648 13.0002908,6.59493333 13.7360241,6.35626667 C14.4728241,6.1176 15.2488241,6 16.0669574,6 C17.7216241,6 19.0997574,6.45466667 20.1984241,7.36506667 C21.2973574,8.2744 21.8493574,9.4856 21.8493574,11.0008 C21.8493574,11.6802667 21.7074908,12.2965333 21.4253574,12.8496 C21.1434908,13.4026667 20.5440241,14.0912 19.6261574,14.9157333 C18.7082908,15.7416 18.0984241,16.3277333 17.8000241,16.6773333 C17.4989574,17.0248 17.2709574,17.4413333 17.1170908,17.9264 C17.0077574,18.2685333 16.9416241,18.6954667 16.9186908,19.2042667 C16.9010908,19.5808 16.5610908,19.8786667 16.1573574,19.8786667 L15.2976241,19.8786667 C14.8546908,19.8786667 14.5106908,19.5224 14.5336241,19.1082667 C14.5672241,18.5061333 14.6416241,18.0021333 14.7589574,17.5941333 C14.9224241,17.0248 15.1666908,16.5282667 15.4960241,16.1026667 C15.8226908,15.6784 16.4125574,15.0533333 17.2666908,14.2274667 C18.1213574,13.4026667 18.6720241,12.8029333 18.9176241,12.4290667 C19.1618908,12.0554667 19.2848241,11.4970667 19.2848241,10.7573333 C19.2848241,10.0170667 19.0026908,9.36293333 18.4397574,8.79333333 C17.8754908,8.22266667 17.0589574,7.93866667 15.9858908,7.93866667 C13.7696241,7.93866667 12.5682908,9.16853333 12.3834908,11.4264 C12.3538908,11.7962667 12.0026908,12.0704 11.6074908,12.0704 L10.7650908,12.0704 L10.7650908,12.0704 Z" id="Imported-Layers" fill="#FFFFFF"></path>
                </g>
            </g>
        </g>
    </g>
</svg>