<?xml version="1.0" encoding="UTF-8" standalone="no"?>
<svg width="30px" height="34px" viewBox="0 0 30 34" version="1.1" xmlns="http://www.w3.org/2000/svg" xmlns:xlink="http://www.w3.org/1999/xlink" xmlns:sketch="http://www.bohemiancoding.com/sketch/ns">
    <!-- Generator: Sketch 3.4 (15575) - http://www.bohemiancoding.com/sketch -->
    <title>music copy 11</title>
    <desc>Created with Sketch.</desc>
    <defs></defs>
    <g id="Page-1" stroke="none" stroke-width="1" fill="none" fill-rule="evenodd" sketch:type="MSPage">
        <g id="icon" sketch:type="MSArtboardGroup" transform="translate(-1236.000000, -817.000000)">
            <g id="èœå•æ–‡ä»¶ðŸŒ²-copy-5" sketch:type="MSLayerGroup" transform="translate(80.000000, 775.000000)">
                <g id="music-copy-11" transform="translate(1156.000000, 42.000000)" sketch:type="MSShapeGroup">
                    <path d="M0,1.9999204 C0,0.895394863 0.887566067,0 2.00591092,0 L21.947876,0 L30,8 L30,32.0029953 C30,33.1059106 29.1021596,34 28.008383,34 L1.99161703,34 C0.891677316,34 0,33.1080589 0,32.0000796 L0,1.9999204 Z" id="Rectangle-377" fill="#E1E4E9"></path>
                    <path d="M1,1.9999204 L1,1.9999204 L1,32.0000796 C1,32.5552444 1.44343804,33 1.99161703,33 L28.008383,33 C28.5518766,33 29,32.5516228 29,32.0029953 L29,8 L29.295193,8.70939914 L21.243069,0.709399139 L21.947876,1 L2.00591092,1 C1.44362319,1 1,1.44390503 1,1.9999204 L1,1.9999204 Z M0,1.9999204 C0,0.895394863 0.887566067,0 2.00591092,0 L21.947876,0 L30,8 L30,32.0029953 C30,33.1059106 29.1021596,34 28.008383,34 L1.99161703,34 C0.891677316,34 0,33.1080589 0,32.0000796 L0,1.9999204 L0,1.9999204 Z" id="Shape" fill-opacity="0.05" fill="#000000"></path>
                    <path d="M23,7 L30,8 L30,15 L23,7 Z" id="Rectangle-1376-Copy-44" fill-opacity="0.1" fill="#000000"></path>
                    <path d="M22,0 L30,8.00762939 L23.9981014,8.00762939 C22.8945804,8.00762939 22,7.12007741 22,6.0076225 L22,0 Z" id="Rectangle-378-Copy-17" fill="#ECECEC"></path>
                    <path d="M19,16 L19,24 L22,24 L22,11 L19,11 L19,12 L15,16 L15,20 L19,16 Z M11,12 L11,11 L8,11 L8,24 L11,24 L11,16 L15,20 L15,16 L11,12 Z" id="Rectangle-802" fill="#FFFFFF"></path>
                </g>
            </g>
        </g>
    </g>
</svg>