<?xml version="1.0" encoding="UTF-8" standalone="no"?>
<svg width="24px" height="26px" viewBox="0 0 24 26" version="1.1" xmlns="http://www.w3.org/2000/svg" xmlns:xlink="http://www.w3.org/1999/xlink" xmlns:sketch="http://www.bohemiancoding.com/sketch/ns">
    <!-- Generator: Sketch 3.4 (15575) - http://www.bohemiancoding.com/sketch -->
    <title>2426</title>
    <desc>Created with Sketch.</desc>
    <defs>
        <path id="path-1" d="M0,1.99700466 C0,0.89408944 0.89181726,0 2.0040586,0 L17.0335938,0 L24,6.85360179 L24,24.0051833 C24,25.1068902 23.1029738,26 21.9950534,26 L2.00494659,26 C0.897645164,26 0,25.1050211 0,24.0029953 L0,1.99700466 Z"></path>
    </defs>
    <g id="Page-1" stroke="none" stroke-width="1" fill="none" fill-rule="evenodd" sketch:type="MSPage">
        <g id="icon" sketch:type="MSArtboardGroup" transform="translate(-706.000000, -1228.000000)">
            <g id="24*26" sketch:type="MSLayerGroup" transform="translate(80.000000, 1219.000000)">
                <g id="music-copy-10" transform="translate(626.000000, 9.000000)">
                    <mask id="mask-2" sketch:name="Rectangle 377" fill="white">
                        <use xlink:href="#path-1"></use>
                    </mask>
                    <use id="Rectangle-377" fill="#7D769D" sketch:type="MSShapeGroup" xlink:href="#path-1"></use>
                    <path d="M24,7 L24,11.992981 L17,6 L24,7 Z" id="Rectangle-1374-Copy-12" fill-opacity="0.1" fill="#000000" sketch:type="MSShapeGroup"></path>
                    <path d="M17,0 L24,7 L27,7 L18.999615,7 C17.8952581,7 17,6.11344516 17,4.99408095 L17,0 Z" id="Rectangle-378" fill="#A59CC8" sketch:type="MSShapeGroup"></path>
                    <path d="M1,1.99700466 L1,1.99700466 L1,24.0029953 C1,24.5522223 1.44942024,25 2.00494659,25 L21.9950534,25 C22.5515585,25 23,24.5537291 23,24.0051833 L23,6.85360179 L23.2986883,7.56645652 L16.332282,0.712854724 L17.0335938,1 L2.0040586,1 C1.44560789,1 1,1.44487209 1,1.99700466 L1,1.99700466 Z M0,1.99700466 C0,0.89408944 0.89181726,0 2.0040586,0 L17.0335938,0 L24,6.85360179 L24,24.0051833 C24,25.1068902 23.1029738,26 21.9950534,26 L2.00494659,26 C0.897645164,26 0,25.1050211 0,24.0029953 L0,1.99700466 L0,1.99700466 Z" id="Shape" fill-opacity="0.05" fill="#000000" sketch:type="MSShapeGroup"></path>
                    <path d="M15,12.2 L15,18 L17,18 L17,8 L15,8 L15,9.2 L12,11 L12,14 L15,12.2 Z M9,9.2 L9,8 L7,8 L7,18 L9,18 L9,12.2 L12,14 L12,11 L9,9.2 Z" id="Rectangle-802" fill="#FFFFFF" sketch:type="MSShapeGroup"></path>
                </g>
            </g>
        </g>
    </g>
</svg>