<?xml version="1.0" encoding="UTF-8" standalone="no"?>
<svg width="32px" height="32px" viewBox="0 0 32 32" version="1.1" xmlns="http://www.w3.org/2000/svg" xmlns:xlink="http://www.w3.org/1999/xlink" xmlns:sketch="http://www.bohemiancoding.com/sketch/ns">
    <!-- Generator: Sketch 3.3.3 (12072) - http://www.bohemiancoding.com/sketch -->
    <title>fl</title>
    <desc>Created with Sketch.</desc>
    <defs></defs>
    <g id="v2" stroke="none" stroke-width="1" fill="none" fill-rule="evenodd" sketch:type="MSPage">
        <g id="Artboard-4" sketch:type="MSArtboardGroup" transform="translate(-575.000000, -1282.000000)">
            <g id="pic-copy-2" sketch:type="MSLayerGroup" transform="translate(24.000000, 1282.000000)">
                <g id="fl" transform="translate(551.000000, 0.000000)" sketch:type="MSShapeGroup">
                    <rect id="Rectangle-873-Copy" fill="#FA5C47" x="0" y="0" width="32" height="32" rx="4"></rect>
                    <path d="M1,4.0042577 L1,4.0042577 L1,27.9957423 C1,29.6572516 2.34361515,31 4.0042577,31 L27.9957423,31 C29.6572516,31 31,29.6563848 31,27.9957423 L31,4.0042577 C31,2.34274837 29.6563848,1 27.9957423,1 L4.0042577,1 C2.34274837,1 1,2.34361515 1,4.0042577 L1,4.0042577 Z M0,4.0042577 C0,1.79276724 1.78902751,0 4.0042577,0 L27.9957423,0 C30.2072328,0 32,1.78902751 32,4.0042577 L32,27.9957423 C32,30.2072328 30.2109725,32 27.9957423,32 L4.0042577,32 C1.79276724,32 0,30.2109725 0,27.9957423 L0,4.0042577 L0,4.0042577 Z" id="Shape-Copy-11" fill-opacity="0.05" fill="#000000"></path>
                    <path d="M26.4428101,18.12 C25.9622304,17.2744928 25.1723753,16.7576812 24.219042,16.6628986 C23.1680275,16.5626087 21.6981724,16.6698551 19.639042,16.9843478 C19.3523753,16.7202899 19.0712159,16.4617391 18.8013608,16.2165217 C17.3894768,14.9388406 16.1454188,13.0930435 15.841071,12.6307246 C16.2283173,8.98463768 16.0500565,7.87362319 15.8216507,7.27362319 C15.2781724,5.84985507 14.2274478,5 13.010926,5 C12.0755637,5 11.2013608,5.5284058 10.7288971,6.38115942 C10.1836797,7.3626087 10.2422304,8.59449275 10.8900565,9.75710145 C11.232955,10.3730435 11.690926,10.8736232 12.2706362,11.5069565 C12.6842594,11.9591304 13.1865782,12.5057971 13.7793318,13.2423188 C13.6993318,13.9269565 13.6135347,14.5857971 13.5384623,15.1643478 C13.350926,16.5968116 13.0987521,17.6962319 12.832955,18.8602899 L12.8074478,18.9707246 C12.5952739,19.0643478 12.3778826,19.1562319 12.1573029,19.2495652 C10.9787521,19.7475362 9.64165068,20.3130435 8.59730286,21.2976812 C6.6538246,23.1263768 6.93904199,24.6582609 7.15150576,25.2321739 C7.48715793,26.1365217 8.31295503,26.697971 9.3054188,26.697971 C10.3004913,26.697971 11.3141145,26.1223188 12.0862884,25.115942 C12.7002014,24.3176812 13.7862884,22.6944928 14.4613608,20.4768116 C15.6874478,19.9828986 17.6373029,19.4115942 18.557013,19.2495652 L19.0202014,19.1704348 L19.3286072,19.4576812 C20.3057087,20.3689855 21.2639695,21.262029 21.9694768,21.8631884 C22.5433898,22.3513043 23.2700565,22.62 24.0178826,22.62 L24.0187521,22.62 C25.1944043,22.62 26.230926,21.9568116 26.6596217,20.9315942 C27.0144043,20.0802899 26.9294768,18.9782609 26.4428101,18.12 L26.4428101,18.12 Z M10.5399116,23.8330435 C10.1506362,24.337971 9.68918692,24.6408696 9.3054188,24.6408696 C9.23034634,24.6408696 9.04889706,24.6263768 8.99904199,24.4913043 C8.91063619,24.2547826 9.08512894,23.6144928 9.92599851,22.8223188 C10.4683173,22.3113043 11.1668681,21.9292754 11.9013608,21.5907246 C11.4167231,22.6113043 10.8894768,23.377971 10.5399116,23.8330435 L10.5399116,23.8330435 Z M14.0422304,10.4573913 C13.9236797,10.3269565 13.8117956,10.2049275 13.7048391,10.0886957 C13.1967231,9.53304348 12.8286072,9.13130435 12.6036797,8.72637681 C12.3199116,8.21652174 12.2616507,7.7373913 12.4433898,7.40869565 C12.5633898,7.19188406 12.781071,7.05710145 13.010926,7.05710145 C13.3912159,7.05710145 13.7451289,7.41304348 13.9807811,8.03188406 C14.0326652,8.16666667 14.152955,8.68637681 14.0422304,10.4573913 L14.0422304,10.4573913 Z M15.0628101,18.0823188 L15.1062884,17.9 L15.0738246,17.9162319 C15.2236797,17.2026087 15.3651289,16.435942 15.4833898,15.5631884 C15.9616507,16.1704348 16.5402014,16.8466667 17.1697666,17.457971 C16.5265782,17.6246377 15.7744043,17.8455072 15.0628101,18.0823188 L15.0628101,18.0823188 Z M24.8436797,20.1121739 C24.7291869,20.3849275 24.4051289,20.5628986 24.0187521,20.5628986 C23.7268681,20.5628986 23.4442594,20.4582609 23.2233898,20.2698551 C22.7651289,19.8811594 22.1981724,19.3643478 21.5891869,18.8 C22.6262884,18.6869565 23.4251289,18.6492754 24.0323753,18.7127536 C24.3515058,18.7426087 24.5819405,18.8921739 24.7373029,19.166087 C24.9251289,19.4962319 24.9323753,19.8997101 24.8436797,20.1121739 L24.8436797,20.1121739 Z" id="Imported-Layers-Copy-5" fill="#FFFFFF"></path>
                </g>
            </g>
        </g>
    </g>
</svg>