<?xml version="1.0" encoding="UTF-8" standalone="no"?>
<svg width="30px" height="34px" viewBox="0 0 30 34" version="1.1" xmlns="http://www.w3.org/2000/svg" xmlns:xlink="http://www.w3.org/1999/xlink" xmlns:sketch="http://www.bohemiancoding.com/sketch/ns">
    <!-- Generator: Sketch 3.3.3 (12072) - http://www.bohemiancoding.com/sketch -->
    <title>？</title>
    <desc>Created with Sketch.</desc>
    <defs>
        <linearGradient x1="50%" y1="0%" x2="50%" y2="100%" id="linearGradient-1">
            <stop stop-color="#FFFFFF" stop-opacity="0.1" offset="0%"></stop>
            <stop stop-color="#FFFFFF" stop-opacity="0" offset="100%"></stop>
        </linearGradient>
        <path id="path-2" d="M0,1.9999204 C0,0.895394863 0.890083677,0 1.992072,0 L22.0101318,0 L30,8 L30,32.0029953 C30,33.1059106 29.1021596,34 28.008383,34 L1.99161703,34 C0.891677316,34 0,33.1080589 0,32.0000796 L0,1.9999204 Z"></path>
    </defs>
    <g id="Page-1" stroke="none" stroke-width="1" fill="none" fill-rule="evenodd" sketch:type="MSPage">
        <g id="music-copy-11" sketch:type="MSLayerGroup">
            <g id="Rectangle-377">
                <use stroke-opacity="0.05" stroke="#000000" stroke-width="1" fill="#B5BBBE" sketch:type="MSShapeGroup" xlink:href="#path-2"></use>
            </g>
            <path d="M1,32.0000796 C1,32.5552444 1.44343804,33 1.99161703,33 L28.008383,33 C28.5518766,33 29,32.5516228 29,32.0029953 C29,32.0029953 29.0889861,8.50299581 28.9872092,8.40111714 C26.4249846,5.83632915 21.7328491,1 21.5952759,1 C15.0608101,1 1.99187866,1 1.99187866,1 C1.44394691,1 1,1.44601721 1,1.9999204 L1,32.0000796 Z M1.99187866,0 L22.0079956,0 L30,8 L30,32.0029953 C30,33.1059106 29.1021596,34 28.008383,34 L1.99161703,34 C0.891677316,34 0,33.1080589 0,32.0000796 L0,1.9999204 C0,0.895394863 0.889997288,0 1.99187866,0 Z" id="Shape" fill-opacity="0.05" fill="#000000" sketch:type="MSShapeGroup"></path>
            <path d="M23,7 L30,8 L30,14 L23,7 Z" id="Rectangle-1376-Copy-5" fill-opacity="0.1" fill="#000000" sketch:type="MSShapeGroup"></path>
            <path d="M22,0 L30,8 L23.9981014,8 C22.8945804,8 22,7.11329365 22,6.00189865 L22,0 Z" id="Rectangle-378" fill="#E3E5E5" sketch:type="MSShapeGroup"></path>
            <path d="M15.5267592,25 L14.4732408,25 C14.2124215,25 14,24.8026381 14,24.5581204 L14,23.4418796 C14,23.1975268 14.2124215,23 14.4732408,23 L15.5267592,23 C15.7877436,23 16,23.1975268 16,23.4418796 L16,24.5581204 C16,24.8026381 15.7877436,25 15.5267592,25 L15.5267592,25 Z M10.0020485,13.4651268 C10.0601894,12.7512113 10.1789499,12.1012958 10.3581049,11.6830423 C10.5884147,11.1451268 10.9568654,10.6626479 11.4643584,10.2389859 C11.9709499,9.81532394 12.535457,9.50276056 13.1572035,9.30107042 C13.7798513,9.09938028 14.435626,9 15.1270063,9 C16.5253161,9 17.6899359,9.38422535 18.6183866,10.1535775 C19.5470626,10.9220282 20.0135415,11.9455775 20.0135415,13.2260282 C20.0135415,13.8002254 19.8936542,14.3210141 19.6552316,14.7883944 C19.4170344,15.2557746 18.9104429,15.8376338 18.1347809,16.5344225 C17.359119,17.232338 16.8437387,17.727662 16.5915697,18.0230986 C16.3371471,18.3167324 16.1444711,18.6687324 16.0144429,19.0786479 C15.9220485,19.3677746 16.0338232,20.9550379 16.0144429,21.3850098 C15.9995697,21.7032069 15.7122457,21.9549253 15.3710626,21.9549253 L14.6445274,21.9549253 C14.2702176,21.9549253 13.9795133,21.6538548 13.9988936,21.303883 C14.027288,20.7950379 13.9224992,19.1426479 14.0216542,18.7978592 C14.159795,18.3167324 14.3662175,17.8971268 14.6445274,17.5374648 C14.9205837,17.1789296 15.4190626,16.6507042 16.1408654,15.9527887 C16.863119,15.2557746 17.3284711,14.7489577 17.5360204,14.4330141 C17.7424429,14.1172958 17.8463302,13.6454085 17.8463302,13.0202817 C17.8463302,12.3947042 17.6079077,11.8419155 17.1321894,11.3605634 C16.6553443,10.8783099 15.9653161,10.6383099 15.0584992,10.6383099 C13.1855978,10.6383099 12.1703866,11.6776338 12.0142175,13.5856901 C11.9892035,13.8982535 11.6924147,14.1299155 11.3584429,14.1299155 L10.6465556,14.1299155 C10.2657105,14.1299155 9.9725274,13.820507 10.0020485,13.4651268 Z" id="Imported-Layers-Copy-11" fill="#FFFFFF" sketch:type="MSShapeGroup"></path>
        </g>
    </g>
</svg>