<?xml version="1.0" encoding="UTF-8" standalone="no"?>
<svg width="32px" height="32px" viewBox="0 0 32 32" version="1.1" xmlns="http://www.w3.org/2000/svg" xmlns:xlink="http://www.w3.org/1999/xlink" xmlns:sketch="http://www.bohemiancoding.com/sketch/ns">
    <!-- Generator: Sketch 3.3.3 (12072) - http://www.bohemiancoding.com/sketch -->
    <title>ie copy 4</title>
    <desc>Created with Sketch.</desc>
    <defs></defs>
    <g id="v2" stroke="none" stroke-width="1" fill="none" fill-rule="evenodd" sketch:type="MSPage">
        <g id="Artboard-4" sketch:type="MSArtboardGroup" transform="translate(-375.000000, -1282.000000)">
            <g id="pic-copy-2" sketch:type="MSLayerGroup" transform="translate(24.000000, 1282.000000)">
                <g id="ie-copy-4" transform="translate(351.000000, 0.000000)" sketch:type="MSShapeGroup">
                    <rect id="Rectangle-873-Copy" fill="#E7A74D" x="0" y="0" width="32" height="32" rx="4"></rect>
                    <path d="M1,4.0042577 L1,4.0042577 L1,27.9957423 C1,29.6572516 2.34361515,31 4.0042577,31 L27.9957423,31 C29.6572516,31 31,29.6563848 31,27.9957423 L31,4.0042577 C31,2.34274837 29.6563848,1 27.9957423,1 L4.0042577,1 C2.34274837,1 1,2.34361515 1,4.0042577 L1,4.0042577 Z M0,4.0042577 C0,1.79276724 1.78902751,0 4.0042577,0 L27.9957423,0 C30.2072328,0 32,1.78902751 32,4.0042577 L32,27.9957423 C32,30.2072328 30.2109725,32 27.9957423,32 L4.0042577,32 C1.79276724,32 0,30.2109725 0,27.9957423 L0,4.0042577 L0,4.0042577 Z" id="Shape-Copy-6" fill-opacity="0.05" fill="#000000"></path>
                    <path d="M17,8 L12,8 L12,24 L15,24 L15,18 L17,18 C19.765428,18.1350729 22,16.589102 22,13 C22,10.382496 20.8205043,7.99831774 17,8 L17,8 Z M17,14.9999991 L15,14.9999991 L15,10.9999991 L17,10.9999991 C18.8447402,10.9548091 18.9905277,11.6163543 19,12.5999991 C19.0488427,14.3335826 18.9038651,15.1633627 17,14.9999991 L17,14.9999991 Z" id="Imported-Layers" fill="#FFFFFF"></path>
                </g>
            </g>
        </g>
    </g>
</svg>