<?xml version="1.0" encoding="UTF-8" standalone="no"?>
<svg width="32px" height="32px" viewBox="0 0 32 32" version="1.1" xmlns="http://www.w3.org/2000/svg" xmlns:xlink="http://www.w3.org/1999/xlink" xmlns:sketch="http://www.bohemiancoding.com/sketch/ns">
    <!-- Generator: Sketch 3.3.3 (12072) - http://www.bohemiancoding.com/sketch -->
    <title>ie copy 3</title>
    <desc>Created with Sketch.</desc>
    <defs></defs>
    <g id="v2" stroke="none" stroke-width="1" fill="none" fill-rule="evenodd" sketch:type="MSPage">
        <g id="Artboard-4" sketch:type="MSArtboardGroup" transform="translate(-335.000000, -1282.000000)">
            <g id="pic-copy-2" sketch:type="MSLayerGroup" transform="translate(24.000000, 1282.000000)">
                <g id="ie-copy-3" transform="translate(311.000000, 0.000000)" sketch:type="MSShapeGroup">
                    <rect id="Rectangle-873-Copy" fill="#5CBAEF" x="0" y="0" width="32" height="32" rx="4"></rect>
                    <path d="M1,4.0042577 L1,4.0042577 L1,27.9957423 C1,29.6572516 2.34361515,31 4.0042577,31 L27.9957423,31 C29.6572516,31 31,29.6563848 31,27.9957423 L31,4.0042577 C31,2.34274837 29.6563848,1 27.9957423,1 L4.0042577,1 C2.34274837,1 1,2.34361515 1,4.0042577 L1,4.0042577 Z M0,4.0042577 C0,1.79276724 1.78902751,0 4.0042577,0 L27.9957423,0 C30.2072328,0 32,1.78902751 32,4.0042577 L32,27.9957423 C32,30.2072328 30.2109725,32 27.9957423,32 L4.0042577,32 C1.79276724,32 0,30.2109725 0,27.9957423 L0,4.0042577 L0,4.0042577 Z" id="Shape-Copy-5" fill-opacity="0.05" fill="#000000"></path>
                    <path d="M22.3573825,9.72727273 L19.7710189,9.72727273 C19.6755643,9.72727273 19.5964734,9.79363636 19.5964734,9.87363636 L19.5964734,11.4590909 C19.5964734,11.5390909 19.6755643,11.6054545 19.7710189,11.6054545 L21.6173825,11.6054545 C21.7264734,11.6054545 21.8092007,11.69 21.7892007,11.7809091 L20.0737462,18.9181818 L19.5482916,18.9181818 L17.3782916,9.84545455 C17.3628371,9.77727273 17.2910189,9.72727273 17.2073825,9.72727273 L14.0737462,9.72727273 C13.991928,9.72727273 13.9201098,9.77454545 13.9037462,9.84272727 L11.4655643,18.9181818 L10.9928371,18.9181818 L9.09829161,9.84909091 C9.08465524,9.77818182 9.01101888,9.72727273 8.92738251,9.72727273 L6.17465524,9.72727273 C6.06465524,9.72727273 5.98101888,9.81181818 6.00374615,9.90454545 L9.34829161,23.2681818 C9.36465524,23.3372727 9.43647342,23.3863636 9.5192007,23.3863636 L12.6546552,23.3863636 C12.7355643,23.3863636 12.8064734,23.3372727 12.8246552,23.2690909 L15.3501098,13.6063636 C15.3901098,13.45 15.6555643,13.4509091 15.6910189,13.6090909 L18.0064734,23.2672727 C18.0228371,23.3354545 18.0946552,23.3863636 18.1773825,23.3863636 L21.2346552,23.3863636 C21.3164734,23.3863636 21.3882916,23.3372727 21.4046552,23.2690909 L25.0973825,9.90545455 C25.1210189,9.81363636 25.0382916,9.72727273 24.9282916,9.72727273 L22.3573825,9.72727273" id="Imported-Layers" fill="#FFFFFF"></path>
                </g>
            </g>
        </g>
    </g>
</svg>