<?xml version="1.0" encoding="UTF-8" standalone="no"?>
<svg width="24px" height="26px" viewBox="0 0 24 26" version="1.1" xmlns="http://www.w3.org/2000/svg" xmlns:xlink="http://www.w3.org/1999/xlink" xmlns:sketch="http://www.bohemiancoding.com/sketch/ns">
    <!-- Generator: Sketch 3.3.3 (12072) - http://www.bohemiancoding.com/sketch -->
    <title>note</title>
    <desc>Created with Sketch.</desc>
    <defs>
        <linearGradient x1="50%" y1="0%" x2="50%" y2="100%" id="linearGradient-1">
            <stop stop-color="#FFFFFF" stop-opacity="0.1" offset="1.95711097%"></stop>
            <stop stop-color="#FFFFFF" stop-opacity="0" offset="100%"></stop>
        </linearGradient>
        <path id="path-2" d="M0,1.99700466 C0,0.89408944 0.892622799,0 1.99508929,0 L18,0 L24,6 L24,24.0092049 C24,25.1086907 23.1029738,26 21.9950534,26 L2.00494659,26 C0.897645164,26 0,25.1050211 0,24.0029953 L0,1.99700466 Z"></path>
    </defs>
    <g id="Page-1" stroke="none" stroke-width="1" fill="none" fill-rule="evenodd" sketch:type="MSPage">
        <g id="note" sketch:type="MSLayerGroup">
            <g id="Rectangle-377">
                <use fill="#5C9DF4" sketch:type="MSShapeGroup" xlink:href="#path-2"></use>
            </g>
            <path d="M1,24.0029953 C1,24.5522223 1.44942024,25 2.00494659,25 L21.9950534,25 C22.5520073,25 23,24.5550745 23,24.0092049 L23.0223278,6.43750628 L17.5671387,1 L1.99271477,1 C1.44458458,1 1,1.44563565 1,1.99700466 L1,24.0029953 Z M2,0 L18,0 L24,6 L24,24 C24,25.1086907 23.1029738,26 22,26 L2,26 C0.897645164,26 0,25.1050211 0,24 L0,2 C0,0.89408944 0.891560412,0 2,0 Z" id="Shape" fill-opacity="0.05" fill="#000000" sketch:type="MSShapeGroup"></path>
            <path d="M18.5976562,3 L24.0047607,6.04736328 L24.0047607,11.0029907 L18.5976562,5 L18.5976562,3 Z" id="Rectangle-1374" fill-opacity="0.1" fill="#000000" sketch:type="MSShapeGroup"></path>
            <path d="M18,0 L24,6 L19.9979131,6 C18.8944962,6 18,5.10173938 18,4.00208688 L18,0 Z" id="Rectangle-378" fill="#9DCDFF" sketch:type="MSShapeGroup"></path>
            <g id="Imported-Layers-Copy" transform="translate(6.428571, 7.000000)" sketch:type="MSShapeGroup">
                <path d="M10.9047904,4.36816267 L6.85537852,0.311593326 C6.54882795,0.0044734098 6.16086131,0.0044734098 5.85439208,0.311593326 L0.742098019,5.43381022 C0.504112617,5.64170177 0.35315537,5.947439 0.35315537,6.28855683 L0.0319645464,10.3330886 C0.0319645464,10.9589593 0.216838373,11.1444838 0.841489051,11.1444838 L4.99232534,10.822805 C5.13124505,10.822805 5.26406465,10.7974286 5.38736809,10.7514745 C5.51522628,10.7169885 5.63641502,10.6498874 5.7368634,10.5493577 L10.9047904,5.37118248 C11.211341,5.06406257 11.211341,4.67520125 10.9047904,4.36816267" id="Fill-1" fill="#FFFFFF"></path>
                <path d="M8.87402503,2.33381856 L0.221637122,10.9862065 L0.175764338,10.9390323 C0.29719708,11.0860042 0.505576642,11.1396038 0.841489051,11.1396038 L4.99232534,10.8177623 C5.13124505,10.8177623 5.26406465,10.7925485 5.38720542,10.746513 C5.51522628,10.7120271 5.63641502,10.6450073 5.7368634,10.5442336 L10.9047904,5.36605839 C11.0573743,5.21323045 11.1339917,5.04023149 11.1347237,4.8671512 C11.1339917,4.69398957 11.0573743,4.52099062 10.9047904,4.36816267 L8.87402503,2.33381856" id="Fill-3" fill="#D9ECFF"></path>
            </g>
        </g>
    </g>
</svg>