<?xml version="1.0" encoding="UTF-8" standalone="no"?>
<svg width="30px" height="34px" viewBox="0 0 30 34" version="1.1" xmlns="http://www.w3.org/2000/svg" xmlns:xlink="http://www.w3.org/1999/xlink" xmlns:sketch="http://www.bohemiancoding.com/sketch/ns">
    <!-- Generator: Sketch 3.3.3 (12072) - http://www.bohemiancoding.com/sketch -->
    <title>word</title>
    <desc>Created with Sketch.</desc>
    <defs>
        <path id="path-2" d="M0,1.9999204 C0,0.895394863 0.888622476,0 2.00829841,0 L21.973999,0 L30,8.02453613 L30,32.0048799 C30,33.1067543 29.1021596,34 28.008383,34 L1.99161703,34 C0.891677316,34 0,33.1080589 0,32.0000796 L0,1.9999204 Z"></path>
    </defs>
    <g id="Page-1" stroke="none" stroke-width="1" fill="none" fill-rule="evenodd" sketch:type="MSPage">
        <g id="word" sketch:type="MSLayerGroup">
            <g id="Rectangle-377-Copy">
                <use fill="#5BBAEF" sketch:type="MSShapeGroup" xlink:href="#path-2"></use>
            </g>
            <path d="M1,32.0000796 C1,32.5552444 1.44343804,33 1.99161703,33 L28.008383,33 C28.5518766,33 29,32.5516228 29,32.0029953 C29,32.0029953 29.0889861,8.50299581 28.9872092,8.40111714 C26.4249846,5.83632915 21.7328491,1 21.5952759,1 C15.0608101,1 1.99187866,1 1.99187866,1 C1.44394691,1 1,1.44601721 1,1.9999204 L1,32.0000796 Z M0,1.9999204 C0,0.895394863 0.889997288,0 1.99187866,0 L22.0079956,0 L30,8 L30,32.0029953 C30,33.1059106 29.1021596,34 28.008383,34 L1.99161703,34 C0.891677316,34 0,33.1080589 0,32.0000796 L0,1.9999204 L0,1.9999204 Z" id="Shape" fill-opacity="0.05" fill="#000000" sketch:type="MSShapeGroup"></path>
            <path d="M23,7 L29,7 L30,8 L30,14 L23,7 L23,7 Z" id="Rectangle-1376-Copy-13" fill-opacity="0.1" fill="#000000" sketch:type="MSShapeGroup"></path>
            <path d="M22,0 L30,8 L24,8 C22.8945804,8.00052157 22,7.11413354 22,6 L22,0 L22,0 Z" id="Rectangle-378-Copy-3" fill="#8AD5FF" sketch:type="MSShapeGroup"></path>
            <path d="M18.6903748,11 C18.6005291,11 18.526058,11.0626998 18.526058,11.1386122 L18.526058,12.8038806 C18.526058,12.879793 18.6005291,12.9424928 18.6903748,12.9424928 L20.5516702,12.9424928 C20.6544882,12.9424928 20.7325627,13.0217685 20.7133444,13.1077705 L19.2827798,19.7140719 L18.7864664,19.7140719 L16.7382728,11.112187 C16.7240992,11.0475654 16.6563546,11 16.5768388,11 L13.6193778,11 C13.5425045,11 13.4747599,11.0451631 13.459145,11.109064 L11.1584705,19.7140719 L10.7116443,19.7140719 L8.92433947,11.1155502 C8.9113671,11.0485263 8.84218111,11 8.76266526,11 L6.16482732,11 C6.06080811,11 5.98249341,11.0804768 6.00339334,11.1674397 L9.16000426,23.8890141 C9.17561916,23.953876 9.24336377,24 9.32167847,24 L12.2801004,24 C12.3572139,24 12.4237574,23.953876 12.4405734,23.8899751 L14.8246074,14.7009702 C14.8623234,14.5534695 15.1126422,14.5544304 15.1462742,14.7031322 L17.3311583,23.887813 C17.3467732,23.9526749 17.4145178,24 17.4928325,24 L20.3782247,24 C20.4553383,24 20.5228427,23.953876 20.5386978,23.8899751 L23.836083,11.1684006 C23.8581841,11.0816779 23.7798694,11 23.6758501,11 L18.6903748,11 Z" id="Imported-Layers" fill="#FFFFFF" sketch:type="MSShapeGroup"></path>
        </g>
    </g>
</svg>