<?xml version="1.0" encoding="UTF-8" standalone="no"?>
<svg width="30px" height="34px" viewBox="0 0 30 34" version="1.1" xmlns="http://www.w3.org/2000/svg" xmlns:xlink="http://www.w3.org/1999/xlink" xmlns:sketch="http://www.bohemiancoding.com/sketch/ns">
    <!-- Generator: Sketch 3.3.3 (12072) - http://www.bohemiancoding.com/sketch -->
    <title>pdf</title>
    <desc>Created with Sketch.</desc>
    <defs></defs>
    <g id="Page-1" stroke="none" stroke-width="1" fill="none" fill-rule="evenodd" sketch:type="MSPage">
        <path d="M0,1.9999204 C0,0.895394863 0.892280415,0 1.99698846,0 L22.0644531,0 L30,8 L30,32.0029953 C30,33.1059106 29.1021596,34 28.008383,34 L1.99161703,34 C0.891677316,34 0,33.1080589 0,32.0000796 L0,1.9999204 L0,1.9999204 Z" id="path-2" fill="#FA5C47" sketch:type="MSShapeGroup"></path>
        <path d="M1,32.0000796 C1,32.5552444 1.44343804,33 1.99161703,33 L28.008383,33 C28.5518766,33 29,32.5516228 29,32.0029953 C29,32.0029953 29.0889861,8.50299581 28.9872092,8.40111714 C26.4249846,5.83632915 21.7328491,1 21.5952759,1 C15.0608101,1 1.99187866,1 1.99187866,1 C1.44394691,1 1,1.44601721 1,1.9999204 L1,32.0000796 Z M0,1.9999204 C0,0.895394863 0.889997288,0 1.99187866,0 L22.0079956,0 L30,8 L30,32.0029953 C30,33.1059106 29.1021596,34 28.008383,34 L1.99161703,34 C0.891677316,34 0,33.1080589 0,32.0000796 L0,1.9999204 L0,1.9999204 Z" id="Shape" fill-opacity="0.05" fill="#000000" sketch:type="MSShapeGroup"></path>
        <path d="M23,7 L29,7 L30,8 L30,14 L23,7 L23,7 Z" id="Rectangle-1376-Copy-13" fill-opacity="0.1" fill="#000000" sketch:type="MSShapeGroup"></path>
        <path d="M22,0 L30,8 L24,8 C22.8945804,8.00052157 22,7.11413354 22,6 L22,0 L22,0 Z" id="Rectangle-378-Copy-3" fill="#FE9D8F" sketch:type="MSShapeGroup"></path>
        <path d="M22.3370531,18.6746373 C21.9826755,18.0511635 21.4002394,17.6700687 20.6972551,17.6001763 C19.922241,17.526223 18.8383756,17.605306 17.3199808,17.8372118 C17.1085939,17.6424965 16.901268,17.4518422 16.7022779,17.2710198 C15.6611601,16.3288626 14.7437965,14.967779 14.5193716,14.6268669 C14.8049256,11.9382564 14.6734767,11.1189986 14.5050512,10.676561 C14.1042924,9.62667985 13.3294921,9 12.4324337,9 C11.7427011,9 11.0980673,9.38964439 10.7496743,10.0184616 C10.3476331,10.7421785 10.3908082,11.6505651 10.8685126,12.5078682 C11.1213647,12.9620615 11.4590708,13.331187 11.8865468,13.7982046 C12.1915509,14.1316359 12.5619589,14.5347458 12.9990531,15.0778541 C12.9400614,15.5827033 12.876795,16.0685297 12.8214368,16.4951508 C12.6831484,17.5514441 12.4971963,18.3621523 12.3011985,19.2205242 L12.2823896,19.3019584 C12.1259334,19.3709958 11.9656299,19.4387507 11.8029752,19.5075743 C10.9339165,19.8747762 9.94794298,20.2917791 9.17784496,21.0178471 C7.7447316,22.3663202 7.9550498,23.4959256 8.11171976,23.9191269 C8.35922838,24.5859895 8.96816797,25 9.70000692,25 C10.4337695,25 11.1812114,24.5755163 11.7506094,23.8334179 C12.2033065,23.2447835 13.0041828,22.0478506 13.5019787,20.4125411 C14.4060905,20.0483315 15.8439061,19.6270539 16.5220968,19.5075743 L16.8636501,19.4492239 L17.0910673,19.6610382 C17.8115782,20.3330305 18.518196,20.9915573 19.0384344,21.43485 C19.4616356,21.7947848 19.9974768,21.9929199 20.5489209,21.9929199 L20.5495621,21.9929199 C21.4164835,21.9929199 22.1808106,21.5038874 22.4969291,20.747896 C22.7585444,20.1201475 22.6959192,19.3075156 22.3370531,18.6746373 L22.3370531,18.6746373 L22.3370531,18.6746373 Z M10.7913364,22.6787368 C10.5085995,23.0454737 10.1734416,23.2654737 9.89470478,23.2654737 C9.84017848,23.2654737 9.70838898,23.2549474 9.67217845,23.1568421 C9.60796792,22.9850526 9.73470477,22.52 10.3454416,21.9446316 C10.7393364,21.5734737 11.2467048,21.296 11.7801785,21.0501053 C11.4281785,21.7913684 11.0452311,22.3482105 10.7913364,22.6787368 L10.7913364,22.6787368 L10.7913364,22.6787368 Z M13.3351258,12.9637895 C13.2490206,12.8690526 13.1677574,12.7804211 13.0900732,12.696 C12.7210206,12.2924211 12.4536522,12.0006316 12.2902837,11.7065263 C12.0841785,11.3362105 12.0418627,10.9882105 12.1738627,10.7494737 C12.2610206,10.592 12.4191258,10.4941053 12.5860732,10.4941053 C12.8622837,10.4941053 13.1193364,10.7526316 13.2904943,11.2021053 C13.3281785,11.3 13.4155469,11.6774737 13.3351258,12.9637895 L13.3351258,12.9637895 L13.3351258,12.9637895 Z M14.076389,18.5018947 L14.1079679,18.3694737 L14.084389,18.3812632 C14.1932311,17.8629474 14.2959679,17.3061053 14.3818627,16.6722105 C14.7292311,17.1132632 15.1494416,17.6044211 15.6067048,18.0484211 C15.1395469,18.1694737 14.5932311,18.3298947 14.076389,18.5018947 L14.076389,18.5018947 L14.076389,18.5018947 Z M21.180389,19.9762105 C21.0972311,20.1743158 20.8618627,20.3035789 20.5812311,20.3035789 C20.3692311,20.3035789 20.1639679,20.2275789 20.0035469,20.0907368 C19.6707048,19.8084211 19.2589153,19.4330526 18.8165995,19.0231579 C19.5698627,18.9410526 20.1500732,18.9136842 20.5911258,18.9597895 C20.8229153,18.9814737 20.9902837,19.0901053 21.1031258,19.2890526 C21.2395469,19.5288421 21.24481,19.8218947 21.180389,19.9762105 L21.180389,19.9762105 L21.180389,19.9762105 Z" id="Imported-Layers-Copy-10" fill="#FFFFFF" sketch:type="MSShapeGroup"></path>
    </g>
</svg>