<?xml version="1.0" encoding="UTF-8" standalone="no"?>
<svg width="24px" height="26px" viewBox="0 0 24 26" version="1.1" xmlns="http://www.w3.org/2000/svg" xmlns:xlink="http://www.w3.org/1999/xlink" xmlns:sketch="http://www.bohemiancoding.com/sketch/ns">
    <!-- Generator: Sketch 3.3.3 (12072) - http://www.bohemiancoding.com/sketch -->
    <title>Rectangle 377</title>
    <desc>Created with Sketch.</desc>
    <defs>
        <linearGradient x1="50%" y1="0%" x2="50%" y2="100%" id="linearGradient-1">
            <stop stop-color="#FFFFFF" stop-opacity="0.1" offset="1.95711097%"></stop>
            <stop stop-color="#FFFFFF" stop-opacity="0" offset="100%"></stop>
        </linearGradient>
        <path id="path-2" d="M0,1.99700466 C0,0.89408944 0.892622799,0 1.99508929,0 L18,0 L24,6 L24,24.0092049 C24,25.1086907 23.1029738,26 21.9950534,26 L2.00494659,26 C0.897645164,26 0,25.1050211 0,24.0029953 L0,1.99700466 Z"></path>
    </defs>
    <g id="Page-1" stroke="none" stroke-width="1" fill="none" fill-rule="evenodd" sketch:type="MSPage">
        <g id="?" sketch:type="MSLayerGroup">
            <g id="Rectangle-377">
                <use fill="#B6BCBF" sketch:type="MSShapeGroup" xlink:href="#path-2"></use>
            </g>
            <path d="M1,24.0029953 C1,24.5522223 1.44942024,25 2.00494659,25 L21.9950534,25 C22.5520073,25 23,24.5550745 23,24.0092049 L23.0223278,6.43750628 L17.5671387,1 L1.99271477,1 C1.44458458,1 1,1.44563565 1,1.99700466 L1,24.0029953 Z M2,0 L18,0 L24,6 L24,24 C24,25.1086907 23.1029738,26 22,26 L2,26 C0.897645164,26 0,25.1050211 0,24 L0,2 C0,0.89408944 0.891560412,0 2,0 Z" id="Shape" fill-opacity="0.05" fill="#000000" sketch:type="MSShapeGroup"></path>
            <path d="M19,3 L24,6.04736328 L24,11.0029907 L19,5 L19,3 Z" id="Rectangle-1374" fill-opacity="0.1" fill="#000000" sketch:type="MSShapeGroup"></path>
            <path d="M18,0 L24,6 L19.9979131,6 C18.8944962,6 18,5.10173938 18,4.00208688 L18,0 Z" id="Rectangle-378" fill="#E3E5E5" sketch:type="MSShapeGroup"></path>
            <path d="M12.3139419,19.9771831 L11.1862175,19.9771831 C10.907027,19.9771831 10.6796433,19.7748732 10.6796433,19.5242254 L10.6796433,18.38 C10.6796433,18.1295211 10.907027,17.9270423 11.1862175,17.9270423 L12.3139419,17.9270423 C12.5933091,17.9270423 12.8205161,18.1295211 12.8205161,18.38 L12.8205161,19.5242254 C12.8205161,19.7748732 12.5933091,19.9771831 12.3139419,19.9771831 L12.3139419,19.9771831 Z M8.50729745,11.2848273 C8.20848055,11.2848273 7.97844458,11.02639 8.00160731,10.7295541 C8.04722551,10.1332471 8.14040687,9.59039685 8.28097459,9.24104526 C8.46167925,8.79174448 8.75077134,8.38874785 9.14895812,8.03487879 C9.54643764,7.68100972 9.98935855,7.41993717 10.4771904,7.25147291 C10.9657295,7.08300865 11.4802604,7 12.022728,7 C13.1198634,7 14.033642,7.32092913 14.7621187,7.96354029 C15.4907722,8.60539854 15.8567787,9.46033114 15.8567787,10.5298439 C15.8567787,11.0094494 15.7627133,11.4444449 15.5756433,11.8348302 C15.3887501,12.2252156 14.9912706,12.7112208 14.3826743,13.2932225 C13.7740779,13.8761653 13.3697026,14.289891 13.171847,14.5366582 C12.9722231,14.7819196 12.8210465,15.075932 12.7190244,15.4183192 C12.6465304,15.659816 12.6026803,15.9611694 12.5874743,16.3203088 C12.5758045,16.5860871 12.3503657,16.796338 12.0826682,16.796338 L11.5126175,16.796338 C11.2189282,16.796338 10.9908372,16.5448651 11.0060433,16.2525467 C11.0283219,15.8275273 11.0776532,15.471776 11.1554517,15.1837868 C11.2638392,14.7819196 11.4258015,14.4314386 11.6441677,14.1310263 C11.8607657,13.8315552 12.2518799,13.3903483 12.8182175,12.8074055 C13.3849087,12.2252156 13.7500311,11.8018903 13.9128775,11.5379943 C14.0748398,11.2742866 14.1563514,10.8801367 14.1563514,10.3579916 C14.1563514,9.83547 13.9692814,9.37374616 13.5960255,8.97169067 C13.2218855,8.56888226 12.6804788,8.3684192 11.9689763,8.3684192 C10.4994691,8.3684192 9.70291868,9.23652778 9.58038607,10.8302562 C9.56075964,11.0913287 9.32789463,11.2848273 9.06585519,11.2848273 L8.50729745,11.2848273 L8.50729745,11.2848273 Z" id="Imported-Layers-Copy-11" fill="#FFFFFF" sketch:type="MSShapeGroup"></path>
        </g>
    </g>
</svg>