<?xml version="1.0" encoding="UTF-8" standalone="no"?>
<svg width="24px" height="26px" viewBox="0 0 24 26" version="1.1" xmlns="http://www.w3.org/2000/svg" xmlns:xlink="http://www.w3.org/1999/xlink" xmlns:sketch="http://www.bohemiancoding.com/sketch/ns">
    <!-- Generator: Sketch 3.3.3 (12072) - http://www.bohemiancoding.com/sketch -->
    <title>word</title>
    <desc>Created with Sketch.</desc>
    <defs>
        <path id="path-2" d="M0,1.99700466 C0,0.89408944 0.892622799,0 1.99508929,0 L18,0 L24,6 L24,24.0092049 C24,25.1086907 23.1029738,26 21.9950534,26 L2.00494659,26 C0.897645164,26 0,25.1050211 0,24.0029953 L0,1.99700466 Z"></path>
    </defs>
    <g id="Page-1" stroke="none" stroke-width="1" fill="none" fill-rule="evenodd" sketch:type="MSPage">
        <g id="word" sketch:type="MSLayerGroup">
            <g id="Rectangle-377">
                <use fill="#69BFF0" sketch:type="MSShapeGroup" xlink:href="#path-2"></use>
            </g>
            <path d="M1,24.0029953 C1,24.5522223 1.44942024,25 2.00494659,25 L21.9950534,25 C22.5520073,25 23,24.5550745 23,24.0092049 L23.0223278,6.43750628 L17.5671387,1 L1.99271477,1 C1.44458458,1 1,1.44563565 1,1.99700466 L1,24.0029953 Z M2,0 L18,0 L24,6 L24,24 C24,25.1086907 23.1029738,26 22,26 L2,26 C0.897645164,26 0,25.1050211 0,24 L0,2 C0,0.89408944 0.891560412,0 2,0 Z" id="Shape" fill-opacity="0.05" fill="#000000" sketch:type="MSShapeGroup"></path>
            <path d="M19,3 L24,6.04736328 L24,11.0029907 L19,5 L19,3 Z" id="Rectangle-1374" fill-opacity="0.1" fill="#000000" sketch:type="MSShapeGroup"></path>
            <path d="M18,0 L24,6 L19.9979131,6 C18.8944962,6 18,5.10173938 18,4.00208688 L18,0 Z" id="Rectangle-378" fill="#8AD5FF" sketch:type="MSShapeGroup"></path>
            <path d="M15.0309446,8 L14.7272727,10 L16.7272727,10 L15.536865,15.020813 L14.9137571,15.020813 L13.4970701,8 L10.8410433,8 L9.21221946,15.020813 L8.50561521,15.020813 L7.04852293,8 L4.72727273,8 L7.45454545,18 L10.1818182,18 L12,10.7272727 L13.8181818,18 L16.5454545,18 L19.1411852,8.48232079 C19.2138339,8.21594237 19.0446706,8 18.7694819,8 L15.0309446,8 Z" id="Imported-Layers" fill="#FFFFFF" sketch:type="MSShapeGroup"></path>
        </g>
    </g>
</svg>