<?xml version="1.0" encoding="UTF-8" standalone="no"?>
<svg width="24px" height="26px" viewBox="0 0 24 26" version="1.1" xmlns="http://www.w3.org/2000/svg" xmlns:xlink="http://www.w3.org/1999/xlink" xmlns:sketch="http://www.bohemiancoding.com/sketch/ns">
    <!-- Generator: Sketch 3.3.3 (12072) - http://www.bohemiancoding.com/sketch -->
    <title>flash</title>
    <desc>Created with Sketch.</desc>
    <defs>
        <path id="path-2" d="M0,1.99700466 C0,0.89408944 0.892622799,0 1.99508929,0 L18,0 L24,6 L24,24.0092049 C24,25.1086907 23.1029738,26 21.9950534,26 L2.00494659,26 C0.897645164,26 0,25.1050211 0,24.0029953 L0,1.99700466 Z"></path>
    </defs>
    <g id="Page-1" stroke="none" stroke-width="1" fill="none" fill-rule="evenodd" sketch:type="MSPage">
        <g id="flash" sketch:type="MSLayerGroup">
            <g id="Rectangle-377">
                <use fill="#FA6262" sketch:type="MSShapeGroup" xlink:href="#path-2"></use>
            </g>
            <path d="M1,24.0029953 C1,24.5522223 1.44942024,25 2.00494659,25 L21.9950534,25 C22.5520073,25 23,24.5550745 23,24.0092049 L23.0223278,6.43750628 L17.5671387,1 L1.99271477,1 C1.44458458,1 1,1.44563565 1,1.99700466 L1,24.0029953 Z M2,0 L18,0 L24,6 L24,24 C24,25.1086907 23.1029738,26 22,26 L2,26 C0.897645164,26 0,25.1050211 0,24 L0,2 C0,0.89408944 0.891560412,0 2,0 Z" id="Shape" fill-opacity="0.05" fill="#000000" sketch:type="MSShapeGroup"></path>
            <path d="M19,3 L24,6.04736328 L24,11.0029907 L19,5 L19,3 Z" id="Rectangle-1374" fill-opacity="0.1" fill="#000000" sketch:type="MSShapeGroup"></path>
            <path d="M18,0 L24,6 L19.9979131,6 C18.8944962,6 18,5.10173938 18,4.00208688 L18,0 Z" id="Rectangle-378" fill="#FAA1AF" sketch:type="MSShapeGroup"></path>
            <path d="M6.94628906,17.963041 L6.94628906,20.0344238 C11.1116837,19.7697336 12.6196986,18.0696349 13.3854562,15.0508486 L16.8092273,15.0508486 L16.8092273,12.9869243 L13.7594435,12.9869243 C14.3003732,9.60683407 17.9980469,9.1341029 17.9980469,9.07668976 L17.9980469,7.00634766 C17.0081872,7.07260693 12.1130646,8.3512035 11.5623361,12.9740887 C11.0328384,17.4070422 8.92600833,17.8501227 6.94628906,17.963041 Z" id="Imported-Layers-Copy-2" fill="#FFFFFF" sketch:type="MSShapeGroup"></path>
        </g>
    </g>
</svg>