<?xml version="1.0" encoding="UTF-8" standalone="no"?>
<svg width="26px" height="26px" viewBox="0 0 26 26" version="1.1" xmlns="http://www.w3.org/2000/svg" xmlns:xlink="http://www.w3.org/1999/xlink" xmlns:sketch="http://www.bohemiancoding.com/sketch/ns">
    <!-- Generator: Sketch 3.3.3 (12072) - http://www.bohemiancoding.com/sketch -->
    <title>文件夹 列表</title>
    <desc>Created with Sketch.</desc>
    <defs></defs>
    <g id="v2" stroke="none" stroke-width="1" fill="none" fill-rule="evenodd" sketch:type="MSPage">
        <g id="协作icons" sketch:type="MSArtboardGroup" transform="translate(-163.000000, -477.000000)">
            <g id="Rectangle-1452-+-Rectangle-1454-+-Rectangle-1452-Copy" sketch:type="MSLayerGroup" transform="translate(164.000000, 480.000000)">
                <path d="M0,0.99180311 C0,0.444045377 0.440694351,0 1.0050858,0 L7.19169155,0 C7.74678511,0 8.51167898,0.3213346 8.89330487,0.71075654 L10.1567383,2 L23.0044268,2 C23.5542667,2 24,2.44494629 24,2.99339768 L24,19.0066023 C24,19.5552407 23.5525308,20 22.9993054,20 L1.00069463,20 C0.448026248,20 0,19.5446944 0,19.0081969 L0,0.99180311 Z" id="Rectangle-1452" fill="#F7CF58" sketch:type="MSShapeGroup"></path>
                <path d="M1,19.0081969 C1,18.9960492 22.9993054,19 22.9993054,19 C23.0015999,19 23,2.99339768 23,2.99339768 C23,2.99762759 10.1567383,3 10.1567383,3 L9.73658957,3 L9.44251847,2.69992147 L8.17908506,1.41067801 C7.98485535,1.21248048 7.47706626,1 7.19169155,1 L1.0050858,1 C0.99465316,1 1,19.0081969 1,19.0081969 Z M1.0050858,0 L7.19169155,0 C7.74678511,0 8.51167898,0.3213346 8.89330487,0.71075654 L10.1567383,2 L23.0044268,2 C23.5542667,2 24,2.44494629 24,2.99339768 L24,19.0066023 C24,19.5552407 23.5525308,20 22.9993054,20 L1.00069463,20 C0.448026248,20 0,19.5446944 0,19.0081969 L0,0.99180311 C0,0.444045377 0.440694351,0 1.0050858,0 Z" id="Shape" fill="#E3A427" sketch:type="MSShapeGroup"></path>
                <rect id="Rectangle-1454" fill="#FFFFFF" sketch:type="MSShapeGroup" x="2" y="2" width="9" height="4"></rect>
                <path d="M0,5.00087166 C0,4.4481055 0.440694351,4 1.0050858,4 L7.19169155,4 C7.74678511,4 8.51167898,3.6786654 8.89330487,3.28924346 L10.1567383,2 L23.0044268,2 C23.5542667,2 24,2.44494629 24,2.99339768 L24,19.0066023 C24,19.5552407 23.5525308,20 22.9993054,20 L1.00069463,20 C0.448026248,20 0,19.5553691 0,18.9991283 L0,5.00087166 Z" id="Rectangle-1452-Copy" fill="#F7D57B" sketch:type="MSShapeGroup"></path>
                <path d="M1,18.9991283 C1,19.0013859 22.9993054,19 22.9993054,19 C23.0015999,19 23,2.99339768 23,2.99339768 C23,2.99762759 10.45166,3 10.45166,3 L9.60752468,3.98916493 C9.03639194,4.57196505 8.01346748,5 7.19169155,5 L1.0050858,5 C0.996685396,5 1,18.9991283 1,18.9991283 Z M0,5.00087166 C0,4.4481055 0.440694351,4 1.0050858,4 L7.19169155,4 C7.74678511,4 8.51167898,3.6786654 8.89330487,3.28924346 L10.1567383,2 L23.0044268,2 C23.5542667,2 24,2.44494629 24,2.99339768 L24,19.0066023 C24,19.5552407 23.5525308,20 22.9993054,20 L1.00069463,20 C0.448026248,20 0,19.5553691 0,18.9991283 L0,5.00087166 L0,5.00087166 Z" id="Shape" fill="#E3A427" sketch:type="MSShapeGroup"></path>
            </g>
        </g>
    </g>
</svg>