<?xml version="1.0" encoding="UTF-8" standalone="no"?>
<svg width="30px" height="34px" viewBox="0 0 30 34" version="1.1" xmlns="http://www.w3.org/2000/svg" xmlns:xlink="http://www.w3.org/1999/xlink" xmlns:sketch="http://www.bohemiancoding.com/sketch/ns">
    <!-- Generator: Sketch 3.3.3 (12072) - http://www.bohemiancoding.com/sketch -->
    <title>？灰</title>
    <desc>Created with Sketch.</desc>
    <defs>
        <linearGradient x1="50%" y1="0%" x2="50%" y2="100%" id="linearGradient-1">
            <stop stop-color="#FFFFFF" stop-opacity="0.1" offset="0%"></stop>
            <stop stop-color="#FFFFFF" stop-opacity="0" offset="100%"></stop>
        </linearGradient>
        <path id="path-2" d="M0,1.9999204 C0,0.895394863 0.889664075,0 1.9911329,0 L21.9997559,0 L30,8 L30,32.0029953 C30,33.1059106 29.1021596,34 28.008383,34 L1.99161703,34 C0.891677316,34 0,33.1080589 0,32.0000796 L0,1.9999204 Z"></path>
    </defs>
    <g id="Page-1" stroke="none" stroke-width="1" fill="none" fill-rule="evenodd" sketch:type="MSPage">
        <g id="？" sketch:type="MSLayerGroup">
            <g id="Rectangle-377">
                <use fill="#E2E4E9" sketch:type="MSShapeGroup" xlink:href="#path-2"></use>
            </g>
            <path d="M1,32.0000796 C1,32.5552444 1.44343804,33 1.99161703,33 L28.008383,33 C28.5518766,33 29,32.5516228 29,32.0029953 C29,32.0029953 29.0889861,8.50299581 28.9872092,8.40111714 C26.4249846,5.83632915 21.7328491,1 21.5952759,1 C15.0608101,1 1.99187866,1 1.99187866,1 C1.44394691,1 1,1.44601721 1,1.9999204 L1,32.0000796 Z M1.99187866,0 L22.0079956,0 L30,8 L30,32.0029953 C30,33.1059106 29.1021596,34 28.008383,34 L1.99161703,34 C0.891677316,34 0,33.1080589 0,32.0000796 L0,1.9999204 C0,0.895394863 0.889997288,0 1.99187866,0 Z" id="Shape" fill-opacity="0.05" fill="#000000" sketch:type="MSShapeGroup"></path>
            <path d="M23,7 L30,8 L30,15 L23,7 Z" id="Rectangle-1376-Copy-41" fill-opacity="0.1" fill="#000000" sketch:type="MSShapeGroup"></path>
            <path d="M22,0 L30,8.00762939 L23.9981014,8.00762939 C22.8945804,8.00762939 22,7.12007741 22,6.0076225 L22,0 Z" id="Rectangle-378-Copy-14" fill="#ECECEC" sketch:type="MSShapeGroup"></path>
            <path d="M14.8796181,24.173 L13.6040181,24.173 C13.2882181,24.173 13.0310181,23.9336 13.0310181,23.637 L13.0310181,22.283 C13.0310181,21.9866 13.2882181,21.747 13.6040181,21.747 L14.8796181,21.747 C15.1956181,21.747 15.4526181,21.9866 15.4526181,22.283 L15.4526181,23.637 C15.4526181,23.9336 15.1956181,24.173 14.8796181,24.173 L14.8796181,24.173 Z M10.5738181,14.5528 C10.2358181,14.5528 9.97561807,14.2782 10.0018181,13.9628 C10.0534181,13.3292 10.1588181,12.7524 10.3178181,12.3812 C10.5222181,11.9038 10.8492181,11.4756 11.2996181,11.0996 C11.7492181,10.7236 12.2502181,10.4462 12.8020181,10.2672 C13.3546181,10.0882 13.9366181,10 14.5502181,10 C15.7912181,10 16.8248181,10.341 17.6488181,11.0238 C18.4730181,11.7058 18.8870181,12.6142 18.8870181,13.7506 C18.8870181,14.2602 18.7806181,14.7224 18.5690181,15.1372 C18.3576181,15.552 17.9080181,16.0684 17.2196181,16.6868 C16.5312181,17.3062 16.0738181,17.7458 15.8500181,18.008 C15.6242181,18.2686 15.4532181,18.581 15.3378181,18.9448 C15.2558181,19.2014 15.2062181,19.5216 15.1890181,19.9032 C15.1758181,20.1856 14.9208181,20.409 14.6180181,20.409 L13.9732181,20.409 C13.6410181,20.409 13.3830181,20.1418 13.4002181,19.8312 C13.4254181,19.3796 13.4812181,19.0016 13.5692181,18.6956 C13.6918181,18.2686 13.8750181,17.8962 14.1220181,17.577 C14.3670181,17.2588 14.8094181,16.79 15.4500181,16.1706 C16.0910181,15.552 16.5040181,15.1022 16.6882181,14.8218 C16.8714181,14.5416 16.9636181,14.1228 16.9636181,13.568 C16.9636181,13.0128 16.7520181,12.5222 16.3298181,12.095 C15.9066181,11.667 15.2942181,11.454 14.4894181,11.454 C12.8272181,11.454 11.9262181,12.3764 11.7876181,14.0698 C11.7654181,14.3472 11.5020181,14.5528 11.2056181,14.5528 L10.5738181,14.5528 L10.5738181,14.5528 Z" id="Imported-Layers-Copy-11" fill="#FFFFFF" sketch:type="MSShapeGroup"></path>
        </g>
    </g>
</svg>