<?xml version="1.0" encoding="UTF-8" standalone="no"?>
<svg width="30px" height="34px" viewBox="0 0 30 34" version="1.1" xmlns="http://www.w3.org/2000/svg" xmlns:xlink="http://www.w3.org/1999/xlink" xmlns:sketch="http://www.bohemiancoding.com/sketch/ns">
    <!-- Generator: Sketch 3.3.3 (12072) - http://www.bohemiancoding.com/sketch -->
    <title>form</title>
    <desc>Created with Sketch.</desc>
    <defs>
        <path id="path-2" d="M0,1.9999204 C0,0.895394863 0.891762083,0 1.9958284,0 L22.0516357,0 L30,7.96240234 L30,32.0001075 C30,33.1046176 29.1021596,34 28.008383,34 L1.99161703,34 C0.891677316,34 0,33.1080589 0,32.0000796 L0,1.9999204 Z"></path>
    </defs>
    <g id="Page-1" stroke="none" stroke-width="1" fill="none" fill-rule="evenodd" sketch:type="MSPage">
        <g id="form" sketch:type="MSLayerGroup">
            <g id="Rectangle-377">
                <use fill="#E192B5" sketch:type="MSShapeGroup" xlink:href="#path-2"></use>
            </g>
            <path d="M1,32.0000796 C1,32.5552444 1.44343804,33 1.99161703,33 L28.008383,33 C28.5518766,33 29,32.5516228 29,32.0029953 C29,32.0029953 29.0889861,8.50299581 28.9872092,8.40111714 C26.4249846,5.83632915 21.7328491,1 21.5952759,1 C15.0608101,1 1.99187866,1 1.99187866,1 C1.44394691,1 1,1.44601721 1,1.9999204 L1,32.0000796 Z M0,1.9999204 C0,0.895394863 0.889997288,0 1.99187866,0 L22.0079956,0 L30,8 L30,32.0029953 C30,33.1059106 29.1021596,34 28.008383,34 L1.99161703,34 C0.891677316,34 0,33.1080589 0,32.0000796 L0,1.9999204 L0,1.9999204 Z" id="Shape" fill-opacity="0.05" fill="#000000" sketch:type="MSShapeGroup"></path>
            <path d="M23,7 L30,8 L30,14 L23,7 Z" id="Rectangle-1376-Copy-5" fill-opacity="0.1" fill="#000000" sketch:type="MSShapeGroup"></path>
            <path d="M22,0 L30,8 L23.9981014,8 C22.8945804,8 22,7.11329365 22,6.00189865 L22,0 Z" id="Rectangle-378" fill="#F3BDD4" sketch:type="MSShapeGroup"></path>
            <path d="M13,16 L9,16 L9,12 L21,12 L21,16 L21,16 L15,16 L15,12 L13,12 L13,16 Z M13,18 L9,18 L9,22 L21,22 L21,18 L21,18 L15,18 L15,22 L13,22 L13,18 Z M7,11.0068455 C7,10.4507801 7.44463086,10 8.00087166,10 L21.9991283,10 C22.5518945,10 23,10.4499488 23,11.0068455 L23,22.9931545 C23,23.5492199 22.5553691,24 21.9991283,24 L8.00087166,24 C7.4481055,24 7,23.5500512 7,22.9931545 L7,11.0068455 Z" id="Rectangle-433-Copy" fill="#FFFFFF" sketch:type="MSShapeGroup"></path>
        </g>
    </g>
</svg>