<?xml version="1.0" encoding="UTF-8" standalone="no"?>
<svg width="32px" height="32px" viewBox="0 0 32 32" version="1.1" xmlns="http://www.w3.org/2000/svg" xmlns:xlink="http://www.w3.org/1999/xlink" xmlns:sketch="http://www.bohemiancoding.com/sketch/ns">
    <!-- Generator: Sketch 3.3.3 (12072) - http://www.bohemiancoding.com/sketch -->
    <title>Rectangle 873 + Imported Layers</title>
    <desc>Created with Sketch.</desc>
    <g id="v2" stroke="none" stroke-width="1" fill="none" fill-rule="evenodd" sketch:type="MSPage">
        <g id="Artboard-4" sketch:type="MSArtboardGroup" transform="translate(-135.000000, -1282.000000)">
            <g id="pic-copy-2" sketch:type="MSLayerGroup" transform="translate(24.000000, 1282.000000)">
                <g id="Rectangle-873-+-Imported-Layers" transform="translate(111.000000, 0.000000)" sketch:type="MSShapeGroup">
                    <rect id="Rectangle-873" fill="#5C9DF4" x="0" y="0" width="32" height="32" rx="4"></rect>
                    <path d="M1,4.0042577 L1,4.0042577 L1,27.9957423 C1,29.6572516 2.34361515,31 4.0042577,31 L27.9957423,31 C29.6572516,31 31,29.6563848 31,27.9957423 L31,4.0042577 C31,2.34274837 29.6563848,1 27.9957423,1 L4.0042577,1 C2.34274837,1 1,2.34361515 1,4.0042577 L1,4.0042577 Z M0,4.0042577 C0,1.79276724 1.78902751,0 4.0042577,0 L27.9957423,0 C30.2072328,0 32,1.78902751 32,4.0042577 L32,27.9957423 C32,30.2072328 30.2109725,32 27.9957423,32 L4.0042577,32 C1.79276724,32 0,30.2109725 0,27.9957423 L0,4.0042577 L0,4.0042577 Z" id="Shape" fill-opacity="0.05" fill="#000000"></path>
                    <g id="Imported-Layers" transform="translate(9.000000, 7.854015)">
                        <path d="M15.6581606,6.27223358 L9.84362044,0.447416058 C9.40344526,0.00642335766 8.84636496,0.00642335766 8.40630657,0.447416058 L1.06557664,7.80239416 C0.723854015,8.10090511 0.507094891,8.53991241 0.507094891,9.02972263 L0.0458978102,14.8372555 C0.0458978102,15.7359416 0.311357664,16.0023358 1.20829197,16.0023358 L7.16846715,15.540438 C7.36794161,15.540438 7.55865693,15.504 7.73570803,15.4380146 C7.91929927,15.3884964 8.09331387,15.292146 8.23754745,15.1477956 L15.6581606,7.71246715 C16.0983358,7.27147445 16.0983358,6.71310949 15.6581606,6.27223358" id="Fill-1" fill="#FFFFFF"></path>
                        <path d="M12.7456934,3.34762044 L12.7421898,3.35112409 L15.6581606,6.27223358 C15.8772555,6.49167883 15.9872701,6.74008759 15.9883212,6.98872993 C15.9893723,6.73763504 15.8793577,6.48654015 15.6581606,6.26510949 L12.7456934,3.34762044" id="Fill-2" fill="#D9ECFF"></path>
                        <path d="M12.7421898,3.35112409 L0.318248175,15.7750657 L0.252379562,15.7073285 C0.426744526,15.918365 0.725956204,15.9953285 1.20829197,15.9953285 L7.16846715,15.5331971 C7.36794161,15.5331971 7.55865693,15.4969927 7.73547445,15.4308905 C7.91929927,15.3813723 8.09331387,15.2851387 8.23754745,15.140438 L15.6581606,7.70510949 C15.8772555,7.48566423 15.9872701,7.23725547 15.9883212,6.98872993 C15.9872701,6.74008759 15.8772555,6.49167883 15.6581606,6.27223358 L12.7421898,3.35112409" id="Fill-3" fill="#D9ECFF"></path>
                    </g>
                </g>
            </g>
        </g>
    </g>
</svg>