<?xml version="1.0" encoding="UTF-8" standalone="no"?>
<svg width="30px" height="34px" viewBox="0 0 30 34" version="1.1" xmlns="http://www.w3.org/2000/svg" xmlns:xlink="http://www.w3.org/1999/xlink" xmlns:sketch="http://www.bohemiancoding.com/sketch/ns">
    <!-- Generator: Sketch 3.3.3 (12072) - http://www.bohemiancoding.com/sketch -->
    <title>music</title>
    <desc>Created with Sketch.</desc>
    <defs>
        <path id="path-2" d="M0,1.9999204 C0,0.895394863 0.892917222,0 1.99841368,0 L22.0802002,0 L30,7.96240234 L30,32.0001075 C30,33.1046176 29.1021596,34 28.008383,34 L1.99161703,34 C0.891677316,34 0,33.1080589 0,32.0000796 L0,1.9999204 Z"></path>
    </defs>
    <g id="Page-1" stroke="none" stroke-width="1" fill="none" fill-rule="evenodd" sketch:type="MSPage">
        <g id="music" sketch:type="MSLayerGroup">
            <g id="Rectangle-377">
                <use fill="#F28F66" sketch:type="MSShapeGroup" xlink:href="#path-2"></use>
            </g>
            <path d="M1,32.0000796 C1,32.5552444 1.44343804,33 1.99161703,33 L28.008383,33 C28.5518766,33 29,32.5516228 29,32.0029953 C29,32.0029953 29.0889861,8.50299581 28.9872092,8.40111714 C26.4249846,5.83632915 21.7328491,1 21.5952759,1 C15.0608101,1 1.99187866,1 1.99187866,1 C1.44394691,1 1,1.44601721 1,1.9999204 L1,32.0000796 Z M0,1.9999204 C0,0.895394863 0.889997288,0 1.99187866,0 L22.0079956,0 L30,8 L30,32.0029953 C30,33.1059106 29.1021596,34 28.008383,34 L1.99161703,34 C0.891677316,34 0,33.1080589 0,32.0000796 L0,1.9999204 L0,1.9999204 Z" id="Shape" fill-opacity="0.05" fill="#000000" sketch:type="MSShapeGroup"></path>
            <path d="M23,7 L30,8 L30,14 L23,7 Z" id="Rectangle-1376-Copy-5" fill-opacity="0.1" fill="#000000" sketch:type="MSShapeGroup"></path>
            <path d="M22,0 L30,8 L23.9981014,8 C22.8945804,8 22,7.11329365 22,6.00189865 L22,0 Z" id="Rectangle-378" fill="#FDB293" sketch:type="MSShapeGroup"></path>
            <path d="M9.98201036,10.8363316 C9.43966102,10.9267232 9,11.4463114 9,11.9975446 L9,20 C7.91819565,20.2584913 7,21.2116304 7,22.3885565 C7,23.6205 8.00369565,24.6197348 9.24233043,24.6197348 C10.4281783,24.6197348 11.3887522,23.7015391 11.4697913,22.5424565 L11.4839174,22.4056565 C11.4854043,22.3803783 11.4690478,13.3114304 11.4690478,13.3114304 L18.7722348,12.1337609 L18.7722348,17.209487 C18.7558783,17.209487 18.7417522,17.2050261 18.7253957,17.2050261 C17.4867609,17.2050261 16.4823217,18.2035174 16.4823217,19.4362043 C16.4823217,20.6688913 17.4867609,21.6673826 18.7253957,21.6673826 C19.9246261,21.6673826 20.8956087,20.729113 21,20 L21,9.9955775 C21,9.44573523 20.558682,9.073553 20.0179896,9.16366839 L9.98201036,10.8363316 Z" id="Imported-Layers" fill="#FFFFFF" sketch:type="MSShapeGroup"></path>
        </g>
    </g>
</svg>