<?xml version="1.0" encoding="UTF-8" standalone="no"?>
<svg width="30px" height="34px" viewBox="0 0 30 34" version="1.1" xmlns="http://www.w3.org/2000/svg" xmlns:xlink="http://www.w3.org/1999/xlink" xmlns:sketch="http://www.bohemiancoding.com/sketch/ns">
    <!-- Generator: Sketch 3.3.3 (12072) - http://www.bohemiancoding.com/sketch -->
    <title>word灰</title>
    <desc>Created with Sketch.</desc>
    <defs>
        <path id="path-2" d="M0,1.9999204 C0,0.895394863 0.889997288,0 1.99187866,0 L22.0079956,0 L30,8 L30,32.0029953 C30,33.1059106 29.1021596,34 28.008383,34 L1.99161703,34 C0.891677316,34 0,33.1080589 0,32.0000796 L0,1.9999204 Z"></path>
    </defs>
    <g id="Page-1" stroke="none" stroke-width="1" fill="none" fill-rule="evenodd" sketch:type="MSPage">
        <g id="music-copy" sketch:type="MSLayerGroup">
            <g id="Rectangle-377">
                <use fill="#E1E4E9" sketch:type="MSShapeGroup" xlink:href="#path-2"></use>
            </g>
            <path d="M1,32.0000796 C1,32.5552444 1.44343804,33 1.99161703,33 L28.008383,33 C28.5518766,33 29,32.5516228 29,32.0029953 C29,32.0029953 29.0889861,8.50299581 28.9872092,8.40111714 C26.4249846,5.83632915 21.7328491,1 21.5952759,1 C15.0608101,1 1.99187866,1 1.99187866,1 C1.44394691,1 1,1.44601721 1,1.9999204 L1,32.0000796 Z M0,1.9999204 C0,0.895394863 0.889997288,0 1.99187866,0 L22.0079956,0 L30,8 L30,32.0029953 C30,33.1059106 29.1021596,34 28.008383,34 L1.99161703,34 C0.891677316,34 0,33.1080589 0,32.0000796 L0,1.9999204 L0,1.9999204 Z" id="Shape" fill-opacity="0.05" fill="#000000" sketch:type="MSShapeGroup"></path>
            <path d="M23,7 L30,8 L30,15 L23,7 Z" id="Rectangle-1376-Copy-41" fill-opacity="0.1" fill="#000000" sketch:type="MSShapeGroup"></path>
            <path d="M22,0 L30,8.00762939 L23.9981014,8.00762939 C22.8945804,8.00762939 22,7.12007741 22,6.0076225 L22,0 Z" id="Rectangle-378-Copy-14" fill="#ECECEC" sketch:type="MSShapeGroup"></path>
            <path d="M22.6968801,11.2333333 L18.2695734,11.2333333 C18.1897868,11.2333333 18.1236534,11.2890133 18.1236534,11.3564267 L18.1236534,12.8352533 C18.1236534,12.9026667 18.1897868,12.9583467 18.2695734,12.9583467 L19.9224801,12.9583467 C20.0137868,12.9583467 20.0831201,13.0287467 20.0660534,13.10512 L18.7956534,18.9717867 L18.3549068,18.9717867 L16.5360268,11.33296 C16.5234401,11.2755733 16.4632801,11.2333333 16.3926668,11.2333333 L13.7663201,11.2333333 C13.6980534,11.2333333 13.6378934,11.27344 13.6240268,11.3301867 L11.5809334,18.9717867 L11.1841334,18.9717867 L9.59693343,11.3359467 C9.58541343,11.2764267 9.52397343,11.2333333 9.45336009,11.2333333 L7.14637343,11.2333333 C7.05400009,11.2333333 6.98445343,11.3048 7.00301343,11.3820267 L9.80621343,22.6793067 C9.82008009,22.7369067 9.88024009,22.7778667 9.94978676,22.7778667 L12.5769868,22.7778667 C12.6454668,22.7778667 12.7045601,22.7369067 12.7194934,22.68016 L14.8366134,14.5199467 C14.8701068,14.38896 15.0924001,14.3898133 15.1222668,14.5218667 L17.0625334,22.67824 C17.0764001,22.73584 17.1365601,22.7778667 17.2061068,22.7778667 L19.7684534,22.7778667 C19.8369334,22.7778667 19.8968801,22.7369067 19.9109601,22.68016 L22.8391734,11.38288 C22.8588001,11.3058667 22.7892534,11.2333333 22.6968801,11.2333333" id="Imported-Layers" fill="#FFFFFF" sketch:type="MSShapeGroup"></path>
        </g>
    </g>
</svg>