<?xml version="1.0" encoding="UTF-8" standalone="no"?>
<svg width="24px" height="26px" viewBox="0 0 24 26" version="1.1" xmlns="http://www.w3.org/2000/svg" xmlns:xlink="http://www.w3.org/1999/xlink" xmlns:sketch="http://www.bohemiancoding.com/sketch/ns">
    <!-- Generator: Sketch 3.3.3 (12072) - http://www.bohemiancoding.com/sketch -->
    <title>pdf</title>
    <desc>Created with Sketch.</desc>
    <defs>
        <linearGradient x1="50%" y1="0%" x2="50%" y2="100%" id="linearGradient-1">
            <stop stop-color="#FFFFFF" stop-opacity="0.1" offset="1.95711097%"></stop>
            <stop stop-color="#FFFFFF" stop-opacity="0" offset="100%"></stop>
        </linearGradient>
        <path id="path-2" d="M0,1.99700466 C0,0.89408944 0.892622799,0 1.99508929,0 L18,0 L24,6 L24,24.0092049 C24,25.1086907 23.1029738,26 21.9950534,26 L2.00494659,26 C0.897645164,26 0,25.1050211 0,24.0029953 L0,1.99700466 Z"></path>
    </defs>
    <g id="Page-1" stroke="none" stroke-width="1" fill="none" fill-rule="evenodd" sketch:type="MSPage">
        <g id="pdf" sketch:type="MSLayerGroup">
            <g id="Rectangle-377">
                <use fill="#FA6854" sketch:type="MSShapeGroup" xlink:href="#path-2"></use>
            </g>
            <path d="M1,24.0029953 C1,24.5522223 1.44942024,25 2.00494659,25 L21.9950534,25 C22.5520073,25 23,24.5550745 23,24.0092049 L23.0223278,6.43750628 L17.5671387,1 L1.99271477,1 C1.44458458,1 1,1.44563565 1,1.99700466 L1,24.0029953 Z M2,0 L18,0 L24,6 L24,24 C24,25.1086907 23.1029738,26 22,26 L2,26 C0.897645164,26 0,25.1050211 0,24 L0,2 C0,0.89408944 0.891560412,0 2,0 Z" id="Shape" fill-opacity="0.05" fill="#000000" sketch:type="MSShapeGroup"></path>
            <path d="M19,3 L24,6.04736328 L24,11.0029907 L19,5 L19,3 Z" id="Rectangle-1374" fill-opacity="0.1" fill="#000000" sketch:type="MSShapeGroup"></path>
            <path d="M18,0 L24,6 L19.9979131,6 C18.8944962,6 18,5.10173938 18,4.00208688 L18,0 Z" id="Rectangle-378" fill="#FE9D8F" sketch:type="MSShapeGroup"></path>
            <path d="M18.6336871,14.4013715 C18.31774,13.8700336 17.7984663,13.5452564 17.1717171,13.4856926 C16.4807496,13.422668 15.514424,13.4900643 14.1606916,13.6876993 C13.9722286,13.5217587 13.7873862,13.359279 13.6099756,13.2051783 C12.6817619,12.4022516 11.8638819,11.2423067 11.6637948,10.951774 C11.9183818,8.66048211 11.8011879,7.96229292 11.6510273,7.58523796 C11.2937289,6.6905066 10.6029519,6.15643649 9.803175,6.15643649 C9.18824055,6.15643649 8.61351408,6.48849986 8.30290263,7.02439149 C7.94446082,7.64115867 7.98295377,8.41530532 8.40885353,9.1459176 C8.63428503,9.53299092 8.93536853,9.84756769 9.31648687,10.2455701 C9.58841481,10.5297275 9.91865386,10.8732665 10.3083474,11.3361151 C10.255753,11.7663584 10.1993475,12.1803903 10.1499927,12.543966 C10.0267009,13.4441619 9.86091443,14.135065 9.68617167,14.8665881 L9.66940246,14.935988 C9.52991315,14.9948232 9.38699377,15.0525654 9.24197824,15.1112184 C8.46716464,15.4241558 7.58811517,15.7795347 6.90153046,16.3983055 C5.6238312,17.5475034 5.81134143,18.5101776 5.9510213,18.8708388 C6.17168883,19.4391535 6.71459191,19.7919822 7.36706653,19.7919822 C8.02125617,19.7919822 8.6876416,19.4302281 9.19529124,18.7977958 C9.59889557,18.2961488 10.3129208,17.2760967 10.7567331,15.8824506 C11.5627984,15.5720633 12.84469,15.2130415 13.4493342,15.1112184 L13.7538478,15.0614909 L13.9566028,15.2420037 C14.5989777,15.81469 15.2289664,16.3759008 15.6927874,16.7536844 C16.0700946,17.0604286 16.5478264,17.2292836 17.0394691,17.2292836 L17.0400407,17.2292836 C17.8129488,17.2292836 18.4943884,16.8125195 18.7762254,16.1682473 C19.0094698,15.6332665 18.953636,14.940724 18.6336871,14.4013715 L18.6336871,14.4013715 Z M8.17865805,17.9915904 C7.92273708,18.3088994 7.61936687,18.4992484 7.36706653,18.4992484 C7.3177117,18.4992484 7.19842166,18.4901408 7.16564548,18.4052579 C7.10752493,18.2566218 7.22224155,17.8542477 7.77505372,17.3564258 C8.13158993,17.0352916 8.59083754,16.795215 9.07371449,16.5824613 C8.75509955,17.2238191 8.40847241,17.7056115 8.17865805,17.9915904 L8.17865805,17.9915904 Z M10.4811845,9.5859972 C10.4032458,9.50402873 10.32969,9.42734267 10.2593737,9.35429966 C9.92532343,9.00511398 9.68331328,8.7526511 9.53543936,8.49818455 C9.34888193,8.17777891 9.31057954,7.87668141 9.43006014,7.67012087 C9.50895164,7.53387106 9.65206158,7.44917031 9.803175,7.44917031 C10.0531886,7.44917031 10.2858614,7.67285315 10.440786,8.06174799 C10.4748961,8.14644874 10.5539781,8.47304755 10.4811845,9.5859972 L10.4811845,9.5859972 Z M11.1521434,14.3776917 L11.1807273,14.263118 L11.1593846,14.2733185 C11.2579037,13.8248599 11.3508966,13.3430675 11.4286448,12.7946073 C11.7430674,13.1762161 12.1234235,13.6011771 12.537318,13.985336 C12.1144672,14.0900734 11.6199662,14.2288734 11.1521434,14.3776917 L11.1521434,14.3776917 Z M17.5823722,15.6533032 C17.5071013,15.8247084 17.2940561,15.9365498 17.0400407,15.9365498 C16.8481477,15.9365498 16.6623525,15.8707929 16.5171464,15.752394 C16.2158723,15.5081279 15.8431386,15.1833507 15.4427738,14.8287004 C16.1245945,14.7576611 16.6497756,14.7339813 17.048997,14.7738726 C17.2588027,14.7926343 17.4102972,14.8866248 17.5124369,15.0587586 C17.6359193,15.2662299 17.6406833,15.5197857 17.5823722,15.6533032 L17.5823722,15.6533032 Z" id="Imported-Layers-Copy-10" fill="#FFFFFF" sketch:type="MSShapeGroup"></path>
        </g>
    </g>
</svg>