<?xml version="1.0" encoding="UTF-8" standalone="no"?>
<svg width="32px" height="32px" viewBox="0 0 32 32" version="1.1" xmlns="http://www.w3.org/2000/svg" xmlns:xlink="http://www.w3.org/1999/xlink" xmlns:sketch="http://www.bohemiancoding.com/sketch/ns">
    <!-- Generator: Sketch 3.3.3 (12072) - http://www.bohemiancoding.com/sketch -->
    <title>ie</title>
    <desc>Created with Sketch.</desc>
    <defs></defs>
    <g id="v2" stroke="none" stroke-width="1" fill="none" fill-rule="evenodd" sketch:type="MSPage">
        <g id="Artboard-4" sketch:type="MSArtboardGroup" transform="translate(-215.000000, -1282.000000)">
            <g id="pic-copy-2" sketch:type="MSLayerGroup" transform="translate(24.000000, 1282.000000)">
                <g id="ie" transform="translate(191.000000, 0.000000)" sketch:type="MSShapeGroup">
                    <rect id="Rectangle-873-Copy" fill="#65A6F3" x="0" y="0" width="32" height="32" rx="4"></rect>
                    <path d="M1,4.0042577 L1,4.0042577 L1,27.9957423 C1,29.6572516 2.34361515,31 4.0042577,31 L27.9957423,31 C29.6572516,31 31,29.6563848 31,27.9957423 L31,4.0042577 C31,2.34274837 29.6563848,1 27.9957423,1 L4.0042577,1 C2.34274837,1 1,2.34361515 1,4.0042577 L1,4.0042577 Z M0,4.0042577 C0,1.79276724 1.78902751,0 4.0042577,0 L27.9957423,0 C30.2072328,0 32,1.78902751 32,4.0042577 L32,27.9957423 C32,30.2072328 30.2109725,32 27.9957423,32 L4.0042577,32 C1.79276724,32 0,30.2109725 0,27.9957423 L0,4.0042577 L0,4.0042577 Z" id="Shape-Copy-2" fill-opacity="0.05" fill="#000000"></path>
                    <path d="M24.1554755,6.81813333 C23.3517092,6.0744 22.3274544,6.00506667 21.4048433,6 C20.4222885,6.03786667 19.4285268,6.26186667 18.5796724,6.62933333 C18.1040325,6.79333333 17.6270895,7.00853333 17.1577045,7.27573333 C17.0435509,7.33413333 16.942168,7.4296 16.8373969,7.51466667 C16.6077866,7.49733333 16.3755701,7.48266667 16.1352742,7.48266667 C15.1188381,7.48266667 14.1563514,7.6704 13.2472928,8.04186667 C12.3384947,8.41573333 11.5409834,8.94453333 10.8542375,9.63413333 C10.1682735,10.3221333 9.62878059,11.1312 9.23758303,12.0616 C8.84560361,12.992 8.64883202,14.0045333 8.64883202,15.1029333 C8.64883202,15.2578667 8.67671886,15.392 8.68271322,15.5432 C8.08562223,16.5021333 7.64021476,17.4288 7.34779393,18.3328 C6.91411457,19.6738667 6.72568297,20.7501333 6.75383043,21.7208 C6.79448787,23.1544 7.13277863,24.2186667 7.79163766,24.9781333 C8.3923774,25.656 9.18389436,26 10.1437748,26 C10.3116171,26 10.4724225,25.9896 10.622021,25.9725333 C11.3736624,25.8890667 11.9532915,25.6858667 12.4560364,25.4944 C13.3768232,25.1101333 13.8462081,24.7698667 13.8967693,24.732 L13.3124489,23.5594667 C13.3080183,23.5605333 12.8310753,23.7341333 12.0015071,23.8968 C11.456541,24.0064 11.0520516,24.0466667 10.5639017,24.0128 C10.0851343,23.9829333 9.6511943,23.7925333 9.48152768,23.5346667 C9.24071053,23.1762667 9.13646068,22.5730667 9.17060251,21.7506667 C9.20943558,21.068 9.39239406,20.2906667 9.71061672,19.4053333 C9.99912817,19.8938667 10.3277758,20.3514667 10.7348715,20.7514667 C12.1245219,22.1194667 13.9603617,22.8024 16.2423909,22.8024 C17.8997028,22.8024 19.3654557,22.3997333 20.6401707,21.5904 C21.9141038,20.7813333 22.7475813,19.4386667 23.1395607,17.8578667 L18.8885126,17.8578667 C18.6750611,18.3605333 18.3318184,18.8970667 17.8598272,19.1773333 C17.3873148,19.4549333 16.8665868,19.5968 16.2955583,19.5968 C15.3505334,19.5968 14.6064502,19.2984 14.0638297,18.7002667 C13.5191242,18.1074667 13.2300915,17.3074667 13.1938647,16.3029333 L23.4080041,16.3029333 C23.4080041,15.1328 23.2505868,13.4624 22.9391404,12.4669333 C22.627694,11.4712 22.1632609,10.5968 21.5492293,9.844 C21.168978,9.3776 20.7107999,9.00133333 20.2150919,8.6672 C20.3201236,8.63253333 20.4366228,8.59226667 20.524714,8.56426667 C20.7743923,8.45493333 21.08219,8.39626667 21.3785202,8.33893333 L21.5229062,8.3088 C21.7345334,8.28293333 21.9409481,8.26586667 22.1351135,8.26586667 C22.5802603,8.26586667 22.7798988,8.35573333 22.8474005,8.4 C23.1437307,8.60853333 23.3561398,8.99306667 23.4098285,9.2472 C23.5570814,10.0472 23.5226789,10.5474667 23.5221577,10.5528 L24.774459,10.7872 L24.897995,10.2738667 C24.9485562,10.0029333 25.0238767,9.59253333 25.0053724,9.036 C24.9717518,8.50826667 24.9123294,7.62506667 24.1554755,6.81813333 L24.1554755,6.81813333 Z M13.0591854,13.5896 C13.2022683,12.6970667 13.5316978,12.0418667 14.0485164,11.5013333 C14.5653351,10.9642667 15.2158541,10.6933333 16.0005948,10.6933333 C16.7488481,10.6933333 17.3782566,10.9776 17.8849108,11.5429333 C18.3931288,12.1112 18.6646997,12.7517333 18.7001446,13.5896 L13.0591854,13.5896 L13.0591854,13.5896 Z" id="Imported-Layers" fill="#FFFFFF"></path>
                </g>
            </g>
        </g>
    </g>
</svg>