<?xml version="1.0" encoding="UTF-8" standalone="no"?>
<svg width="30px" height="34px" viewBox="0 0 30 34" version="1.1" xmlns="http://www.w3.org/2000/svg" xmlns:xlink="http://www.w3.org/1999/xlink" xmlns:sketch="http://www.bohemiancoding.com/sketch/ns">
    <!-- Generator: Sketch 3.3.3 (12072) - http://www.bohemiancoding.com/sketch -->
    <title>pic</title>
    <desc>Created with Sketch.</desc>
    <defs>
        <path id="path-2" d="M0,1.9999204 C0,0.895394863 0.892191558,0 1.99678959,0 L22.0622559,0 L30,7.96240234 L30,32.0001075 C30,33.1046176 29.1021596,34 28.008383,34 L1.99161703,34 C0.891677316,34 0,33.1080589 0,32.0000796 L0,1.9999204 Z"></path>
    </defs>
    <g id="Page-1" stroke="none" stroke-width="1" fill="none" fill-rule="evenodd" sketch:type="MSPage">
        <g id="music-copy-2" sketch:type="MSLayerGroup">
            <g id="Rectangle-377">
                <use stroke-opacity="0.05" stroke="#000000" stroke-width="1" fill="#67CCBA" sketch:type="MSShapeGroup" xlink:href="#path-2"></use>
            </g>
            <path d="M1,32.0000796 C1,32.5552444 1.44343804,33 1.99161703,33 L28.008383,33 C28.5518766,33 29,32.5516228 29,32.0029953 C29,32.0029953 29.0889861,8.50299581 28.9872092,8.40111714 C26.4249846,5.83632915 21.7328491,1 21.5952759,1 C15.0608101,1 1.99187866,1 1.99187866,1 C1.44394691,1 1,1.44601721 1,1.9999204 L1,32.0000796 Z M0,1.9999204 C0,0.895394863 0.889997288,0 1.99187866,0 L22.0079956,0 L30,8 L30,32.0029953 C30,33.1059106 29.1021596,34 28.008383,34 L1.99161703,34 C0.891677316,34 0,33.1080589 0,32.0000796 L0,1.9999204 L0,1.9999204 Z" id="Shape" fill-opacity="0.05" fill="#000000" sketch:type="MSShapeGroup"></path>
            <path d="M23,7 L30,8 L30,15 L23,7 Z" id="Rectangle-1376-Copy-41" fill-opacity="0.1" fill="#000000" sketch:type="MSShapeGroup"></path>
            <path d="M22,0 L30,8.00762939 L23.9981014,8.00762939 C22.8945804,8.00762939 22,7.12007741 22,6.0076225 L22,0 Z" id="Rectangle-378-Copy-14" fill="#A8E0D6" sketch:type="MSShapeGroup"></path>
            <path d="M10.0299603,13.9747952 C11.1460206,13.9747952 12.0505025,13.0750241 12.0505025,11.9653133 C12.0505025,10.8551928 11.1460206,9.95542169 10.0299603,9.95542169 C8.91410491,9.95542169 8.00962298,10.8551928 8.00962298,11.9653133 C8.00962298,13.0750241 8.91410491,13.9747952 10.0299603,13.9747952 M12.6938884,21.4952843 L10.9268794,19.0371295 C10.2823143,18.140781 9.23980975,18.1420566 8.59634265,19.0371295 L6.3090697,22.2189964 C5.66428493,23.1153449 6.06134585,24 7.19323301,24 L12.3297695,24 C12.4687847,24 12.5968193,23.9891571 12.7129947,23.968109 C12.828731,23.9891571 12.9563263,24 13.0949023,24 L22.8015924,24 C23.9266716,24 24.3366897,23.1053524 23.6982737,22.1994366 L19.1039626,15.6787992 C18.4670839,14.7747969 17.4305089,14.7726709 16.792093,15.6787992 L12.6938884,21.4952843" id="Imported-Layers" fill="#FFFFFF" sketch:type="MSShapeGroup"></path>
        </g>
    </g>
</svg>