<?xml version="1.0" encoding="UTF-8" standalone="no"?>
<svg width="32px" height="32px" viewBox="0 0 32 32" version="1.1" xmlns="http://www.w3.org/2000/svg" xmlns:xlink="http://www.w3.org/1999/xlink" xmlns:sketch="http://www.bohemiancoding.com/sketch/ns">
    <!-- Generator: Sketch 3.4.1 (15681) - http://www.bohemiancoding.com/sketch -->
    <title>type_flash_smal</title>
    <desc>Created with Sketch.</desc>
    <defs></defs>
    <g id="Page-1" stroke="none" stroke-width="1" fill="none" fill-rule="evenodd" sketch:type="MSPage">
        <g id="type_flash_smal" sketch:type="MSLayerGroup">
            <rect id="Rectangle-873-Copy" fill="#FA6969" sketch:type="MSShapeGroup" x="0" y="0" width="32" height="32" rx="4"></rect>
            <path d="M1,4.0042577 L1,4.0042577 L1,27.9957423 C1,29.6572516 2.34361515,31 4.0042577,31 L27.9957423,31 C29.6572516,31 31,29.6563848 31,27.9957423 L31,4.0042577 C31,2.34274837 29.6563848,1 27.9957423,1 L4.0042577,1 C2.34274837,1 1,2.34361515 1,4.0042577 L1,4.0042577 L1,4.0042577 Z M0,4.0042577 C0,1.79276724 1.78902751,0 4.0042577,0 L27.9957423,0 C30.2072328,0 32,1.78902751 32,4.0042577 L32,27.9957423 C32,30.2072328 30.2109725,32 27.9957423,32 L4.0042577,32 C1.79276724,32 0,30.2109725 0,27.9957423 L0,4.0042577 L0,4.0042577 L0,4.0042577 Z" id="Shape-Copy-11" fill-opacity="0.05" fill="#000000" sketch:type="MSShapeGroup"></path>
            <path d="M7,22.900225 L7,26.4825265 C13.8859262,26.0247646 16.8628781,23.1441047 18.1287726,17.9233397 L23.7887009,17.9233397 L23.7887009,14.3539372 L18.7470211,14.3539372 C19.6412466,8.50832431 25,7.67979335 25,7.58050162 L25,4 C23.3636364,4.11459045 16.0253479,6.33680527 15.1149238,14.331739 C14.2395967,21.9982001 10.2727273,22.7049413 7,22.900225 Z" id="Imported-Layers-Copy-2" fill="#FFFFFF" sketch:type="MSShapeGroup"></path>
        </g>
    </g>
</svg>