<?xml version="1.0" encoding="UTF-8" standalone="no"?>
<svg width="20px" height="20px" viewBox="0 0 20 20" version="1.1" xmlns="http://www.w3.org/2000/svg" xmlns:xlink="http://www.w3.org/1999/xlink" xmlns:sketch="http://www.bohemiancoding.com/sketch/ns">
    <!-- Generator: Sketch 3.3.3 (12072) - http://www.bohemiancoding.com/sketch -->
    <title>上传</title>
    <desc>Created with Sketch.</desc>
    <defs></defs>
    <g id="v2" stroke="none" stroke-width="1" fill="none" fill-rule="evenodd" sketch:type="MSPage">
        <g id="协作icons" sketch:type="MSArtboardGroup" transform="translate(-70.000000, -198.000000)" fill="#398DEE">
            <g id="文件区-icon-+-文件区" sketch:type="MSLayerGroup" transform="translate(41.000000, 170.000000)">
                <g id="文件区-icon" transform="translate(1.000000, 30.000000)" sketch:type="MSShapeGroup">
                    <g id="新建上传导入-4">
                        <g id="Rectangle-571-+-上传-+-Fill-9" transform="translate(30.000000, 0.000000)">
                            <path d="M5.707,5.707 L7,4.414 L7,10 C7,10.552 7.447,11 8,11 C8.553,11 9,10.552 9,10 L9,4.414 L10.293,5.707 C10.488,5.902 10.744,6 11,6 C11.256,6 11.512,5.902 11.707,5.707 C12.098,5.316 12.098,4.684 11.707,4.293 L8.707,1.293 C8.316,0.902 7.684,0.902 7.293,1.293 L4.293,4.293 C3.902,4.684 3.902,5.316 4.293,5.707 C4.488,5.902 4.744,6 5,6 C5.256,6 5.512,5.902 5.707,5.707 Z M14,0 C13.447,0 12.963,0.442 12.963,0.995 C12.963,1.547 13.374,1.989 13.926,1.989 C13.951,2 14.001,2.051 14,2 L14,14 L2,14 L1.989,2.074 C2.001,2.047 2.047,2.001 2,2 C2.553,2 3,1.552 3,1 C3,0.448 2.553,0 2,0 C0.972,0 0,0.972 0,2 L0,14.125 C0,15.159 0.841,16 1.875,16 L14.125,16 C15.159,16 16,15.159 16,14.125 L16,2 C16,0.972 15.028,0 14,0 Z" id="Fill-9"></path>
                        </g>
                    </g>
                </g>
            </g>
        </g>
    </g>
</svg>