<?xml version="1.0" encoding="UTF-8" standalone="no"?>
<svg width="14px" height="12px" viewBox="0 0 14 12" version="1.1" xmlns="http://www.w3.org/2000/svg" xmlns:xlink="http://www.w3.org/1999/xlink" xmlns:sketch="http://www.bohemiancoding.com/sketch/ns">
    <!-- Generator: Sketch 3.3.3 (12072) - http://www.bohemiancoding.com/sketch -->
    <title>Path</title>
    <desc>Created with Sketch.</desc>
    <defs>
        <filter x="-50%" y="-50%" width="200%" height="200%" filterUnits="objectBoundingBox" id="filter-1">
            <feOffset dx="0" dy="0" in="SourceAlpha" result="shadowOffsetOuter1"></feOffset>
            <feGaussianBlur stdDeviation="5" in="shadowOffsetOuter1" result="shadowBlurOuter1"></feGaussianBlur>
            <feColorMatrix values="0 0 0 0 0   0 0 0 0 0   0 0 0 0 0  0 0 0 0.21 0" in="shadowBlurOuter1" type="matrix" result="shadowMatrixOuter1"></feColorMatrix>
            <feMerge>
                <feMergeNode in="shadowMatrixOuter1"></feMergeNode>
                <feMergeNode in="SourceGraphic"></feMergeNode>
            </feMerge>
        </filter>
    </defs>
    <g id="v2" stroke="none" stroke-width="1" fill="none" fill-rule="evenodd" sketch:type="MSPage">
        <g id="弹窗" sketch:type="MSArtboardGroup" transform="translate(-2074.000000, -194.000000)">
            <g id="Group" sketch:type="MSLayerGroup" transform="translate(57.000000, 101.000000)"></g>
            <g id="个人信息-copy" sketch:type="MSLayerGroup" transform="translate(1766.000000, 100.000000)">
                <rect id="Rectangle-2625" stroke="#E0E1E5" fill="#FFFFFF" filter="url(#filter-1)" sketch:type="MSShapeGroup" x="1" y="0" width="400" height="484"></rect>
                <g id="Rectangle-2626-+-私聊" transform="translate(300.000000, 87.000000)" sketch:type="MSShapeGroup">
                    <rect id="Rectangle-2626" stroke="#398DEE" fill="#FFFFFF" x="0" y="0" width="70" height="24" rx="2"></rect>
                    <g id="Rectangle-163-+-Rectangle-+-Rectangle-2-Copy" transform="translate(8.000000, 7.000000)" fill="#4C9CFA">
                        <path d="M1.00684547,-4.70734562e-14 L12.9931545,-4.70734562e-14 C13.5492199,-4.70734562e-14 14,0.455664396 14,0.995397568 L14,9.00460243 C14,9.55434533 13.5500512,10 12.9931545,10 L1.00684547,10 C0.450780073,10 0,9.5443356 0,9.00460243 L0,0.995397568 C0,0.445654671 0.449948758,-4.70734562e-14 1.00684547,-4.70734562e-14 Z M2,11.4308033 C2,11.985659 2.44335318,12.1655164 2.98876429,11.8334349 L6,10 L2,10 L2,11.4308033 L2,11.4308033 Z M2,3 L12,3 L12,4 L2,4 L2,3 Z M2,6 L7.99999989,6 L8,7 L2,7 L2,6 Z" id="Rectangle-163-Copy-2"></path>
                    </g>
                </g>
            </g>
        </g>
    </g>
</svg>